<svg width="406" height="657" viewBox="0 0 406 657" fill="none" xmlns="http://www.w3.org/2000/svg">
<path fill-rule="evenodd" clip-rule="evenodd" d="M0.260246 1.67288C-0.111369 1.26432 -0.0814224 0.63186 0.327137 0.260245C0.735696 -0.11137 1.36815 -0.0814209 1.73977 0.327138L85.9734 92.9349C86.1624 93.1427 86.4302 93.2614 86.7112 93.262L333.439 93.7525C334.075 93.7538 334.616 93.3263 335.023 92.8384C335.574 92.1795 336.402 91.7603 337.327 91.7603C338.984 91.7603 340.327 93.1034 340.327 94.7603C340.327 96.4171 338.984 97.7603 337.327 97.7603C336.397 97.7603 335.566 97.3371 335.016 96.6729C334.61 96.1834 334.071 95.7538 333.435 95.7525L85.8251 95.2602C85.5442 95.2597 85.2764 95.141 85.0874 94.9331L0.260246 1.67288ZM1.32714 89.7602C0.774853 89.7602 0.327137 89.3125 0.327137 88.7602C0.327137 88.208 0.774852 87.7602 1.32714 87.7602H24.3271V87.7602C24.4234 87.7602 24.5155 87.7071 24.5522 87.6181C25.0015 86.5278 26.0747 85.7603 27.3271 85.7603C28.984 85.7603 30.3271 87.1034 30.3271 88.7603C30.3271 90.4171 28.984 91.7603 27.3271 91.7603C26.0747 91.7603 25.0015 90.9927 24.5522 89.9024C24.5155 89.8134 24.4234 89.7602 24.3271 89.7602V89.7602H1.32714ZM255.437 133.76C256.073 133.76 256.613 133.332 257.02 132.843C257.57 132.181 258.399 131.76 259.327 131.76C260.984 131.76 262.327 133.103 262.327 134.76C262.327 136.417 260.984 137.76 259.327 137.76C258.399 137.76 257.57 137.339 257.02 136.678C256.613 136.189 256.073 135.76 255.437 135.76H1.32714C0.774852 135.76 0.327137 135.313 0.327137 134.76C0.327137 134.208 0.774854 133.76 1.32714 133.76H255.437ZM1.32713 198.76C0.774848 198.76 0.327137 198.313 0.327137 197.76C0.327137 197.208 0.774852 196.76 1.32714 196.76H145.327V196.76C145.423 196.76 145.516 196.707 145.552 196.618C146.002 195.528 147.075 194.76 148.327 194.76C149.984 194.76 151.327 196.103 151.327 197.76C151.327 199.417 149.984 200.76 148.327 200.76C147.075 200.76 146.001 199.993 145.552 198.902C145.516 198.813 145.423 198.76 145.327 198.76V198.76H1.32713ZM238.827 229.76C238.547 229.76 238.28 229.878 238.091 230.084L210.685 259.937C210.496 260.143 210.229 260.26 209.948 260.26H1.32713C0.774847 260.26 0.327137 260.708 0.327137 261.26C0.327137 261.813 0.774852 262.26 1.32714 262.26H210.827C211.107 262.26 211.375 262.143 211.564 261.937L238.97 232.084C239.159 231.878 239.426 231.76 239.706 231.76H398.437C399.073 231.76 399.613 232.189 400.02 232.678C400.57 233.339 401.399 233.76 402.327 233.76C403.984 233.76 405.327 232.417 405.327 230.76C405.327 229.103 403.984 227.76 402.327 227.76C401.399 227.76 400.57 228.181 400.02 228.843C399.613 229.332 399.073 229.76 398.437 229.76H238.827ZM129.606 280.068C129.794 279.871 130.055 279.76 130.327 279.76H239.327V279.76C239.423 279.76 239.516 279.707 239.552 279.618C240.002 278.528 241.075 277.76 242.327 277.76C243.984 277.76 245.327 279.103 245.327 280.76C245.327 282.417 243.984 283.76 242.327 283.76C241.075 283.76 240.002 282.993 239.552 281.902C239.516 281.813 239.423 281.76 239.327 281.76V281.76H131.179C130.907 281.76 130.647 281.871 130.458 282.068L70.5482 344.453C70.3596 344.649 70.0992 344.76 69.8269 344.76H1.32714C0.774854 344.76 0.327137 344.313 0.327137 343.76C0.327137 343.208 0.774852 342.76 1.32714 342.76H68.9747C69.2469 342.76 69.5074 342.649 69.696 342.453L129.606 280.068ZM104.327 354.76C104.052 354.76 103.788 354.874 103.599 355.074L63.1916 397.946C63.0026 398.147 62.7393 398.26 62.4638 398.26H1.32714C0.774851 398.26 0.327137 398.708 0.327137 399.26C0.327137 399.813 0.774852 400.26 1.32714 400.26H63.3271H304.863C305.399 400.26 305.874 400.569 306.263 400.937C306.801 401.447 307.527 401.76 308.327 401.76C309.984 401.76 311.327 400.417 311.327 398.76C311.327 397.103 309.984 395.76 308.327 395.76C307.289 395.76 306.373 396.288 305.835 397.09C305.426 397.698 304.832 398.26 304.099 398.26H67.9605C67.0838 398.26 66.6315 397.212 67.2328 396.574L104.463 357.074C104.652 356.874 104.915 356.76 105.19 356.76H238.437C239.073 356.76 239.613 357.189 240.02 357.678C240.57 358.339 241.399 358.76 242.327 358.76C243.984 358.76 245.327 357.417 245.327 355.76C245.327 354.103 243.984 352.76 242.327 352.76C241.399 352.76 240.57 353.181 240.02 353.843C239.613 354.332 239.073 354.76 238.437 354.76H104.327ZM1.32714 426.76C0.774851 426.76 0.327137 426.313 0.327137 425.76C0.327137 425.208 0.774852 424.76 1.32714 424.76H43.8271C44.0861 424.76 44.335 424.861 44.5214 425.041L86.4403 465.48C86.6267 465.66 86.8756 465.76 87.1346 465.76H155.827H313.437C314.073 465.76 314.613 465.332 315.02 464.843C315.57 464.181 316.399 463.76 317.327 463.76C318.984 463.76 320.327 465.103 320.327 466.76C320.327 468.417 318.984 469.76 317.327 469.76C316.399 469.76 315.57 469.339 315.02 468.678C314.613 468.189 314.073 467.76 313.437 467.76H160.329C159.462 467.76 159.006 468.787 159.587 469.431L183.974 496.431C184.163 496.64 184.433 496.76 184.716 496.76H284.327V496.76C284.423 496.76 284.516 496.707 284.552 496.618C285.001 495.528 286.075 494.76 287.327 494.76C288.984 494.76 290.327 496.103 290.327 497.76C290.327 499.417 288.984 500.76 287.327 500.76C286.075 500.76 285.001 499.993 284.552 498.902C284.516 498.813 284.423 498.76 284.327 498.76V498.76H183.827C183.544 498.76 183.275 498.64 183.085 498.431L155.681 468.09C155.491 467.88 155.221 467.76 154.939 467.76H86.3271C86.0681 467.76 85.8192 467.66 85.6328 467.48L43.714 427.041C43.5276 426.861 43.2787 426.76 43.0197 426.76H1.32714ZM63.8271 504.76C63.5537 504.76 63.2923 504.872 63.1035 505.07L24.5594 545.477C24.1638 545.891 23.5013 545.889 23.1081 545.472L1.74074 522.802C1.36193 522.4 0.729022 522.381 0.327122 522.76C-0.074767 523.139 -0.0935 523.772 0.285298 524.174L23.0994 548.379L23.1088 548.389L40.6088 566.456C40.7972 566.65 41.0564 566.76 41.3271 566.76H212.437C213.073 566.76 213.613 567.189 214.02 567.678C214.57 568.339 215.399 568.76 216.327 568.76C217.984 568.76 219.327 567.417 219.327 565.76C219.327 564.103 217.984 562.76 216.327 562.76C215.399 562.76 214.57 563.181 214.02 563.843C213.613 564.332 213.073 564.76 212.437 564.76H42.1743C41.9036 564.76 41.6444 564.65 41.456 564.456L25.883 548.378C25.5094 547.993 25.5071 547.381 25.8777 546.992L63.9597 507.07C64.1485 506.872 64.4099 506.76 64.6833 506.76H163.327V506.76C163.423 506.76 163.516 506.813 163.552 506.902C164.002 507.993 165.075 508.76 166.327 508.76C167.984 508.76 169.327 507.417 169.327 505.76C169.327 504.103 167.984 502.76 166.327 502.76C165.075 502.76 164.002 503.528 163.552 504.618C163.516 504.707 163.423 504.76 163.327 504.76V504.76H63.8271ZM0.262075 575.673C-0.11007 575.265 -0.0809395 574.632 0.327137 574.26C0.735213 573.888 1.36771 573.917 1.73985 574.325L72.9711 652.434C73.1606 652.642 73.4288 652.76 73.71 652.76H228.437C229.073 652.76 229.613 652.332 230.02 651.843C230.57 651.181 231.399 650.76 232.327 650.76C233.984 650.76 235.327 652.103 235.327 653.76C235.327 655.417 233.984 656.76 232.327 656.76C231.399 656.76 230.57 656.339 230.02 655.678C229.613 655.189 229.073 654.76 228.437 654.76H72.8271C72.5459 654.76 72.2777 654.642 72.0882 654.434L0.262075 575.673ZM198.327 59.7603C198.327 59.208 198.775 58.7603 199.327 58.7603H202.327C202.879 58.7603 203.327 59.208 203.327 59.7603V69.7603C203.327 70.3125 202.879 70.7603 202.327 70.7603H199.327C198.775 70.7603 198.327 70.3125 198.327 69.7603V59.7603ZM210.327 59.7603C210.327 59.208 210.775 58.7603 211.327 58.7603H214.327C214.879 58.7603 215.327 59.208 215.327 59.7603V69.7603C215.327 70.3125 214.879 70.7603 214.327 70.7603H211.327C210.775 70.7603 210.327 70.3125 210.327 69.7603V59.7603ZM227.327 59.7603C227.327 59.208 226.879 58.7603 226.327 58.7603H223.327C222.775 58.7603 222.327 59.208 222.327 59.7603V69.7603C222.327 70.3125 222.775 70.7603 223.327 70.7603H226.327C226.879 70.7603 227.327 70.3125 227.327 69.7603V59.7603ZM234.327 59.7603C234.327 59.208 234.775 58.7603 235.327 58.7603H238.327C238.879 58.7603 239.327 59.208 239.327 59.7603V69.7603C239.327 70.3125 238.879 70.7603 238.327 70.7603H235.327C234.775 70.7603 234.327 70.3125 234.327 69.7603V59.7603ZM251.327 59.7603C251.327 59.208 250.879 58.7603 250.327 58.7603H247.327C246.775 58.7603 246.327 59.208 246.327 59.7603V69.7603C246.327 70.3125 246.775 70.7603 247.327 70.7603H250.327C250.879 70.7603 251.327 70.3125 251.327 69.7603V59.7603ZM258.327 59.7603C258.327 59.208 258.775 58.7603 259.327 58.7603H262.327C262.879 58.7603 263.327 59.208 263.327 59.7603V69.7603C263.327 70.3125 262.879 70.7603 262.327 70.7603H259.327C258.775 70.7603 258.327 70.3125 258.327 69.7603V59.7603ZM275.327 59.7603C275.327 59.208 274.879 58.7603 274.327 58.7603H271.327C270.775 58.7603 270.327 59.208 270.327 59.7603V69.7603C270.327 70.3125 270.775 70.7603 271.327 70.7603H274.327C274.879 70.7603 275.327 70.3125 275.327 69.7603V59.7603ZM282.327 59.7603C282.327 59.208 282.775 58.7603 283.327 58.7603H286.327C286.879 58.7603 287.327 59.208 287.327 59.7603V69.7603C287.327 70.3125 286.879 70.7603 286.327 70.7603H283.327C282.775 70.7603 282.327 70.3125 282.327 69.7603V59.7603ZM299.327 59.7603C299.327 59.208 298.879 58.7603 298.327 58.7603H295.327C294.775 58.7603 294.327 59.208 294.327 59.7603V69.7603C294.327 70.3125 294.775 70.7603 295.327 70.7603H298.327C298.879 70.7603 299.327 70.3125 299.327 69.7603V59.7603ZM27.3271 90.5103C28.2936 90.5103 29.0771 89.7268 29.0771 88.7603C29.0771 87.7938 28.2936 87.0103 27.3271 87.0103C26.3606 87.0103 25.5771 87.7938 25.5771 88.7603C25.5771 89.7268 26.3606 90.5103 27.3271 90.5103ZM150.077 197.76C150.077 198.727 149.294 199.51 148.327 199.51C147.361 199.51 146.577 198.727 146.577 197.76C146.577 196.794 147.361 196.01 148.327 196.01C149.294 196.01 150.077 196.794 150.077 197.76ZM242.327 282.51C243.294 282.51 244.077 281.727 244.077 280.76C244.077 279.794 243.294 279.01 242.327 279.01C241.361 279.01 240.577 279.794 240.577 280.76C240.577 281.727 241.361 282.51 242.327 282.51ZM289.077 497.76C289.077 498.727 288.294 499.51 287.327 499.51C286.361 499.51 285.577 498.727 285.577 497.76C285.577 496.794 286.361 496.01 287.327 496.01C288.294 496.01 289.077 496.794 289.077 497.76ZM166.327 507.51C167.294 507.51 168.077 506.727 168.077 505.76C168.077 504.794 167.294 504.01 166.327 504.01C165.361 504.01 164.577 504.794 164.577 505.76C164.577 506.727 165.361 507.51 166.327 507.51Z" fill="#2481DD"/>
</svg>
