<svg width="999" height="648" viewBox="0 0 999 648" fill="none" xmlns="http://www.w3.org/2000/svg">
<path fill-rule="evenodd" clip-rule="evenodd" d="M803.75 3C803.75 3.9665 802.966 4.75 802 4.75C801.034 4.75 800.25 3.9665 800.25 3C800.25 2.0335 801.034 1.25 802 1.25C802.966 1.25 803.75 2.0335 803.75 3ZM805 3C805 4.65685 803.657 6 802 6C801.072 6 800.243 5.57883 799.693 4.91725C799.286 4.42851 798.746 4 798.11 4H411.048C410.646 4 410.26 4.16155 409.978 4.44839L323.213 92.7011V92.7011C323.025 92.8923 322.768 93 322.5 93V93H70.8901C70.2543 93 69.714 93.4285 69.3075 93.9173C68.7572 94.5788 67.9278 95 67 95C65.3431 95 64 93.6569 64 92C64 90.3431 65.3431 89 67 89C67.9278 89 68.7572 89.4212 69.3075 90.0827C69.714 90.5715 70.2543 91 70.8901 91H321.452C321.854 91 322.24 90.8384 322.522 90.5516L409.287 2.29893V2.29893C409.475 2.10772 409.732 2 410 2V2H798.11C798.746 2 799.286 1.57149 799.693 1.08275C800.243 0.42117 801.072 0 802 0C803.657 0 805 1.34315 805 3ZM154.75 9C154.75 9.9665 153.966 10.75 153 10.75C152.034 10.75 151.25 9.9665 151.25 9C151.25 8.0335 152.034 7.25 153 7.25C153.966 7.25 154.75 8.0335 154.75 9ZM156.89 10C156.254 10 155.714 10.4285 155.308 10.9173C154.757 11.5788 153.928 12 153 12C151.343 12 150 10.6569 150 9C150 7.34315 151.343 6 153 6C153.928 6 154.757 6.42116 155.308 7.08273C155.714 7.57147 156.254 8 156.89 8H230.11C230.746 8 231.286 7.57147 231.692 7.08273C232.243 6.42116 233.072 6 234 6C235.657 6 237 7.34315 237 9C237 10.6569 235.657 12 234 12C233.072 12 232.243 11.5788 231.692 10.9173C231.286 10.4285 230.746 10 230.11 10H156.89ZM321 27.75C321.966 27.75 322.75 26.9665 322.75 26C322.75 25.0335 321.966 24.25 321 24.25C320.034 24.25 319.25 25.0335 319.25 26C319.25 26.9665 320.034 27.75 321 27.75ZM321 29C322.657 29 324 27.6569 324 26C324 24.3431 322.657 23 321 23C320.072 23 319.243 23.4212 318.693 24.0827C318.286 24.5715 317.746 25 317.11 25H21.89C21.2543 25 20.714 24.5715 20.3074 24.0828C19.7571 23.4213 18.9278 23.0001 18 23.0001C16.3431 23.0001 15 24.3433 15 26.0001C15 27.657 16.3431 29.0001 18 29.0001C18.9278 29.0001 19.7573 28.5789 20.3075 27.9173C20.7141 27.4286 21.2544 27 21.8902 27H317.11C317.746 27 318.286 27.4285 318.693 27.9173C319.243 28.5788 320.072 29 321 29ZM18 27.7501C18.9665 27.7501 19.75 26.9666 19.75 26.0001C19.75 25.0336 18.9665 24.2501 18 24.2501C17.0335 24.2501 16.25 25.0336 16.25 26.0001C16.25 26.9666 17.0335 27.7501 18 27.7501ZM609 69.0001C609.928 69.0001 610.757 68.5789 611.308 67.9173C611.714 67.4286 612.254 67 612.89 67H737.11C737.746 67 738.286 67.4285 738.693 67.9172C739.243 68.5788 740.072 69 741 69C742.657 69 744 67.6569 744 66C744 64.3431 742.657 63 741 63C740.072 63 739.243 63.4212 738.693 64.0828C738.286 64.5715 737.746 65 737.11 65H612.89C612.254 65 611.714 64.5715 611.307 64.0828C610.757 63.4213 609.928 63.0001 609 63.0001C607.343 63.0001 606 64.3433 606 66.0001C606 67.657 607.343 69.0001 609 69.0001ZM387.89 85C387.254 85 386.714 84.5715 386.307 84.0827C385.757 83.4212 384.928 83 384 83C382.343 83 381 84.3431 381 86C381 87.6569 382.343 89 384 89C384.928 89 385.757 88.5788 386.307 87.9173C386.714 87.4285 387.254 87 387.89 87H489.063C489.425 87 489.776 87.1315 490.049 87.37L519.427 113.018C519.927 113.454 520.041 114.171 520.005 114.834C520.002 114.889 520 114.944 520 115C520 116.657 521.343 118 523 118C524.657 118 526 116.657 526 115C526 113.343 524.657 112 523 112C522.871 112 522.744 112.008 522.619 112.024C522.016 112.1 521.363 112.053 520.905 111.653L490.658 85.2467V85.2467C490.476 85.0876 490.242 85 490 85V85H387.89ZM149 134C149.928 134 150.757 133.579 151.308 132.917C151.714 132.429 152.254 132 152.89 132H543V132C543.236 132 543.464 131.917 543.644 131.765V131.765L573.893 106.317C574.353 105.931 574.997 105.891 575.592 105.972C575.725 105.991 575.861 106 576 106C577.657 106 579 104.657 579 103C579 101.343 577.657 100 576 100C574.343 100 573 101.343 573 103C573 103.045 573.001 103.091 573.003 103.135C573.033 103.806 572.91 104.531 572.396 104.963L543.054 129.648C542.784 129.875 542.442 130 542.088 130H152.89C152.254 130 151.714 129.572 151.307 129.083C150.757 128.421 149.928 128 149 128C147.343 128 146 129.343 146 131C146 132.657 147.343 134 149 134ZM6.89015 232C6.2544 232 5.71409 232.428 5.30755 232.917C4.75725 233.579 3.92781 234 3 234C1.34315 234 0 232.657 0 231C0 229.343 1.34315 228 3 228C3.92775 228 4.75715 228.421 5.30744 229.083C5.71398 229.571 6.25427 230 6.88997 230H169V230C169.274 230 169.536 230.113 169.725 230.311V230.311L196.986 259.033C197.269 259.331 197.663 259.5 198.074 259.5H453.519C453.898 259.5 454.262 259.357 454.539 259.1L479.416 236.032C480.04 235.454 480.059 234.473 479.457 233.871L444.025 198.439C443.744 198.158 443.362 198 442.964 198H264.89C264.254 198 263.714 198.429 263.307 198.917C262.757 199.579 261.928 200 261 200C259.343 200 258 198.657 258 197C258 195.343 259.343 194 261 194C261.928 194 262.757 194.421 263.307 195.083C263.714 195.571 264.254 196 264.89 196H444V196C444.265 196 444.52 196.105 444.707 196.293V196.293L482.707 234.293L482.716 234.301L482.724 234.31L542.985 297.535C543.268 297.832 543.661 298 544.071 298H670.5V298C670.748 298 670.986 298.092 671.17 298.258V298.258L691.67 316.758L691.689 316.775L691.707 316.793L720.475 345.561C720.756 345.842 721.138 346 721.536 346H747H997C997.552 346 998 346.448 998 347V347C998 347.552 997.552 348 997 348H748.049C747.647 348 747.261 348.162 746.979 348.449L721.214 374.7V374.7C721.026 374.892 720.768 375 720.5 375V375H466.036C465.638 375 465.256 375.158 464.975 375.439L439.207 401.207V401.207C439.02 401.395 438.765 401.5 438.5 401.5V401.5H347.5H103.5C102.948 401.5 102.5 401.052 102.5 400.5V400.5C102.5 399.948 102.948 399.5 103.5 399.5H341.464C342.801 399.5 343.47 397.884 342.525 396.939L303.605 358.019C303.593 358.007 303.576 358 303.559 358V358H303.506H303.45H303.391H303.33H303.266H303.198H303.128H303.056H302.98H302.901H302.82H302.736H302.649H302.56H302.467H302.372H302.274H302.174H302.071H301.965H301.856H301.745H301.631H301.515H301.396H301.274H301.15H301.023H300.893H300.761H300.627H300.49H300.35H300.208H300.063H299.916H299.766H299.614H299.46H299.303H299.143H298.982H298.817H298.651H298.482H298.31H298.137H297.961H297.782H297.602H297.419H297.233H297.046H296.856H296.664H296.47H296.273H296.074H295.873H295.67H295.465H295.257H295.048H294.836H294.622H294.406H294.188H293.967H293.745H293.521H293.294H293.066H292.835H292.602H292.368H292.131H291.893H291.652H291.41H291.165H290.919H290.671H290.42H290.168H289.914H289.658H289.4H289.141H288.879H288.616H288.351H288.084H287.816H287.545H287.273H286.999H286.723H286.446H286.167H285.886H285.603H285.319H285.033H284.746H284.456H284.166H283.873H283.579H283.283H282.986H282.688H282.387H282.085H281.782H281.477H281.171H280.863H280.553H280.242H279.93H279.616H279.301H278.984H278.666H278.347H278.026H277.704H277.38H277.055H276.729H276.401H276.072H275.742H275.411H275.078H274.744H274.409H274.072H273.734H273.396H273.055H272.714H272.372H272.028H271.683H271.337H270.99H270.642H270.293H269.942H269.591H269.238H268.884H268.53H268.174H267.817H267.46H267.101H266.741H266.381H266.019H265.657H265.293H264.929H264.563H264.197H263.83H263.462H263.093H262.724H262.353H261.982H261.61H261.237H260.863H260.489H260.114H259.738H259.361H258.983H258.605H258.226H257.847H257.467H257.086H256.704H256.322H255.939H255.556H255.172H254.787H254.402H254.017H253.63H253.243H252.856H252.468H252.08H251.691H251.302H250.912H250.522H250.131H249.74H249.348H248.956H248.564H248.171H247.778H247.385H246.991H246.597H246.202H245.808H245.413H245.017H244.622H244.226H243.83H243.433H243.037H242.64H242.243H241.846H241.449H241.051H240.654H240.256H239.858H239.46H239.062H238.664H238.265H237.867H237.469H237.07H236.672H236.273H235.875H235.477H235.078H234.68H234.281H233.883H233.485H233.087H232.689H232.291H231.893H231.496H231.098H230.701H230.304H229.907H229.51H229.113H228.717H228.321H227.925H227.529H227.134H226.739H226.344H225.95H225.555H225.162H224.768H224.375H223.982H223.59H223.198H222.806H222.415H222.024H221.634H221.244H220.855H220.466H220.077H219.689H219.302H218.915H218.529H218.143H217.758H217.373H216.989H216.605H216.223H215.84H215.459H215.078H214.698H214.318H213.939H213.561H213.183H212.806H212.43H212.055H211.68H211.307H210.934H210.561H210.19H209.819H209.45H209.081H208.713H208.345H207.979H207.614H207.249H206.886H206.523H206.161H205.8H205.441H205.082H204.724H204.367H204.011H203.657H203.303H202.95H202.599H202.248H201.899H201.55H201.203H200.857H200.512H200.168H199.825H199.484H199.144H198.804H198.467H198.13H197.794H197.46H197.127H196.796H196.465H196.136H195.809H195.482H195.157H194.833H194.511H194.19H193.87H193.552H193.235H192.92H192.606H192.293H191.982H191.673H191.364H191.058H190.753H190.449H190.147H189.846H189.547H189.25H188.954H188.66H188.367H188.076H187.787H187.499H187.213H186.929H186.646H186.365H186.085H185.808H185.532H185.258H184.985H184.714H184.446H184.178H183.913H183.65H183.388H183.128H182.87H182.614H182.36H182.107H181.857H181.608H181.362H181.117H180.874H180.633H180.394H180.158H179.923H179.69H179.459H179.23H179.004H178.779H178.556H178.336H178.117H177.901H177.687H177.475H177.265H177.057H176.851H176.648H176.446H176.247H176.051H175.856H175.664H175.474H175.286H175.1H174.917H174.736H174.557H174.381H174.207H174.035H173.866H173.699H173.534H173.372H173.213H173.055H172.9H172.748H172.598H172.451H172.306H172.163H172.023H171.886H171.751H171.618H171.489H171.361H171.237H171.115H170.995H170.878H170.764H170.653H170.544H170.438H170.334H170.233H170.135H170.04H169.947H169.857H169.77H169.685H169.604H169.525H169.449H169.376H169.305H169.238H169.173H169.111H169.052H168.996H168.943H168.892H168.845V358C168.836 358 168.827 358.006 168.824 358.015C168.408 359.172 167.301 360 166 360C164.343 360 163 358.657 163 357C163 355.343 164.343 354 166 354C167.301 354 168.408 354.828 168.824 355.985C168.827 355.994 168.836 356 168.845 356V356H168.892H168.943H168.996H169.052H169.111H169.173H169.238H169.305H169.376H169.449H169.525H169.604H169.685H169.77H169.857H169.947H170.04H170.135H170.233H170.334H170.438H170.544H170.653H170.764H170.878H170.995H171.115H171.237H171.361H171.489H171.618H171.751H171.886H172.023H172.163H172.306H172.451H172.598H172.748H172.9H173.055H173.213H173.372H173.534H173.699H173.866H174.035H174.207H174.381H174.557H174.736H174.917H175.1H175.286H175.474H175.664H175.856H176.051H176.247H176.446H176.648H176.851H177.057H177.265H177.475H177.687H177.901H178.117H178.336H178.556H178.779H179.004H179.23H179.459H179.69H179.923H180.158H180.394H180.633H180.874H181.117H181.362H181.608H181.857H182.107H182.36H182.614H182.87H183.128H183.388H183.65H183.913H184.178H184.446H184.714H184.985H185.258H185.532H185.808H186.085H186.365H186.646H186.929H187.213H187.499H187.787H188.076H188.367H188.66H188.954H189.25H189.547H189.846H190.147H190.449H190.753H191.058H191.364H191.673H191.982H192.293H192.606H192.92H193.235H193.552H193.87H194.19H194.511H194.833H195.157H195.482H195.809H196.136H196.465H196.796H197.127H197.46H197.794H198.13H198.467H198.804H199.144H199.484H199.825H200.168H200.512H200.857H201.203H201.55H201.899H202.248H202.599H202.95H203.303H203.657H204.011H204.367H204.724H205.082H205.441H205.8H206.161H206.523H206.886H207.249H207.614H207.979H208.345H208.713H209.081H209.45H209.819H210.19H210.561H210.934H211.307H211.68H212.055H212.43H212.806H213.183H213.561H213.939H214.318H214.698H215.078H215.459H215.84H216.223H216.605H216.989H217.373H217.758H218.143H218.529H218.915H219.302H219.689H220.077H220.466H220.855H221.244H221.634H222.024H222.415H222.806H223.198H223.59H223.982H224.375H224.768H225.162H225.555H225.95H226.344H226.739H227.134H227.529H227.925H228.321H228.717H229.113H229.51H229.907H230.304H230.701H231.098H231.496H231.893H232.291H232.689H233.087H233.485H233.883H234.281H234.68H235.078H235.477H235.875H236.273H236.672H237.07H237.469H237.867H238.265H238.664H239.062H239.46H239.858H240.256H240.654H241.051H241.449H241.846H242.243H242.64H243.037H243.433H243.83H244.226H244.622H245.017H245.413H245.808H246.202H246.597H246.991H247.385H247.778H248.171H248.564H248.956H249.348H249.74H250.131H250.522H250.912H251.302H251.691H252.08H252.468H252.856H253.243H253.63H254.017H254.402H254.787H255.172H255.556H255.939H256.322H256.704H257.086H257.467H257.847H258.226H258.605H258.983H259.361H259.738H260.114H260.489H260.863H261.237H261.61H261.982H262.353H262.724H263.093H263.462H263.83H264.197H264.563H264.929H265.293H265.657H266.019H266.381H266.741H267.101H267.46H267.817H268.174H268.53H268.884H269.238H269.591H269.942H270.293H270.642H270.99H271.337H271.683H272.028H272.372H272.714H273.055H273.396H273.734H274.072H274.409H274.744H275.078H275.411H275.742H276.072H276.401H276.729H277.055H277.38H277.704H278.026H278.347H278.666H278.984H279.301H279.616H279.93H280.242H280.553H280.863H281.171H281.477H281.782H282.085H282.387H282.688H282.986H283.283H283.579H283.873H284.166H284.456H284.746H285.033H285.319H285.603H285.886H286.167H286.446H286.723H286.999H287.273H287.545H287.816H288.084H288.351H288.616H288.879H289.141H289.4H289.658H289.914H290.168H290.42H290.671H290.919H291.165H291.41H291.652H291.893H292.131H292.368H292.602H292.835H293.066H293.294H293.521H293.745H293.967H294.188H294.406H294.622H294.836H295.048H295.257H295.465H295.67H295.873H296.074H296.273H296.47H296.664H296.856H297.046H297.233H297.419H297.602H297.782H297.961H298.137H298.31H298.482H298.651H298.817H298.982H299.143H299.303H299.46H299.614H299.766H299.916H300.063H300.208H300.35H300.49H300.627H300.761H300.893H301.023H301.15H301.274H301.396H301.515H301.631H301.745H301.856H301.965H302.071H302.174H302.274H302.372H302.467H302.56H302.649H302.736H302.82H302.901H302.98H303.056H303.128H303.198H303.266H303.33H303.391H303.45H303.506H303.559H303.608H303.655H303.699H303.74H303.779H303.814H303.846H303.875H303.901H303.924H303.944H303.961H303.975H303.986H303.994H303.998C303.999 356 304 356 304 357V356.293C304 356.131 304.131 356 304.293 356V356C304.371 356 304.445 356.031 304.5 356.086L304.707 356.293L347.475 399.061C347.756 399.342 348.138 399.5 348.536 399.5H437.464C437.862 399.5 438.244 399.342 438.525 399.061L464.293 373.293V373.293C464.48 373.105 464.735 373 465 373V373H719.451C719.853 373 720.239 372.838 720.521 372.551L742.114 350.551C743.045 349.602 742.373 348 741.043 348H720.5V348C720.235 348 719.98 347.895 719.793 347.707V347.707L692.149 320.063C691.543 319.457 690.553 319.481 689.977 320.115L667.241 345.172V345.172C667.051 345.381 666.782 345.5 666.5 345.5V345.5H341V345.5C340.732 345.5 340.475 345.392 340.287 345.201V345.201L278.522 282.448C278.24 282.161 277.855 282 277.453 282H155.89C155.254 282 154.714 282.429 154.308 282.917C153.757 283.579 152.928 284 152 284C150.343 284 149 282.657 149 281C149 279.343 150.343 278 152 278C152.928 278 153.757 278.421 154.308 279.083C154.714 279.571 155.254 280 155.89 280H278.5V280C278.768 280 279.025 280.108 279.213 280.299V280.299L340.978 343.052C341.26 343.339 341.645 343.5 342.047 343.5H665.393C665.816 343.5 666.219 343.321 666.504 343.008L688.575 318.684C689.133 318.07 689.085 317.119 688.469 316.563L670.544 300.386C670.268 300.138 669.91 300 669.539 300H543V300C542.726 300 542.465 299.888 542.276 299.69V299.69L482.977 237.475C482.411 236.881 481.473 236.852 480.872 237.41L455.18 261.233V261.233C454.995 261.405 454.752 261.5 454.5 261.5V261.5H197V261.5C196.726 261.5 196.463 261.387 196.275 261.188V261.188L169.014 232.467C168.731 232.169 168.337 232 167.926 232H6.89015ZM799 79C800.657 79 802 77.6569 802 76C802 74.3431 800.657 73 799 73C798.933 73 798.866 73.0022 798.799 73.0066C798.155 73.0492 797.459 72.9502 797.019 72.4772L758.732 31.3189V31.3189C758.543 31.1155 758.278 31 758 31V31H630.89C630.254 31 629.714 30.5715 629.307 30.0828C628.757 29.4212 627.928 29 627 29C625.343 29 624 30.3431 624 32C624 33.6569 625.343 35 627 35C627.928 35 628.757 34.5788 629.307 33.9172C629.714 33.4285 630.254 33 630.89 33H756.911C757.328 33 757.726 33.1733 758.009 33.4783L795.607 73.8956C796.033 74.3541 796.092 75.0289 796.02 75.6509C796.007 75.7654 796 75.8819 796 76C796 77.6569 797.343 79 799 79ZM262.75 197C262.75 197.966 261.966 198.75 261 198.75C260.034 198.75 259.25 197.966 259.25 197C259.25 196.034 260.034 195.25 261 195.25C261.966 195.25 262.75 196.034 262.75 197ZM152 282.75C152.966 282.75 153.75 281.966 153.75 281C153.75 280.034 152.966 279.25 152 279.25C151.034 279.25 150.25 280.034 150.25 281C150.25 281.966 151.034 282.75 152 282.75ZM296.75 160C296.75 160.966 295.966 161.75 295 161.75C294.034 161.75 293.25 160.966 293.25 160C293.25 159.034 294.034 158.25 295 158.25C295.966 158.25 296.75 159.034 296.75 160ZM298.89 161C298.254 161 297.714 161.429 297.307 161.917C296.757 162.579 295.928 163 295 163C293.343 163 292 161.657 292 160C292 158.343 293.343 157 295 157C295.928 157 296.757 157.421 297.307 158.083C297.714 158.571 298.254 159 298.89 159H604V159C604.254 159 604.498 159.096 604.683 159.269V159.269L626.517 179.68C627.02 180.15 627.777 180.174 628.454 180.05C628.631 180.017 628.814 180 629 180C630.657 180 632 181.343 632 183C632 184.657 630.657 186 629 186C627.343 186 626 184.657 626 183V183C626 182.424 625.878 181.82 625.457 181.426L604.038 161.404C603.76 161.144 603.394 161 603.013 161H298.89ZM425 50.7501C425.966 50.7501 426.75 49.9666 426.75 49.0001C426.75 48.0336 425.966 47.2501 425 47.2501C424.034 47.2501 423.25 48.0336 423.25 49.0001C423.25 49.9666 424.034 50.7501 425 50.7501ZM425 52.0001C425.928 52.0001 426.757 51.5789 427.308 50.9173C427.714 50.4286 428.254 50 428.89 50H490C490.552 50 491 49.5523 491 49V49C491 48.4477 490.552 48 490 48H428.89C428.254 48 427.714 47.5715 427.307 47.0828C426.757 46.4213 425.928 46.0001 425 46.0001C423.343 46.0001 422 47.3433 422 49.0001C422 50.657 423.343 52.0001 425 52.0001ZM385.75 86C385.75 86.9665 384.966 87.75 384 87.75C383.034 87.75 382.25 86.9665 382.25 86C382.25 85.0335 383.034 84.25 384 84.25C384.966 84.25 385.75 85.0335 385.75 86ZM234 10.75C234.966 10.75 235.75 9.9665 235.75 9C235.75 8.0335 234.966 7.25 234 7.25C233.034 7.25 232.25 8.0335 232.25 9C232.25 9.9665 233.034 10.75 234 10.75ZM68.75 92C68.75 92.9665 67.9665 93.75 67 93.75C66.0335 93.75 65.25 92.9665 65.25 92C65.25 91.0335 66.0335 90.25 67 90.25C67.9665 90.25 68.75 91.0335 68.75 92ZM523 116.75C523.966 116.75 524.75 115.966 524.75 115C524.75 114.034 523.966 113.25 523 113.25C522.034 113.25 521.25 114.034 521.25 115C521.25 115.966 522.034 116.75 523 116.75ZM577.75 103C577.75 103.966 576.966 104.75 576 104.75C575.034 104.75 574.25 103.966 574.25 103C574.25 102.034 575.034 101.25 576 101.25C576.966 101.25 577.75 102.034 577.75 103ZM629 184.75C629.966 184.75 630.75 183.966 630.75 183C630.75 182.034 629.966 181.25 629 181.25C628.034 181.25 627.25 182.034 627.25 183C627.25 183.966 628.034 184.75 629 184.75ZM753.75 140C753.75 140.966 752.966 141.75 752 141.75C751.034 141.75 750.25 140.966 750.25 140C750.25 139.034 751.034 138.25 752 138.25C752.966 138.25 753.75 139.034 753.75 140ZM755 140C755 141.657 753.657 143 752 143C751.072 143 750.243 142.579 749.693 141.917C749.286 141.429 748.746 141 748.11 141H654V141C653.735 141 653.48 140.895 653.293 140.707V140.707L563.025 50.4393C562.744 50.158 562.362 50 561.964 50H515C514.448 50 514 49.5523 514 49V49C514 48.4477 514.448 48 515 48H563V48C563.265 48 563.52 48.1054 563.707 48.2929V48.2929L653.975 138.561C654.256 138.842 654.638 139 655.036 139H748.11C748.746 139 749.286 138.571 749.693 138.083C750.243 137.421 751.072 137 752 137C753.657 137 755 138.343 755 140ZM844 313.75C844.966 313.75 845.75 312.966 845.75 312C845.75 311.034 844.966 310.25 844 310.25C843.034 310.25 842.25 311.034 842.25 312C842.25 312.966 843.034 313.75 844 313.75ZM844 315C844.928 315 845.757 314.579 846.307 313.917C846.714 313.429 847.254 313 847.89 313H997C997.552 313 998 312.552 998 312V312C998 311.448 997.552 311 997 311H847.89C847.254 311 846.714 310.571 846.307 310.083C845.757 309.421 844.928 309 844 309C842.343 309 841 310.343 841 312C841 313.657 842.343 315 844 315ZM795.75 378C795.75 378.966 794.966 379.75 794 379.75C793.034 379.75 792.25 378.966 792.25 378C792.25 377.034 793.034 376.25 794 376.25C794.966 376.25 795.75 377.034 795.75 378ZM797.89 379C797.254 379 796.714 379.429 796.307 379.917C795.757 380.579 794.928 381 794 381C792.343 381 791 379.657 791 378C791 376.343 792.343 375 794 375C794.928 375 795.757 375.421 796.307 376.083C796.714 376.571 797.254 377 797.89 377H997C997.552 377 998 377.448 998 378V378C998 378.552 997.552 379 997 379H797.89ZM884 431.75C884.966 431.75 885.75 430.966 885.75 430C885.75 429.034 884.966 428.25 884 428.25C883.034 428.25 882.25 429.034 882.25 430C882.25 430.966 883.034 431.75 884 431.75ZM884 433C884.928 433 885.757 432.579 886.307 431.917C886.714 431.429 887.254 431 887.89 431H997C997.552 431 998 430.552 998 430V430C998 429.448 997.552 429 997 429H887.89C887.254 429 886.714 428.571 886.307 428.083C885.757 427.421 884.928 427 884 427C882.343 427 881 428.343 881 430C881 431.657 882.343 433 884 433ZM760.75 400C760.75 400.966 759.966 401.75 759 401.75C758.034 401.75 757.25 400.966 757.25 400C757.25 399.034 758.034 398.25 759 398.25C759.966 398.25 760.75 399.034 760.75 400ZM760.579 403.54C760.183 403.121 759.577 403 759 403V403C757.343 403 756 401.657 756 400C756 398.343 757.343 397 759 397C760.657 397 762 398.343 762 400C762 400.184 761.983 400.364 761.952 400.538C761.829 401.218 761.855 401.979 762.33 402.481L777.479 418.521C777.765 418.824 778.165 418.994 778.582 418.991L836.992 418.5V418.5C837.24 418.498 837.481 418.589 837.666 418.754V418.754L861.166 439.754L861.187 439.773L861.207 439.793L875.475 454.061C875.756 454.342 876.138 454.5 876.536 454.5H997C997.552 454.5 998 454.948 998 455.5V455.5C998 456.052 997.552 456.5 997 456.5H875.5V456.5C875.235 456.5 874.98 456.395 874.793 456.207V456.207L861.645 443.06C861.04 442.454 860.052 442.478 859.476 443.11L830.739 474.673V474.673C830.55 474.881 830.281 475 830 475V475H740.709C739.386 475 738.711 476.588 739.628 477.541L743.483 481.541C743.765 481.834 744.155 482 744.563 482H997C997.552 482 998 482.448 998 483V483C998 483.552 997.552 484 997 484H743.5V484C743.228 484 742.968 483.889 742.78 483.694V483.694L734.845 475.459C734.563 475.166 734.173 475 733.765 475H595.89C595.254 475 594.714 475.429 594.307 475.917C593.757 476.579 592.928 477 592 477C590.343 477 589 475.657 589 474C589 472.343 590.343 471 592 471C592.928 471 593.757 471.421 594.307 472.083C594.714 472.571 595.254 473 595.89 473H728.948C730.271 473 730.946 471.412 730.028 470.459L651.017 388.459C650.735 388.166 650.345 388 649.937 388H551.89C551.254 388 550.714 388.429 550.307 388.917C549.757 389.579 548.928 390 548 390C546.343 390 545 388.657 545 387C545 385.343 546.343 384 548 384C548.928 384 549.757 384.421 550.307 385.083C550.714 385.571 551.254 386 551.89 386H651V386C651.272 386 651.532 386.111 651.72 386.306V386.306L734.811 472.541C735.093 472.834 735.483 473 735.891 473H828.895C829.317 473 829.72 472.822 830.004 472.51L858.062 441.693C858.623 441.076 858.574 440.12 857.952 439.564L837.054 420.89C836.776 420.641 836.415 420.505 836.042 420.508L777.508 421V421C777.23 421.002 776.964 420.889 776.773 420.687V420.687L760.579 403.54ZM592 475.75C592.966 475.75 593.75 474.966 593.75 474C593.75 473.034 592.966 472.25 592 472.25C591.034 472.25 590.25 473.034 590.25 474C590.25 474.966 591.034 475.75 592 475.75ZM742.75 66C742.75 66.9665 741.966 67.75 741 67.75C740.034 67.75 739.25 66.9665 739.25 66C739.25 65.0335 740.034 64.25 741 64.25C741.966 64.25 742.75 65.0335 742.75 66ZM627 33.75C627.966 33.75 628.75 32.9665 628.75 32C628.75 31.0335 627.966 30.25 627 30.25C626.034 30.25 625.25 31.0335 625.25 32C625.25 32.9665 626.034 33.75 627 33.75ZM825 58.75C825.966 58.75 826.75 57.9665 826.75 57C826.75 56.0335 825.966 55.25 825 55.25C824.034 55.25 823.25 56.0335 823.25 57C823.25 57.9665 824.034 58.75 825 58.75ZM825 60C826.657 60 828 58.6569 828 57V57C828 56.4243 828.123 55.8205 828.544 55.4279L878.462 8.90271C878.739 8.64391 879.105 8.5 879.484 8.5H997C997.552 8.5 998 8.05228 998 7.5V7.5C998 6.94772 997.552 6.5 997 6.5H878.5V6.5C878.247 6.5 878.003 6.59596 877.818 6.76847V6.76847L827.484 53.6821C826.981 54.151 826.224 54.1748 825.548 54.0499C825.37 54.0171 825.187 54 825 54C823.343 54 822 55.3431 822 57C822 58.6569 823.343 60 825 60ZM903.75 78C903.75 78.9665 902.966 79.75 902 79.75C901.034 79.75 900.25 78.9665 900.25 78C900.25 77.0335 901.034 76.25 902 76.25C902.966 76.25 903.75 77.0335 903.75 78ZM905 78C905 79.6569 903.657 81 902 81C901.072 81 900.243 80.5788 899.693 79.9172C899.286 79.4285 898.746 79 898.11 79H838.036C837.638 79 837.256 79.158 836.975 79.4393L810.914 105.5C810.524 105.891 809.891 105.891 809.5 105.5V105.5C809.109 105.109 809.109 104.476 809.5 104.086L836.293 77.2929V77.2929C836.48 77.1054 836.735 77 837 77V77H898.11C898.746 77 899.286 76.5715 899.693 76.0828C900.243 75.4212 901.072 75 902 75C903.657 75 905 76.3431 905 78ZM549.75 387C549.75 387.966 548.966 388.75 548 388.75C547.034 388.75 546.25 387.966 546.25 387C546.25 386.034 547.034 385.25 548 385.25C548.966 385.25 549.75 386.034 549.75 387ZM724 517.75C724.966 517.75 725.75 516.966 725.75 516C725.75 515.034 724.966 514.25 724 514.25C723.034 514.25 722.25 515.034 722.25 516C722.25 516.966 723.034 517.75 724 517.75ZM724 519C725.657 519 727 517.657 727 516C727 514.343 725.657 513 724 513C723.072 513 722.243 513.421 721.693 514.083C721.286 514.571 720.746 515 720.11 515H471V515C470.719 515 470.451 515.118 470.262 515.325V515.325L355.004 641.466C354.563 641.949 353.856 642.05 353.203 642.007C353.136 642.002 353.068 642 353 642C351.343 642 350 643.343 350 645C350 646.657 351.343 648 353 648C354.657 648 356 646.657 356 645C356 644.883 355.993 644.768 355.98 644.654C355.91 644.041 355.967 643.377 356.384 642.921L470.995 517.488C471.279 517.177 471.681 517 472.102 517H720.11C720.746 517 721.286 517.429 721.693 517.917C722.243 518.579 723.072 519 724 519ZM682.75 535C682.75 535.966 681.966 536.75 681 536.75C680.034 536.75 679.25 535.966 679.25 535C679.25 534.034 680.034 533.25 681 533.25C681.966 533.25 682.75 534.034 682.75 535ZM681 538C681.928 538 682.757 537.579 683.307 536.917C683.714 536.429 684.254 536 684.89 536H997C997.552 536 998 535.552 998 535V535C998 534.448 997.552 534 997 534H684.89C684.254 534 683.714 533.571 683.307 533.083C682.757 532.421 681.928 532 681 532C679.343 532 678 533.343 678 535C678 536.657 679.343 538 681 538ZM741 606.75C741.966 606.75 742.75 605.966 742.75 605C742.75 604.034 741.966 603.25 741 603.25C740.034 603.25 739.25 604.034 739.25 605C739.25 605.966 740.034 606.75 741 606.75ZM744.89 606C744.254 606 743.714 606.429 743.307 606.917C742.757 607.579 741.928 608 741 608C739.343 608 738 606.657 738 605C738 603.343 739.343 602 741 602C741.928 602 742.757 602.421 743.307 603.083C743.714 603.571 744.254 604 744.89 604H946.069C946.429 604 946.778 603.87 947.05 603.635L975.846 578.743V578.743C976.028 578.586 976.26 578.5 976.5 578.5V578.5H997C997.552 578.5 998 578.948 998 579.5V579.5C998 580.052 997.552 580.5 997 580.5H977.431C977.071 580.5 976.722 580.63 976.45 580.865L947.654 605.757V605.757C947.472 605.914 947.24 606 947 606V606H744.89ZM694.75 589C694.75 589.966 693.966 590.75 693 590.75C692.034 590.75 691.25 589.966 691.25 589C691.25 588.034 692.034 587.25 693 587.25C693.966 587.25 694.75 588.034 694.75 589ZM696 589C696 589.176 695.985 589.349 695.956 589.517C695.836 590.205 695.87 590.974 696.356 591.474L729.981 626.046C730.263 626.336 730.651 626.5 731.056 626.5H982.964C983.362 626.5 983.744 626.342 984.025 626.061L996.586 613.5C996.976 613.109 997.609 613.109 998 613.5V613.5C998.391 613.891 998.391 614.524 998 614.914L984.707 628.207V628.207C984.52 628.395 984.265 628.5 984 628.5V628.5H730V628.5C729.73 628.5 729.471 628.391 729.283 628.197V628.197L694.586 592.523C694.187 592.112 693.586 591.997 693.014 592C693.009 592 693.005 592 693 592C691.343 592 690 590.657 690 589C690 587.343 691.343 586 693 586C694.657 586 696 587.343 696 589ZM432 625.75C432.966 625.75 433.75 624.966 433.75 624C433.75 623.034 432.966 622.25 432 622.25C431.034 622.25 430.25 623.034 430.25 624C430.25 624.966 431.034 625.75 432 625.75ZM432 627C432.928 627 433.757 626.579 434.307 625.917C434.714 625.429 435.254 625 435.89 625H497.464C497.862 625 498.244 625.158 498.525 625.439L513.618 640.532C514.116 641.03 514.157 641.809 514.041 642.504C514.014 642.665 514 642.831 514 643C514 644.657 515.343 646 517 646C518.657 646 520 644.657 520 643C520 641.343 518.657 640 517 640C516.99 640 516.98 640 516.97 640C516.404 640.006 515.811 639.897 515.411 639.497L499.207 623.293V623.293C499.02 623.105 498.765 623 498.5 623V623H435.89C435.254 623 434.714 622.571 434.307 622.083C433.757 621.421 432.928 621 432 621C430.343 621 429 622.343 429 624C429 625.657 430.343 627 432 627ZM354.75 645C354.75 645.966 353.966 646.75 353 646.75C352.034 646.75 351.25 645.966 351.25 645C351.25 644.034 352.034 643.25 353 643.25C353.966 643.25 354.75 644.034 354.75 645ZM448 590.75C448.966 590.75 449.75 589.966 449.75 589C449.75 588.034 448.966 587.25 448 587.25C447.034 587.25 446.25 588.034 446.25 589C446.25 589.966 447.034 590.75 448 590.75ZM451.89 590C451.254 590 450.714 590.429 450.307 590.917C449.757 591.579 448.928 592 448 592C446.343 592 445 590.657 445 589C445 587.343 446.343 586 448 586C448.928 586 449.757 586.421 450.307 587.083C450.714 587.571 451.254 588 451.89 588H554.5V588C554.741 588 554.975 588.087 555.157 588.246V588.246L585.404 614.59C585.805 614.939 586.36 615.021 586.891 615.002C586.927 615.001 586.964 615 587 615C588.657 615 590 616.343 590 618C590 619.657 588.657 621 587 621C585.343 621 584 619.657 584 618C584 617.868 584.009 617.737 584.025 617.609C584.12 616.878 584.044 616.058 583.488 615.574L554.549 590.369C554.276 590.131 553.926 590 553.564 590H451.89ZM475.75 559C475.75 559.966 474.966 560.75 474 560.75C473.034 560.75 472.25 559.966 472.25 559C472.25 558.034 473.034 557.25 474 557.25C474.966 557.25 475.75 558.034 475.75 559ZM477.89 560C477.254 560 476.714 560.429 476.307 560.917C475.757 561.579 474.928 562 474 562C472.343 562 471 560.657 471 559C471 557.343 472.343 556 474 556C474.928 556 475.757 556.421 476.307 557.083C476.714 557.571 477.254 558 477.89 558H638.521C639.929 558 640.561 556.235 639.474 555.341L609.057 530.341C608.789 530.121 608.452 530 608.104 530H579.89C579.254 530 578.714 530.429 578.307 530.917C577.757 531.579 576.928 532 576 532C574.343 532 573 530.657 573 529C573 527.343 574.343 526 576 526C576.928 526 577.757 526.421 578.307 527.083C578.714 527.571 579.254 528 579.89 528H609V528C609.232 528 609.456 528.08 609.635 528.227V528.227L645.443 557.659C645.711 557.879 646.048 558 646.396 558H680.5H997C997.552 558 998 558.448 998 559V559C998 559.552 997.552 560 997 560H681.576C681.164 560 680.77 560.17 680.487 560.469L603.412 641.934C602.983 642.388 602.918 643.06 602.983 643.681C602.994 643.786 603 643.892 603 644C603 645.657 601.657 647 600 647C598.343 647 597 645.657 597 644C597 642.343 598.343 641 600 641C600.078 641 600.155 641.003 600.231 641.009C600.877 641.058 601.575 640.966 602.02 640.495L675.783 562.531C676.687 561.575 676.01 560 674.693 560H645.5H477.89ZM576 530.75C576.966 530.75 577.75 529.966 577.75 529C577.75 528.034 576.966 527.25 576 527.25C575.034 527.25 574.25 528.034 574.25 529C574.25 529.966 575.034 530.75 576 530.75ZM588.75 618C588.75 618.966 587.966 619.75 587 619.75C586.034 619.75 585.25 618.966 585.25 618C585.25 617.034 586.034 616.25 587 616.25C587.966 616.25 588.75 617.034 588.75 618ZM517 644.75C517.966 644.75 518.75 643.966 518.75 643C518.75 642.034 517.966 641.25 517 641.25C516.034 641.25 515.25 642.034 515.25 643C515.25 643.966 516.034 644.75 517 644.75ZM601.75 644C601.75 644.966 600.966 645.75 600 645.75C599.034 645.75 598.25 644.966 598.25 644C598.25 643.034 599.034 642.25 600 642.25C600.966 642.25 601.75 643.034 601.75 644ZM86 471.75C86.9665 471.75 87.75 470.966 87.75 470C87.75 469.034 86.9665 468.25 86 468.25C85.0335 468.25 84.25 469.034 84.25 470C84.25 470.966 85.0335 471.75 86 471.75ZM88.3075 468.083C88.714 468.571 89.2543 469 89.89 469H323.964C324.362 469 324.744 468.842 325.025 468.561L367.293 426.293V426.293C367.48 426.105 367.735 426 368 426V426H518V426C518.265 426 518.52 426.105 518.707 426.293V426.293L591.475 499.061C591.756 499.342 592.138 499.5 592.536 499.5H786.5V499.5C786.71 499.5 786.916 499.566 787.086 499.69V499.69L809.93 516.215C810.186 516.4 810.494 516.5 810.809 516.5H997C997.552 516.5 998 516.948 998 517.5V517.5C998 518.052 997.552 518.5 997 518.5H810V518.5C809.79 518.5 809.584 518.434 809.414 518.31V518.31L786.57 501.785C786.314 501.6 786.006 501.5 785.691 501.5H591.5V501.5C591.235 501.5 590.98 501.395 590.793 501.207V501.207L518.025 428.439C517.744 428.158 517.362 428 516.964 428H369.036C368.638 428 368.256 428.158 367.975 428.439L325.707 470.707V470.707C325.52 470.895 325.265 471 325 471V471H89.8901C89.2543 471 88.714 471.429 88.3075 471.917C87.7572 472.579 86.9278 473 86 473C84.3431 473 83 471.657 83 470C83 468.343 84.3431 467 86 467C86.9278 467 87.7572 467.421 88.3075 468.083ZM167.75 357C167.75 357.966 166.966 358.75 166 358.75C165.034 358.75 164.25 357.966 164.25 357C164.25 356.034 165.034 355.25 166 355.25C166.966 355.25 167.75 356.034 167.75 357ZM190 571.75C190.966 571.75 191.75 570.966 191.75 570C191.75 569.034 190.966 568.25 190 568.25C189.034 568.25 188.25 569.034 188.25 570C188.25 570.966 189.034 571.75 190 571.75ZM192.308 568.083C192.714 568.571 193.254 569 193.89 569H368.88C369.307 569 369.715 568.818 369.999 568.498L384.191 552.586C384.718 551.995 384.695 551.097 384.138 550.533L343.523 509.445C343.241 509.16 342.857 509 342.456 509H247.89C247.254 509 246.714 509.429 246.308 509.917C245.757 510.579 244.928 511 244 511C242.343 511 241 509.657 241 508C241 506.343 242.343 505 244 505C244.928 505 245.757 505.421 246.308 506.083C246.714 506.571 247.254 507 247.89 507H343.5V507C343.767 507 344.023 507.107 344.211 507.297V507.297L385.366 548.93C385.969 549.54 386.958 549.522 387.538 548.89L458.263 471.824V471.824C458.453 471.617 458.72 471.5 459 471.5V471.5H522.5C523.052 471.5 523.5 471.948 523.5 472.5V472.5C523.5 473.052 523.052 473.5 522.5 473.5H460.099C459.679 473.5 459.278 473.676 458.994 473.986L387.246 552.166L387.237 552.176L370.746 570.666V570.666C370.557 570.878 370.285 571 370 571V571H193.89C193.254 571 192.714 571.429 192.308 571.917C191.757 572.579 190.928 573 190 573C188.343 573 187 571.657 187 570C187 568.343 188.343 567 190 567C190.928 567 191.757 567.421 192.308 568.083ZM245.75 508C245.75 508.966 244.966 509.75 244 509.75C243.034 509.75 242.25 508.966 242.25 508C242.25 507.034 243.034 506.25 244 506.25C244.966 506.25 245.75 507.034 245.75 508ZM496 49C496 49.5523 496.448 50 497 50H503.5C504.052 50 504.5 49.5523 504.5 49V49C504.5 48.4477 504.052 48 503.5 48H497C496.448 48 496 48.4477 496 49V49ZM372.5 61C372.5 61.5523 372.948 62 373.5 62H386.5C387.052 62 387.5 61.5523 387.5 61V61C387.5 60.4477 387.052 60 386.5 60H373.5C372.948 60 372.5 60.4477 372.5 61V61ZM251 474C251.391 474.391 251.391 475.024 251 475.414L224.707 501.707V501.707C224.52 501.895 224.265 502 224 502V502H116.5C115.948 502 115.5 501.552 115.5 501V501C115.5 500.448 115.948 500 116.5 500H222.964C223.362 500 223.744 499.842 224.025 499.561L249.586 474C249.976 473.609 250.609 473.609 251 474V474Z" fill="#2481DD"/>
</svg>
