<svg width="215" height="72" viewBox="0 0 215 72" fill="none" xmlns="http://www.w3.org/2000/svg">
<path fill-rule="evenodd" clip-rule="evenodd" d="M3.5 7C5.433 7 7 5.433 7 3.5C7 1.567 5.433 0 3.5 0C1.567 0 0 1.567 0 3.5C0 5.433 1.567 7 3.5 7ZM20.8335 7C22.7665 7 24.3335 5.433 24.3335 3.5C24.3335 1.567 22.7665 0 20.8335 0C18.9005 0 17.3335 1.567 17.3335 3.5C17.3335 5.433 18.9005 7 20.8335 7ZM41.6665 3.5C41.6665 5.433 40.0995 7 38.1665 7C36.2335 7 34.6665 5.433 34.6665 3.5C34.6665 1.567 36.2335 0 38.1665 0C40.0995 0 41.6665 1.567 41.6665 3.5ZM55.5 7C57.433 7 59 5.433 59 3.5C59 1.567 57.433 0 55.5 0C53.567 0 52 1.567 52 3.5C52 5.433 53.567 7 55.5 7ZM76.3335 3.5C76.3335 5.433 74.7665 7 72.8335 7C70.9005 7 69.3335 5.433 69.3335 3.5C69.3335 1.567 70.9005 0 72.8335 0C74.7665 0 76.3335 1.567 76.3335 3.5ZM90.1665 7C92.0995 7 93.6665 5.433 93.6665 3.5C93.6665 1.567 92.0995 0 90.1665 0C88.2335 0 86.6665 1.567 86.6665 3.5C86.6665 5.433 88.2335 7 90.1665 7ZM111 3.5C111 5.433 109.433 7 107.5 7C105.567 7 104 5.433 104 3.5C104 1.567 105.567 0 107.5 0C109.433 0 111 1.567 111 3.5ZM124.833 7C126.766 7 128.333 5.433 128.333 3.5C128.333 1.567 126.766 0 124.833 0C122.9 0 121.333 1.567 121.333 3.5C121.333 5.433 122.9 7 124.833 7ZM145.667 3.5C145.667 5.433 144.1 7 142.167 7C140.234 7 138.667 5.433 138.667 3.5C138.667 1.567 140.234 0 142.167 0C144.1 0 145.667 1.567 145.667 3.5ZM159.5 7C161.433 7 163 5.433 163 3.5C163 1.567 161.433 0 159.5 0C157.567 0 156 1.567 156 3.5C156 5.433 157.567 7 159.5 7ZM180.333 3.5C180.333 5.433 178.766 7 176.833 7C174.9 7 173.333 5.433 173.333 3.5C173.333 1.567 174.9 0 176.833 0C178.766 0 180.333 1.567 180.333 3.5ZM194.167 7C196.1 7 197.667 5.433 197.667 3.5C197.667 1.567 196.1 0 194.167 0C192.234 0 190.667 1.567 190.667 3.5C190.667 5.433 192.234 7 194.167 7ZM215 3.5C215 5.433 213.433 7 211.5 7C209.567 7 208 5.433 208 3.5C208 1.567 209.567 0 211.5 0C213.433 0 215 1.567 215 3.5ZM3.5 20C5.433 20 7 18.433 7 16.5C7 14.567 5.433 13 3.5 13C1.567 13 0 14.567 0 16.5C0 18.433 1.567 20 3.5 20ZM20.8335 20C22.7665 20 24.3335 18.433 24.3335 16.5C24.3335 14.567 22.7665 13 20.8335 13C18.9005 13 17.3335 14.567 17.3335 16.5C17.3335 18.433 18.9005 20 20.8335 20ZM41.6665 16.5C41.6665 18.433 40.0995 20 38.1665 20C36.2335 20 34.6665 18.433 34.6665 16.5C34.6665 14.567 36.2335 13 38.1665 13C40.0995 13 41.6665 14.567 41.6665 16.5ZM55.5 20C57.433 20 59 18.433 59 16.5C59 14.567 57.433 13 55.5 13C53.567 13 52 14.567 52 16.5C52 18.433 53.567 20 55.5 20ZM76.3335 16.5C76.3335 18.433 74.7665 20 72.8335 20C70.9005 20 69.3335 18.433 69.3335 16.5C69.3335 14.567 70.9005 13 72.8335 13C74.7665 13 76.3335 14.567 76.3335 16.5ZM90.1665 20C92.0995 20 93.6665 18.433 93.6665 16.5C93.6665 14.567 92.0995 13 90.1665 13C88.2335 13 86.6665 14.567 86.6665 16.5C86.6665 18.433 88.2335 20 90.1665 20ZM111 16.5C111 18.433 109.433 20 107.5 20C105.567 20 104 18.433 104 16.5C104 14.567 105.567 13 107.5 13C109.433 13 111 14.567 111 16.5ZM124.833 20C126.766 20 128.333 18.433 128.333 16.5C128.333 14.567 126.766 13 124.833 13C122.9 13 121.333 14.567 121.333 16.5C121.333 18.433 122.9 20 124.833 20ZM145.667 16.5C145.667 18.433 144.1 20 142.167 20C140.234 20 138.667 18.433 138.667 16.5C138.667 14.567 140.234 13 142.167 13C144.1 13 145.667 14.567 145.667 16.5ZM159.5 20C161.433 20 163 18.433 163 16.5C163 14.567 161.433 13 159.5 13C157.567 13 156 14.567 156 16.5C156 18.433 157.567 20 159.5 20ZM180.333 16.5C180.333 18.433 178.766 20 176.833 20C174.9 20 173.333 18.433 173.333 16.5C173.333 14.567 174.9 13 176.833 13C178.766 13 180.333 14.567 180.333 16.5ZM194.167 20C196.1 20 197.667 18.433 197.667 16.5C197.667 14.567 196.1 13 194.167 13C192.234 13 190.667 14.567 190.667 16.5C190.667 18.433 192.234 20 194.167 20ZM215 16.5C215 18.433 213.433 20 211.5 20C209.567 20 208 18.433 208 16.5C208 14.567 209.567 13 211.5 13C213.433 13 215 14.567 215 16.5ZM7 29.5C7 31.433 5.433 33 3.5 33C1.567 33 0 31.433 0 29.5C0 27.567 1.567 26 3.5 26C5.433 26 7 27.567 7 29.5ZM24.3335 29.5C24.3335 31.433 22.7665 33 20.8335 33C18.9005 33 17.3335 31.433 17.3335 29.5C17.3335 27.567 18.9005 26 20.8335 26C22.7665 26 24.3335 27.567 24.3335 29.5ZM38.1665 33C40.0995 33 41.6665 31.433 41.6665 29.5C41.6665 27.567 40.0995 26 38.1665 26C36.2335 26 34.6665 27.567 34.6665 29.5C34.6665 31.433 36.2335 33 38.1665 33ZM59 29.5C59 31.433 57.433 33 55.5 33C53.567 33 52 31.433 52 29.5C52 27.567 53.567 26 55.5 26C57.433 26 59 27.567 59 29.5ZM72.8335 33C74.7665 33 76.3335 31.433 76.3335 29.5C76.3335 27.567 74.7665 26 72.8335 26C70.9005 26 69.3335 27.567 69.3335 29.5C69.3335 31.433 70.9005 33 72.8335 33ZM93.6665 29.5C93.6665 31.433 92.0995 33 90.1665 33C88.2335 33 86.6665 31.433 86.6665 29.5C86.6665 27.567 88.2335 26 90.1665 26C92.0995 26 93.6665 27.567 93.6665 29.5ZM107.5 33C109.433 33 111 31.433 111 29.5C111 27.567 109.433 26 107.5 26C105.567 26 104 27.567 104 29.5C104 31.433 105.567 33 107.5 33ZM128.333 29.5C128.333 31.433 126.766 33 124.833 33C122.9 33 121.333 31.433 121.333 29.5C121.333 27.567 122.9 26 124.833 26C126.766 26 128.333 27.567 128.333 29.5ZM142.167 33C144.1 33 145.667 31.433 145.667 29.5C145.667 27.567 144.1 26 142.167 26C140.234 26 138.667 27.567 138.667 29.5C138.667 31.433 140.234 33 142.167 33ZM163 29.5C163 31.433 161.433 33 159.5 33C157.567 33 156 31.433 156 29.5C156 27.567 157.567 26 159.5 26C161.433 26 163 27.567 163 29.5ZM176.833 33C178.766 33 180.333 31.433 180.333 29.5C180.333 27.567 178.766 26 176.833 26C174.9 26 173.333 27.567 173.333 29.5C173.333 31.433 174.9 33 176.833 33ZM197.667 29.5C197.667 31.433 196.1 33 194.167 33C192.234 33 190.667 31.433 190.667 29.5C190.667 27.567 192.234 26 194.167 26C196.1 26 197.667 27.567 197.667 29.5ZM211.5 33C213.433 33 215 31.433 215 29.5C215 27.567 213.433 26 211.5 26C209.567 26 208 27.567 208 29.5C208 31.433 209.567 33 211.5 33ZM3.5 46C5.433 46 7 44.433 7 42.5C7 40.567 5.433 39 3.5 39C1.567 39 0 40.567 0 42.5C0 44.433 1.567 46 3.5 46ZM20.8335 46C22.7665 46 24.3335 44.433 24.3335 42.5C24.3335 40.567 22.7665 39 20.8335 39C18.9005 39 17.3335 40.567 17.3335 42.5C17.3335 44.433 18.9005 46 20.8335 46ZM41.6665 42.5C41.6665 44.433 40.0995 46 38.1665 46C36.2335 46 34.6665 44.433 34.6665 42.5C34.6665 40.567 36.2335 39 38.1665 39C40.0995 39 41.6665 40.567 41.6665 42.5ZM55.5 46C57.433 46 59 44.433 59 42.5C59 40.567 57.433 39 55.5 39C53.567 39 52 40.567 52 42.5C52 44.433 53.567 46 55.5 46ZM76.3335 42.5C76.3335 44.433 74.7665 46 72.8335 46C70.9005 46 69.3335 44.433 69.3335 42.5C69.3335 40.567 70.9005 39 72.8335 39C74.7665 39 76.3335 40.567 76.3335 42.5ZM90.1665 46C92.0995 46 93.6665 44.433 93.6665 42.5C93.6665 40.567 92.0995 39 90.1665 39C88.2335 39 86.6665 40.567 86.6665 42.5C86.6665 44.433 88.2335 46 90.1665 46ZM111 42.5C111 44.433 109.433 46 107.5 46C105.567 46 104 44.433 104 42.5C104 40.567 105.567 39 107.5 39C109.433 39 111 40.567 111 42.5ZM124.833 46C126.766 46 128.333 44.433 128.333 42.5C128.333 40.567 126.766 39 124.833 39C122.9 39 121.333 40.567 121.333 42.5C121.333 44.433 122.9 46 124.833 46ZM145.667 42.5C145.667 44.433 144.1 46 142.167 46C140.234 46 138.667 44.433 138.667 42.5C138.667 40.567 140.234 39 142.167 39C144.1 39 145.667 40.567 145.667 42.5ZM159.5 46C161.433 46 163 44.433 163 42.5C163 40.567 161.433 39 159.5 39C157.567 39 156 40.567 156 42.5C156 44.433 157.567 46 159.5 46ZM180.333 42.5C180.333 44.433 178.766 46 176.833 46C174.9 46 173.333 44.433 173.333 42.5C173.333 40.567 174.9 39 176.833 39C178.766 39 180.333 40.567 180.333 42.5ZM194.167 46C196.1 46 197.667 44.433 197.667 42.5C197.667 40.567 196.1 39 194.167 39C192.234 39 190.667 40.567 190.667 42.5C190.667 44.433 192.234 46 194.167 46ZM215 42.5C215 44.433 213.433 46 211.5 46C209.567 46 208 44.433 208 42.5C208 40.567 209.567 39 211.5 39C213.433 39 215 40.567 215 42.5ZM7 55.5C7 57.433 5.433 59 3.5 59C1.567 59 0 57.433 0 55.5C0 53.567 1.567 52 3.5 52C5.433 52 7 53.567 7 55.5ZM24.3335 55.5C24.3335 57.433 22.7665 59 20.8335 59C18.9005 59 17.3335 57.433 17.3335 55.5C17.3335 53.567 18.9005 52 20.8335 52C22.7665 52 24.3335 53.567 24.3335 55.5ZM38.1665 59C40.0995 59 41.6665 57.433 41.6665 55.5C41.6665 53.567 40.0995 52 38.1665 52C36.2335 52 34.6665 53.567 34.6665 55.5C34.6665 57.433 36.2335 59 38.1665 59ZM59 55.5C59 57.433 57.433 59 55.5 59C53.567 59 52 57.433 52 55.5C52 53.567 53.567 52 55.5 52C57.433 52 59 53.567 59 55.5ZM72.8335 59C74.7665 59 76.3335 57.433 76.3335 55.5C76.3335 53.567 74.7665 52 72.8335 52C70.9005 52 69.3335 53.567 69.3335 55.5C69.3335 57.433 70.9005 59 72.8335 59ZM93.6665 55.5C93.6665 57.433 92.0995 59 90.1665 59C88.2335 59 86.6665 57.433 86.6665 55.5C86.6665 53.567 88.2335 52 90.1665 52C92.0995 52 93.6665 53.567 93.6665 55.5ZM107.5 59C109.433 59 111 57.433 111 55.5C111 53.567 109.433 52 107.5 52C105.567 52 104 53.567 104 55.5C104 57.433 105.567 59 107.5 59ZM128.333 55.5C128.333 57.433 126.766 59 124.833 59C122.9 59 121.333 57.433 121.333 55.5C121.333 53.567 122.9 52 124.833 52C126.766 52 128.333 53.567 128.333 55.5ZM142.167 59C144.1 59 145.667 57.433 145.667 55.5C145.667 53.567 144.1 52 142.167 52C140.234 52 138.667 53.567 138.667 55.5C138.667 57.433 140.234 59 142.167 59ZM163 55.5C163 57.433 161.433 59 159.5 59C157.567 59 156 57.433 156 55.5C156 53.567 157.567 52 159.5 52C161.433 52 163 53.567 163 55.5ZM176.833 59C178.766 59 180.333 57.433 180.333 55.5C180.333 53.567 178.766 52 176.833 52C174.9 52 173.333 53.567 173.333 55.5C173.333 57.433 174.9 59 176.833 59ZM197.667 55.5C197.667 57.433 196.1 59 194.167 59C192.234 59 190.667 57.433 190.667 55.5C190.667 53.567 192.234 52 194.167 52C196.1 52 197.667 53.567 197.667 55.5ZM211.5 59C213.433 59 215 57.433 215 55.5C215 53.567 213.433 52 211.5 52C209.567 52 208 53.567 208 55.5C208 57.433 209.567 59 211.5 59ZM3.5 72C5.433 72 7 70.433 7 68.5C7 66.567 5.433 65 3.5 65C1.567 65 0 66.567 0 68.5C0 70.433 1.567 72 3.5 72ZM20.8335 72C22.7665 72 24.3335 70.433 24.3335 68.5C24.3335 66.567 22.7665 65 20.8335 65C18.9005 65 17.3335 66.567 17.3335 68.5C17.3335 70.433 18.9005 72 20.8335 72ZM41.6665 68.5C41.6665 70.433 40.0995 72 38.1665 72C36.2335 72 34.6665 70.433 34.6665 68.5C34.6665 66.567 36.2335 65 38.1665 65C40.0995 65 41.6665 66.567 41.6665 68.5ZM55.5 72C57.433 72 59 70.433 59 68.5C59 66.567 57.433 65 55.5 65C53.567 65 52 66.567 52 68.5C52 70.433 53.567 72 55.5 72ZM76.3335 68.5C76.3335 70.433 74.7665 72 72.8335 72C70.9005 72 69.3335 70.433 69.3335 68.5C69.3335 66.567 70.9005 65 72.8335 65C74.7665 65 76.3335 66.567 76.3335 68.5ZM90.1665 72C92.0995 72 93.6665 70.433 93.6665 68.5C93.6665 66.567 92.0995 65 90.1665 65C88.2335 65 86.6665 66.567 86.6665 68.5C86.6665 70.433 88.2335 72 90.1665 72ZM111 68.5C111 70.433 109.433 72 107.5 72C105.567 72 104 70.433 104 68.5C104 66.567 105.567 65 107.5 65C109.433 65 111 66.567 111 68.5ZM124.833 72C126.766 72 128.333 70.433 128.333 68.5C128.333 66.567 126.766 65 124.833 65C122.9 65 121.333 66.567 121.333 68.5C121.333 70.433 122.9 72 124.833 72ZM145.667 68.5C145.667 70.433 144.1 72 142.167 72C140.234 72 138.667 70.433 138.667 68.5C138.667 66.567 140.234 65 142.167 65C144.1 65 145.667 66.567 145.667 68.5ZM159.5 72C161.433 72 163 70.433 163 68.5C163 66.567 161.433 65 159.5 65C157.567 65 156 66.567 156 68.5C156 70.433 157.567 72 159.5 72ZM180.333 68.5C180.333 70.433 178.766 72 176.833 72C174.9 72 173.333 70.433 173.333 68.5C173.333 66.567 174.9 65 176.833 65C178.766 65 180.333 66.567 180.333 68.5ZM194.167 72C196.1 72 197.667 70.433 197.667 68.5C197.667 66.567 196.1 65 194.167 65C192.234 65 190.667 66.567 190.667 68.5C190.667 70.433 192.234 72 194.167 72ZM215 68.5C215 70.433 213.433 72 211.5 72C209.567 72 208 70.433 208 68.5C208 66.567 209.567 65 211.5 65C213.433 65 215 66.567 215 68.5Z" fill="url(#paint0_linear_2525_156)"/>
<defs>
<linearGradient id="paint0_linear_2525_156" x1="215" y1="36" x2="0" y2="36" gradientUnits="userSpaceOnUse">
<stop stop-color="#00AEF0"/>
<stop offset="1" stop-color="#243C82"/>
</linearGradient>
</defs>
</svg>
