<svg width="377" height="414" viewBox="0 0 377 414" fill="none" xmlns="http://www.w3.org/2000/svg">
<path opacity="0.8" fill-rule="evenodd" clip-rule="evenodd" d="M116.961 88.4445C116.183 88.7726 115.282 88.4056 114.966 87.622L110.706 77.0432C110.515 76.5698 110.746 76.0316 111.221 75.8437V75.8437C111.694 75.6565 111.925 75.1217 111.738 74.6491L109.88 69.9581C109.688 69.4724 109.138 69.2346 108.653 69.4269V69.4269C108.169 69.6185 107.622 69.3834 107.427 68.9008L86.8724 17.8563C86.5602 17.0811 86.9473 16.1977 87.7278 15.8993C125.371 1.50951 158.327 -1.8081 206.251 6.4178C207.091 6.562 207.65 7.38076 207.469 8.21359L195.904 61.2743C195.787 61.8119 195.266 62.1606 194.724 62.0637V62.0637C194.168 61.9642 193.636 62.3346 193.537 62.8909L192.651 67.8426C192.568 68.309 192.878 68.7548 193.345 68.8382V68.8382C193.823 68.9238 194.135 69.3901 194.032 69.8655L191.537 81.3123C191.365 82.1012 190.591 82.6106 189.796 82.4718C159.549 77.1932 138.311 79.4442 116.961 88.4445ZM197.168 69.5221C196.623 69.4246 196.098 69.7756 195.98 70.3167L192.977 84.0966V84.0966C192.862 84.624 192.349 84.965 191.818 84.867V84.867C159.478 78.8964 137.689 81.3941 115.406 91.2974V91.2974C114.889 91.5274 114.284 91.2823 114.072 90.7571V90.7571L108.859 77.8116C108.661 77.3188 108.102 77.0788 107.608 77.2743V77.2743C107.112 77.4707 106.551 77.2279 106.354 76.7319L104.512 72.078C104.32 71.5952 104.557 71.0488 105.04 70.8576V70.8576C105.524 70.6657 105.76 70.1159 105.566 69.6322L84.0724 16.2571V16.2571C83.8648 15.7416 84.1173 15.1557 84.6347 14.9527V14.9527C124.324 -0.62145 158.513 -4.12993 209.175 4.8991V4.8991C209.734 4.99863 210.098 5.54228 209.977 6.09654V6.09654L197.856 61.7127C197.751 62.1916 198.065 62.6613 198.548 62.7476V62.7476C199.018 62.8317 199.331 63.2808 199.247 63.7507L198.363 68.6895C198.263 69.2494 197.728 69.6222 197.168 69.5221V69.5221ZM298.563 159.848C298.355 159.305 297.744 159.036 297.203 159.248L288.162 162.8C287.364 163.113 286.992 164.028 287.329 164.816C295.782 184.561 297.593 208.372 293.65 237.728C293.548 238.49 294.034 239.214 294.781 239.397L302.024 241.173C302.493 241.288 302.968 241.012 303.101 240.548V240.548C303.237 240.07 303.737 239.795 304.214 239.934L309.299 241.418C309.679 241.529 309.899 241.926 309.79 242.307V242.307C309.677 242.7 309.914 243.107 310.31 243.204L367.604 257.25C368.422 257.451 369.247 256.927 369.424 256.103C379.745 207.987 372.759 175.205 359.978 136.295C359.709 135.477 358.806 135.049 358.005 135.364L305.61 155.946C305.068 156.159 304.8 156.768 305.008 157.312V157.312C305.216 157.854 304.948 158.463 304.408 158.677L299.926 160.448C299.384 160.662 298.772 160.392 298.563 159.848V159.848ZM292.111 240.802L301.275 243.048C301.842 243.187 302.179 243.769 302.019 244.329V244.329C301.863 244.873 302.176 245.44 302.719 245.599L307.203 246.907C307.849 247.096 308.526 246.723 308.711 246.075V246.075C308.891 245.447 309.535 245.073 310.169 245.229L369.611 259.802V259.802C370.155 259.935 370.702 259.596 370.825 259.049V259.049C382.282 208.017 374.633 174.028 361.046 133.153V133.153C360.865 132.609 360.265 132.328 359.731 132.537V132.537L304.729 154.143C304.281 154.319 303.776 154.096 303.604 153.647V153.647C303.431 153.198 302.925 152.975 302.477 153.152L297.655 155.057C297.209 155.233 296.988 155.736 297.159 156.184V156.184C297.331 156.633 297.109 157.136 296.662 157.312L284.984 161.9V161.9C284.448 162.11 284.2 162.729 284.442 163.251V163.251C293.814 183.47 295.844 208.293 291.359 239.689V239.689C291.287 240.198 291.612 240.679 292.111 240.802V240.802ZM301.533 273.645C301.799 273.12 302.427 272.893 302.967 273.126L355.767 295.91C356.537 296.242 356.886 297.143 356.533 297.905C339.364 335.021 311.738 367.804 278.097 387.902C277.398 388.32 276.496 388.094 276.068 387.402L245.288 337.681C244.99 337.2 245.129 336.57 245.601 336.259V336.259C246.081 335.942 246.216 335.297 245.901 334.815L243.204 330.677C242.922 330.245 242.343 330.125 241.912 330.409V330.409C241.474 330.697 240.884 330.567 240.608 330.122L236.022 322.714C235.581 322 235.815 321.061 236.532 320.625C261.142 305.649 275.568 286.417 285.342 267.068C285.702 266.355 286.552 266.043 287.285 266.359L294.794 269.599C295.25 269.796 295.445 270.337 295.221 270.78V270.78C295.004 271.207 295.177 271.729 295.606 271.942L300.046 274.139C300.593 274.41 301.257 274.189 301.533 273.645V273.645ZM275.65 390.526L243.562 338.694C243.3 338.27 242.739 338.146 242.322 338.421V338.421C241.913 338.691 241.361 338.576 241.093 338.165L238.345 333.95C238.045 333.489 238.174 332.874 238.632 332.571V332.571C239.083 332.274 239.216 331.672 238.931 331.213L232.979 321.598V321.598C232.683 321.12 232.84 320.492 233.325 320.208V320.208C259.786 304.759 274.665 284.43 284.601 264.062V264.062C284.835 263.581 285.406 263.37 285.896 263.582V263.582L295.452 267.705C296.065 267.97 296.778 267.712 297.081 267.116V267.116C297.395 266.498 298.148 266.248 298.77 266.555L302.948 268.623C303.447 268.87 303.649 269.477 303.397 269.974V269.974C303.135 270.49 303.363 271.119 303.893 271.348L358.896 295.082V295.082C359.408 295.303 359.641 295.9 359.412 296.409V296.409C341.839 335.572 312.708 370.246 277 390.866V390.866C276.532 391.136 275.934 390.986 275.65 390.526V390.526ZM125.484 335.652C126.22 335.923 126.626 336.711 126.417 337.467L123.904 346.524C123.753 347.069 123.186 347.385 122.643 347.229V347.229C122.099 347.073 121.532 347.39 121.381 347.935L120.082 352.633C119.93 353.18 120.248 353.746 120.793 353.903V353.903C121.339 354.06 121.656 354.628 121.504 355.175L106.21 410.304C105.987 411.108 105.153 411.576 104.353 411.34C65.1009 399.731 27.738 375.108 3.78361 344.336C3.28189 343.692 3.39872 342.767 4.03784 342.258L48.0646 307.225C48.4462 306.921 48.9995 306.973 49.3182 307.342V307.342C49.645 307.721 50.2161 307.764 50.5963 307.439L54.5928 304.025C54.9092 303.755 54.9454 303.279 54.6734 302.964V302.964C54.3948 302.641 54.4406 302.151 54.7743 301.886L62.8741 295.441C63.51 294.935 64.4353 295.031 64.9653 295.647C83.4819 317.163 105.528 328.312 125.484 335.652ZM52.2262 300.129C52.5774 300.536 53.187 300.593 53.6074 300.259L63.5357 292.358V292.358C63.9619 292.019 64.5812 292.083 64.9286 292.503V292.503C84.1094 315.668 107.421 327.089 128.336 334.558V334.558C128.83 334.735 129.104 335.262 128.964 335.767V335.767L125.828 347.071C125.675 347.622 125.994 348.194 126.544 348.352V348.352C127.093 348.51 127.413 349.081 127.261 349.632L125.965 354.315C125.813 354.864 125.242 355.184 124.694 355.026V355.026C124.147 354.869 123.576 355.188 123.424 355.737L107.464 413.267V413.267C107.316 413.801 106.762 414.113 106.229 413.963V413.963C64.8901 402.323 25.3441 376.291 0.701458 343.602V343.602C0.375138 343.169 0.453141 342.555 0.877325 342.217V342.217L46.7563 305.71C47.1292 305.413 47.1804 304.866 46.869 304.505V304.505C46.565 304.153 46.6055 303.621 46.9591 303.319L50.8182 300.022C51.237 299.665 51.8663 299.712 52.2262 300.129V300.129Z" fill="#4381BE"/>
</svg>
