<svg width="469" height="462" viewBox="0 0 469 462" fill="none" xmlns="http://www.w3.org/2000/svg">
<path opacity="0.8" fill-rule="evenodd" clip-rule="evenodd" d="M222.727 0.589715C221.898 0.612876 221.232 1.30869 221.26 2.13777L223.15 56.7483C223.179 57.5877 223.903 58.2385 224.742 58.1985C305.442 54.3452 363.257 92.3648 396.015 161.653C396.36 162.382 397.22 162.721 397.963 162.409L450.314 140.451C451.117 140.115 451.465 139.167 451.069 138.392C410.24 58.542 339.238 -2.66451 222.727 0.589715ZM119.913 100.988C119.338 101.438 118.513 101.415 117.972 100.924L76.6842 63.4865C76.0224 62.8864 76.0341 61.8392 76.7061 61.2505C111.216 31.0159 144.337 15.4234 185.374 5.04379C186.195 4.83608 187.028 5.35157 187.206 6.17965L198.821 60.1307C198.991 60.9226 198.487 61.7102 197.702 61.9085C160.48 71.3111 144.981 81.3744 119.913 100.988ZM406.539 202.357C406.388 201.519 406.954 200.71 407.796 200.584L465.848 191.855C466.696 191.728 467.479 192.344 467.56 193.198C479.284 317.367 400.902 424.701 307.626 446.792C306.832 446.98 306.039 446.49 305.842 445.699L292.603 392.644C292.41 391.868 292.854 391.079 293.616 390.839C362.616 369.062 421.782 287.021 406.539 202.357ZM0.134215 250.809C0.090021 249.941 0.796799 249.224 1.66541 249.246L56.9176 250.697C57.6656 250.717 58.2847 251.29 58.3744 252.033C68.3117 334.346 136.882 396.337 215.787 403.606C216.589 403.68 217.198 404.368 217.163 405.172L214.773 460.161C214.737 460.988 214.03 461.63 213.203 461.588C97.2671 455.719 5.44291 355.048 0.134215 250.809ZM100.981 212.69C100.178 212.585 99.6013 211.867 99.6924 211.062C105.743 157.596 154.527 99.7345 226.888 94.1636C227.816 94.0921 228.586 94.8828 228.487 95.8079L226.714 112.429C226.64 113.122 226.091 113.673 225.399 113.764C170.23 121 130.866 158.937 122.712 214.018C122.591 214.834 121.84 215.415 121.023 215.308L100.981 212.69ZM155.461 310.845C154.931 310.334 154.104 310.274 153.513 310.714L136.246 323.549C135.503 324.101 135.436 325.193 136.107 325.833C156.324 345.131 174.051 357.566 200.488 364.203C201.256 364.396 202.043 363.952 202.277 363.195L208.412 343.32C208.663 342.507 208.184 341.648 207.364 341.421C186.288 335.587 172.892 327.633 155.461 310.845ZM231.591 345.573C231.743 344.856 232.392 344.355 233.124 344.38C278.904 345.905 324.095 322.322 344.267 276.842C344.561 276.181 345.282 275.809 345.988 275.971L361.957 279.626C362.852 279.831 363.356 280.782 363.01 281.632C343.635 329.251 299.392 370.556 228.591 368.195C227.664 368.164 226.98 367.3 227.172 366.393L231.591 345.573Z" fill="#4381BE"/>
</svg>
