<svg width="457" height="429" viewBox="0 0 457 429" fill="none" xmlns="http://www.w3.org/2000/svg">
<path opacity="0.8" fill-rule="evenodd" clip-rule="evenodd" d="M266 75C265.554 74.9072 265.268 74.4703 265.36 74.0243L271.111 46.3821C271.282 45.5628 270.749 44.762 269.926 44.6099C257.895 42.3867 245.653 41.3524 233.586 41.4195C209.182 41.5554 185.548 46.1963 165.882 54.5765C165.105 54.9078 164.766 55.82 165.128 56.5837L174.755 76.8915C174.948 77.2972 175.431 77.472 175.839 77.2831V77.2831C176.248 77.093 176.735 77.2711 176.925 77.6809L179.16 82.499C179.342 82.891 179.171 83.3561 178.779 83.5379V83.5379C178.385 83.7208 178.215 84.19 178.402 84.5828L187.404 103.572V103.572C187.64 104.071 187.428 104.667 186.929 104.903V104.903C172.267 111.862 162.861 118.676 155.199 126.153C149.058 132.145 144.034 138.561 138.295 145.889L138.293 145.892L138.289 145.898C136.842 147.746 135.35 149.651 133.783 151.622V151.622C133.475 152.01 132.929 152.114 132.5 151.866V151.866L113.629 140.956C113.198 140.707 112.648 140.849 112.391 141.275V141.275C112.13 141.707 111.569 141.846 111.138 141.586L106.714 138.919C106.32 138.682 106.193 138.169 106.43 137.775V137.775C106.671 137.376 106.537 136.856 106.134 136.623L98.6577 132.301C97.9475 131.89 97.0386 132.126 96.6247 132.834C91.8733 140.963 87.8255 149.506 84.4779 158.45C84.1829 159.238 84.6022 160.111 85.3991 160.381L92.9837 162.954C93.4152 163.1 93.6464 163.569 93.5 164V164C93.3536 164.431 92.8852 164.663 92.4537 164.516L84.7919 161.918C84.0144 161.654 83.1687 162.064 82.9017 162.84C81.7857 166.085 80.7592 169.382 79.822 172.728C79.5943 173.541 80.0903 174.378 80.9113 174.576L88.8918 176.504C89.3347 176.611 89.607 177.057 89.5 177.5V177.5C89.393 177.943 88.9472 178.215 88.5043 178.108L80.4191 176.155C79.6245 175.963 78.8218 176.443 78.6213 177.235C77.3104 182.419 76.2081 187.72 75.314 193.134V193.134C75.2425 193.567 74.8449 193.868 74.4089 193.82V193.82L43.7289 190.411C43.276 190.361 42.9497 189.953 43 189.5V189.5C43.0503 189.047 43.4582 188.721 43.9111 188.771L72.4066 191.937C73.1971 192.025 73.9181 191.481 74.0562 190.697C74.8823 186.013 75.8647 181.413 77.0038 176.902C77.2092 176.088 76.7144 175.26 75.8986 175.063L1.10821 156.996C0.665313 156.889 0.393012 156.443 0.500004 156V156C0.606995 155.557 1.05276 155.285 1.49565 155.392L76.3893 173.484C77.179 173.675 77.9765 173.202 78.195 172.419C79.147 169.01 80.1909 165.652 81.3268 162.346C81.5984 161.556 81.1796 160.692 80.3881 160.424L8.51629 136.046C8.0848 135.9 7.85365 135.431 8 135V135C8.14636 134.569 8.61479 134.337 9.04628 134.484L80.9941 158.887C81.7665 159.149 82.606 158.746 82.8913 157.982C86.2743 148.925 90.3681 140.274 95.1752 132.044C95.5972 131.322 95.356 130.392 94.6318 129.973L68.4996 114.866V114.866C68.003 114.579 67.8492 113.934 68.1627 113.453V113.453C77.004 99.9092 84.8787 88.8028 93.6964 78.9905C94.2459 78.379 94.2097 77.4393 93.6092 76.8778L65.0392 50.1661C64.7064 49.8549 64.6888 49.3328 65 49V49C65.3112 48.6672 65.8332 48.6496 66.1661 48.9608L94.7169 75.6547C95.3223 76.2207 96.2714 76.188 96.8428 75.5877C98.7743 73.5584 100.759 71.5818 102.815 69.6468C115.656 57.5605 131.245 47.1347 154.049 35.6076V35.6076C154.551 35.3539 155.163 35.5636 155.404 36.0716V36.0716L163.135 52.3797C163.483 53.1134 164.35 53.4369 165.096 53.1177C185.03 44.5975 208.945 39.9067 233.577 39.7696C245.763 39.7017 258.137 40.7482 270.304 43.0019C271.111 43.1513 271.892 42.632 272.059 41.829L280.524 1.13967C280.617 0.693583 281.054 0.407196 281.5 0.500005V0.500005C281.946 0.592814 282.232 1.02968 282.14 1.47576L273.683 42.1214C273.514 42.9354 274.039 43.7313 274.853 43.903C295.374 48.2358 315.161 56.0687 332.293 67.8535C332.669 68.1118 332.761 68.6262 332.5 69V69C332.239 69.3739 331.725 69.4655 331.35 69.2073C314.417 57.5616 294.835 49.8071 274.501 45.5151C273.694 45.3447 272.904 45.8657 272.736 46.6738L266.976 74.3603C266.883 74.8064 266.446 75.0928 266 75V75ZM71.2857 112.337C70.8122 113.056 71.0425 114.026 71.7881 114.457L95.7183 128.291C96.4224 128.698 97.322 128.47 97.7533 127.78C103.543 118.524 110.27 109.825 117.937 101.705C118.511 101.097 118.486 100.137 117.875 99.5653L97.2618 80.2929C96.652 79.7227 95.6937 79.7595 95.136 80.3807C86.9219 89.5291 79.5064 99.848 71.2857 112.337ZM121.272 102.741C120.672 102.181 119.734 102.205 119.17 102.802C111.596 110.819 104.949 119.406 99.2242 128.541C98.7761 129.256 99.0152 130.197 99.7458 130.62L107.233 134.948C107.604 135.163 108.079 135.041 108.3 134.674V134.674C108.524 134.302 109.008 134.182 109.38 134.406L114.018 137.202C114.353 137.404 114.461 137.84 114.259 138.176V138.176C114.054 138.516 114.168 138.958 114.512 139.156L131.632 149.054C132.276 149.426 133.096 149.27 133.557 148.686C134.622 147.336 135.658 146.013 136.674 144.715L136.68 144.707L136.682 144.705C142.431 137.363 147.557 130.816 153.802 124.722C161.237 117.466 170.254 110.852 183.828 104.18C184.569 103.816 184.884 102.926 184.531 102.18L176.595 85.4419C176.404 85.0375 175.922 84.8634 175.516 85.0516V85.0516C175.108 85.2411 174.623 85.0636 174.434 84.6553L172.196 79.8319C172.015 79.4414 172.185 78.9779 172.575 78.7968V78.7968C172.968 78.6146 173.137 78.1471 172.952 77.7558L163.275 57.345C162.924 56.6036 162.042 56.2814 161.299 56.6313C155.296 59.4613 149.714 62.6578 144.652 66.1967C144.279 66.4578 143.764 66.3712 143.5 66V66C143.236 65.6288 143.322 65.1135 143.696 64.8524C148.829 61.2621 154.483 58.023 160.556 55.1574C161.312 54.8005 161.642 53.8987 161.283 53.143L154.697 39.2499C154.335 38.4866 153.411 38.1742 152.659 38.5599C131.209 49.5699 116.413 59.595 104.185 71.1032C102.161 73.0083 100.206 74.955 98.3026 76.9548C97.7316 77.5546 97.7643 78.5039 98.3692 79.0694L119.064 98.4183C119.659 98.9749 120.589 98.954 121.164 98.3766C133.22 86.2706 147.453 75.5135 163.876 66.1877C164.272 65.9627 164.776 66.103 165 66.5V66.5C165.224 66.897 165.082 67.4004 164.686 67.6254C148.433 76.855 134.35 87.491 122.42 99.4544C121.825 100.051 121.847 101.02 122.462 101.595L126.461 105.334C126.794 105.645 126.811 106.167 126.5 106.5V106.5C126.189 106.833 125.667 106.85 125.334 106.539L121.272 102.741ZM367.5 138C367.735 138.39 368.242 138.516 368.633 138.28L387.289 127.022C388.001 126.592 388.928 126.824 389.347 127.542C407.63 158.841 415.319 195.247 412.742 229.112C412.708 229.566 413.046 229.963 413.5 230V230C413.954 230.037 414.352 229.7 414.387 229.245C416.989 195.062 409.231 158.294 390.753 126.675C390.336 125.963 390.565 125.045 391.271 124.619L454.22 86.6326C454.61 86.3972 454.735 85.8901 454.5 85.5V85.5C454.265 85.1099 453.758 84.9845 453.367 85.2199L390.42 123.205C389.713 123.632 388.795 123.406 388.359 122.705C381.73 112.045 373.845 102.024 364.691 92.9539C364.098 92.3668 364.089 91.4097 364.676 90.8172L400.005 55.1667C400.326 54.8431 400.324 54.3207 400 54V54C399.676 53.6793 399.154 53.6816 398.833 54.0053L363.456 89.7046C362.881 90.2848 361.948 90.2978 361.351 89.7402C356.435 85.1459 351.175 80.8182 345.569 76.8006C344.849 76.2845 344.719 75.2617 345.296 74.589L367.089 49.1633C367.386 48.8173 367.346 48.2965 367 48V48C366.654 47.7035 366.133 47.7435 365.837 48.0895L342.374 75.4631V75.4631C342.055 75.8345 342.128 76.3999 342.53 76.6783V76.6783C348.828 81.0383 354.699 85.7896 360.145 90.8718C360.759 91.4451 360.773 92.4119 360.181 93.0088L344.995 108.333C344.674 108.657 344.676 109.179 345 109.5V109.5C345.324 109.821 345.846 109.818 346.167 109.495L361.402 94.1206C361.981 93.5363 362.924 93.527 363.508 94.1059C372.568 103.08 380.374 112.995 386.938 123.547C387.377 124.252 387.15 125.179 386.438 125.608L367.78 136.867C367.39 137.103 367.265 137.61 367.5 138V138ZM409.159 132.041C408.828 131.346 409.069 130.505 409.725 130.102L435.729 114.135C436.117 113.896 436.238 113.388 436 113V113C435.762 112.612 435.254 112.49 434.865 112.729L407.068 129.797V129.797C406.706 130.019 406.572 130.48 406.759 130.862V130.862C429.139 176.671 428.673 221.006 419.336 256.796C419.13 257.585 418.329 258.055 417.537 257.861L382.998 249.395C382.555 249.287 382.108 249.557 382 250V250C381.892 250.443 382.162 250.889 382.605 250.998L417.023 259.433C417.845 259.635 418.338 260.477 418.105 261.291C416.853 265.652 415.473 269.877 413.991 273.951C413.713 274.716 412.872 275.113 412.102 274.848L380.549 263.988C380.118 263.84 379.648 264.069 379.5 264.5V264.5C379.352 264.931 379.581 265.4 380.012 265.549L411.437 276.364C412.239 276.64 412.653 277.525 412.344 278.315C409.817 284.771 407.048 290.814 404.152 296.385C403.942 296.79 404.097 297.288 404.5 297.5V297.5C404.903 297.712 405.402 297.557 405.612 297.153C408.558 291.486 411.375 285.334 413.941 278.759C414.235 278.006 415.071 277.614 415.836 277.878L455.451 291.512C455.882 291.66 456.352 291.431 456.5 291V291C456.648 290.569 456.419 290.1 455.988 289.951L416.5 276.361C415.703 276.087 415.289 275.21 415.576 274.418C417.074 270.292 418.469 266.013 419.733 261.594C419.956 260.815 420.754 260.348 421.541 260.541L432.002 263.105C432.445 263.213 432.892 262.943 433 262.5V262.5C433.108 262.057 432.838 261.611 432.395 261.502L422.053 258.968C421.236 258.767 420.743 257.938 420.955 257.124C430.223 221.53 430.794 177.556 409.159 132.041ZM352.5 309.5C352.218 309.858 351.7 309.921 351.342 309.639L345.639 305.158C345.281 304.877 345.218 304.358 345.5 304V304C345.782 303.642 346.3 303.579 346.658 303.861L352.361 308.342C352.719 308.623 352.782 309.142 352.5 309.5V309.5ZM359.5 286C359.258 286.386 359.375 286.895 359.761 287.137L391.863 307.261C392.249 307.503 392.758 307.386 393 307V307C393.242 306.614 393.125 306.105 392.739 305.863L360.637 285.739C360.251 285.497 359.742 285.614 359.5 286V286ZM353.137 329.415C353.701 328.815 353.672 327.872 353.074 327.306L345.532 320.166C345.201 319.853 345.187 319.331 345.5 319V319C345.813 318.669 346.335 318.655 346.666 318.968L354.168 326.069C354.776 326.644 355.738 326.611 356.301 325.991C358.066 324.046 359.872 322.001 361.745 319.844V319.844C362.084 319.454 362.663 319.386 363.083 319.687V319.687L372.66 326.554C373.321 327.028 374.238 326.889 374.726 326.239C376.948 323.274 379.145 320.205 381.32 317.033V317.033C381.58 316.654 382.1 316.561 382.476 316.826V316.826L407.302 334.35C407.674 334.613 407.763 335.128 407.5 335.5V335.5C407.237 335.872 406.722 335.961 406.35 335.698L383.445 319.53C382.763 319.049 381.82 319.217 381.342 319.901C379.615 322.376 377.874 324.788 376.115 327.136C375.609 327.812 375.754 328.773 376.44 329.264L416.083 357.687V357.687C416.553 358.024 416.64 358.689 416.272 359.135V359.135C412.405 363.837 408.694 368.176 405.054 372.208C404.506 372.815 404.54 373.749 405.134 374.311L410.968 379.834C411.299 380.147 411.313 380.669 411 381V381C410.687 381.331 410.165 381.345 409.834 381.032L404.051 375.558C403.444 374.984 402.485 375.017 401.914 375.628C394.648 383.403 387.559 390.008 379.924 395.916C367.402 405.607 353.448 413.396 334.897 421.418V421.418C334.369 421.646 333.758 421.383 333.561 420.844V420.844L318.377 379.341C318.072 378.506 317.112 378.119 316.308 378.498C300.805 385.802 283.528 390.328 263.788 392.118C262.955 392.194 262.338 392.931 262.419 393.763L265.742 428.099C265.786 428.553 265.454 428.956 265 429V429C264.546 429.044 264.143 428.712 264.099 428.258L260.769 393.841C260.69 393.029 259.977 392.429 259.163 392.484C251.425 393.01 243.316 393.132 234.795 392.853C234.34 392.838 233.984 392.455 234 392V392C234.016 391.545 234.399 391.189 234.854 391.204C243.281 391.48 251.297 391.361 258.939 390.846C259.778 390.789 260.402 390.049 260.321 389.211L259.902 384.881C259.822 384.06 259.091 383.458 258.269 383.526C203.647 388.059 153.022 370.014 117.348 334.85C116.759 334.27 115.81 334.266 115.223 334.849L58.6667 391.004C58.3434 391.325 57.821 391.323 57.5 391V391C57.179 390.677 57.1808 390.154 57.5042 389.833L114.071 333.667C114.656 333.087 114.662 332.145 114.092 331.55C105.713 322.816 98.2224 313.095 91.7753 302.466C91.3417 301.751 90.4095 301.519 89.6964 301.956L36.1345 334.772C35.7459 335.01 35.238 334.889 35 334.5V334.5C34.762 334.111 34.884 333.604 35.2725 333.366L88.9066 300.505C89.6015 300.079 89.8288 299.177 89.4253 298.469C80.9498 283.598 74.4681 267.037 70.3755 248.985C70.2748 248.54 70.5552 248.099 71 248V248C71.4448 247.901 71.8855 248.182 71.9862 248.627C76.0318 266.469 82.4322 282.84 90.7998 297.545C91.2163 298.277 92.1562 298.514 92.8743 298.074L104.866 290.728C105.254 290.49 105.762 290.611 106 291V291C106.238 291.389 106.116 291.896 105.728 292.134L93.663 299.526C92.9634 299.955 92.7374 300.866 93.1627 301.568C99.5425 312.093 106.954 321.719 115.247 330.369C115.824 330.97 116.781 330.977 117.372 330.39L126.833 320.996C127.157 320.675 127.679 320.677 128 321V321C128.321 321.323 128.319 321.846 127.996 322.167L118.524 331.572C117.935 332.156 117.933 333.108 118.524 333.691C154.349 368.996 205.404 386.875 260.422 381.679V381.679C260.875 381.636 261.277 381.968 261.321 382.421V382.421L261.971 389.135C262.05 389.951 262.772 390.553 263.589 390.479C283.361 388.691 300.594 384.141 316.018 376.81C316.712 376.48 317.036 375.675 316.772 374.953L311.061 359.344V359.344C310.875 358.836 311.127 358.272 311.629 358.071V358.071C329.848 350.784 340.775 342.525 353.137 329.415ZM361.759 322.87C362.269 322.289 363.137 322.187 363.766 322.638L371.368 328.088C372.058 328.583 372.2 329.552 371.677 330.221C370.125 332.204 368.56 334.137 366.98 336.022C366.427 336.681 365.435 336.734 364.811 336.143L357.799 329.506C357.204 328.943 357.172 328.006 357.723 327.4C359.043 325.946 360.385 324.437 361.759 322.87ZM354.571 330.808C355.143 330.202 356.1 330.17 356.705 330.743L363.841 337.497C364.424 338.049 364.469 338.963 363.94 339.566C350.802 354.528 336.573 366.2 320.369 374.643V374.643C319.663 375.011 318.798 374.67 318.524 373.922L313.769 360.924C313.491 360.166 313.867 359.324 314.612 359.012C331.841 351.807 342.591 343.511 354.571 330.808ZM321.131 376.107C321.02 376.165 320.909 376.222 320.797 376.28C320.121 376.63 319.806 377.426 320.067 378.14L334.527 417.664C334.824 418.475 335.745 418.869 336.535 418.52C353.775 410.915 366.897 403.468 378.7 394.334C386.246 388.495 393.266 381.956 400.487 374.226C401.047 373.626 401.016 372.686 400.42 372.121L367.221 340.697C366.601 340.109 365.616 340.159 365.051 340.801C351.839 355.818 337.495 367.58 321.131 376.107ZM375.149 330.8C374.493 330.329 373.582 330.463 373.084 331.1C371.432 333.214 369.764 335.274 368.079 337.279C367.565 337.89 367.614 338.796 368.193 339.345L401.502 370.873C402.111 371.45 403.076 371.415 403.638 370.792C406.695 367.404 409.805 363.794 413.023 359.926C413.578 359.258 413.448 358.26 412.742 357.753L375.149 330.8ZM291 74C290.568 73.8559 290.101 74.0895 289.956 74.5218L287.978 80.4565C287.834 80.8887 288.068 81.3559 288.5 81.5V81.5C288.932 81.6441 289.399 81.4105 289.544 80.9782L291.522 75.0435C291.666 74.6113 291.432 74.1441 291 74V74Z" fill="#4381BE"/>
</svg>
