<svg width="619" height="1004" viewBox="0 0 619 1004" fill="none" xmlns="http://www.w3.org/2000/svg">
<path fill-rule="evenodd" clip-rule="evenodd" d="M0.130121 0.836435C-0.0556861 0.632155 -0.0407091 0.31593 0.16357 0.130122C0.36785 -0.055685 0.684078 -0.0407105 0.869886 0.163569L130.7 142.901C130.889 143.109 131.157 143.228 131.438 143.228L509.071 143.979C509.837 143.98 510.457 143.388 510.759 142.684C511.46 141.051 513.083 139.908 514.972 139.908C517.503 139.908 519.555 141.959 519.555 144.49C519.555 147.021 517.503 149.073 514.972 149.073C513.076 149.073 511.449 147.922 510.752 146.28C510.453 145.575 509.835 144.98 509.07 144.979L130.774 144.227C130.634 144.226 130.5 144.167 130.406 144.063L0.130121 0.836435ZM0.66357 135.825C0.387428 135.825 0.16357 135.601 0.16357 135.325C0.16357 135.049 0.387428 134.825 0.663571 134.825H35.5073C36.2731 134.825 36.8918 134.231 37.1925 133.527C37.8915 131.889 39.5164 130.742 41.4094 130.742C43.9404 130.742 45.9922 132.794 45.9922 135.325C45.9922 137.856 43.9404 139.908 41.4094 139.908C39.5165 139.908 37.8917 138.76 37.1926 137.123C36.8919 136.418 36.2733 135.825 35.5075 135.825H0.66357ZM38.3542 135.325C38.3542 135.642 38.1226 135.966 38.2124 136.27C38.6198 137.65 39.8969 138.658 41.4094 138.658C43.2501 138.658 44.7422 137.165 44.7422 135.325C44.7422 133.484 43.2501 131.992 41.4094 131.992C39.8968 131.992 38.6195 132.999 38.2122 134.38C38.1225 134.684 38.3542 135.008 38.3542 135.325V135.325V135.325ZM391.601 207.393C391.3 206.689 390.682 206.096 389.916 206.096H0.663571C0.387428 206.096 0.16357 205.872 0.16357 205.596C0.16357 205.319 0.387432 205.096 0.663574 205.096H389.916C390.682 205.096 391.3 204.502 391.601 203.798C392.3 202.16 393.925 201.012 395.818 201.012C398.349 201.012 400.401 203.064 400.401 205.595C400.401 208.126 398.349 210.178 395.818 210.178C393.925 210.178 392.3 209.031 391.601 207.393ZM0.663564 302.336C0.387421 302.336 0.16357 302.112 0.16357 301.836C0.16357 301.56 0.387428 301.336 0.663571 301.336H220.35C221.116 301.336 221.734 300.742 222.035 300.038C222.734 298.401 224.359 297.253 226.252 297.253C228.783 297.253 230.835 299.305 230.835 301.836C230.835 304.367 228.783 306.419 226.252 306.419C224.359 306.419 222.734 305.271 222.035 303.634C221.734 302.929 221.116 302.336 220.35 302.336H0.663564ZM223.197 301.836C223.197 302.153 222.965 302.476 223.055 302.78C223.462 304.161 224.739 305.169 226.252 305.169C228.093 305.169 229.585 303.676 229.585 301.836C229.585 299.995 228.093 298.503 226.252 298.503C224.739 298.503 223.462 299.51 223.055 300.891C222.965 301.195 223.197 301.519 223.197 301.836V301.836V301.836ZM364.502 351.748C364.362 351.748 364.229 351.806 364.134 351.909L321.806 398.016C321.617 398.223 321.35 398.34 321.07 398.34H0.663577C0.387435 398.34 0.16357 398.564 0.16357 398.84C0.16357 399.116 0.387428 399.34 0.663571 399.34H321.729C321.869 399.34 322.002 399.281 322.097 399.178L364.425 353.071C364.614 352.865 364.881 352.748 365.161 352.748H608.366C609.132 352.748 609.751 353.341 610.051 354.045C610.75 355.683 612.375 356.83 614.268 356.83C616.799 356.83 618.851 354.778 618.851 352.247C618.851 349.716 616.799 347.664 614.268 347.664C612.375 347.664 610.75 348.812 610.051 350.45C609.75 351.154 609.132 351.748 608.366 351.748H364.502ZM198.394 428.282C198.488 428.184 198.619 428.129 198.755 428.129H363.946C364.712 428.129 365.331 427.535 365.631 426.831C366.33 425.193 367.955 424.046 369.848 424.046C372.379 424.046 374.431 426.098 374.431 428.629C374.431 431.16 372.379 433.211 369.848 433.211C367.955 433.211 366.33 432.064 365.631 430.426C365.331 429.722 364.712 429.129 363.946 429.129H199.394C199.122 429.129 198.861 429.24 198.673 429.436L106.694 525.215C106.599 525.313 106.469 525.369 106.333 525.369H0.663574C0.387432 525.369 0.16357 525.145 0.16357 524.869C0.16357 524.593 0.387428 524.369 0.663571 524.369H105.694C105.966 524.369 106.227 524.258 106.415 524.061L198.394 428.282ZM366.793 428.629C366.793 428.946 366.561 429.27 366.651 429.574C367.059 430.954 368.336 431.961 369.848 431.961C371.689 431.961 373.181 430.469 373.181 428.629C373.181 426.788 371.689 425.296 369.848 425.296C368.336 425.296 367.059 426.303 366.651 427.683C366.561 427.988 366.793 428.311 366.793 428.629V428.629V428.629ZM159.036 542.7C158.899 542.7 158.767 542.757 158.673 542.857L96.4841 608.838C96.2952 609.038 96.0319 609.152 95.7564 609.152H0.66357C0.387428 609.152 0.16357 609.376 0.16357 609.652C0.16357 609.928 0.387428 610.152 0.663571 610.152H96.4039H465.134C465.804 610.152 466.371 610.611 466.707 611.19C467.501 612.554 468.979 613.471 470.671 613.471C473.202 613.471 475.254 611.419 475.254 608.888C475.254 606.357 473.202 604.305 470.671 604.305C468.14 604.305 466.088 606.357 466.088 608.888V608.888C466.088 609.031 465.975 609.152 465.832 609.152H99.8789C99.0022 609.152 98.5499 608.104 99.1512 607.466L158.956 544.015C159.145 543.814 159.408 543.7 159.684 543.7H363.946C364.712 543.7 365.331 544.294 365.631 544.998C366.33 546.636 367.955 547.783 369.848 547.783C372.379 547.783 374.431 545.731 374.431 543.2C374.431 540.669 372.379 538.618 369.848 538.618C367.955 538.618 366.33 539.765 365.631 541.403C365.331 542.107 364.712 542.7 363.946 542.7H159.036ZM0.663571 650.634C0.387428 650.634 0.16357 650.41 0.16357 650.134C0.16357 649.858 0.387428 649.634 0.663571 649.634H66.6152C66.7447 649.634 66.8692 649.684 66.9624 649.774L131.451 711.986C131.637 712.166 131.886 712.267 132.145 712.267H237.709H478.518C479.284 712.267 479.903 711.673 480.203 710.969C480.902 709.331 482.527 708.184 484.42 708.184C486.951 708.184 489.003 710.235 489.003 712.766C489.003 715.297 486.951 717.349 484.42 717.349C482.527 717.349 480.903 716.202 480.204 714.564C479.903 713.86 479.284 713.267 478.518 713.267H241.085C240.219 713.267 239.762 714.294 240.343 714.937L280.407 759.293C280.596 759.503 280.866 759.623 281.149 759.623H432.69C433.455 759.623 434.074 759.029 434.375 758.325C435.074 756.688 436.699 755.54 438.592 755.54C441.123 755.54 443.175 757.592 443.175 760.123C443.175 762.654 441.123 764.706 438.592 764.706C436.699 764.706 435.074 763.558 434.375 761.921C434.074 761.216 433.456 760.623 432.69 760.623H280.483C280.341 760.623 280.206 760.563 280.111 760.458L237.785 713.596C237.595 713.386 237.326 713.267 237.043 713.267H131.539C131.41 713.267 131.285 713.216 131.192 713.126L66.7039 650.914C66.5175 650.734 66.2686 650.634 66.0096 650.634H0.663571ZM435.536 760.123C435.536 760.44 435.305 760.763 435.395 761.068C435.802 762.448 437.079 763.456 438.592 763.456C440.432 763.456 441.925 761.964 441.925 760.123C441.925 758.282 440.432 756.79 438.592 756.79C437.079 756.79 435.802 757.798 435.395 759.178C435.305 759.482 435.536 759.806 435.536 760.123V760.123V760.123ZM97.1677 771.844C97.031 771.844 96.9002 771.9 96.8059 771.999L36.7928 834.912C36.3972 835.327 35.7347 835.325 35.3416 834.908L0.87038 798.334C0.680972 798.133 0.364517 798.124 0.163563 798.314C-0.0373851 798.503 -0.0467442 798.819 0.142659 799.02L35.6989 836.745L35.7036 836.75L62.437 864.349C62.5312 864.446 62.6608 864.501 62.7961 864.501H324.228C324.994 864.501 325.613 865.095 325.914 865.799C326.613 867.437 328.237 868.584 330.13 868.584C332.661 868.584 334.713 866.532 334.713 864.001C334.713 861.47 332.661 859.418 330.13 859.418C328.237 859.418 326.613 860.566 325.914 862.204C325.613 862.908 324.994 863.501 324.228 863.501H63.4315C63.1608 863.501 62.9016 863.392 62.7132 863.197L37.425 837.089C37.0515 836.704 37.0491 836.092 37.4197 835.703L97.0863 773.154C97.275 772.956 97.5364 772.844 97.8098 772.844H247.847C248.613 772.844 249.232 773.437 249.532 774.142C250.231 775.779 251.856 776.927 253.749 776.927C256.28 776.927 258.332 774.875 258.332 772.344C258.332 769.813 256.28 767.761 253.749 767.761C251.856 767.761 250.231 768.909 249.532 770.546C249.232 771.25 248.613 771.844 247.847 771.844H97.1677ZM250.552 773.289C250.462 772.985 250.694 772.661 250.694 772.344V772.344V772.344C250.694 772.027 250.462 771.703 250.552 771.399C250.959 770.019 252.237 769.011 253.749 769.011C255.59 769.011 257.082 770.503 257.082 772.344C257.082 774.184 255.59 775.677 253.749 775.677C252.237 775.677 250.959 774.669 250.552 773.289ZM0.131041 877.693C-0.0550315 877.488 -0.0404677 877.172 0.163571 876.986C0.367609 876.8 0.683856 876.815 0.869929 877.019L110.84 997.606C111.029 997.814 111.297 997.932 111.578 997.932H348.67C349.436 997.932 350.055 997.339 350.355 996.634C351.054 994.997 352.679 993.849 354.572 993.849C357.103 993.849 359.155 995.901 359.155 998.432C359.155 1000.96 357.103 1003.01 354.572 1003.01C352.679 1003.01 351.054 1001.87 350.355 1000.23C350.055 999.526 349.436 998.932 348.67 998.932H110.916C110.776 998.932 110.642 998.873 110.547 998.769L0.131041 877.693ZM302.633 90.496C302.633 89.9437 303.081 89.496 303.633 89.496H309.271C309.824 89.496 310.271 89.9437 310.271 90.496V106.827C310.271 107.38 309.824 107.827 309.271 107.827H303.633C303.081 107.827 302.633 107.38 302.633 106.827V90.496ZM320.965 90.496C320.965 89.9437 321.412 89.496 321.965 89.496H327.603C328.155 89.496 328.603 89.9437 328.603 90.496V106.828C328.603 107.38 328.155 107.828 327.603 107.828H321.965C321.412 107.828 320.965 107.38 320.965 106.828V90.496ZM346.934 90.496C346.934 89.9437 346.486 89.496 345.934 89.496H340.296C339.744 89.496 339.296 89.9437 339.296 90.496V106.828C339.296 107.38 339.744 107.828 340.296 107.828H345.934C346.486 107.828 346.934 107.38 346.934 106.828V90.496ZM357.628 90.496C357.628 89.9437 358.075 89.496 358.628 89.496H364.266C364.818 89.496 365.266 89.9437 365.266 90.496V106.828C365.266 107.38 364.818 107.828 364.266 107.828H358.628C358.075 107.828 357.628 107.38 357.628 106.828V90.496ZM383.597 90.496C383.597 89.9437 383.149 89.496 382.597 89.496H376.959C376.407 89.496 375.959 89.9437 375.959 90.496V106.828C375.959 107.38 376.407 107.828 376.959 107.828H382.597C383.149 107.828 383.597 107.38 383.597 106.828V90.496ZM394.29 90.496C394.29 89.9437 394.738 89.496 395.29 89.496H400.929C401.481 89.496 401.929 89.9437 401.929 90.496V106.828C401.929 107.38 401.481 107.828 400.929 107.828H395.29C394.738 107.828 394.29 107.38 394.29 106.828V90.496ZM420.26 90.496C420.26 89.9437 419.812 89.496 419.26 89.496H413.622C413.07 89.496 412.622 89.9437 412.622 90.496V106.828C412.622 107.38 413.07 107.828 413.622 107.828H419.26C419.812 107.828 420.26 107.38 420.26 106.828V90.496ZM430.954 90.496C430.954 89.9437 431.402 89.496 431.954 89.496H437.592C438.144 89.496 438.592 89.9437 438.592 90.496V106.828C438.592 107.38 438.144 107.828 437.592 107.828H431.954C431.402 107.828 430.954 107.38 430.954 106.828V90.496ZM456.923 90.496C456.923 89.9437 456.476 89.496 455.923 89.496H450.285C449.733 89.496 449.285 89.9437 449.285 90.496V106.828C449.285 107.38 449.733 107.828 450.285 107.828H455.923C456.476 107.828 456.923 107.38 456.923 106.828V90.496Z" fill="#2481DD"/>
</svg>
