<svg xmlns="http://www.w3.org/2000/svg" xmlns:xlink="http://www.w3.org/1999/xlink" role="img" viewBox="0 0 1629 1003" xml:space="preserve"><!-- Generator: WPGraphicator version: 1.5.1 --><style type="text/css">.wpgraphicator-path-sebk1kx8asqn6011l0td7 path {animation-name: wpgraphicator-path-sebk1kx8asqn6011l0td7;animation-delay: 0s;animation-duration: 6s;animation-iteration-count: infinite;animation-fill-mode: both;}@keyframes wpgraphicator-path-sebk1kx8asqn6011l0td7{0% {}100% {}}#wpgraphicator-gradient-0ytdndhpmppo0h116jpwy stop:nth-child(1){animation-name: wpgraphicator-gradient-0ytdndhpmppo0h116jpwy-stop_0;animation-delay: 0s;animation-duration: 6s;animation-iteration-count: infinite;animation-fill-mode: both;}@keyframes wpgraphicator-gradient-0ytdndhpmppo0h116jpwy-stop_0{0%{animation-timing-function: linear;stop-color: rgb(36,129,221);stop-opacity: 0}16.666666666666664%{animation-timing-function: linear;stop-color: rgb(36,129,221);stop-opacity: 1}33.33333333333333%{animation-timing-function: linear;stop-color: rgb(36,129,221);stop-opacity: 1}50%{animation-timing-function: linear;stop-color: rgb(36,129,221);stop-opacity: 0}66.66666666666666%{animation-timing-function: linear;stop-color: rgb(36,129,221);stop-opacity: 0}100%{animation-timing-function: linear;stop-color: rgb(36,129,221);stop-opacity: 0}}#wpgraphicator-gradient-0ytdndhpmppo0h116jpwy stop:nth-child(2){animation-name: wpgraphicator-gradient-0ytdndhpmppo0h116jpwy-stop_1;animation-delay: 0s;animation-duration: 6s;animation-iteration-count: infinite;animation-fill-mode: both;}@keyframes wpgraphicator-gradient-0ytdndhpmppo0h116jpwy-stop_1{0%{animation-timing-function: linear;stop-color: rgb(36,129,221);stop-opacity: 0}16.666666666666664%{animation-timing-function: linear;stop-color: rgb(36,129,221);stop-opacity: 0}33.33333333333333%{animation-timing-function: linear;stop-color: rgb(36,129,221);stop-opacity: 1}50%{animation-timing-function: linear;stop-color: rgb(36,129,221);stop-opacity: 1}66.66666666666666%{animation-timing-function: linear;stop-color: rgb(36,129,221);stop-opacity: 0}100%{animation-timing-function: linear;stop-color: rgb(36,129,221);stop-opacity: 0}}</style><g class="wpgraphicator-path-sebk1kx8asqn6011l0td7-top" style="transform:translateY(501px)"><g class="wpgraphicator-path-sebk1kx8asqn6011l0td7-left" style="transform:translateX(814.13px)"><g class="wpgraphicator-path-sebk1kx8asqn6011l0td7-angle" style="transform:rotate(0deg)"><g class="wpgraphicator-path-sebk1kx8asqn6011l0td7-scaleY" style="transform:scaleY(1)"><g class="wpgraphicator-path-sebk1kx8asqn6011l0td7-scaleX" style="transform:scaleX(1)"><g class="wpgraphicator-path-sebk1kx8asqn6011l0td7-skewY" style="transform:skewY(0deg)"><g class="wpgraphicator-path-sebk1kx8asqn6011l0td7-skewX" style="transform:skewX(0deg)"><g class="wpgraphicator-path-sebk1kx8asqn6011l0td7"><linearGradient id="wpgraphicator-gradient-0ytdndhpmppo0h116jpwy" gradientUnits="objectBoundingBox" x1="0" y1="0.5000000000000001" x2="1" y2="0.4999999999999999"><stop offset="0%" stop-color="rgb(36,129,221)" stop-opacity="0"></stop><stop offset="100%" stop-color="rgb(36,129,221)" stop-opacity="0"></stop></linearGradient><path d="M 865.53 1.5 C 865.53 0.67 866.21 0 867.03 0 L 868.03 0 C 868.86 0 869.53 0.67 869.53 1.5 L 869.53 8.5 C 869.53 9.33 868.86 10 868.03 10 L 867.03 10 C 866.21 10 865.53 9.33 865.53 8.5 L 865.53 1.5 Z M 870.72 48.37 C 873.03 48.37 874.99 46.86 875.66 44.76 C 875.9 43.99 876.55 43.33 877.36 43.33 L 1626.41 43.33 C 1626.96 43.33 1627.41 42.88 1627.41 42.33 L 1627.41 42.33 C 1627.41 41.77 1626.96 41.33 1626.41 41.33 L 876.58 41.33 C 875.96 41.33 875.42 40.93 875.09 40.41 C 874.17 38.97 872.56 38.01 870.72 38.01 C 867.85 38.01 865.53 40.33 865.53 43.19 C 865.53 46.05 867.85 48.37 870.72 48.37 Z M 1503.02 135.48 L 1503.02 135.48 C 1502.74 135.48 1502.46 135.6 1502.27 135.82 L 1502.27 135.82 L 1410.92 238.31 C 1410.34 238.97 1409.31 238.98 1408.71 238.33 L 1329.26 153.08 L 1329.26 153.08 C 1329.08 152.87 1328.81 152.76 1328.53 152.76 L 1328.53 152.76 L 1046.34 152.76 C 1045.63 152.76 1045.03 152.24 1044.73 151.59 C 1043.91 149.81 1042.11 148.57 1040.02 148.57 C 1037.16 148.57 1034.84 150.9 1034.84 153.76 C 1034.84 156.62 1037.16 158.94 1040.02 158.94 C 1042.11 158.94 1043.91 157.71 1044.73 155.93 C 1045.03 155.28 1045.63 154.76 1046.34 154.76 L 1327.45 154.76 C 1327.86 154.76 1328.26 154.93 1328.54 155.24 L 1407.56 240.04 C 1408.09 240.6 1408.1 241.48 1407.58 242.06 L 1381.1 271.77 C 1380.52 272.41 1379.53 272.44 1378.92 271.83 L 1375.88 268.8 L 1375.88 268.8 C 1375.7 268.61 1375.44 268.51 1375.18 268.51 L 1375.18 268.51 L 1219.69 268.51 L 1219.69 268.51 C 1219.41 268.51 1219.15 268.62 1218.96 268.83 L 1218.96 268.83 L 1175.65 315.54 C 1175.36 315.84 1174.96 316.02 1174.55 316.02 L 1009.61 316.02 C 1008.99 316.02 1008.45 315.62 1008.12 315.1 C 1007.2 313.65 1005.58 312.7 1003.74 312.7 C 1000.88 312.7 998.56 315.02 998.56 317.88 C 998.56 320.74 1000.88 323.06 1003.74 323.06 C 1006.06 323.06 1008.01 321.55 1008.68 319.45 C 1008.93 318.68 1009.57 318.02 1010.38 318.02 L 1175.64 318.02 L 1175.64 318.02 C 1175.92 318.02 1176.18 317.9 1176.37 317.7 L 1176.37 317.7 L 1219.68 270.99 C 1219.97 270.68 1220.37 270.51 1220.78 270.51 L 1374.14 270.51 C 1374.54 270.51 1374.92 270.67 1375.2 270.95 L 1377.71 273.45 C 1378.27 274.01 1378.29 274.92 1377.77 275.51 L 1325.94 333.66 C 1325.66 333.97 1325.25 334.16 1324.82 334.16 L 1187.73 334.16 L 1187.73 334.16 C 1187.44 334.16 1187.16 334.28 1186.97 334.51 L 1186.97 334.51 L 1150.58 376.83 C 1150.29 377.16 1149.88 377.35 1149.44 377.35 L 933.96 377.35 C 933.56 377.35 933.17 377.19 932.89 376.9 L 927.62 371.53 C 926.68 370.58 927.36 368.98 928.69 368.98 L 950.78 368.98 C 951.49 368.98 952.09 369.5 952.39 370.15 C 953.21 371.93 955.01 373.16 957.1 373.16 C 959.96 373.16 962.28 370.84 962.28 367.98 C 962.28 365.12 959.96 362.8 957.1 362.8 C 955.01 362.8 953.21 364.03 952.39 365.81 C 952.09 366.46 951.49 366.98 950.78 366.98 L 923.77 366.98 C 923.37 366.98 922.99 366.82 922.7 366.53 L 862.26 305.02 C 861.33 304.07 862 302.47 863.33 302.47 L 922.54 302.47 L 922.54 302.47 C 922.82 302.47 923.08 302.36 923.27 302.16 L 923.27 302.16 L 954.1 269.79 C 954.55 269.32 955.24 269.21 955.88 269.36 C 956.27 269.46 956.68 269.51 957.1 269.51 C 959.96 269.51 962.28 267.19 962.28 264.32 C 962.28 261.46 959.96 259.14 957.1 259.14 C 954.23 259.14 951.91 261.46 951.91 264.32 C 951.91 265.16 952.11 265.95 952.46 266.64 C 952.81 267.34 952.82 268.22 952.28 268.79 L 922.56 300 C 922.28 300.3 921.88 300.47 921.47 300.47 L 858.42 300.47 C 858.01 300.47 857.63 300.31 857.35 300.02 L 836.01 278.31 L 836.01 278.31 C 835.83 278.12 835.57 278.01 835.3 278.01 L 835.3 278.01 L 731.46 278.01 C 730.84 278.01 730.3 277.62 729.97 277.09 C 729.05 275.65 727.44 274.69 725.6 274.69 C 722.73 274.69 720.41 277.01 720.41 279.87 C 720.41 282.74 722.73 285.06 725.6 285.06 C 727.91 285.06 729.87 283.54 730.54 281.45 C 730.78 280.67 731.43 280.01 732.24 280.01 L 834.25 280.01 C 834.65 280.01 835.04 280.17 835.32 280.46 L 852.48 297.92 C 853.41 298.87 852.74 300.47 851.41 300.47 L 730.51 300.47 C 729.7 300.47 729.06 299.81 728.81 299.03 C 728.14 296.94 726.18 295.42 723.87 295.42 C 721.01 295.42 718.69 297.74 718.69 300.6 C 718.69 303.47 721.01 305.79 723.87 305.79 C 725.71 305.79 727.32 304.83 728.24 303.39 C 728.58 302.86 729.12 302.47 729.74 302.47 L 856.32 302.47 C 856.72 302.47 857.11 302.63 857.39 302.92 L 917.83 364.43 C 918.77 365.38 918.09 366.98 916.76 366.98 L 710.11 366.98 C 709.75 366.98 709.4 366.85 709.13 366.62 L 588.9 263.57 L 588.9 263.57 C 588.72 263.41 588.49 263.32 588.25 263.32 L 588.25 263.32 L 445.92 263.32 C 445.51 263.32 445.12 263.16 444.84 262.87 L 422.63 239.92 C 422.04 239.31 422.1 238.34 422.54 237.61 C 423 236.83 423.26 235.92 423.26 234.96 C 423.26 232.09 420.94 229.77 418.08 229.77 C 415.22 229.77 412.9 232.09 412.9 234.96 C 412.9 237.82 415.22 240.14 418.08 240.14 C 418.34 240.14 418.6 240.12 418.86 240.08 C 419.43 239.99 420.04 240.12 420.45 240.54 L 444.14 265.02 L 444.14 265.02 C 444.33 265.21 444.59 265.32 444.86 265.32 L 444.86 265.32 L 587.33 265.32 C 587.68 265.32 588.03 265.45 588.3 265.69 L 708.53 368.74 L 708.53 368.74 C 708.71 368.9 708.94 368.98 709.18 368.98 L 709.18 368.98 L 921.68 368.98 C 922.08 368.98 922.46 369.14 922.75 369.43 L 932.2 379.05 L 932.2 379.05 C 932.39 379.24 932.64 379.35 932.91 379.35 L 932.91 379.35 L 1150.59 379.35 L 1150.59 379.35 C 1150.88 379.35 1151.16 379.22 1151.35 379 L 1151.35 379 L 1187.74 336.68 C 1188.03 336.35 1188.44 336.16 1188.88 336.16 L 1325.94 336.16 L 1325.94 336.16 C 1326.23 336.16 1326.5 336.04 1326.69 335.82 L 1326.69 335.82 L 1379.07 277.06 C 1379.64 276.41 1380.64 276.38 1381.25 276.99 L 1411.61 307.36 L 1411.61 307.36 C 1411.8 307.55 1412.06 307.65 1412.32 307.65 L 1412.32 307.65 L 1626.41 307.65 C 1626.96 307.65 1627.41 307.2 1627.41 306.65 L 1627.41 306.65 C 1627.41 306.1 1626.96 305.65 1626.41 305.65 L 1413.36 305.65 C 1412.96 305.65 1412.58 305.49 1412.3 305.21 L 1382.46 275.37 C 1381.9 274.81 1381.87 273.91 1382.4 273.32 L 1408.77 243.73 C 1409.35 243.07 1410.38 243.06 1410.98 243.71 L 1434.05 268.46 L 1434.05 268.46 C 1434.24 268.66 1434.5 268.78 1434.78 268.78 L 1434.78 268.78 L 1626.41 268.78 C 1626.96 268.78 1627.41 268.33 1627.41 267.78 L 1627.41 267.78 C 1627.41 267.23 1626.96 266.78 1626.41 266.78 L 1435.87 266.78 C 1435.45 266.78 1435.05 266.61 1434.77 266.3 L 1412.13 242.01 C 1411.6 241.44 1411.59 240.56 1412.11 239.98 L 1503.02 137.98 C 1503.31 137.66 1503.71 137.48 1504.14 137.48 L 1567.35 137.48 C 1568.73 137.48 1569.38 139.18 1568.35 140.1 L 1545.08 160.89 C 1544.54 161.37 1543.75 161.38 1543.09 161.1 C 1542.46 160.82 1541.76 160.67 1541.03 160.67 C 1538.17 160.67 1535.84 162.99 1535.84 165.85 C 1535.84 168.71 1538.17 171.03 1541.03 171.03 C 1543.89 171.03 1546.21 168.71 1546.21 165.85 C 1546.21 165.32 1546.13 164.82 1545.99 164.34 C 1545.78 163.65 1545.87 162.86 1546.41 162.39 L 1573.86 137.86 C 1574.13 137.62 1574.49 137.48 1574.86 137.48 L 1626.41 137.48 C 1626.96 137.48 1627.41 137.03 1627.41 136.48 L 1627.41 136.48 C 1627.41 135.93 1626.96 135.48 1626.41 135.48 L 1580.46 135.48 C 1579.08 135.48 1578.43 133.78 1579.46 132.86 L 1605.77 109.36 C 1606.04 109.11 1606.4 108.98 1606.77 108.98 L 1626.41 108.98 C 1626.96 108.98 1627.41 108.53 1627.41 107.98 L 1627.41 107.98 C 1627.41 107.42 1626.96 106.98 1626.41 106.98 L 1605.81 106.98 L 1605.81 106.98 C 1605.57 106.98 1605.33 107.07 1605.15 107.23 L 1605.15 107.23 L 1573.95 135.1 C 1573.68 135.35 1573.32 135.48 1572.95 135.48 L 1503.02 135.48 Z M 725.6 275.69 C 727.17 275.69 728.55 276.56 729.26 277.85 C 729.3 277.92 729.25 278.01 729.16 278.01 L 729.16 278.01 C 729.1 278.01 729.05 278.06 729.05 278.12 L 729.05 279.65 C 729.05 279.85 729.21 280.01 729.41 280.01 L 729.41 280.01 C 729.61 280.01 729.77 280.18 729.75 280.38 C 729.5 282.45 727.74 284.06 725.6 284.06 C 723.29 284.06 721.41 282.18 721.41 279.87 C 721.41 277.56 723.29 275.69 725.6 275.69 Z M 215.12 339.17 C 214.84 338.9 214.47 338.75 214.08 338.75 L 87.06 338.75 C 86.44 338.75 85.91 339.14 85.57 339.67 C 84.65 341.11 83.04 342.07 81.2 342.07 C 78.33 342.07 76.01 339.75 76.01 336.88 C 76.01 334.02 78.33 331.7 81.2 331.7 C 83.51 331.7 85.47 333.22 86.14 335.31 C 86.38 336.09 87.03 336.75 87.84 336.75 L 215.09 336.75 L 215.09 336.75 C 215.35 336.75 215.6 336.85 215.78 337.03 L 215.78 337.03 L 272.93 392.47 C 273.21 392.74 273.59 392.9 273.98 392.9 L 545.75 392.9 C 546.15 392.9 546.53 392.74 546.81 392.46 L 558.29 380.98 C 558.84 380.43 558.85 379.55 558.52 378.84 C 558.2 378.16 558.02 377.41 558.02 376.62 C 558.02 373.76 560.34 371.44 563.2 371.44 C 566.06 371.44 568.38 373.76 568.38 376.62 C 568.38 379.48 566.06 381.8 563.2 381.8 C 562.74 381.8 562.3 381.74 561.87 381.63 C 561.24 381.46 560.54 381.55 560.09 382.01 L 547.5 394.6 L 547.5 394.6 C 547.31 394.79 547.05 394.9 546.79 394.9 L 546.79 394.9 L 272.96 394.9 L 272.96 394.9 C 272.7 394.9 272.45 394.79 272.27 394.61 L 272.27 394.61 L 215.12 339.17 Z M 357.03 907.72 C 356.31 907.72 355.71 907.2 355.41 906.55 C 354.59 904.77 352.79 903.54 350.71 903.54 C 347.84 903.54 345.52 905.86 345.52 908.72 C 345.52 911.59 347.84 913.91 350.71 913.91 C 352.79 913.91 354.59 912.67 355.41 910.9 C 355.71 910.24 356.31 909.72 357.03 909.72 L 765.92 909.72 C 766.64 909.72 767.23 910.24 767.54 910.9 C 768.36 912.67 770.16 913.91 772.24 913.91 C 775.11 913.91 777.43 911.59 777.43 908.72 C 777.43 905.86 775.11 903.54 772.24 903.54 C 770.16 903.54 768.36 904.77 767.54 906.55 C 767.24 907.2 766.64 907.72 765.92 907.72 L 357.03 907.72 Z M 842.93 997.52 L 958.61 875.97 C 959.11 875.45 959.9 875.38 960.59 875.62 C 961.12 875.8 961.69 875.9 962.28 875.9 C 965.14 875.9 967.46 873.58 967.46 870.72 C 967.46 867.85 965.14 865.53 962.28 865.53 C 959.42 865.53 957.1 867.85 957.1 870.72 C 957.1 871.38 957.22 872.02 957.45 872.61 C 957.71 873.27 957.68 874.06 957.19 874.57 L 842.22 995.37 C 841.94 995.66 841.55 995.83 841.14 995.83 L 567.79 995.83 C 567.08 995.83 566.48 995.31 566.18 994.66 C 565.36 992.88 563.56 991.65 561.47 991.65 C 558.61 991.65 556.29 993.97 556.29 996.83 C 556.29 999.69 558.61 1002.01 561.47 1002.01 C 563.56 1002.01 565.36 1000.78 566.18 999 C 566.48 998.35 567.08 997.83 567.8 997.83 L 842.21 997.83 L 842.21 997.83 C 842.48 997.83 842.75 997.72 842.93 997.52 L 842.93 997.52 Z M 910.6 773.73 C 909.91 773.51 909.12 773.6 908.63 774.14 L 859.37 829.06 L 859.37 829.06 C 859.18 829.27 858.91 829.39 858.62 829.39 L 858.62 829.39 L 724.55 829.39 C 723.93 829.39 723.39 829.78 723.06 830.31 C 722.14 831.75 720.53 832.71 718.69 832.71 C 715.82 832.71 713.5 830.39 713.5 827.53 C 713.5 824.66 715.82 822.34 718.69 822.34 C 721 822.34 722.96 823.86 723.63 825.95 C 723.87 826.73 724.52 827.39 725.33 827.39 L 857.51 827.39 C 857.93 827.39 858.34 827.21 858.62 826.89 L 907.18 772.76 C 907.66 772.23 907.67 771.45 907.4 770.79 C 907.14 770.18 907 769.5 907 768.79 C 907 765.92 909.32 763.6 912.18 763.6 C 915.04 763.6 917.36 765.92 917.36 768.79 C 917.36 771.65 915.04 773.97 912.18 773.97 C 911.63 773.97 911.1 773.88 910.6 773.73 Z M 828.78 679.4 C 829.08 678.74 829.67 678.22 830.39 678.22 L 865.23 678.22 C 865.68 678.22 866.1 678.42 866.38 678.76 L 893.27 710.69 L 893.27 710.69 C 893.46 710.92 893.74 711.05 894.04 711.05 L 894.04 711.05 L 921.41 711.05 C 922.12 711.05 922.72 711.57 923.02 712.22 C 923.84 714 925.64 715.23 927.73 715.23 C 930.59 715.23 932.91 712.91 932.91 710.05 C 932.91 707.19 930.59 704.87 927.73 704.87 C 925.64 704.87 923.84 706.1 923.02 707.88 C 922.72 708.53 922.12 709.05 921.41 709.05 L 895.2 709.05 C 894.76 709.05 894.34 708.85 894.06 708.51 L 867.16 676.58 L 867.16 676.58 C 866.97 676.35 866.69 676.22 866.4 676.22 L 866.4 676.22 L 830.39 676.22 C 829.67 676.22 829.08 675.7 828.78 675.05 C 827.96 673.27 826.16 672.04 824.07 672.04 C 821.21 672.04 818.89 674.36 818.89 677.22 C 818.89 680.09 821.21 682.41 824.07 682.41 C 826.16 682.41 827.96 681.17 828.78 679.4 Z M 1262.41 391.72 C 1262.71 392.37 1263.31 392.9 1264.02 392.9 L 1316.44 392.9 L 1316.44 392.9 C 1316.7 392.9 1316.96 393 1317.15 393.19 L 1317.15 393.19 L 1362.02 438.07 C 1362.61 438.65 1363.56 438.65 1364.15 438.07 L 1390.88 411.33 L 1390.88 411.33 C 1391.07 411.14 1391.33 411.04 1391.59 411.04 L 1391.59 411.04 L 1626.41 411.04 C 1626.96 411.04 1627.41 411.48 1627.41 412.04 L 1627.41 412.04 C 1627.41 412.59 1626.96 413.04 1626.41 413.04 L 1392.63 413.04 C 1392.23 413.04 1391.85 413.19 1391.57 413.47 L 1363.79 441.25 L 1349.11 455.93 L 1349.11 455.93 C 1348.92 456.12 1348.67 456.23 1348.4 456.23 L 1348.4 456.23 L 901.55 456.23 C 900.73 456.23 900.09 456.89 899.84 457.66 C 899.18 459.76 897.22 461.27 894.9 461.27 C 892.04 461.27 889.72 458.95 889.72 456.09 C 889.72 453.23 892.04 450.91 894.9 450.91 C 896.74 450.91 898.36 451.86 899.28 453.31 C 899.61 453.83 900.15 454.23 900.77 454.23 L 1347.36 454.23 C 1347.76 454.23 1348.14 454.07 1348.43 453.79 L 1360.61 441.6 C 1361.2 441.02 1361.2 440.07 1360.61 439.48 L 1316.46 395.34 C 1316.18 395.05 1315.8 394.9 1315.4 394.9 L 1264.02 394.9 C 1263.31 394.9 1262.71 395.42 1262.41 396.07 C 1261.59 397.85 1259.79 399.08 1257.7 399.08 C 1254.84 399.08 1252.52 396.76 1252.52 393.9 C 1252.52 391.03 1254.84 388.71 1257.7 388.71 C 1259.79 388.71 1261.59 389.95 1262.41 391.72 Z M 1246.47 354.89 L 1246.47 354.89 C 1246.19 354.89 1245.92 355.01 1245.73 355.22 L 1245.73 355.22 L 1185.15 421.77 C 1184.86 422.09 1184.46 422.26 1184.04 422.26 L 861.49 422.26 C 860.77 422.26 860.18 421.74 859.87 421.09 C 859.05 419.32 857.25 418.08 855.17 418.08 C 852.31 418.08 849.98 420.4 849.98 423.27 C 849.98 426.13 852.31 428.45 855.17 428.45 C 857.25 428.45 859.05 427.21 859.87 425.44 C 860.18 424.79 860.77 424.26 861.49 424.26 L 1185.14 424.26 L 1185.14 424.26 C 1185.42 424.26 1185.69 424.15 1185.88 423.94 L 1185.88 423.94 L 1246.47 357.38 C 1246.75 357.07 1247.15 356.89 1247.58 356.89 L 1384.61 356.89 C 1384.97 356.89 1385.32 357.02 1385.59 357.26 L 1404.76 373.92 L 1404.76 373.92 C 1404.94 374.08 1405.17 374.16 1405.41 374.16 L 1405.41 374.16 L 1626.41 374.16 C 1626.96 374.16 1627.41 373.72 1627.41 373.16 L 1627.41 373.16 C 1627.41 372.61 1626.96 372.16 1626.41 372.16 L 1406.35 372.16 C 1405.98 372.16 1405.63 372.03 1405.36 371.8 L 1386.2 355.13 L 1386.2 355.13 C 1386.02 354.98 1385.78 354.89 1385.54 354.89 L 1385.54 354.89 L 1246.47 354.89 Z M 627.59 55.36 C 628.5 54.4 627.82 52.83 626.5 52.83 L 358.75 52.83 C 358.04 52.83 357.44 53.35 357.14 54 C 356.32 55.78 354.52 57.01 352.43 57.01 C 349.57 57.01 347.25 54.69 347.25 51.83 C 347.25 48.97 349.57 46.65 352.43 46.65 C 354.52 46.65 356.32 47.88 357.14 49.66 C 357.44 50.31 358.04 50.83 358.76 50.83 L 632.31 50.83 L 735.96 50.83 L 735.96 50.83 C 736.21 50.83 736.45 50.92 736.64 51.09 L 736.64 51.09 L 810.21 118.67 C 810.49 118.93 810.85 119.07 811.22 119.07 L 1016.88 119.07 C 1017.5 119.07 1018.04 118.68 1018.37 118.15 C 1019.29 116.71 1020.91 115.75 1022.75 115.75 C 1025.61 115.75 1027.93 118.07 1027.93 120.93 C 1027.93 123.8 1025.61 126.12 1022.75 126.12 C 1020.43 126.12 1018.47 124.6 1017.81 122.51 C 1017.56 121.73 1016.92 121.07 1016.1 121.07 L 810.25 121.07 L 810.25 121.07 C 810 121.07 809.76 120.98 809.57 120.81 L 809.57 120.81 L 736 53.22 C 735.73 52.97 735.36 52.83 734.99 52.83 L 633.38 52.83 C 632.97 52.83 632.58 53 632.29 53.3 L 588.12 100.03 L 588.12 100.03 C 587.93 100.22 587.66 100.34 587.39 100.34 L 587.39 100.34 L 434.31 100.34 C 433.69 100.34 433.16 100.73 432.82 101.26 C 431.9 102.7 430.29 103.66 428.45 103.66 C 425.59 103.66 423.27 101.34 423.27 98.47 C 423.27 95.61 425.59 93.29 428.45 93.29 C 430.76 93.29 432.72 94.81 433.39 96.9 C 433.63 97.68 434.28 98.34 435.09 98.34 L 586.31 98.34 C 586.72 98.34 587.12 98.17 587.4 97.87 L 627.59 55.36 Z M 88.38 210.04 C 88.38 209.49 87.93 209.04 87.38 209.04 L 87.38 209.04 C 86.83 209.04 86.38 209.49 86.38 210.04 L 86.38 237.04 C 86.38 237.59 86.83 238.04 87.38 238.04 L 87.38 238.04 C 87.93 238.04 88.38 237.59 88.38 237.04 L 88.38 210.04 Z M 93.1 210.04 C 93.1 209.49 92.65 209.04 92.1 209.04 L 92.1 209.04 C 91.55 209.04 91.1 209.49 91.1 210.04 L 91.1 237.04 C 91.1 237.59 91.55 238.04 92.1 238.04 L 92.1 238.04 C 92.65 238.04 93.1 237.59 93.1 237.04 L 93.1 210.04 Z M 95.82 210.04 C 95.82 209.49 96.27 209.04 96.82 209.04 L 96.82 209.04 C 97.37 209.04 97.82 209.49 97.82 210.04 L 97.82 237.04 C 97.82 237.59 97.37 238.04 96.82 238.04 L 96.82 238.04 C 96.27 238.04 95.82 237.59 95.82 237.04 L 95.82 210.04 Z M 102.54 210.04 C 102.54 209.49 102.09 209.04 101.54 209.04 L 101.54 209.04 C 100.98 209.04 100.54 209.49 100.54 210.04 L 100.54 237.04 C 100.54 237.59 100.98 238.04 101.54 238.04 L 101.54 238.04 C 102.09 238.04 102.54 237.59 102.54 237.04 L 102.54 210.04 Z M 105.26 210.04 C 105.26 209.49 105.7 209.04 106.26 209.04 L 106.26 209.04 C 106.81 209.04 107.26 209.49 107.26 210.04 L 107.26 237.04 C 107.26 237.59 106.81 238.04 106.26 238.04 L 106.26 238.04 C 105.7 238.04 105.26 237.59 105.26 237.04 L 105.26 210.04 Z M 111.97 210.04 C 111.97 209.49 111.53 209.04 110.97 209.04 L 110.97 209.04 C 110.42 209.04 109.97 209.49 109.97 210.04 L 109.97 237.04 C 109.97 237.59 110.42 238.04 110.97 238.04 L 110.97 238.04 C 111.53 238.04 111.97 237.59 111.97 237.04 L 111.97 210.04 Z M 114.69 210.04 C 114.69 209.49 115.14 209.04 115.69 209.04 L 115.69 209.04 C 116.25 209.04 116.69 209.49 116.69 210.04 L 116.69 237.04 C 116.69 237.59 116.25 238.04 115.69 238.04 L 115.69 238.04 C 115.14 238.04 114.69 237.59 114.69 237.04 L 114.69 210.04 Z M 121.41 210.04 C 121.41 209.49 120.96 209.04 120.41 209.04 L 120.41 209.04 C 119.86 209.04 119.41 209.49 119.41 210.04 L 119.41 237.04 C 119.41 237.59 119.86 238.04 120.41 238.04 L 120.41 238.04 C 120.96 238.04 121.41 237.59 121.41 237.04 L 121.41 210.04 Z M 124.13 210.04 C 124.13 209.49 124.58 209.04 125.13 209.04 L 125.13 209.04 C 125.68 209.04 126.13 209.49 126.13 210.04 L 126.13 237.04 C 126.13 237.59 125.68 238.04 125.13 238.04 L 125.13 238.04 C 124.58 238.04 124.13 237.59 124.13 237.04 L 124.13 210.04 Z M 130.85 210.04 C 130.85 209.49 130.4 209.04 129.85 209.04 L 129.85 209.04 C 129.3 209.04 128.85 209.49 128.85 210.04 L 128.85 237.04 C 128.85 237.59 129.3 238.04 129.85 238.04 L 129.85 238.04 C 130.4 238.04 130.85 237.59 130.85 237.04 L 130.85 210.04 Z M 133.57 210.04 C 133.57 209.49 134.01 209.04 134.57 209.04 L 134.57 209.04 C 135.12 209.04 135.57 209.49 135.57 210.04 L 135.57 237.04 C 135.57 237.59 135.12 238.04 134.57 238.04 L 134.57 238.04 C 134.01 238.04 133.57 237.59 133.57 237.04 L 133.57 210.04 Z M 140.29 210.04 C 140.29 209.49 139.84 209.04 139.29 209.04 L 139.29 209.04 C 138.73 209.04 138.29 209.49 138.29 210.04 L 138.29 237.04 C 138.29 237.59 138.73 238.04 139.29 238.04 L 139.29 238.04 C 139.84 238.04 140.29 237.59 140.29 237.04 L 140.29 210.04 Z M 143.01 210.04 C 143.01 209.49 143.45 209.04 144.01 209.04 L 144.01 209.04 C 144.56 209.04 145.01 209.49 145.01 210.04 L 145.01 237.04 C 145.01 237.59 144.56 238.04 144.01 238.04 L 144.01 238.04 C 143.45 238.04 143.01 237.59 143.01 237.04 L 143.01 210.04 Z M 149.72 210.04 C 149.72 209.49 149.28 209.04 148.72 209.04 L 148.72 209.04 C 148.17 209.04 147.72 209.49 147.72 210.04 L 147.72 237.04 C 147.72 237.59 148.17 238.04 148.72 238.04 L 148.72 238.04 C 149.28 238.04 149.72 237.59 149.72 237.04 L 149.72 210.04 Z M 152.44 210.04 C 152.44 209.49 152.89 209.04 153.44 209.04 L 153.44 209.04 C 154 209.04 154.44 209.49 154.44 210.04 L 154.44 237.04 C 154.44 237.59 154 238.04 153.44 238.04 L 153.44 238.04 C 152.89 238.04 152.44 237.59 152.44 237.04 L 152.44 210.04 Z M 159.16 210.04 C 159.16 209.49 158.71 209.04 158.16 209.04 L 158.16 209.04 C 157.61 209.04 157.16 209.49 157.16 210.04 L 157.16 237.04 C 157.16 237.59 157.61 238.04 158.16 238.04 L 158.16 238.04 C 158.71 238.04 159.16 237.59 159.16 237.04 L 159.16 210.04 Z M 161.88 210.04 C 161.88 209.49 162.33 209.04 162.88 209.04 L 162.88 209.04 C 163.43 209.04 163.88 209.49 163.88 210.04 L 163.88 237.04 C 163.88 237.59 163.43 238.04 162.88 238.04 L 162.88 238.04 C 162.33 238.04 161.88 237.59 161.88 237.04 L 161.88 210.04 Z M 168.6 210.04 C 168.6 209.49 168.15 209.04 167.6 209.04 L 167.6 209.04 C 167.05 209.04 166.6 209.49 166.6 210.04 L 166.6 237.04 C 166.6 237.59 167.05 238.04 167.6 238.04 L 167.6 238.04 C 168.15 238.04 168.6 237.59 168.6 237.04 L 168.6 210.04 Z M 171.32 210.04 C 171.32 209.49 171.77 209.04 172.32 209.04 L 172.32 209.04 C 172.87 209.04 173.32 209.49 173.32 210.04 L 173.32 237.04 C 173.32 237.59 172.87 238.04 172.32 238.04 L 172.32 238.04 C 171.77 238.04 171.32 237.59 171.32 237.04 L 171.32 210.04 Z M 178.04 210.04 C 178.04 209.49 177.59 209.04 177.04 209.04 L 177.04 209.04 C 176.48 209.04 176.04 209.49 176.04 210.04 L 176.04 237.04 C 176.04 237.59 176.48 238.04 177.04 238.04 L 177.04 238.04 C 177.59 238.04 178.04 237.59 178.04 237.04 L 178.04 210.04 Z M 180.76 210.04 C 180.76 209.49 181.2 209.04 181.76 209.04 L 181.76 209.04 C 182.31 209.04 182.76 209.49 182.76 210.04 L 182.76 237.04 C 182.76 237.59 182.31 238.04 181.76 238.04 L 181.76 238.04 C 181.2 238.04 180.76 237.59 180.76 237.04 L 180.76 210.04 Z M 187.47 210.04 C 187.47 209.49 187.03 209.04 186.47 209.04 L 186.47 209.04 C 185.92 209.04 185.47 209.49 185.47 210.04 L 185.47 237.04 C 185.47 237.59 185.92 238.04 186.47 238.04 L 186.47 238.04 C 187.03 238.04 187.47 237.59 187.47 237.04 L 187.47 210.04 Z M 190.19 210.04 C 190.19 209.49 190.64 209.04 191.19 209.04 L 191.19 209.04 C 191.75 209.04 192.19 209.49 192.19 210.04 L 192.19 237.04 C 192.19 237.59 191.75 238.04 191.19 238.04 L 191.19 238.04 C 190.64 238.04 190.19 237.59 190.19 237.04 L 190.19 210.04 Z M 196.91 210.04 C 196.91 209.49 196.46 209.04 195.91 209.04 L 195.91 209.04 C 195.36 209.04 194.91 209.49 194.91 210.04 L 194.91 237.04 C 194.91 237.59 195.36 238.04 195.91 238.04 L 195.91 238.04 C 196.46 238.04 196.91 237.59 196.91 237.04 L 196.91 210.04 Z M 199.63 210.04 C 199.63 209.49 200.08 209.04 200.63 209.04 L 200.63 209.04 C 201.18 209.04 201.63 209.49 201.63 210.04 L 201.63 237.04 C 201.63 237.59 201.18 238.04 200.63 238.04 L 200.63 238.04 C 200.08 238.04 199.63 237.59 199.63 237.04 L 199.63 210.04 Z M 206.35 210.04 C 206.35 209.49 205.9 209.04 205.35 209.04 L 205.35 209.04 C 204.8 209.04 204.35 209.49 204.35 210.04 L 204.35 237.04 C 204.35 237.59 204.8 238.04 205.35 238.04 L 205.35 238.04 C 205.9 238.04 206.35 237.59 206.35 237.04 L 206.35 210.04 Z M 209.07 210.04 C 209.07 209.49 209.52 209.04 210.07 209.04 L 210.07 209.04 C 210.62 209.04 211.07 209.49 211.07 210.04 L 211.07 237.04 C 211.07 237.59 210.62 238.04 210.07 238.04 L 210.07 238.04 C 209.52 238.04 209.07 237.59 209.07 237.04 L 209.07 210.04 Z M 215.79 210.04 C 215.79 209.49 215.34 209.04 214.79 209.04 L 214.79 209.04 C 214.23 209.04 213.79 209.49 213.79 210.04 L 213.79 237.04 C 213.79 237.59 214.23 238.04 214.79 238.04 L 214.79 238.04 C 215.34 238.04 215.79 237.59 215.79 237.04 L 215.79 210.04 Z M 218.51 210.04 C 218.51 209.49 218.95 209.04 219.51 209.04 L 219.51 209.04 C 220.06 209.04 220.51 209.49 220.51 210.04 L 220.51 237.04 C 220.51 237.59 220.06 238.04 219.51 238.04 L 219.51 238.04 C 218.95 238.04 218.51 237.59 218.51 237.04 L 218.51 210.04 Z M 225.22 210.04 C 225.22 209.49 224.78 209.04 224.22 209.04 L 224.22 209.04 C 223.67 209.04 223.22 209.49 223.22 210.04 L 223.22 237.04 C 223.22 237.59 223.67 238.04 224.22 238.04 L 224.22 238.04 C 224.78 238.04 225.22 237.59 225.22 237.04 L 225.22 210.04 Z M 227.94 210.04 C 227.94 209.49 228.39 209.04 228.94 209.04 L 228.94 209.04 C 229.5 209.04 229.94 209.49 229.94 210.04 L 229.94 237.04 C 229.94 237.59 229.5 238.04 228.94 238.04 L 228.94 238.04 C 228.39 238.04 227.94 237.59 227.94 237.04 L 227.94 210.04 Z M 234.66 210.04 C 234.66 209.49 234.21 209.04 233.66 209.04 L 233.66 209.04 C 233.11 209.04 232.66 209.49 232.66 210.04 L 232.66 237.04 C 232.66 237.59 233.11 238.04 233.66 238.04 L 233.66 238.04 C 234.21 238.04 234.66 237.59 234.66 237.04 L 234.66 210.04 Z M 237.38 210.04 C 237.38 209.49 237.83 209.04 238.38 209.04 L 238.38 209.04 C 238.93 209.04 239.38 209.49 239.38 210.04 L 239.38 237.04 C 239.38 237.59 238.93 238.04 238.38 238.04 L 238.38 238.04 C 237.83 238.04 237.38 237.59 237.38 237.04 L 237.38 210.04 Z M 39.74 179.67 C 41.82 179.67 43.62 178.44 44.44 176.66 C 44.74 176.01 45.34 175.49 46.06 175.49 L 625.31 175.49 C 625.68 175.49 626.03 175.62 626.3 175.87 L 689.08 231.58 C 689.61 232.05 689.72 232.83 689.52 233.51 C 689.39 233.97 689.32 234.45 689.32 234.96 C 689.32 237.82 691.64 240.14 694.5 240.14 C 697.36 240.14 699.68 237.82 699.68 234.96 C 699.68 232.09 697.36 229.77 694.5 229.77 C 693.74 229.77 693.02 229.94 692.37 230.23 C 691.71 230.53 690.91 230.53 690.36 230.04 L 626.92 173.74 L 626.92 173.74 C 626.74 173.58 626.5 173.49 626.26 173.49 L 626.26 173.49 L 46.06 173.49 C 45.34 173.49 44.74 172.97 44.44 172.32 C 43.62 170.54 41.82 169.31 39.74 169.31 C 36.87 169.31 34.55 171.63 34.55 174.49 C 34.55 177.35 36.87 179.67 39.74 179.67 Z M 334.68 289.79 C 334.98 290.45 335.58 290.97 336.3 290.97 L 357.62 290.97 L 357.62 290.97 C 357.88 290.97 358.13 291.07 358.32 291.26 L 358.32 291.26 L 393.01 325.94 C 393.29 326.22 393.67 326.38 394.07 326.38 L 592.84 326.38 C 593.65 326.38 594.29 325.72 594.54 324.95 C 595.21 322.85 597.17 321.34 599.48 321.34 C 602.34 321.34 604.66 323.66 604.66 326.52 C 604.66 329.38 602.34 331.7 599.48 331.7 C 597.64 331.7 596.03 330.74 595.11 329.3 C 594.77 328.78 594.23 328.38 593.61 328.38 L 393.03 328.38 L 393.03 328.38 C 392.77 328.38 392.51 328.28 392.32 328.09 L 392.32 328.09 L 357.64 293.41 C 357.36 293.12 356.98 292.97 356.58 292.97 L 336.3 292.97 C 335.58 292.97 334.98 293.49 334.68 294.14 C 333.86 295.92 332.06 297.15 329.97 297.15 C 327.11 297.15 324.79 294.83 324.79 291.97 C 324.79 289.1 327.11 286.78 329.97 286.78 C 332.06 286.78 333.86 288.02 334.68 289.79 Z M 957.1 188.31 C 959.96 188.31 962.28 185.99 962.28 183.13 C 962.28 180.26 959.96 177.94 957.1 177.94 C 955.01 177.94 953.21 179.18 952.39 180.95 C 952.09 181.61 951.49 182.13 950.78 182.13 L 811.39 182.13 C 810.67 182.13 810.07 181.61 809.77 180.95 C 808.95 179.18 807.15 177.94 805.07 177.94 C 802.2 177.94 799.88 180.26 799.88 183.13 C 799.88 185.99 802.2 188.31 805.07 188.31 C 807.15 188.31 808.95 187.08 809.77 185.3 C 810.08 184.65 810.67 184.13 811.39 184.13 L 950.78 184.13 C 951.49 184.13 952.09 184.65 952.39 185.3 C 953.21 187.08 955.01 188.31 957.1 188.31 Z M 859.35 423.27 C 859.35 425.58 857.48 427.45 855.17 427.45 C 852.86 427.45 850.98 425.58 850.98 423.27 C 850.98 420.95 852.86 419.08 855.17 419.08 C 857.48 419.08 859.35 420.95 859.35 423.27 Z M 894.9 460.27 C 897.21 460.27 899.09 458.4 899.09 456.09 C 899.09 453.78 897.21 451.91 894.9 451.91 C 892.59 451.91 890.72 453.78 890.72 456.09 C 890.72 458.4 892.59 460.27 894.9 460.27 Z M 1007.92 317.88 C 1007.92 320.19 1006.05 322.06 1003.74 322.06 C 1001.43 322.06 999.56 320.19 999.56 317.88 C 999.56 315.57 1001.43 313.7 1003.74 313.7 C 1006.05 313.7 1007.92 315.57 1007.92 317.88 Z M 1044.2 153.76 C 1044.2 156.07 1042.33 157.94 1040.02 157.94 C 1037.71 157.94 1035.84 156.07 1035.84 153.76 C 1035.84 151.45 1037.71 149.57 1040.02 149.57 C 1042.33 149.57 1044.2 151.45 1044.2 153.76 Z M 468.87 684.27 C 468.25 684.27 467.71 684.66 467.37 685.19 C 466.45 686.63 464.84 687.59 463 687.59 C 460.14 687.59 457.82 685.27 457.82 682.41 C 457.82 679.54 460.14 677.22 463 677.22 C 465.31 677.22 467.27 678.74 467.94 680.83 C 468.19 681.61 468.83 682.27 469.64 682.27 L 714.2 682.27 C 714.59 682.27 714.97 682.11 715.26 681.83 L 744.87 652.22 C 745.42 651.66 745.43 650.78 745.1 650.07 C 744.78 649.4 744.6 648.65 744.6 647.85 C 744.6 644.99 746.92 642.67 749.78 642.67 C 752.65 642.67 754.97 644.99 754.97 647.85 C 754.97 650.72 752.65 653.04 749.78 653.04 C 749.32 653.04 748.88 652.98 748.45 652.87 C 747.83 652.7 747.13 652.79 746.67 653.25 L 715.94 683.98 L 715.94 683.98 C 715.75 684.17 715.5 684.27 715.23 684.27 L 715.23 684.27 L 468.87 684.27 Z M 169.31 763.6 C 172.17 763.6 174.49 761.28 174.49 758.42 C 174.49 757.82 174.39 757.24 174.2 756.71 C 173.96 756.03 174.03 755.24 174.54 754.74 L 196.92 733.07 C 197.2 732.8 197.57 732.64 197.96 732.64 L 403.84 732.64 C 405.14 732.64 405.83 734.18 404.96 735.15 L 296.29 856.26 C 296 856.58 295.6 856.76 295.17 856.76 L 11.83 856.76 C 11.01 856.76 10.37 856.1 10.12 855.32 C 9.46 853.23 7.5 851.71 5.18 851.71 C 2.32 851.71 0 854.03 0 856.9 C 0 859.76 2.32 862.08 5.18 862.08 C 7.02 862.08 8.64 861.12 9.56 859.68 C 9.89 859.15 10.43 858.76 11.05 858.76 L 296.29 858.76 L 296.29 858.76 C 296.57 858.76 296.84 858.64 297.03 858.43 L 297.03 858.43 L 409.44 733.14 C 409.73 732.82 410.13 732.64 410.56 732.64 L 428.32 732.64 C 428.7 732.64 429.07 732.79 429.35 733.05 L 471.82 772.97 L 471.82 772.97 C 472 773.15 472.25 773.24 472.5 773.24 L 472.5 773.24 L 688.18 773.24 C 688.89 773.24 689.49 773.76 689.79 774.41 C 690.61 776.19 692.41 777.43 694.5 777.43 C 697.36 777.43 699.68 775.1 699.68 772.24 C 699.68 769.38 697.36 767.06 694.5 767.06 C 692.41 767.06 690.61 768.29 689.79 770.07 C 689.49 770.72 688.89 771.24 688.18 771.24 L 473.49 771.24 C 473.11 771.24 472.74 771.1 472.47 770.84 L 430 730.91 L 430 730.91 C 429.81 730.74 429.57 730.64 429.31 730.64 L 429.31 730.64 L 409.44 730.64 L 196.95 730.64 L 196.95 730.64 C 196.69 730.64 196.44 730.74 196.25 730.93 L 196.25 730.93 L 173.15 753.31 C 172.64 753.8 171.84 753.85 171.18 753.59 C 170.6 753.36 169.97 753.24 169.31 753.24 C 166.44 753.24 164.12 755.56 164.12 758.42 C 164.12 761.28 166.44 763.6 169.31 763.6 Z M 1025.61 984.01 C 1024.89 984.01 1024.3 984.53 1024 985.18 C 1023.18 986.96 1021.38 988.19 1019.29 988.19 C 1016.43 988.19 1014.11 985.87 1014.11 983.01 C 1014.11 980.15 1016.43 977.83 1019.29 977.83 C 1021.38 977.83 1023.18 979.06 1024 980.84 C 1024.3 981.49 1024.89 982.01 1025.61 982.01 L 1627.27 982.01 C 1627.82 982.01 1628.27 982.46 1628.27 983.01 L 1628.27 983.01 C 1628.27 983.56 1627.82 984.01 1627.27 984.01 L 1025.61 984.01 Z M 1541.03 919.09 C 1543.11 919.09 1544.91 917.86 1545.73 916.08 C 1546.04 915.43 1546.63 914.91 1547.35 914.91 L 1626.41 914.91 C 1626.96 914.91 1627.41 914.46 1627.41 913.91 L 1627.41 913.91 C 1627.41 913.35 1626.96 912.91 1626.41 912.91 L 1547.35 912.91 C 1546.63 912.91 1546.04 912.39 1545.73 911.73 C 1544.91 909.96 1543.11 908.72 1541.03 908.72 C 1538.17 908.72 1535.84 911.04 1535.84 913.91 C 1535.84 916.77 1538.17 919.09 1541.03 919.09 Z M 1594.58 810.25 C 1597.45 810.25 1599.77 807.93 1599.77 805.07 C 1599.77 804.63 1599.71 804.21 1599.61 803.8 C 1599.45 803.17 1599.55 802.47 1600.02 802.02 L 1627.39 775.38 C 1627.79 775 1627.8 774.37 1627.41 773.97 L 1627.41 773.97 C 1627.02 773.57 1626.39 773.57 1626 773.95 L 1599.01 800.21 C 1598.45 800.76 1597.56 800.75 1596.86 800.41 C 1596.17 800.07 1595.4 799.88 1594.58 799.88 C 1591.72 799.88 1589.4 802.2 1589.4 805.07 C 1589.4 807.93 1591.72 810.25 1594.58 810.25 Z M 882.13 1.5 C 882.13 0.67 881.46 0 880.63 0 L 879.63 0 C 878.81 0 878.13 0.67 878.13 1.5 L 878.13 8.5 C 878.13 9.33 878.81 10 879.63 10 L 880.63 10 C 881.46 10 882.13 9.33 882.13 8.5 L 882.13 1.5 Z M 890.73 1.5 C 890.73 0.67 891.41 0 892.23 0 L 893.23 0 C 894.06 0 894.73 0.67 894.73 1.5 L 894.73 8.5 C 894.73 9.33 894.06 10 893.23 10 L 892.23 10 C 891.41 10 890.73 9.33 890.73 8.5 L 890.73 1.5 Z M 907.33 1.5 C 907.33 0.67 906.66 0 905.83 0 L 904.83 0 C 904.01 0 903.33 0.67 903.33 1.5 L 903.33 8.5 C 903.33 9.33 904.01 10 904.83 10 L 905.83 10 C 906.66 10 907.33 9.33 907.33 8.5 L 907.33 1.5 Z M 915.93 1.5 C 915.93 0.67 916.61 0 917.43 0 L 918.43 0 C 919.26 0 919.93 0.67 919.93 1.5 L 919.93 8.5 C 919.93 9.33 919.26 10 918.43 10 L 917.43 10 C 916.61 10 915.93 9.33 915.93 8.5 L 915.93 1.5 Z M 932.53 1.5 C 932.53 0.67 931.86 0 931.03 0 L 930.03 0 C 929.21 0 928.53 0.67 928.53 1.5 L 928.53 8.5 C 928.53 9.33 929.21 10 930.03 10 L 931.03 10 C 931.86 10 932.53 9.33 932.53 8.5 L 932.53 1.5 Z M 941.13 1.5 C 941.13 0.67 941.81 0 942.63 0 L 943.63 0 C 944.46 0 945.13 0.67 945.13 1.5 L 945.13 8.5 C 945.13 9.33 944.46 10 943.63 10 L 942.63 10 C 941.81 10 941.13 9.33 941.13 8.5 L 941.13 1.5 Z M 957.73 1.5 C 957.73 0.67 957.06 0 956.23 0 L 955.23 0 C 954.41 0 953.73 0.67 953.73 1.5 L 953.73 8.5 C 953.73 9.33 954.41 10 955.23 10 L 956.23 10 C 957.06 10 957.73 9.33 957.73 8.5 L 957.73 1.5 Z M 966.33 1.5 C 966.33 0.67 967.01 0 967.83 0 L 968.83 0 C 969.66 0 970.33 0.67 970.33 1.5 L 970.33 8.5 C 970.33 9.33 969.66 10 968.83 10 L 967.83 10 C 967.01 10 966.33 9.33 966.33 8.5 L 966.33 1.5 Z M 982.93 1.5 C 982.93 0.67 982.26 0 981.43 0 L 980.43 0 C 979.61 0 978.93 0.67 978.93 1.5 L 978.93 8.5 C 978.93 9.33 979.61 10 980.43 10 L 981.43 10 C 982.26 10 982.93 9.33 982.93 8.5 L 982.93 1.5 Z M 991.53 1.5 C 991.53 0.67 992.21 0 993.03 0 L 994.03 0 C 994.86 0 995.53 0.67 995.53 1.5 L 995.53 8.5 C 995.53 9.33 994.86 10 994.03 10 L 993.03 10 C 992.21 10 991.53 9.33 991.53 8.5 L 991.53 1.5 Z M 1008.13 1.5 C 1008.13 0.67 1007.46 0 1006.63 0 L 1005.63 0 C 1004.8 0 1004.13 0.67 1004.13 1.5 L 1004.13 8.5 C 1004.13 9.33 1004.8 10 1005.63 10 L 1006.63 10 C 1007.46 10 1008.13 9.33 1008.13 8.5 L 1008.13 1.5 Z M 1016.73 1.5 C 1016.73 0.67 1017.4 0 1018.23 0 L 1019.23 0 C 1020.06 0 1020.73 0.67 1020.73 1.5 L 1020.73 8.5 C 1020.73 9.33 1020.06 10 1019.23 10 L 1018.23 10 C 1017.4 10 1016.73 9.33 1016.73 8.5 L 1016.73 1.5 Z M 1033.33 1.5 C 1033.33 0.67 1032.66 0 1031.83 0 L 1030.83 0 C 1030 0 1029.33 0.67 1029.33 1.5 L 1029.33 8.5 C 1029.33 9.33 1030 10 1030.83 10 L 1031.83 10 C 1032.66 10 1033.33 9.33 1033.33 8.5 L 1033.33 1.5 Z M 1041.93 1.5 C 1041.93 0.67 1042.61 0 1043.43 0 L 1044.43 0 C 1045.26 0 1045.93 0.67 1045.93 1.5 L 1045.93 8.5 C 1045.93 9.33 1045.26 10 1044.43 10 L 1043.43 10 C 1042.61 10 1041.93 9.33 1041.93 8.5 L 1041.93 1.5 Z M 1058.53 1.5 C 1058.53 0.67 1057.86 0 1057.03 0 L 1056.03 0 C 1055.21 0 1054.53 0.67 1054.53 1.5 L 1054.53 8.5 C 1054.53 9.33 1055.21 10 1056.03 10 L 1057.03 10 C 1057.86 10 1058.53 9.33 1058.53 8.5 L 1058.53 1.5 Z M 44.92 879.13 C 44.92 878.3 45.59 877.63 46.42 877.63 L 47.42 877.63 C 48.25 877.63 48.92 878.3 48.92 879.13 L 48.92 886.13 C 48.92 886.96 48.25 887.63 47.42 887.63 L 46.42 887.63 C 45.59 887.63 44.92 886.96 44.92 886.13 L 44.92 879.13 Z M 62.92 879.13 C 62.92 878.3 62.25 877.63 61.42 877.63 L 60.42 877.63 C 59.59 877.63 58.92 878.3 58.92 879.13 L 58.92 886.13 C 58.92 886.96 59.59 887.63 60.42 887.63 L 61.42 887.63 C 62.25 887.63 62.92 886.96 62.92 886.13 L 62.92 879.13 Z M 72.92 879.13 C 72.92 878.3 73.59 877.63 74.42 877.63 L 75.42 877.63 C 76.25 877.63 76.92 878.3 76.92 879.13 L 76.92 886.13 C 76.92 886.96 76.25 887.63 75.42 887.63 L 74.42 887.63 C 73.59 887.63 72.92 886.96 72.92 886.13 L 72.92 879.13 Z M 90.92 879.13 C 90.92 878.3 90.25 877.63 89.42 877.63 L 88.42 877.63 C 87.59 877.63 86.92 878.3 86.92 879.13 L 86.92 886.13 C 86.92 886.96 87.59 887.63 88.42 887.63 L 89.42 887.63 C 90.25 887.63 90.92 886.96 90.92 886.13 L 90.92 879.13 Z M 100.92 879.13 C 100.92 878.3 101.59 877.63 102.42 877.63 L 103.42 877.63 C 104.25 877.63 104.92 878.3 104.92 879.13 L 104.92 886.13 C 104.92 886.96 104.25 887.63 103.42 887.63 L 102.42 887.63 C 101.59 887.63 100.92 886.96 100.92 886.13 L 100.92 879.13 Z M 118.92 879.13 C 118.92 878.3 118.25 877.63 117.42 877.63 L 116.42 877.63 C 115.59 877.63 114.92 878.3 114.92 879.13 L 114.92 886.13 C 114.92 886.96 115.59 887.63 116.42 887.63 L 117.42 887.63 C 118.25 887.63 118.92 886.96 118.92 886.13 L 118.92 879.13 Z M 128.92 879.13 C 128.92 878.3 129.59 877.63 130.42 877.63 L 131.42 877.63 C 132.25 877.63 132.92 878.3 132.92 879.13 L 132.92 886.13 C 132.92 886.96 132.25 887.63 131.42 887.63 L 130.42 887.63 C 129.59 887.63 128.92 886.96 128.92 886.13 L 128.92 879.13 Z M 146.92 879.13 C 146.92 878.3 146.25 877.63 145.42 877.63 L 144.42 877.63 C 143.59 877.63 142.92 878.3 142.92 879.13 L 142.92 886.13 C 142.92 886.96 143.59 887.63 144.42 887.63 L 145.42 887.63 C 146.25 887.63 146.92 886.96 146.92 886.13 L 146.92 879.13 Z M 156.92 879.13 C 156.92 878.3 157.59 877.63 158.42 877.63 L 159.42 877.63 C 160.25 877.63 160.92 878.3 160.92 879.13 L 160.92 886.13 C 160.92 886.96 160.25 887.63 159.42 887.63 L 158.42 887.63 C 157.59 887.63 156.92 886.96 156.92 886.13 L 156.92 879.13 Z M 1106.2 731.65 C 1106.91 731.13 1107.87 731.13 1108.57 731.65 L 1138.18 753.35 C 1139.27 754.15 1139.27 755.78 1138.18 756.58 L 1108.57 778.29 C 1107.87 778.8 1106.91 778.8 1106.2 778.29 L 1101.34 774.72 C 1100.25 773.92 1100.25 772.29 1101.34 771.49 L 1121.68 756.58 C 1122.77 755.78 1122.77 754.15 1121.68 753.35 L 1101.34 738.44 C 1100.25 737.64 1100.25 736.01 1101.34 735.21 L 1106.2 731.65 Z M 1060.41 731.65 C 1059.71 731.13 1058.75 731.13 1058.05 731.65 L 1053.18 735.21 C 1052.09 736.01 1052.09 737.64 1053.18 738.44 L 1073.53 753.35 C 1074.62 754.15 1074.62 755.78 1073.53 756.58 L 1053.18 771.49 C 1052.09 772.29 1052.09 773.92 1053.18 774.72 L 1058.05 778.29 C 1058.75 778.8 1059.71 778.8 1060.41 778.29 L 1090.02 756.58 C 1091.11 755.78 1091.11 754.15 1090.02 753.35 L 1060.41 731.65 Z M 1009.89 731.65 C 1010.6 731.13 1011.56 731.13 1012.26 731.65 L 1041.87 753.35 C 1042.96 754.15 1042.96 755.78 1041.87 756.58 L 1012.26 778.29 C 1011.56 778.8 1010.6 778.8 1009.89 778.29 L 1005.03 774.72 C 1003.94 773.92 1003.94 772.29 1005.03 771.49 L 1025.37 756.58 C 1026.46 755.78 1026.46 754.15 1025.37 753.35 L 1005.03 738.44 C 1003.94 737.64 1003.94 736.01 1005.03 735.21 L 1009.89 731.65 Z M 482.87 962.01 C 487.97 962.01 492.1 957.88 492.1 952.78 C 492.1 947.68 487.97 943.55 482.87 943.55 C 477.77 943.55 473.64 947.68 473.64 952.78 C 473.64 957.88 477.77 962.01 482.87 962.01 Z M 482.87 964.01 C 489.07 964.01 494.1 958.98 494.1 952.78 C 494.1 946.58 489.07 941.55 482.87 941.55 C 476.67 941.55 471.64 946.58 471.64 952.78 C 471.64 958.98 476.67 964.01 482.87 964.01 Z M 528.38 952.78 C 528.38 957.88 524.25 962.01 519.15 962.01 C 514.05 962.01 509.92 957.88 509.92 952.78 C 509.92 947.68 514.05 943.55 519.15 943.55 C 524.25 943.55 528.38 947.68 528.38 952.78 Z M 530.38 952.78 C 530.38 958.98 525.35 964.01 519.15 964.01 C 512.95 964.01 507.92 958.98 507.92 952.78 C 507.92 946.58 512.95 941.55 519.15 941.55 C 525.35 941.55 530.38 946.58 530.38 952.78 Z M 555.43 962.01 C 560.52 962.01 564.66 957.88 564.66 952.78 C 564.66 947.68 560.52 943.55 555.43 943.55 C 550.33 943.55 546.2 947.68 546.2 952.78 C 546.2 957.88 550.33 962.01 555.43 962.01 Z M 555.43 964.01 C 561.63 964.01 566.66 958.98 566.66 952.78 C 566.66 946.58 561.63 941.55 555.43 941.55 C 549.22 941.55 544.2 946.58 544.2 952.78 C 544.2 958.98 549.22 964.01 555.43 964.01 Z M 708.05 952.78 C 708.05 957.88 703.92 962.01 698.82 962.01 C 693.72 962.01 689.59 957.88 689.59 952.78 C 689.59 947.68 693.72 943.55 698.82 943.55 C 703.92 943.55 708.05 947.68 708.05 952.78 Z M 710.05 952.78 C 710.05 958.98 705.02 964.01 698.82 964.01 C 692.62 964.01 687.59 958.98 687.59 952.78 C 687.59 946.58 692.62 941.55 698.82 941.55 C 705.02 941.55 710.05 946.58 710.05 952.78 Z M 771.38 962.01 C 776.48 962.01 780.61 957.88 780.61 952.78 C 780.61 947.68 776.48 943.55 771.38 943.55 C 766.28 943.55 762.15 947.68 762.15 952.78 C 762.15 957.88 766.28 962.01 771.38 962.01 Z M 771.38 964.01 C 777.58 964.01 782.61 958.98 782.61 952.78 C 782.61 946.58 777.58 941.55 771.38 941.55 C 765.18 941.55 760.15 946.58 760.15 952.78 C 760.15 958.98 765.18 964.01 771.38 964.01 Z M 588.25 964.01 C 594.45 964.01 599.48 958.98 599.48 952.78 C 599.48 946.58 594.45 941.55 588.25 941.55 C 582.05 941.55 577.02 946.58 577.02 952.78 C 577.02 958.98 582.05 964.01 588.25 964.01 Z M 637.49 952.78 C 637.49 958.98 632.46 964.01 626.26 964.01 C 620.06 964.01 615.03 958.98 615.03 952.78 C 615.03 946.58 620.06 941.55 626.26 941.55 C 632.46 941.55 637.49 946.58 637.49 952.78 Z M 662.54 964.01 C 668.74 964.01 673.77 958.98 673.77 952.78 C 673.77 946.58 668.74 941.55 662.54 941.55 C 656.34 941.55 651.31 946.58 651.31 952.78 C 651.31 958.98 656.34 964.01 662.54 964.01 Z M 746.33 952.78 C 746.33 958.98 741.3 964.01 735.1 964.01 C 728.9 964.01 723.87 958.98 723.87 952.78 C 723.87 946.58 728.9 941.55 735.1 941.55 C 741.3 941.55 746.33 946.58 746.33 952.78 Z M 809.39 964.01 C 815.59 964.01 820.61 958.98 820.61 952.78 C 820.61 946.58 815.59 941.55 809.39 941.55 C 803.18 941.55 798.16 946.58 798.16 952.78 C 798.16 958.98 803.18 964.01 809.39 964.01 Z" stroke="#000000" stroke-opacity="1" stroke-width="0" stroke-dasharray="none" stroke-dashoffset="0" stroke-linecap="butt" stroke-linejoin="miter" stroke-miterlimit="4" fill="url(#wpgraphicator-gradient-0ytdndhpmppo0h116jpwy)" fill-opacity="1" fill-rule="evenodd" opacity="1" transform=" translate(-814.13, -501)"></path></g></g></g></g></g></g></g></g></svg>