<svg width="1538" height="1004" viewBox="0 0 1538 1004" fill="none" xmlns="http://www.w3.org/2000/svg">
<path fill-rule="evenodd" clip-rule="evenodd" d="M48.3558 0.285165C47.9671 -0.0950559 47.3459 -0.0950547 46.9572 0.285167L44.7413 2.45291C44.3403 2.84514 44.3403 3.49035 44.7413 3.88258L54.2176 13.1529C54.6186 13.5451 54.6186 14.1904 54.2176 14.5826L44.7413 23.8529C44.3403 24.2451 44.3403 24.8904 44.7413 25.2826L46.9572 27.4503C47.3459 27.8306 47.9671 27.8306 48.3558 27.4503L61.5095 14.5826C61.9104 14.1904 61.9104 13.5451 61.5095 13.1529L48.3558 0.285165ZM66.5855 0.285165C66.1968 -0.0950559 65.5756 -0.0950547 65.1869 0.285167L62.971 2.45291C62.57 2.84514 62.57 3.49035 62.971 3.88258L72.4473 13.1529C72.8483 13.5451 72.8483 14.1904 72.4473 14.5826L62.971 23.8529C62.57 24.2451 62.57 24.8904 62.971 25.2826L65.1869 27.4503C65.5756 27.8306 66.1968 27.8306 66.5855 27.4503L79.7392 14.5826C80.1401 14.1904 80.1401 13.5451 79.7392 13.1529L66.5855 0.285165ZM83.4155 0.285167C83.8042 -0.0950547 84.4254 -0.0950559 84.8141 0.285165L97.9678 13.1529C98.3688 13.5451 98.3688 14.1904 97.9678 14.5826L84.8141 27.4503C84.4254 27.8306 83.8042 27.8306 83.4155 27.4503L81.1996 25.2826C80.7987 24.8904 80.7987 24.2451 81.1996 23.8529L90.676 14.5826C91.0769 14.1904 91.0769 13.5451 90.676 13.1529L81.1996 3.88258C80.7987 3.49035 80.7987 2.84514 81.1996 2.45291L83.4155 0.285167ZM103.044 0.285165C102.656 -0.0950559 102.034 -0.0950547 101.646 0.285167L99.4298 2.45291C99.0289 2.84514 99.0289 3.49035 99.4298 3.88258L108.906 13.1529C109.307 13.5451 109.307 14.1904 108.906 14.5826L99.4298 23.8529C99.0289 24.2451 99.0289 24.8904 99.4298 25.2826L101.646 27.4503C102.034 27.8306 102.656 27.8306 103.044 27.4503L116.198 14.5826C116.599 14.1904 116.599 13.5451 116.198 13.1529L103.044 0.285165ZM119.875 0.285167C120.264 -0.0950547 120.885 -0.0950559 121.273 0.285165L134.427 13.1529C134.828 13.5451 134.828 14.1904 134.427 14.5826L121.273 27.4503C120.885 27.8306 120.264 27.8306 119.875 27.4503L117.659 25.2826C117.258 24.8904 117.258 24.2451 117.659 23.8529L127.135 14.5826C127.536 14.1904 127.536 13.5451 127.135 13.1529L117.659 3.88258C117.258 3.49035 117.258 2.84514 117.659 2.45291L119.875 0.285167ZM139.504 0.285165C139.115 -0.0950559 138.494 -0.0950547 138.105 0.285167L135.889 2.45291C135.488 2.84514 135.488 3.49035 135.889 3.88258L145.366 13.1529C145.766 13.5451 145.766 14.1904 145.366 14.5826L135.889 23.8529C135.488 24.2451 135.488 24.8904 135.889 25.2826L138.105 27.4503C138.494 27.8306 139.115 27.8306 139.504 27.4503L152.657 14.5826C153.058 14.1904 153.058 13.5451 152.657 13.1529L139.504 0.285165ZM156.334 0.285167C156.723 -0.0950547 157.344 -0.0950559 157.733 0.285165L170.887 13.1529C171.287 13.5451 171.287 14.1904 170.887 14.5826L157.733 27.4503C157.344 27.8306 156.723 27.8306 156.334 27.4503L154.118 25.2826C153.717 24.8904 153.717 24.2451 154.118 23.8529L163.595 14.5826C163.996 14.1904 163.996 13.5451 163.595 13.1529L154.118 3.88258C153.717 3.49035 153.717 2.84514 154.118 2.45291L156.334 0.285167ZM169.406 92.6408C168.577 92.6408 167.906 93.3124 167.906 94.1408V109.626C167.906 110.454 168.577 111.126 169.406 111.126H174.108C174.936 111.126 175.608 110.454 175.608 109.626V94.1408C175.608 93.3124 174.936 92.6408 174.108 92.6408H169.406ZM187.891 92.6408C187.063 92.6408 186.391 93.3124 186.391 94.1408V109.626C186.391 110.454 187.063 111.126 187.891 111.126H192.593C193.422 111.126 194.093 110.454 194.093 109.626V94.1408C194.093 93.3124 193.422 92.6408 192.593 92.6408H187.891ZM211.078 92.6408C211.907 92.6408 212.578 93.3124 212.578 94.1408V109.626C212.578 110.454 211.907 111.126 211.078 111.126H206.376C205.548 111.126 204.876 110.454 204.876 109.626V94.1408C204.876 93.3124 205.548 92.6408 206.376 92.6408H211.078ZM224.861 92.6408C224.033 92.6408 223.361 93.3124 223.361 94.1408V109.626C223.361 110.454 224.033 111.126 224.861 111.126H229.563C230.392 111.126 231.063 110.454 231.063 109.626V94.1408C231.063 93.3124 230.392 92.6408 229.563 92.6408H224.861ZM248.048 92.6408C248.877 92.6408 249.548 93.3124 249.548 94.1408V109.626C249.548 110.454 248.877 111.126 248.048 111.126H243.346C242.518 111.126 241.846 110.454 241.846 109.626V94.1408C241.846 93.3124 242.518 92.6408 243.346 92.6408H248.048ZM261.831 92.6408C261.003 92.6408 260.331 93.3124 260.331 94.1408V109.626C260.331 110.454 261.003 111.126 261.831 111.126H266.533C267.362 111.126 268.033 110.454 268.033 109.626V94.1408C268.033 93.3124 267.362 92.6408 266.533 92.6408H261.831ZM285.018 92.6408C285.847 92.6408 286.518 93.3124 286.518 94.1408V109.626C286.518 110.454 285.847 111.126 285.018 111.126H280.316C279.488 111.126 278.816 110.454 278.816 109.626V94.1408C278.816 93.3124 279.488 92.6408 280.316 92.6408H285.018ZM298.802 92.6408C297.973 92.6408 297.302 93.3124 297.302 94.1408V109.626C297.302 110.454 297.973 111.126 298.802 111.126H303.504C304.332 111.126 305.004 110.454 305.004 109.626V94.1408C305.004 93.3124 304.332 92.6408 303.504 92.6408H298.802ZM321.988 92.6408C322.817 92.6408 323.488 93.3124 323.488 94.1408V109.626C323.488 110.454 322.817 111.126 321.988 111.126H317.286C316.458 111.126 315.786 110.454 315.786 109.626V94.1408C315.786 93.3124 316.458 92.6408 317.286 92.6408H321.988ZM77.7914 983.544C80.2167 983.544 82.1828 981.578 82.1828 979.152C82.1828 976.727 80.2167 974.761 77.7914 974.761C75.366 974.761 73.3999 976.727 73.3999 979.152C73.3999 981.578 75.366 983.544 77.7914 983.544ZM77.7914 984.544C80.769 984.544 83.1828 982.13 83.1828 979.152C83.1828 976.175 80.769 973.761 77.7914 973.761C74.8137 973.761 72.3999 976.175 72.3999 979.152C72.3999 982.13 74.8137 984.544 77.7914 984.544ZM100.668 979.152C100.668 981.578 98.7023 983.544 96.2769 983.544C93.8516 983.544 91.8855 981.578 91.8855 979.152C91.8855 976.727 93.8516 974.761 96.2769 974.761C98.7023 974.761 100.668 976.727 100.668 979.152ZM101.668 979.152C101.668 982.13 99.2545 984.544 96.2769 984.544C93.2993 984.544 90.8855 982.13 90.8855 979.152C90.8855 976.175 93.2993 973.761 96.2769 973.761C99.2545 973.761 101.668 976.175 101.668 979.152ZM117.842 983.544C120.268 983.544 122.234 981.578 122.234 979.152C122.234 976.727 120.268 974.761 117.842 974.761C115.417 974.761 113.451 976.727 113.451 979.152C113.451 981.578 115.417 983.544 117.842 983.544ZM117.842 984.544C120.82 984.544 123.234 982.13 123.234 979.152C123.234 976.175 120.82 973.761 117.842 973.761C114.865 973.761 112.451 976.175 112.451 979.152C112.451 982.13 114.865 984.544 117.842 984.544ZM144.799 979.152C144.799 982.13 142.386 984.544 139.408 984.544C136.43 984.544 134.017 982.13 134.017 979.152C134.017 976.175 136.43 973.761 139.408 973.761C142.386 973.761 144.799 976.175 144.799 979.152ZM163.285 979.152C163.285 982.13 160.871 984.544 157.893 984.544C154.915 984.544 152.502 982.13 152.502 979.152C152.502 976.175 154.915 973.761 157.893 973.761C160.871 973.761 163.285 976.175 163.285 979.152ZM176.379 984.544C179.356 984.544 181.77 982.13 181.77 979.152C181.77 976.175 179.356 973.761 176.379 973.761C173.401 973.761 170.987 976.175 170.987 979.152C170.987 982.13 173.401 984.544 176.379 984.544ZM223.361 979.152C223.361 982.13 220.947 984.544 217.969 984.544C214.992 984.544 212.578 982.13 212.578 979.152C212.578 976.175 214.992 973.761 217.969 973.761C220.947 973.761 223.361 976.175 223.361 979.152ZM256.48 984.544C259.457 984.544 261.871 982.13 261.871 979.152C261.871 976.175 259.457 973.761 256.48 973.761C253.502 973.761 251.088 976.175 251.088 979.152C251.088 982.13 253.502 984.544 256.48 984.544ZM197.944 983.544C200.369 983.544 202.336 981.578 202.336 979.152C202.336 976.727 200.369 974.761 197.944 974.761C195.519 974.761 193.553 976.727 193.553 979.152C193.553 981.578 195.519 983.544 197.944 983.544ZM197.944 984.544C200.922 984.544 203.336 982.13 203.336 979.152C203.336 976.175 200.922 973.761 197.944 973.761C194.966 973.761 192.553 976.175 192.553 979.152C192.553 982.13 194.966 984.544 197.944 984.544ZM240.846 979.152C240.846 981.578 238.88 983.544 236.455 983.544C234.029 983.544 232.063 981.578 232.063 979.152C232.063 976.727 234.029 974.761 236.455 974.761C238.88 974.761 240.846 976.727 240.846 979.152ZM241.846 979.152C241.846 982.13 239.432 984.544 236.455 984.544C233.477 984.544 231.063 982.13 231.063 979.152C231.063 976.175 233.477 973.761 236.455 973.761C239.432 973.761 241.846 976.175 241.846 979.152ZM1235.42 13.1824C1237.28 13.1824 1238.79 11.673 1238.79 9.81115C1238.79 7.94925 1237.28 6.43989 1235.42 6.43989C1233.56 6.43989 1232.05 7.94925 1232.05 9.81115C1232.05 11.673 1233.56 13.1824 1235.42 13.1824ZM1235.42 14.4324C1237.97 14.4324 1240.04 12.3634 1240.04 9.81115C1240.04 7.2589 1237.97 5.18989 1235.42 5.18989C1233.63 5.18989 1232.08 6.20112 1231.31 7.68175C1230.99 8.30627 1230.4 8.81141 1229.7 8.81141H631.572C631.304 8.81141 631.047 8.91912 630.859 9.11034L496.807 145.46C496.525 145.747 496.14 145.909 495.737 145.909H108.927C108.223 145.909 107.636 145.404 107.311 144.779C106.541 143.298 104.993 142.287 103.208 142.287C100.656 142.287 98.5872 144.356 98.5872 146.908C98.5872 149.46 100.656 151.529 103.208 151.529C104.993 151.529 106.54 150.518 107.311 149.038C107.636 148.414 108.222 147.909 108.926 147.909H496.785C497.054 147.909 497.31 147.801 497.498 147.61L631.551 11.2598C631.833 10.973 632.218 10.8114 632.62 10.8114H1229.7C1230.4 10.8114 1230.99 11.3165 1231.32 11.9409C1232.09 13.4214 1233.63 14.4324 1235.42 14.4324ZM106.348 145.909C106.315 145.909 106.289 145.936 106.289 145.968V147.849C106.289 147.882 106.315 147.909 106.348 147.909C106.388 147.909 106.417 147.948 106.404 147.986C105.954 149.319 104.694 150.279 103.208 150.279C101.347 150.279 99.8372 148.77 99.8372 146.908C99.8372 145.046 101.347 143.537 103.208 143.537C104.694 143.537 105.955 144.498 106.404 145.832C106.417 145.87 106.388 145.909 106.348 145.909ZM238.88 20.1303C238.893 20.0924 238.864 20.0537 238.824 20.0537C238.792 20.0537 238.765 20.0271 238.765 19.9944V18.1129C238.765 18.0802 238.792 18.0537 238.824 18.0537C238.864 18.0537 238.893 18.0149 238.88 17.9771C238.431 16.6431 237.17 15.6824 235.684 15.6824C233.822 15.6824 232.313 17.1918 232.313 19.0537C232.313 20.9156 233.822 22.4249 235.684 22.4249C237.17 22.4249 238.431 21.4642 238.88 20.1303ZM239.787 21.1833C240.111 20.5588 240.698 20.0537 241.402 20.0537H354.741C355.444 20.0537 356.031 20.5588 356.356 21.1833C357.126 22.6638 358.674 23.6749 360.459 23.6749C363.011 23.6749 365.08 21.6059 365.08 19.0537C365.08 16.5014 363.011 14.4324 360.459 14.4324C358.674 14.4324 357.126 15.4436 356.356 16.9241C356.031 17.5486 355.444 18.0537 354.741 18.0537H241.402C240.698 18.0537 240.111 17.5486 239.787 16.9241C239.017 15.4436 237.468 14.4324 235.684 14.4324C233.132 14.4324 231.063 16.5014 231.063 19.0537C231.063 21.6059 233.132 23.6749 235.684 23.6749C237.468 23.6749 239.017 22.6638 239.787 21.1833ZM357.263 20.1301C357.25 20.0923 357.278 20.0537 357.318 20.0537C357.351 20.0537 357.377 20.0272 357.377 19.9945V18.1128C357.377 18.0801 357.351 18.0537 357.318 18.0537C357.278 18.0537 357.25 18.015 357.263 17.9772C357.712 16.6432 358.973 15.6824 360.459 15.6824C362.32 15.6824 363.83 17.1918 363.83 19.0537C363.83 20.9156 362.32 22.4249 360.459 22.4249C358.973 22.4249 357.712 21.4641 357.263 20.1301ZM30.9231 46.3174C30.4739 47.6514 29.2128 48.6122 27.7273 48.6122C25.8654 48.6122 24.356 47.1029 24.356 45.241C24.356 43.3791 25.8654 41.8697 27.7273 41.8697C29.2126 41.8697 30.4736 42.8303 30.9229 44.1641C30.9357 44.202 30.9072 44.2407 30.8673 44.2407C30.8346 44.2407 30.808 44.2672 30.808 44.3V46.1814C30.808 46.2142 30.8346 46.2407 30.8674 46.2407C30.9073 46.2407 30.9358 46.2795 30.9231 46.3174ZM31.8298 47.3704C31.0597 48.851 29.5116 49.8622 27.7273 49.8622C25.175 49.8622 23.106 47.7932 23.106 45.241C23.106 42.6887 25.175 40.6197 27.7273 40.6197C29.5115 40.6197 31.0595 41.6308 31.8296 43.1112C32.1545 43.7357 32.7412 44.2407 33.4451 44.2407H488.758C489.461 44.2407 490.048 43.7356 490.373 43.1112C491.143 41.6308 492.691 40.6197 494.475 40.6197C497.028 40.6197 499.097 42.6887 499.097 45.241C499.097 47.7932 497.028 49.8622 494.475 49.8622C492.691 49.8622 491.143 48.851 490.373 47.3704C490.048 46.7459 489.461 46.2407 488.757 46.2407H33.4454C32.7414 46.2407 32.1546 46.7459 31.8298 47.3704ZM491.279 46.317C491.728 47.6513 492.99 48.6122 494.475 48.6122C496.337 48.6122 497.847 47.1029 497.847 45.241C497.847 43.3791 496.337 41.8697 494.475 41.8697C492.99 41.8697 491.729 42.8305 491.28 44.1645C491.267 44.2022 491.295 44.2407 491.335 44.2407C491.367 44.2407 491.394 44.2671 491.394 44.2996V46.1817C491.394 46.2143 491.367 46.2407 491.335 46.2407C491.295 46.2407 491.267 46.2793 491.279 46.317ZM942.219 108.987C941.448 110.467 939.9 111.478 938.116 111.478C935.564 111.478 933.495 109.409 933.495 106.857C933.495 104.305 935.564 102.236 938.116 102.236C939.901 102.236 941.449 103.247 942.219 104.728C942.544 105.352 943.13 105.857 943.834 105.857H1135.73C1136.44 105.857 1137.03 105.352 1137.35 104.728C1138.12 103.247 1139.67 102.236 1141.45 102.236C1144 102.236 1146.07 104.305 1146.07 106.857C1146.07 109.409 1144 111.478 1141.45 111.478C1139.67 111.478 1138.12 110.467 1137.35 108.987C1137.03 108.362 1136.44 107.857 1135.73 107.857H943.834C943.13 107.857 942.543 108.362 942.219 108.987ZM595.623 135.537C595.948 136.161 596.535 136.666 597.239 136.666H754.807C755.048 136.666 755.282 136.754 755.464 136.913L802.222 177.734C802.732 178.179 803.47 178.202 804.108 177.978C804.587 177.809 805.103 177.718 805.64 177.718C808.192 177.718 810.261 179.787 810.261 182.339C810.261 184.891 808.192 186.96 805.64 186.96C803.088 186.96 801.019 184.891 801.019 182.339C801.019 181.905 801.079 181.485 801.19 181.086C801.388 180.382 801.293 179.577 800.742 179.096L754.855 139.036C754.582 138.798 754.232 138.666 753.869 138.666H597.238C596.535 138.666 595.948 139.171 595.623 139.796C594.853 141.276 593.305 142.287 591.521 142.287C588.968 142.287 586.899 140.218 586.899 137.666C586.899 135.114 588.968 133.045 591.521 133.045C593.305 133.045 594.853 134.056 595.623 135.537ZM802.651 180.778C802.407 181.245 802.269 181.776 802.269 182.339C802.269 184.201 803.778 185.71 805.64 185.71C807.502 185.71 809.011 184.201 809.011 182.339C809.011 180.477 807.502 178.968 805.64 178.968C805.006 178.968 804.413 179.142 803.907 179.447C803.8 179.511 803.708 179.595 803.626 179.688L802.678 180.775C802.674 180.778 802.669 180.779 802.665 180.775C802.661 180.772 802.654 180.773 802.651 180.778ZM233.625 209.114C232.855 210.595 231.307 211.606 229.523 211.606C226.971 211.606 224.901 209.537 224.901 206.985C224.901 204.433 226.971 202.364 229.523 202.364C231.307 202.364 232.855 203.375 233.625 204.855C233.95 205.48 234.537 205.985 235.241 205.985H835.537C835.89 205.985 836.232 205.86 836.503 205.633L882.343 167.069C882.908 166.593 883.015 165.78 882.821 165.066C882.716 164.68 882.66 164.273 882.66 163.853C882.66 161.301 884.729 159.232 887.282 159.232C889.834 159.232 891.903 161.301 891.903 163.853C891.903 166.405 889.834 168.474 887.282 168.474C886.731 168.474 886.203 168.378 885.713 168.202C885.084 167.975 884.356 167.989 883.844 168.419L837.093 207.75C836.912 207.902 836.684 207.985 836.449 207.985H235.241C234.537 207.985 233.95 208.49 233.625 209.114ZM885.514 166.724C886.028 167.041 886.633 167.224 887.282 167.224C889.143 167.224 890.653 165.715 890.653 163.853C890.653 161.991 889.143 160.482 887.282 160.482C885.42 160.482 883.91 161.991 883.91 163.853C883.91 164.413 884.047 164.94 884.288 165.405C884.293 165.415 884.306 165.417 884.315 165.41C884.322 165.404 884.333 165.405 884.34 165.412L885.237 166.479C885.317 166.574 885.408 166.659 885.514 166.724ZM8.72376 363.157C9.04859 362.532 9.63539 362.027 10.3393 362.027H259.258C259.669 362.027 260.062 362.196 260.346 362.494L302.738 407.158C302.927 407.357 303.189 407.469 303.463 407.469H700.122C700.374 407.469 700.617 407.374 700.802 407.203L741.355 369.599C741.957 369.041 742.895 369.07 743.461 369.664L835.725 466.466C835.914 466.664 836.175 466.776 836.449 466.776H1031.89C1032.26 466.776 1032.62 466.913 1032.9 467.162L1061.9 493.336C1062.52 493.892 1062.56 494.843 1062.01 495.458L1026.69 534.373C1026.41 534.686 1026.01 534.865 1025.58 534.865H526.331C525.929 534.865 525.544 534.704 525.262 534.417L429.72 437.347C429.532 437.156 429.276 437.048 429.008 437.048H239.862C239.158 437.048 238.571 436.543 238.246 435.919C237.476 434.438 235.928 433.427 234.144 433.427C231.591 433.427 229.522 435.496 229.522 438.048C229.522 440.601 231.591 442.67 234.144 442.67C235.928 442.67 237.476 441.658 238.246 440.178C238.571 439.553 239.158 439.048 239.862 439.048H427.96C428.362 439.048 428.747 439.209 429.029 439.496L524.571 536.566C524.759 536.757 525.016 536.865 525.284 536.865H1026.69C1026.97 536.865 1027.24 536.746 1027.43 536.537L1063.41 496.889C1063.98 496.254 1064.97 496.23 1065.58 496.836L1109.17 540.423C1109.35 540.61 1109.61 540.716 1109.87 540.716H1144.74C1146.07 540.716 1146.74 542.318 1145.81 543.267L1109.89 579.858C1109.61 580.145 1109.23 580.307 1108.82 580.307H716.296C716.031 580.307 715.777 580.413 715.589 580.6L675.5 620.689C675.219 620.97 674.837 621.128 674.439 621.128H536.332C535.934 621.128 535.553 620.97 535.272 620.689L468.995 554.413L468.788 554.206C468.733 554.151 468.659 554.12 468.581 554.12C468.419 554.12 468.288 554.251 468.288 554.413V555.12C468.288 554.12 468.288 554.12 468.286 554.12H468.279H468.267H468.25H468.229H468.202H468.171H468.136H468.096H468.051H468.001H467.947H467.889H467.825H467.758H467.685H467.608H467.527H467.441H467.351H467.256H467.157H467.054H466.946H466.833H466.717H466.596H466.471H466.341H466.208H466.07H465.927H465.781H465.63H465.475H465.316H465.153H464.986H464.815H464.639H464.46H464.277H464.089H463.898H463.702H463.503H463.299H463.092H462.881H462.666H462.447H462.224H461.997H461.767H461.532H461.294H461.053H460.807H460.558H460.305H460.048H459.788H459.524H459.256H458.985H458.71H458.432H458.15H457.865H457.576H457.284H456.988H456.688H456.386H456.079H455.77H455.457H455.141H454.821H454.498H454.172H453.842H453.509H453.173H452.834H452.491H452.146H451.797H451.445H451.09H450.731H450.37H450.006H449.638H449.267H448.894H448.517H448.138H447.755H447.37H446.981H446.59H446.196H445.799H445.399H444.996H444.591H444.182H443.771H443.357H442.941H442.522H442.1H441.675H441.247H440.817H440.385H439.95H439.512H439.071H438.628H438.183H437.735H437.285H436.832H436.376H435.918H435.458H434.995H434.53H434.063H433.593H433.121H432.647H432.17H431.691H431.21H430.727H430.241H429.754H429.264H428.771H428.277H427.781H427.282H426.782H426.279H425.775H425.268H424.759H424.249H423.736H423.222H422.705H422.187H421.667H421.145H420.621H420.095H419.567H419.038H418.507H417.974H417.439H416.903H416.365H415.825H415.283H414.74H414.196H413.649H413.101H412.552H412.001H411.448H410.894H410.339H409.782H409.223H408.663H408.102H407.539H406.975H406.41H405.843H405.275H404.706H404.135H403.563H402.99H402.415H401.84H401.263H400.685H400.106H399.525H398.944H398.361H397.778H397.193H396.607H396.021H395.433H394.844H394.255H393.664H393.073H392.48H391.887H391.293H390.698H390.102H389.505H388.908H388.309H387.71H387.111H386.51H385.909H385.307H384.705H384.102H383.498H382.893H382.289H381.683H381.077H380.47H379.863H379.256H378.648H378.039H377.43H376.821H376.211H375.601H374.99H374.379H373.768H373.157H372.545H371.933H371.321H370.708H370.095H369.482H368.869H368.256H367.643H367.029H366.416H365.802H365.188H364.575H363.961H363.347H362.733H362.12H361.506H360.892H360.279H359.666H359.052H358.439H357.826H357.214H356.601H355.989H355.377H354.765H354.153H353.542H352.931H352.321H351.71H351.101H350.491H349.882H349.274H348.665H348.058H347.451H346.844H346.238H345.632H345.027H344.423H343.819H343.216H342.613H342.011H341.41H340.809H340.209H339.61H339.012H338.414H337.818H337.222H336.627H336.032H335.439H334.846H334.255H333.664H333.074H332.485H331.898H331.311H330.725H330.14H329.556H328.974H328.392H327.812H327.232H326.654H326.077H325.501H324.927H324.353H323.781H323.211H322.641H322.073H321.506H320.94H320.376H319.813H319.251H318.691H318.133H317.575H317.02H316.465H315.913H315.362H314.812H314.264H313.717H313.172H312.629H312.087H311.547H311.009H310.473H309.938H309.404H308.873H308.343H307.816H307.289H306.765H306.243H305.722H305.204H304.687H304.172H303.66H303.149H302.64H302.133H301.628H301.125H300.624H300.126H299.629H299.134H298.642H298.152H297.664H297.178H296.694H296.213H295.734H295.257H294.782H294.31H293.84H293.372H292.907H292.444H291.983H291.525H291.069H290.616H290.165H289.717H289.271H288.828H288.387H287.949H287.513H287.08H286.65H286.222H285.797H285.375H284.955H284.538H284.124H283.713H283.304H282.898H282.495H282.095H281.697H281.303H280.911H280.522H280.136H279.753H279.374H278.997H278.623H278.252H277.884H277.519H277.157H276.798H276.443H276.09H275.741H275.395H275.052H274.712H274.376H274.043H273.713H273.386H273.062H272.742H272.426H272.112H271.802H271.496H271.192H270.893H270.596H270.303H270.014H269.728H269.446H269.167H268.892H268.62H268.352H268.088H267.827H267.57H267.316H267.067H266.821H266.578H266.34H266.105H265.874H265.647H265.424H265.204H264.988H264.777H264.569H264.365H264.165H263.969H263.777H263.589H263.405H263.225H263.049H262.877H262.71H262.546H262.386H262.231H262.08H261.933H261.79H261.652H261.517H261.387H261.261H261.14H261.023H260.91H260.801H260.697H260.598H260.502H260.412H260.325H260.243C260.232 554.12 260.221 554.112 260.219 554.1C259.754 552.039 257.912 550.499 255.71 550.499C253.158 550.499 251.089 552.568 251.089 555.12C251.089 557.672 253.158 559.741 255.71 559.741C257.912 559.741 259.754 558.201 260.219 556.14C260.22 556.134 260.223 556.129 260.227 556.126C260.232 556.122 260.237 556.12 260.243 556.12H260.325H260.412H260.502H260.598H260.697H260.801H260.91H261.023H261.14H261.261H261.387H261.517H261.652H261.79H261.933H262.08H262.231H262.386H262.546H262.71H262.877H263.049H263.225H263.405H263.589H263.777H263.969H264.165H264.365H264.569H264.777H264.988H265.204H265.424H265.647H265.874H266.105H266.34H266.578H266.821H267.067H267.316H267.57H267.827H268.088H268.352H268.62H268.892H269.167H269.446H269.728H270.014H270.303H270.596H270.893H271.192H271.496H271.802H272.112H272.426H272.742H273.062H273.386H273.713H274.043H274.376H274.712H275.052H275.395H275.741H276.09H276.443H276.798H277.157H277.519H277.884H278.252H278.623H278.997H279.374H279.753H280.136H280.522H280.911H281.303H281.697H282.095H282.495H282.898H283.304H283.713H284.124H284.538H284.955H285.375H285.797H286.222H286.65H287.08H287.513H287.949H288.387H288.828H289.271H289.717H290.165H290.616H291.069H291.525H291.983H292.444H292.907H293.372H293.84H294.31H294.782H295.257H295.734H296.213H296.694H297.178H297.664H298.152H298.642H299.134H299.629H300.126H300.624H301.125H301.628H302.133H302.64H303.149H303.66H304.172H304.687H305.204H305.722H306.243H306.765H307.289H307.816H308.343H308.873H309.404H309.938H310.473H311.009H311.547H312.087H312.629H313.172H313.717H314.264H314.812H315.362H315.913H316.465H317.02H317.575H318.133H318.691H319.251H319.813H320.376H320.94H321.506H322.073H322.641H323.211H323.781H324.353H324.927H325.501H326.077H326.654H327.232H327.812H328.392H328.974H329.556H330.14H330.725H331.311H331.898H332.485H333.074H333.664H334.255H334.846H335.439H336.032H336.627H337.222H337.818H338.414H339.012H339.61H340.209H340.809H341.41H342.011H342.613H343.216H343.819H344.423H345.027H345.632H346.238H346.844H347.451H348.058H348.665H349.274H349.882H350.491H351.101H351.71H352.321H352.931H353.542H354.153H354.765H355.377H355.989H356.601H357.214H357.826H358.439H359.052H359.666H360.279H360.892H361.506H362.12H362.733H363.347H363.961H364.575H365.188H365.802H366.416H367.029H367.643H368.256H368.869H369.482H370.095H370.708H371.321H371.933H372.545H373.157H373.768H374.379H374.99H375.601H376.211H376.821H377.43H378.039H378.648H379.256H379.863H380.47H381.077H381.683H382.289H382.893H383.498H384.102H384.705H385.307H385.909H386.51H387.111H387.71H388.309H388.908H389.505H390.102H390.698H391.293H391.887H392.48H393.073H393.664H394.255H394.844H395.433H396.021H396.607H397.193H397.778H398.361H398.944H399.525H400.106H400.685H401.263H401.84H402.415H402.99H403.563H404.135H404.706H405.275H405.843H406.41H406.975H407.539H408.102H408.663H409.223H409.782H410.339H410.894H411.448H412.001H412.552H413.101H413.649H414.196H414.74H415.283H415.825H416.365H416.903H417.439H417.974H418.507H419.038H419.567H420.095H420.621H421.145H421.667H422.187H422.705H423.222H423.736H424.249H424.759H425.268H425.775H426.279H426.782H427.282H427.781H428.277H428.771H429.264H429.754H430.241H430.727H431.21H431.691H432.17H432.647H433.121H433.593H434.063H434.53H434.995H435.458H435.918H436.376H436.832H437.285H437.735H438.183H438.628H439.071H439.512H439.95H440.385H440.817H441.247H441.675H442.1H442.522H442.941H443.357H443.771H444.182H444.591H444.996H445.399H445.799H446.196H446.59H446.981H447.37H447.755H448.138H448.517H448.894H449.267H449.638H450.006H450.37H450.731H451.09H451.445H451.797H452.146H452.491H452.834H453.173H453.509H453.842H454.172H454.498H454.821H455.141H455.457H455.77H456.079H456.386H456.688H456.988H457.284H457.576H457.865H458.15H458.432H458.71H458.985H459.256H459.524H459.788H460.048H460.305H460.558H460.807H461.053H461.294H461.532H461.767H461.997H462.224H462.447H462.666H462.881H463.092H463.299H463.503H463.702H463.898H464.089H464.277H464.46H464.639H464.815H464.986H465.153H465.316H465.475H465.63H465.781H465.927H466.07H466.208H466.341H466.471H466.596H466.717H466.833H466.946H467.054H467.157H467.256H467.351H467.441H467.527H467.608H467.685H467.758H467.825C467.857 556.12 467.886 556.133 467.909 556.155L530.322 618.568C531.267 619.513 530.597 621.128 529.261 621.128H158.894C158.341 621.128 157.894 621.576 157.894 622.128C157.894 622.681 158.341 623.128 158.894 623.128H535.297H675.475C675.74 623.128 675.995 623.023 676.182 622.836L716.271 582.747C716.552 582.465 716.934 582.307 717.332 582.307H1109.87C1110.14 582.307 1110.4 582.199 1110.59 582.008L1150.67 541.165C1150.96 540.878 1151.34 540.716 1151.74 540.716H1536.34C1536.89 540.716 1537.34 540.268 1537.34 539.716C1537.34 539.164 1536.89 538.716 1536.34 538.716H1150.69H1110.91C1110.51 538.716 1110.13 538.558 1109.85 538.277L1065.14 493.566L1065.12 493.548L1065.1 493.531L1033.52 465.033C1033.34 464.867 1033.1 464.776 1032.85 464.776H837.52C837.109 464.776 836.717 464.608 836.434 464.311L743.207 366.499L743.199 366.49L743.19 366.482L684.654 307.946C684.467 307.758 684.213 307.653 683.947 307.653H407.768C407.064 307.653 406.477 307.148 406.153 306.523C405.383 305.042 403.834 304.031 402.05 304.031C399.498 304.031 397.429 306.1 397.429 308.653C397.429 311.205 399.498 313.274 402.05 313.274C403.834 313.274 405.382 312.263 406.152 310.782C406.477 310.158 407.064 309.653 407.768 309.653H682.912C683.31 309.653 683.691 309.811 683.972 310.092L739.94 366.06C740.542 366.662 740.523 367.642 739.9 368.221L700.161 405.069C699.884 405.327 699.519 405.469 699.141 405.469H304.537C304.126 405.469 303.732 405.301 303.449 405.002L261.057 360.338C260.868 360.14 260.606 360.027 260.331 360.027H10.3391C9.63519 360.027 9.04842 359.522 8.72357 358.897C7.95342 357.417 6.40542 356.406 4.62126 356.406C2.06901 356.406 0 358.475 0 361.027C0 363.579 2.06901 365.648 4.62126 365.648C6.40556 365.648 7.95367 364.637 8.72376 363.157ZM237.34 436.972C237.352 437.01 237.324 437.048 237.284 437.048C237.252 437.048 237.225 437.074 237.225 437.107V438.989C237.225 439.022 237.252 439.048 237.284 439.048C237.304 439.048 237.321 439.058 237.331 439.072C237.342 439.086 237.346 439.105 237.34 439.124C236.891 440.459 235.629 441.42 234.144 441.42C232.282 441.42 230.772 439.91 230.772 438.048C230.772 436.186 232.282 434.677 234.144 434.677C235.629 434.677 236.89 435.638 237.34 436.972ZM405.246 307.576C405.259 307.614 405.23 307.653 405.19 307.653C405.158 307.653 405.131 307.679 405.131 307.712V309.594C405.131 309.626 405.158 309.653 405.19 309.653C405.23 309.653 405.258 309.691 405.246 309.729C404.797 311.063 403.536 312.024 402.05 312.024C400.188 312.024 398.679 310.514 398.679 308.653C398.679 306.791 400.188 305.281 402.05 305.281C403.536 305.281 404.797 306.242 405.246 307.576ZM1235.42 122.262C1235.42 124.814 1233.35 126.883 1230.8 126.883C1228.24 126.883 1226.18 124.814 1226.18 122.262C1226.18 121.738 1226.26 121.234 1226.42 120.765C1226.65 120.108 1226.61 119.348 1226.14 118.84L1167.65 55.9621C1167.36 55.6571 1166.97 55.4838 1166.55 55.4838H971.562C970.858 55.4838 970.271 55.9889 969.946 56.6133C969.176 58.0937 967.628 59.1047 965.844 59.1047C963.292 59.1047 961.223 57.0357 961.223 54.4835C961.223 51.9312 963.292 49.8622 965.844 49.8622C967.628 49.8622 969.176 50.8735 969.946 52.3541C970.271 52.9786 970.858 53.4838 971.562 53.4838H1167.64C1167.92 53.4838 1168.18 53.5994 1168.37 53.8027L1227.55 117.42C1228.04 117.943 1228.82 118.023 1229.5 117.823C1229.91 117.704 1230.35 117.64 1230.8 117.64C1233.35 117.64 1235.42 119.709 1235.42 122.262ZM968.984 53.4838C969.024 53.4838 969.052 53.445 969.04 53.4072C968.591 52.0731 967.329 51.1122 965.844 51.1122C963.982 51.1122 962.473 52.6216 962.473 54.4835C962.473 56.3454 963.982 57.8547 965.844 57.8547C967.329 57.8547 968.59 56.8942 969.04 55.5603C969.052 55.5225 969.024 55.4838 968.984 55.4838C968.951 55.4838 968.925 55.4573 968.925 55.4246V53.5431C968.925 53.5103 968.951 53.4838 968.984 53.4838ZM457.62 252.734C457.632 252.696 457.604 252.658 457.564 252.658C457.532 252.658 457.505 252.631 457.505 252.599V250.717C457.505 250.684 457.532 250.658 457.565 250.658C457.604 250.658 457.633 250.619 457.62 250.581C457.171 249.247 455.91 248.286 454.424 248.286C452.562 248.286 451.053 249.795 451.053 251.657C451.053 253.519 452.562 255.029 454.424 255.029C455.909 255.029 457.171 254.068 457.62 252.734ZM458.526 253.787C458.851 253.163 459.438 252.658 460.142 252.658H929.428C929.808 252.658 930.175 252.802 930.452 253.062L963.945 284.37C964.421 284.815 964.53 285.513 964.398 286.152C964.336 286.454 964.304 286.767 964.304 287.087C964.304 289.639 966.373 291.708 968.925 291.708C971.477 291.708 973.546 289.639 973.546 287.087C973.546 284.535 971.477 282.466 968.925 282.466C968.276 282.466 967.658 282.6 967.098 282.841C966.404 283.14 965.561 283.143 965.009 282.627L931.098 250.927C930.912 250.754 930.668 250.658 930.415 250.658H460.142C459.438 250.658 458.851 250.152 458.527 249.528C457.756 248.047 456.208 247.036 454.424 247.036C451.872 247.036 449.803 249.105 449.803 251.657C449.803 254.21 451.872 256.279 454.424 256.279C456.208 256.279 457.756 255.268 458.526 253.787ZM658.05 80.6705C658.05 82.5324 656.541 84.0418 654.679 84.0418C652.817 84.0418 651.308 82.5324 651.308 80.6705C651.308 78.8086 652.817 77.2992 654.679 77.2992C656.541 77.2992 658.05 78.8086 658.05 80.6705ZM658.781 82.8C658.011 84.2806 656.463 85.2918 654.679 85.2918C652.127 85.2918 650.058 83.2227 650.058 80.6705C650.058 78.1182 652.127 76.0492 654.679 76.0492C656.463 76.0492 658.011 77.0603 658.781 78.5408C659.106 79.1652 659.693 79.6703 660.397 79.6703H755.346C755.898 79.6703 756.346 80.118 756.346 80.6703C756.346 81.2226 755.898 81.6703 755.346 81.6703H660.397C659.693 81.6703 659.106 82.1755 658.781 82.8ZM591.521 141.037C593.383 141.037 594.892 139.528 594.892 137.666C594.892 135.804 593.383 134.295 591.521 134.295C589.659 134.295 588.149 135.804 588.149 137.666C588.149 139.528 589.659 141.037 591.521 141.037ZM972.296 287.087C972.296 288.949 970.787 290.458 968.925 290.458C967.063 290.458 965.554 288.949 965.554 287.087C965.554 285.225 967.063 283.716 968.925 283.716C970.787 283.716 972.296 285.225 972.296 287.087ZM1158.4 224.22C1160.26 224.22 1161.77 222.711 1161.77 220.849C1161.77 218.987 1160.26 217.477 1158.4 217.477C1156.91 217.477 1155.65 218.438 1155.2 219.772C1155.2 219.789 1155.2 219.806 1155.21 219.819C1155.22 219.837 1155.23 219.849 1155.26 219.849C1155.29 219.849 1155.32 219.875 1155.32 219.908V221.789C1155.32 221.822 1155.29 221.849 1155.26 221.849C1155.22 221.849 1155.19 221.887 1155.2 221.925C1155.65 223.259 1156.91 224.22 1158.4 224.22ZM1154.29 222.978C1155.06 224.459 1156.61 225.47 1158.4 225.47C1160.95 225.47 1163.02 223.401 1163.02 220.849C1163.02 218.296 1160.95 216.227 1158.4 216.227C1156.61 216.227 1155.06 217.239 1154.29 218.719C1153.97 219.344 1153.38 219.849 1152.68 219.849H1008.47C1008.07 219.849 1007.69 219.691 1007.41 219.409L867.964 79.9632C867.777 79.7757 867.522 79.6703 867.257 79.6703H792.776C792.224 79.6703 791.776 80.118 791.776 80.6703C791.776 81.2226 792.224 81.6703 792.776 81.6703H866.221C866.619 81.6703 867.001 81.8284 867.282 82.1097L1006.73 221.556C1006.92 221.743 1007.17 221.849 1007.44 221.849H1152.68C1153.38 221.849 1153.97 222.354 1154.29 222.978ZM1303.49 485.801C1303.49 487.663 1301.98 489.173 1300.12 489.173C1298.25 489.173 1296.74 487.663 1296.74 485.801C1296.74 483.94 1298.25 482.43 1300.12 482.43C1301.98 482.43 1303.49 483.94 1303.49 485.801ZM1304.22 487.931C1303.45 489.411 1301.9 490.423 1300.12 490.423C1297.56 490.423 1295.49 488.354 1295.49 485.801C1295.49 483.249 1297.56 481.18 1300.12 481.18C1301.9 481.18 1303.45 482.191 1304.22 483.672C1304.54 484.296 1305.13 484.801 1305.83 484.801H1536.34C1536.89 484.801 1537.34 485.249 1537.34 485.801C1537.34 486.353 1536.89 486.801 1536.34 486.801H1305.83C1305.13 486.801 1304.54 487.306 1304.22 487.931ZM1223.09 590.84C1224.96 590.84 1226.47 589.33 1226.47 587.468C1226.47 585.606 1224.96 584.097 1223.09 584.097C1221.23 584.097 1219.72 585.606 1219.72 587.468C1219.72 589.33 1221.23 590.84 1223.09 590.84ZM1227.2 589.598C1227.52 588.974 1228.11 588.469 1228.81 588.469H1536.34C1536.89 588.469 1537.34 588.021 1537.34 587.469C1537.34 586.917 1536.89 586.469 1536.34 586.469H1228.81C1228.11 586.469 1227.52 585.964 1227.2 585.339C1226.43 583.858 1224.88 582.847 1223.09 582.847C1220.54 582.847 1218.47 584.916 1218.47 587.468C1218.47 590.021 1220.54 592.09 1223.09 592.09C1224.88 592.09 1226.43 591.079 1227.2 589.598ZM1365.1 667.571C1365.1 669.433 1363.59 670.942 1361.73 670.942C1359.87 670.942 1358.36 669.433 1358.36 667.571C1358.36 665.709 1359.87 664.2 1361.73 664.2C1363.59 664.2 1365.1 665.709 1365.1 667.571ZM1365.83 669.7C1365.06 671.181 1363.52 672.192 1361.73 672.192C1359.18 672.192 1357.11 670.123 1357.11 667.571C1357.11 665.019 1359.18 662.95 1361.73 662.95C1363.52 662.95 1365.06 663.961 1365.83 665.441C1366.16 666.065 1366.75 666.571 1367.45 666.571H1536.34C1536.89 666.571 1537.34 667.018 1537.34 667.571C1537.34 668.123 1536.89 668.571 1536.34 668.571H1367.45C1366.75 668.571 1366.16 669.076 1365.83 669.7ZM1169.18 624.729C1171.04 624.729 1172.55 623.22 1172.55 621.358C1172.55 619.496 1171.04 617.986 1169.18 617.986C1167.32 617.986 1165.81 619.496 1165.81 621.358C1165.81 623.22 1167.32 624.729 1169.18 624.729ZM1170.12 625.883C1170.76 625.75 1171.45 625.857 1171.9 626.329L1196.95 652.853C1197.14 653.055 1197.41 653.169 1197.69 653.166L1288.38 652.404C1288.75 652.401 1289.11 652.537 1289.39 652.786L1322.99 682.809C1323.61 683.365 1323.66 684.321 1323.09 684.938L1278.55 733.859C1278.27 734.171 1277.87 734.349 1277.45 734.349H1133.01C1132.6 734.349 1132.21 734.183 1131.93 733.89L1003.54 600.639C1003.35 600.443 1003.09 600.333 1002.82 600.333H849.869C849.165 600.333 848.578 599.828 848.253 599.203C847.483 597.723 845.935 596.711 844.151 596.711C841.598 596.711 839.529 598.78 839.529 601.333C839.529 603.885 841.598 605.954 844.151 605.954C845.935 605.954 847.483 604.943 848.253 603.462C848.578 602.838 849.165 602.333 849.868 602.333H1001.75C1002.16 602.333 1002.55 602.499 1002.83 602.792L1127.15 731.808C1128.06 732.761 1127.39 734.349 1126.06 734.349H917.647C916.943 734.349 916.356 733.844 916.031 733.22C915.261 731.739 913.713 730.728 911.929 730.728C909.377 730.728 907.308 732.797 907.308 735.349C907.308 737.901 909.377 739.971 911.929 739.971C913.713 739.971 915.261 738.959 916.031 737.479C916.356 736.854 916.943 736.349 917.647 736.349H1130.88C1131.29 736.349 1131.68 736.515 1131.96 736.808L1144.58 749.907C1144.77 750.103 1145.03 750.213 1145.3 750.213H1536.34C1536.89 750.213 1537.34 749.766 1537.34 749.213C1537.34 748.661 1536.89 748.213 1536.34 748.213H1146.37C1145.96 748.213 1145.57 748.048 1145.29 747.754L1136.75 738.89C1135.83 737.937 1136.5 736.349 1137.83 736.349H1278.55C1278.83 736.349 1279.1 736.23 1279.29 736.022L1324.51 686.356C1325.08 685.723 1326.07 685.699 1326.68 686.305L1347.93 707.559C1348.12 707.746 1348.37 707.851 1348.64 707.851H1536.34C1536.89 707.851 1537.34 707.404 1537.34 706.851C1537.34 706.299 1536.89 705.851 1536.34 705.851H1349.67C1349.28 705.851 1348.9 705.693 1348.61 705.412L1326.24 683.038L1326.22 683.018L1326.2 682.999L1290 650.651C1289.81 650.485 1289.57 650.394 1289.32 650.396L1198.76 651.157C1198.34 651.161 1197.94 650.991 1197.66 650.687L1173.65 625.269C1173.13 624.718 1173.13 623.872 1173.43 623.176C1173.67 622.618 1173.8 622.003 1173.8 621.358C1173.8 618.805 1171.73 616.736 1169.18 616.736C1166.63 616.736 1164.56 618.805 1164.56 621.358C1164.56 623.91 1166.63 625.979 1169.18 625.979C1169.5 625.979 1169.82 625.946 1170.12 625.883ZM915.125 734.273C915.137 734.311 915.109 734.349 915.07 734.349C915.037 734.349 915.011 734.375 915.011 734.408V736.29C915.011 736.323 915.037 736.349 915.07 736.349C915.109 736.349 915.137 736.388 915.125 736.425C914.676 737.759 913.415 738.721 911.929 738.721C910.067 738.721 908.558 737.211 908.558 735.349C908.558 733.487 910.067 731.978 911.929 731.978C913.414 731.978 914.676 732.939 915.125 734.273ZM1141.45 110.228C1143.31 110.228 1144.82 108.719 1144.82 106.857C1144.82 104.995 1143.31 103.486 1141.45 103.486C1139.59 103.486 1138.08 104.995 1138.08 106.857C1138.08 108.719 1139.59 110.228 1141.45 110.228ZM1274.22 92.9941C1274.22 94.856 1272.71 96.3653 1270.85 96.3653C1268.99 96.3653 1267.48 94.856 1267.48 92.9941C1267.48 91.1322 1268.99 89.6228 1270.85 89.6228C1272.71 89.6228 1274.22 91.1322 1274.22 92.9941ZM1275.47 92.9941C1275.47 95.5463 1273.4 97.6153 1270.85 97.6153C1268.29 97.6153 1266.23 95.5463 1266.23 92.9941C1266.23 90.4418 1268.29 88.3728 1270.85 88.3728C1271.5 88.3728 1272.12 88.507 1272.68 88.7491C1273.37 89.0481 1274.21 89.0519 1274.76 88.5373L1352.58 16.0113C1352.76 15.8388 1353.01 15.7428 1353.26 15.7428H1536.34C1536.89 15.7428 1537.34 16.1906 1537.34 16.7428C1537.34 17.2951 1536.89 17.7428 1536.34 17.7428H1354.24C1353.86 17.7428 1353.5 17.8867 1353.22 18.1455L1275.83 90.2771C1275.35 90.722 1275.24 91.4216 1275.37 92.0609C1275.44 92.3623 1275.47 92.6744 1275.47 92.9941ZM1389.46 128.714C1391.32 128.714 1392.83 127.205 1392.83 125.343C1392.83 123.481 1391.32 121.971 1389.46 121.971C1387.6 121.971 1386.09 123.481 1386.09 125.343C1386.09 127.205 1387.6 128.714 1389.46 128.714ZM1389.46 129.964C1392.01 129.964 1394.08 127.895 1394.08 125.343C1394.08 122.79 1392.01 120.721 1389.46 120.721C1387.68 120.721 1386.13 121.733 1385.36 123.213C1385.03 123.838 1384.45 124.343 1383.74 124.343H1289.33C1289.07 124.343 1288.81 124.448 1288.63 124.636L1246.97 166.29C1246.58 166.681 1246.58 167.314 1246.97 167.704C1247.36 168.095 1247.99 168.095 1248.39 167.704L1289.31 126.782C1289.59 126.501 1289.97 126.343 1290.37 126.343H1383.74C1384.45 126.343 1385.03 126.848 1385.36 127.472C1386.13 128.953 1387.68 129.964 1389.46 129.964ZM844.151 604.704C846.012 604.704 847.522 603.195 847.522 601.333C847.522 599.471 846.012 597.961 844.151 597.961C842.289 597.961 840.779 599.471 840.779 601.333C840.779 603.195 842.289 604.704 844.151 604.704ZM1118.64 800.047C1118.64 801.909 1117.13 803.418 1115.26 803.418C1113.4 803.418 1111.89 801.909 1111.89 800.047C1111.89 798.185 1113.4 796.676 1115.26 796.676C1117.13 796.676 1118.64 798.185 1118.64 800.047ZM1119.89 800.047C1119.89 802.599 1117.82 804.668 1115.26 804.668C1113.48 804.668 1111.93 803.657 1111.16 802.177C1110.84 801.552 1110.25 801.047 1109.55 801.047H726.64C726.219 801.047 725.817 801.224 725.533 801.536L548.422 995.37C547.959 995.876 547.925 996.625 548.146 997.274C548.304 997.741 548.39 998.241 548.39 998.761C548.39 1001.31 546.321 1003.38 543.769 1003.38C541.216 1003.38 539.147 1001.31 539.147 998.761C539.147 996.209 541.216 994.14 543.769 994.14C544.22 994.14 544.657 994.205 545.069 994.326C545.763 994.529 546.556 994.446 547.043 993.913L724.8 799.373C724.989 799.165 725.257 799.047 725.538 799.047H1109.55C1110.25 799.047 1110.84 798.542 1111.16 797.918C1111.93 796.437 1113.48 795.426 1115.26 795.426C1117.82 795.426 1119.89 797.495 1119.89 800.047ZM545.486 995.909C545.393 995.824 545.289 995.749 545.174 995.696C544.746 995.5 544.27 995.39 543.769 995.39C541.907 995.39 540.397 996.899 540.397 998.761C540.397 1000.62 541.907 1002.13 543.769 1002.13C545.631 1002.13 547.14 1000.62 547.14 998.761C547.14 998.151 546.978 997.578 546.694 997.085C546.631 996.975 546.547 996.879 546.454 996.794L545.486 995.909ZM1049.03 832.686C1050.89 832.686 1052.4 831.177 1052.4 829.315C1052.4 827.453 1050.89 825.943 1049.03 825.943C1047.16 825.943 1045.66 827.453 1045.66 829.315C1045.66 831.177 1047.16 832.686 1049.03 832.686ZM1053.13 831.444C1052.36 832.925 1050.81 833.936 1049.03 833.936C1046.47 833.936 1044.41 831.867 1044.41 829.315C1044.41 826.762 1046.47 824.693 1049.03 824.693C1050.81 824.693 1052.36 825.705 1053.13 827.185C1053.45 827.81 1054.04 828.315 1054.74 828.315H1536.34C1536.89 828.315 1537.34 828.763 1537.34 829.315C1537.34 829.867 1536.89 830.315 1536.34 830.315H1054.74C1054.04 830.315 1053.45 830.82 1053.13 831.444ZM1144.82 937.145C1144.82 939.007 1143.31 940.516 1141.45 940.516C1139.59 940.516 1138.08 939.007 1138.08 937.145C1138.08 935.283 1139.59 933.774 1141.45 933.774C1143.31 933.774 1144.82 935.283 1144.82 937.145ZM1145.55 939.274C1145.88 938.65 1146.47 938.144 1147.17 938.144H1458.78C1458.92 938.144 1459.06 938.115 1459.18 938.059C1459.27 938.019 1459.36 937.966 1459.43 937.901L1504.17 899.229C1504.44 898.993 1504.79 898.864 1505.15 898.864H1536.34C1536.89 898.864 1537.34 898.416 1537.34 897.864C1537.34 897.311 1536.89 896.864 1536.34 896.864H1504.22C1503.98 896.864 1503.75 896.95 1503.57 897.107L1458.83 935.779C1458.56 936.015 1458.21 936.144 1457.85 936.144H1147.17C1146.47 936.144 1145.88 935.639 1145.55 935.015C1144.78 933.535 1143.24 932.524 1141.45 932.524C1138.9 932.524 1136.83 934.593 1136.83 937.145C1136.83 939.697 1138.9 941.766 1141.45 941.766C1143.24 941.766 1144.78 940.755 1145.55 939.274ZM1067.51 915.869C1069.37 915.869 1070.88 914.36 1070.88 912.498C1070.88 910.636 1069.37 909.127 1067.51 909.127C1065.65 909.127 1064.14 910.636 1064.14 912.498C1064.14 914.36 1065.65 915.869 1067.51 915.869ZM1071.77 914.291C1072.01 913.739 1072.13 913.134 1072.13 912.498C1072.13 909.946 1070.06 907.877 1067.51 907.877C1064.96 907.877 1062.89 909.946 1062.89 912.498C1062.89 915.05 1064.96 917.119 1067.51 917.119C1067.84 917.119 1068.17 917.084 1068.48 917.018C1069.11 916.884 1069.79 916.984 1070.24 917.444L1123.79 972.501C1123.98 972.695 1124.24 972.804 1124.51 972.804H1515.78C1515.94 972.804 1516.1 972.763 1516.25 972.686C1516.33 972.64 1516.41 972.581 1516.48 972.511L1537.34 951.652C1537.73 951.262 1537.73 950.629 1537.34 950.238C1536.95 949.847 1536.32 949.847 1535.93 950.238L1515.8 970.365C1515.52 970.646 1515.14 970.804 1514.74 970.804H1125.56C1125.16 970.804 1124.77 970.64 1124.49 970.35L1072.02 916.4C1071.48 915.851 1071.48 914.995 1071.77 914.291ZM668.832 966.413C668.832 968.275 667.323 969.784 665.461 969.784C663.599 969.784 662.09 968.275 662.09 966.413C662.09 964.551 663.599 963.041 665.461 963.041C667.323 963.041 668.832 964.551 668.832 966.413ZM669.564 968.542C668.793 970.023 667.245 971.034 665.461 971.034C662.909 971.034 660.84 968.965 660.84 966.413C660.84 963.86 662.909 961.791 665.461 961.791C667.245 961.791 668.793 962.803 669.563 964.283C669.888 964.907 670.475 965.413 671.179 965.413H767.9C768.166 965.413 768.42 965.518 768.608 965.705L793.66 990.758C794.109 991.207 794.789 991.3 795.41 991.165C795.729 991.095 796.059 991.059 796.398 991.059C798.95 991.059 801.019 993.128 801.019 995.68C801.019 998.233 798.95 1000.3 796.398 1000.3C793.845 1000.3 791.776 998.233 791.776 995.68C791.776 995.054 791.901 994.457 792.127 993.912C792.422 993.199 792.408 992.334 791.862 991.789L767.926 967.852C767.644 967.571 767.263 967.413 766.865 967.413H671.179C670.475 967.413 669.888 967.918 669.564 968.542ZM793.527 993.912C793.21 994.426 793.026 995.032 793.026 995.68C793.026 997.542 794.536 999.052 796.398 999.052C798.26 999.052 799.769 997.542 799.769 995.68C799.769 993.818 798.26 992.309 796.398 992.309C796.099 992.309 795.81 992.348 795.534 992.421C795.459 992.44 795.436 992.534 795.491 992.589C795.532 992.63 795.532 992.696 795.491 992.736L794.354 993.873C794.242 993.986 794.059 993.986 793.947 993.873C793.823 993.75 793.619 993.763 793.527 993.912ZM693.249 911.498C693.289 911.498 693.317 911.459 693.304 911.421C692.855 910.087 691.594 909.126 690.109 909.126C688.247 909.126 686.737 910.636 686.737 912.498C686.737 914.36 688.247 915.869 690.109 915.869C691.594 915.869 692.855 914.908 693.304 913.574C693.317 913.536 693.289 913.498 693.249 913.498C693.233 913.498 693.219 913.492 693.208 913.482C693.197 913.471 693.19 913.455 693.19 913.438V911.557C693.19 911.533 693.203 911.513 693.223 911.503C693.231 911.5 693.24 911.498 693.249 911.498ZM694.211 910.368C694.536 910.992 695.123 911.498 695.826 911.498H854.164C854.405 911.498 854.638 911.585 854.82 911.743L901.455 952.361C901.909 952.757 902.552 952.819 903.138 952.678C903.487 952.593 903.852 952.549 904.227 952.549C906.779 952.549 908.848 954.618 908.848 957.17C908.848 959.722 906.779 961.791 904.227 961.791C901.674 961.791 899.605 959.722 899.605 957.17C899.605 956.592 899.712 956.038 899.906 955.528C900.192 954.776 900.139 953.867 899.532 953.338L854.213 913.866C853.94 913.629 853.59 913.498 853.227 913.498H695.827C695.123 913.498 694.536 914.003 694.211 914.627C693.441 916.108 691.893 917.119 690.109 917.119C687.556 917.119 685.487 915.05 685.487 912.498C685.487 909.945 687.556 907.876 690.109 907.876C691.893 907.876 693.441 908.888 694.211 910.368ZM730.159 869.656C732.021 869.656 733.531 868.147 733.531 866.285C733.531 864.423 732.021 862.913 730.159 862.913C728.297 862.913 726.788 864.423 726.788 866.285C726.788 868.147 728.297 869.656 730.159 869.656ZM734.262 868.414C734.586 867.79 735.173 867.285 735.877 867.285H994.342H1042.45C1043.77 867.285 1044.44 868.859 1043.54 869.816L927.552 992.41C927.06 992.93 926.275 993.003 925.59 992.796C925.167 992.668 924.718 992.6 924.253 992.6C921.701 992.6 919.632 994.669 919.632 997.221C919.632 999.773 921.701 1001.84 924.253 1001.84C926.805 1001.84 928.874 999.773 928.874 997.221C928.874 996.714 928.793 996.225 928.642 995.769C928.424 995.111 928.467 994.353 928.943 993.85L1048.24 867.754C1048.53 867.454 1048.92 867.285 1049.33 867.285H1536.34C1536.89 867.285 1537.34 866.837 1537.34 866.285C1537.34 865.733 1536.89 865.285 1536.34 865.285H1048.26H995.237C994.89 865.285 994.553 865.164 994.285 864.944L938.751 819.3C938.573 819.153 938.348 819.072 938.117 819.072H893C892.296 819.072 891.709 818.567 891.384 817.943C890.614 816.462 889.066 815.451 887.281 815.451C884.729 815.451 882.66 817.52 882.66 820.072C882.66 822.624 884.729 824.693 887.281 824.693C889.066 824.693 890.614 823.682 891.384 822.202C891.709 821.577 892.295 821.072 892.999 821.072H937.221C937.568 821.072 937.905 821.193 938.173 821.413L988.315 862.626C989.403 863.52 988.771 865.285 987.363 865.285H735.877C735.173 865.285 734.587 864.78 734.262 864.155C733.492 862.675 731.944 861.663 730.159 861.663C727.607 861.663 725.538 863.732 725.538 866.285C725.538 868.837 727.607 870.906 730.159 870.906C731.944 870.906 733.492 869.895 734.262 868.414ZM925.723 994.186C925.835 994.24 925.936 994.316 926.027 994.402L926.969 995.293C927.059 995.379 927.141 995.475 927.201 995.585C927.471 996.069 927.624 996.627 927.624 997.221C927.624 999.083 926.115 1000.59 924.253 1000.59C922.391 1000.59 920.882 999.083 920.882 997.221C920.882 995.359 922.391 993.85 924.253 993.85C924.78 993.85 925.279 993.97 925.723 994.186ZM890.477 818.996C890.49 819.034 890.462 819.072 890.422 819.072C890.39 819.072 890.363 819.099 890.363 819.131V821.013C890.363 821.046 890.39 821.072 890.422 821.072C890.462 821.072 890.49 821.111 890.477 821.148C890.028 822.482 888.767 823.443 887.281 823.443C885.419 823.443 883.91 821.934 883.91 820.072C883.91 818.21 885.419 816.701 887.281 816.701C888.767 816.701 890.029 817.662 890.477 818.996ZM904.227 960.541C906.089 960.541 907.598 959.032 907.598 957.17C907.598 955.308 906.089 953.799 904.227 953.799C902.365 953.799 900.855 955.308 900.855 957.17C900.855 959.032 902.365 960.541 904.227 960.541ZM135.848 729.188C135.848 731.05 134.338 732.559 132.477 732.559C130.615 732.559 129.105 731.05 129.105 729.188C129.105 727.326 130.615 725.817 132.477 725.817C134.338 725.817 135.848 727.326 135.848 729.188ZM138.194 728.188C137.49 728.188 136.904 727.683 136.579 727.058C135.809 725.578 134.261 724.567 132.477 724.567C129.924 724.567 127.855 726.636 127.855 729.188C127.855 731.74 129.924 733.809 132.477 733.809C134.261 733.809 135.809 732.798 136.579 731.317C136.904 730.693 137.491 730.188 138.195 730.188H500.637C500.902 730.188 501.156 730.082 501.344 729.895L566.849 664.389C567.131 664.108 567.512 663.95 567.91 663.95H796.902C797.3 663.95 797.682 664.108 797.963 664.389L910.452 776.878C910.639 777.065 910.893 777.17 911.159 777.17H1210.73C1211.05 777.17 1211.35 777.27 1211.61 777.455L1247.15 803.168C1247.33 803.291 1247.53 803.358 1247.74 803.358H1536.34C1536.89 803.358 1537.34 802.91 1537.34 802.358C1537.34 801.805 1536.89 801.358 1536.34 801.358H1248.55C1248.23 801.358 1247.93 801.258 1247.67 801.073L1212.13 775.36C1211.96 775.237 1211.75 775.17 1211.54 775.17H912.194C911.796 775.17 911.415 775.012 911.134 774.731L798.645 662.242C798.457 662.055 798.203 661.95 797.938 661.95H566.875C566.609 661.95 566.355 662.055 566.167 662.242L500.662 727.748C500.38 728.03 499.999 728.188 499.601 728.188H138.194ZM255.71 558.491C257.572 558.491 259.082 556.982 259.082 555.12C259.082 553.258 257.572 551.749 255.71 551.749C253.848 551.749 252.339 553.258 252.339 555.12C252.339 556.982 253.848 558.491 255.71 558.491ZM296.052 883.23C296.052 885.092 294.542 886.601 292.68 886.601C290.819 886.601 289.309 885.092 289.309 883.23C289.309 881.368 290.819 879.859 292.68 879.859C294.542 879.859 296.052 881.368 296.052 883.23ZM298.398 882.229C297.694 882.229 297.108 881.724 296.783 881.1C296.013 879.62 294.465 878.609 292.68 878.609C290.128 878.609 288.059 880.678 288.059 883.23C288.059 885.782 290.128 887.851 292.68 887.851C294.465 887.851 296.013 886.84 296.783 885.359C297.108 884.735 297.695 884.229 298.398 884.229H569.956C570.241 884.229 570.512 884.108 570.702 883.895L596.109 855.408L596.119 855.397L707.047 734.524C707.331 734.215 707.732 734.038 708.152 734.038H805.41C805.962 734.038 806.41 733.591 806.41 733.038C806.41 732.486 805.962 732.038 805.41 732.038H707.053C706.773 732.038 706.506 732.156 706.316 732.362L596.41 852.122C595.831 852.753 594.841 852.772 594.238 852.162L529.846 787.02C529.658 786.83 529.402 786.723 529.134 786.723H381.581C380.877 786.723 380.29 786.218 379.965 785.594C379.195 784.113 377.647 783.102 375.863 783.102C373.311 783.102 371.242 785.171 371.242 787.724C371.242 790.276 373.311 792.345 375.863 792.345C377.647 792.345 379.195 791.334 379.966 789.853C380.29 789.229 380.877 788.723 381.581 788.723H528.09C528.491 788.723 528.875 788.884 529.157 789.169L593.011 853.765C593.568 854.328 593.591 855.227 593.064 855.818L569.955 881.728C569.67 882.047 569.263 882.229 568.835 882.229H298.398ZM375.863 791.095C377.725 791.095 379.234 789.585 379.234 787.724C379.234 785.862 377.725 784.352 375.863 784.352C374.001 784.352 372.492 785.862 372.492 787.724C372.492 789.585 374.001 791.095 375.863 791.095ZM765.049 81.6703C764.496 81.6703 764.049 81.2226 764.049 80.6703C764.049 80.118 764.496 79.6703 765.049 79.6703H776.142C776.695 79.6703 777.142 80.118 777.142 80.6703C777.142 81.2226 776.695 81.6703 776.142 81.6703H765.049ZM574.807 100.156C574.254 100.156 573.807 99.708 573.807 99.1557C573.807 98.6034 574.254 98.1557 574.807 98.1557H595.913C596.465 98.1557 596.913 98.6034 596.913 99.1557C596.913 99.708 596.465 100.156 595.913 100.156H574.807ZM386.646 736.763C387.036 736.373 387.036 735.74 386.646 735.349C386.255 734.959 385.622 734.959 385.231 735.349L345.079 775.501C344.798 775.782 344.417 775.941 344.019 775.941H178.919C178.366 775.941 177.919 776.388 177.919 776.941C177.919 777.493 178.366 777.941 178.919 777.941H345.054C345.32 777.941 345.574 777.835 345.761 777.648L386.646 736.763Z" fill="#2481DD"/>
</svg>
