<svg width="376" height="414" viewBox="0 0 376 414" fill="none" xmlns="http://www.w3.org/2000/svg">
<path fill-rule="evenodd" clip-rule="evenodd" d="M116.462 88.4444C115.683 88.7726 114.782 88.4055 114.466 87.6219L110.206 77.0432C110.015 76.5697 110.246 76.0315 110.721 75.8436V75.8436C111.194 75.6565 111.425 75.1216 111.238 74.649L109.38 69.958C109.188 69.4724 108.639 69.2346 108.153 69.4269V69.4269C107.669 69.6184 107.122 69.3833 106.927 68.9008L86.3724 17.8562C86.0603 17.081 86.4473 16.1976 87.2279 15.8992C124.871 1.50943 157.827 -1.80818 205.751 6.41772C206.591 6.56192 207.15 7.38068 206.969 8.21352L195.404 61.2742C195.287 61.8118 194.766 62.1605 194.224 62.0637V62.0637C193.668 61.9642 193.136 62.3345 193.037 62.8908L192.151 67.8425C192.068 68.309 192.378 68.7547 192.845 68.8381V68.8381C193.323 68.9238 193.635 69.39 193.532 69.8654L191.037 81.3122C190.865 82.1012 190.092 82.6105 189.296 82.4717C159.049 77.1931 137.811 79.4441 116.462 88.4444ZM196.668 69.522C196.123 69.4245 195.598 69.7755 195.48 70.3166L192.477 84.0965V84.0965C192.362 84.6239 191.849 84.9649 191.318 84.8669V84.8669C158.978 78.8963 137.189 81.394 114.906 91.2973V91.2973C114.389 91.5273 113.784 91.2822 113.572 90.7571V90.7571L108.359 77.8115C108.161 77.3187 107.602 77.0787 107.108 77.2743V77.2743C106.612 77.4706 106.051 77.2278 105.854 76.7319L104.012 72.078C103.82 71.5951 104.057 71.0487 104.54 70.8576V70.8576C105.024 70.6656 105.261 70.1158 105.066 69.6321L83.5724 16.257V16.257C83.3648 15.7415 83.6174 15.1556 84.1348 14.9526V14.9526C123.824 -0.621527 158.013 -4.13 208.676 4.89903V4.89903C209.234 4.99856 209.598 5.5422 209.477 6.09646V6.09646L197.356 61.7126C197.251 62.1915 197.566 62.6613 198.048 62.7476V62.7476C198.518 62.8316 198.831 63.2807 198.747 63.7507L197.863 68.6894C197.763 69.2494 197.228 69.6221 196.668 69.522V69.522ZM298.063 159.848C297.855 159.305 297.244 159.036 296.703 159.248L287.662 162.8C286.864 163.113 286.492 164.028 286.829 164.816C295.282 184.561 297.093 208.372 293.15 237.728C293.048 238.49 293.534 239.214 294.281 239.397L301.525 241.173C301.993 241.287 302.468 241.012 302.601 240.548V240.548C302.738 240.07 303.237 239.794 303.715 239.934L308.799 241.418C309.18 241.528 309.399 241.926 309.29 242.307V242.307C309.177 242.699 309.414 243.107 309.81 243.204L367.104 257.25C367.922 257.451 368.748 256.927 368.924 256.103C379.245 207.987 372.259 175.205 359.478 136.295C359.209 135.477 358.306 135.049 357.505 135.364L305.11 155.946C304.568 156.159 304.3 156.768 304.508 157.312V157.312C304.716 157.854 304.448 158.463 303.908 158.677L299.426 160.447C298.884 160.661 298.272 160.392 298.063 159.848V159.848ZM291.611 240.802L300.775 243.048C301.342 243.187 301.679 243.769 301.519 244.329V244.329C301.363 244.873 301.676 245.44 302.219 245.599L306.703 246.907C307.349 247.096 308.026 246.723 308.212 246.075V246.075C308.391 245.447 309.035 245.073 309.669 245.229L369.111 259.802V259.802C369.655 259.935 370.202 259.596 370.325 259.049V259.049C381.782 208.017 374.133 174.028 360.546 133.153V133.153C360.365 132.609 359.765 132.328 359.231 132.537V132.537L304.229 154.143C303.781 154.319 303.276 154.096 303.104 153.647V153.647C302.931 153.197 302.425 152.975 301.977 153.152L297.155 155.057C296.709 155.233 296.488 155.736 296.659 156.184V156.184C296.831 156.633 296.609 157.136 296.162 157.312L284.484 161.9V161.9C283.948 162.11 283.7 162.728 283.942 163.251V163.251C293.314 183.47 295.345 208.293 290.859 239.689V239.689C290.787 240.198 291.112 240.679 291.611 240.802V240.802ZM301.033 273.645C301.299 273.12 301.927 272.893 302.467 273.126L355.267 295.91C356.037 296.242 356.386 297.143 356.033 297.905C338.864 335.021 311.238 367.804 277.597 387.902C276.898 388.32 275.996 388.094 275.568 387.402L244.788 337.681C244.49 337.2 244.629 336.57 245.101 336.259V336.259C245.581 335.942 245.716 335.297 245.402 334.815L242.704 330.677C242.422 330.245 241.843 330.125 241.412 330.409V330.409C240.974 330.697 240.384 330.567 240.108 330.121L235.522 322.714C235.081 322 235.315 321.061 236.032 320.625C260.642 305.649 275.068 286.417 284.842 267.068C285.202 266.355 286.053 266.043 286.785 266.359L294.294 269.599C294.75 269.796 294.945 270.337 294.721 270.78V270.78C294.504 271.207 294.677 271.729 295.107 271.942L299.546 274.139C300.093 274.409 300.757 274.189 301.033 273.645V273.645ZM275.15 390.526L243.063 338.694C242.8 338.269 242.239 338.146 241.822 338.421V338.421C241.413 338.691 240.861 338.576 240.593 338.165L237.845 333.949C237.546 333.489 237.674 332.873 238.132 332.571V332.571C238.583 332.274 238.716 331.672 238.431 331.213L232.479 321.598V321.598C232.183 321.12 232.34 320.492 232.825 320.208V320.208C259.286 304.759 274.165 284.43 284.101 264.061V264.061C284.335 263.581 284.906 263.37 285.396 263.582V263.582L294.952 267.705C295.565 267.97 296.278 267.712 296.581 267.116V267.116C296.895 266.498 297.648 266.248 298.27 266.555L302.448 268.623C302.947 268.87 303.149 269.477 302.897 269.974V269.974C302.635 270.489 302.863 271.119 303.393 271.348L358.396 295.082V295.082C358.909 295.303 359.141 295.9 358.912 296.409V296.409C341.339 335.572 312.208 370.246 276.5 390.866V390.866C276.032 391.136 275.434 390.986 275.15 390.526V390.526ZM124.984 335.652C125.72 335.923 126.126 336.711 125.917 337.467L123.404 346.524C123.253 347.068 122.686 347.385 122.143 347.229V347.229C121.599 347.073 121.032 347.39 120.881 347.935L119.582 352.633C119.43 353.18 119.748 353.746 120.293 353.903V353.903C120.839 354.06 121.156 354.627 121.004 355.175L105.71 410.304C105.487 411.108 104.653 411.576 103.854 411.34C64.601 399.731 27.2381 375.108 3.28367 344.336C2.78196 343.692 2.89879 342.767 3.5379 342.258L47.5647 307.225C47.9463 306.921 48.4996 306.973 48.8183 307.342V307.342C49.1451 307.721 49.7162 307.764 50.0964 307.439L54.0929 304.025C54.4093 303.755 54.4455 303.279 54.1735 302.964V302.964C53.8949 302.641 53.9407 302.151 54.2743 301.886L62.3742 295.441C63.0101 294.935 63.9353 295.031 64.4654 295.647C82.982 317.163 105.028 328.312 124.984 335.652ZM51.7263 300.129C52.0774 300.536 52.687 300.593 53.1075 300.258L63.0358 292.358V292.358C63.462 292.019 64.0813 292.083 64.4287 292.503V292.503C83.6095 315.668 106.921 327.089 127.836 334.558V334.558C128.33 334.734 128.604 335.262 128.464 335.767V335.767L125.328 347.071C125.175 347.622 125.494 348.194 126.044 348.352V348.352C126.594 348.51 126.913 349.081 126.761 349.632L125.465 354.315C125.313 354.864 124.742 355.184 124.194 355.026V355.026C123.647 354.868 123.076 355.188 122.924 355.737L106.964 413.267V413.267C106.816 413.801 106.262 414.113 105.729 413.962V413.962C64.3902 402.323 24.8441 376.291 0.201521 343.602V343.602C-0.124798 343.169 -0.0467959 342.555 0.377388 342.217V342.217L46.2564 305.71C46.6293 305.413 46.6805 304.866 46.369 304.505V304.505C46.0651 304.153 46.1055 303.621 46.4592 303.319L50.3182 300.022C50.7371 299.664 51.3663 299.712 51.7263 300.129V300.129Z" fill="#0799dc"/>
</svg>
