<svg width="457" height="429" viewBox="0 0 457 429" fill="none" xmlns="http://www.w3.org/2000/svg">
<path fill-rule="evenodd" clip-rule="evenodd" d="M265.523 74.5175C265.077 74.4247 264.791 73.9878 264.884 73.5417L270.635 45.8995C270.805 45.0803 270.272 44.2794 269.45 44.1274C257.419 41.9041 245.176 40.8698 233.11 40.937C208.705 41.0728 185.071 45.7137 165.405 54.094C164.628 54.4253 164.289 55.3375 164.651 56.1012L174.279 76.4089C174.471 76.8147 174.954 76.9895 175.362 76.8005V76.8005C175.772 76.6104 176.258 76.7885 176.448 77.1983L178.683 82.0165C178.865 82.4084 178.694 82.8736 178.303 83.0554V83.0554C177.908 83.2383 177.739 83.7075 177.925 84.1002L186.927 103.089V103.089C187.163 103.588 186.951 104.184 186.452 104.421V104.421C171.79 111.379 162.384 118.194 154.722 125.671C148.581 131.662 143.557 138.079 137.819 145.407L137.817 145.41L137.812 145.415C136.365 147.263 134.873 149.168 133.306 151.14V151.14C132.998 151.528 132.452 151.631 132.023 151.383V151.383L113.153 140.474C112.722 140.225 112.171 140.367 111.914 140.793V140.793C111.654 141.225 111.093 141.364 110.661 141.103L106.237 138.437C105.843 138.199 105.716 137.687 105.954 137.293V137.293C106.194 136.893 106.061 136.374 105.657 136.14L98.181 131.818C97.4708 131.408 96.5619 131.644 96.1479 132.352C91.3966 140.48 87.3488 149.024 84.0012 157.967C83.7062 158.755 84.1255 159.628 84.9224 159.899L92.507 162.471C92.9385 162.618 93.1696 163.086 93.0233 163.517V163.517C92.8769 163.949 92.4085 164.18 91.977 164.034L84.3151 161.435C83.5376 161.171 82.692 161.581 82.425 162.358C81.309 165.603 80.2825 168.899 79.3453 172.245C79.1175 173.059 79.6136 173.896 80.4346 174.094L88.415 176.022C88.8579 176.129 89.1302 176.575 89.0233 177.017V177.017C88.9163 177.46 88.4705 177.733 88.0276 177.626L79.9424 175.673C79.1477 175.481 78.345 175.96 78.1446 176.753C76.8337 181.937 75.7314 187.237 74.8372 192.652V192.652C74.7658 193.085 74.3681 193.386 73.9322 193.337V193.337L43.2521 189.929C42.7993 189.878 42.4729 189.47 42.5233 189.017V189.017C42.5736 188.565 42.9815 188.238 43.4343 188.289L71.9299 191.455C72.7203 191.543 73.4413 190.998 73.5794 190.215C74.4055 185.53 75.388 180.931 76.527 176.419C76.7325 175.605 76.2377 174.778 75.4219 174.58L0.63146 156.513C0.188568 156.406 -0.0837338 155.96 0.0232578 155.517V155.517C0.130249 155.075 0.576011 154.802 1.0189 154.909L75.9125 173.002C76.7023 173.192 77.4997 172.719 77.7182 171.937C78.6703 168.527 79.7142 165.169 80.85 161.864C81.1217 161.073 80.7029 160.21 79.9113 159.941L8.03954 135.564C7.60805 135.417 7.3769 134.949 7.52326 134.517V134.517C7.66961 134.086 8.13804 133.855 8.56953 134.001L80.5174 158.405C81.2897 158.666 82.1292 158.263 82.4146 157.499C85.7976 148.442 89.8913 139.791 94.6985 131.562C95.1204 130.839 94.8792 129.91 94.155 129.491L68.0228 114.383V114.383C67.5263 114.096 67.3724 113.451 67.6859 112.971V112.971C76.5273 99.4267 84.4019 88.3202 93.2197 78.508C93.7692 77.8965 93.733 76.9568 93.1324 76.3953L64.5625 49.6835C64.2296 49.3724 64.2121 48.8503 64.5233 48.5175V48.5175C64.8344 48.1846 65.3565 48.1671 65.6893 48.4783L94.2402 75.1722C94.8456 75.7382 95.7947 75.7055 96.366 75.1052C98.2975 73.0759 100.282 71.0993 102.338 69.1643C115.18 57.0779 130.769 46.6522 153.572 35.125V35.125C154.074 34.8714 154.686 35.0811 154.927 35.5891V35.5891L162.658 51.8971C163.006 52.6308 163.873 52.9543 164.62 52.6352C184.553 44.115 208.468 39.4241 233.101 39.287C245.286 39.2192 257.66 40.2657 269.827 42.5194C270.634 42.6688 271.415 42.1495 271.582 41.3465L280.047 0.657124C280.14 0.211039 280.577 -0.0753473 281.023 0.0174617V0.0174617C281.469 0.110271 281.756 0.547133 281.663 0.993218L273.206 41.6388C273.037 42.4529 273.562 43.2487 274.376 43.4205C294.897 47.7532 314.684 55.5861 331.817 67.371C332.192 67.6292 332.284 68.1437 332.023 68.5175V68.5175C331.763 68.8913 331.249 68.983 330.873 68.7248C313.941 57.0791 294.359 49.3246 274.024 45.0326C273.217 44.8621 272.427 45.3832 272.259 46.1912L266.499 73.8778C266.406 74.3239 265.969 74.6103 265.523 74.5175V74.5175ZM70.8089 111.855C70.3354 112.574 70.5657 113.543 71.3113 113.974L95.2416 127.809C95.9457 128.216 96.8453 127.987 97.2766 127.298C103.067 118.042 109.793 109.342 117.46 101.222C118.034 100.614 118.009 99.654 117.398 99.0827L96.785 79.8103C96.1752 79.2402 95.2169 79.277 94.6592 79.8981C86.4451 89.0466 79.0297 99.3654 70.8089 111.855ZM120.795 102.259C120.196 101.698 119.257 101.723 118.693 102.319C111.119 110.337 104.472 118.924 98.7474 128.058C98.2994 128.773 98.5385 129.715 99.269 130.137L106.756 134.466C107.127 134.68 107.602 134.558 107.823 134.191V134.191C108.048 133.819 108.531 133.699 108.903 133.923L113.541 136.719C113.877 136.922 113.985 137.358 113.782 137.693V137.693C113.577 138.033 113.691 138.475 114.035 138.674L131.155 148.571C131.799 148.944 132.619 148.788 133.08 148.203C134.145 146.854 135.181 145.531 136.197 144.233L136.203 144.225L136.205 144.223C141.954 136.88 147.08 130.333 153.325 124.239C160.761 116.984 169.777 110.369 183.351 103.697C184.092 103.333 184.407 102.443 184.054 101.697L176.119 84.9593C175.927 84.555 175.445 84.3808 175.039 84.5691V84.5691C174.631 84.7585 174.146 84.5811 173.957 84.1727L171.72 79.3494C171.538 78.9588 171.708 78.4954 172.099 78.3143V78.3143C172.491 78.132 172.66 77.6646 172.475 77.2733L162.799 56.8625C162.447 56.1211 161.565 55.7988 160.823 56.1487C154.82 58.9787 149.237 62.1752 144.176 65.7141C143.802 65.9752 143.287 65.8887 143.023 65.5175V65.5175C142.759 65.1463 142.845 64.631 143.219 64.3699C148.352 60.7796 154.006 57.5404 160.079 54.6748C160.836 54.318 161.165 53.4161 160.807 52.6605L154.22 38.7673C153.858 38.004 152.934 37.6916 152.182 38.0774C130.732 49.0873 115.936 59.1125 103.709 70.6207C101.685 72.5258 99.7297 74.4725 97.8259 76.4722C97.2549 77.072 97.2875 78.0213 97.8925 78.5869L118.587 97.9358C119.183 98.4923 120.113 98.4715 120.688 97.8941C132.744 85.7881 146.976 75.0309 163.399 65.7051C163.796 65.4802 164.3 65.6204 164.523 66.0175V66.0175C164.747 66.4145 164.605 66.9179 164.209 67.1429C147.956 76.3725 133.873 87.0085 121.943 98.9719C121.348 99.5682 121.37 100.537 121.985 101.112L125.984 104.851C126.317 105.163 126.334 105.685 126.023 106.017V106.017C125.712 106.35 125.19 106.368 124.857 106.057L120.795 102.259ZM367.023 137.517C367.259 137.908 367.766 138.033 368.156 137.798L386.812 126.539C387.524 126.11 388.451 126.341 388.87 127.059C407.153 158.359 414.842 194.764 412.266 228.629C412.231 229.084 412.569 229.481 413.023 229.517V229.517C413.477 229.554 413.876 229.217 413.91 228.763C416.512 194.579 408.754 157.812 390.276 126.193C389.859 125.48 390.088 124.563 390.795 124.136L453.743 86.1501C454.133 85.9147 454.259 85.4076 454.023 85.0175V85.0175C453.788 84.6274 453.281 84.502 452.891 84.7374L389.944 122.723C389.237 123.149 388.318 122.924 387.882 122.223C381.253 111.562 373.369 101.542 364.214 92.4714C363.622 91.8843 363.612 90.9271 364.199 90.3347L399.529 54.6842C399.849 54.3605 399.847 53.8382 399.523 53.5175V53.5175C399.2 53.1967 398.677 53.1991 398.357 53.5227L362.979 89.2221C362.404 89.8022 361.471 89.8152 360.874 89.2576C355.958 84.6634 350.698 80.3357 345.092 76.3181C344.372 75.8019 344.243 74.7791 344.819 74.1064L366.613 48.6807C366.909 48.3348 366.869 47.814 366.523 47.5175V47.5175C366.177 47.2209 365.656 47.261 365.36 47.6069L341.897 74.9806V74.9806C341.578 75.352 341.651 75.9173 342.054 76.1958V76.1958C348.351 80.5558 354.222 85.307 359.668 90.3893C360.282 90.9626 360.296 91.9294 359.704 92.5263L344.518 107.851C344.197 108.174 344.2 108.697 344.523 109.017V109.017C344.847 109.338 345.369 109.336 345.69 109.012L360.926 93.6381C361.505 93.0537 362.447 93.0444 363.032 93.6234C372.091 102.597 379.897 112.513 386.461 123.064C386.9 123.77 386.673 124.696 385.961 125.126L367.303 136.385C366.913 136.62 366.788 137.127 367.023 137.517V137.517ZM408.682 131.559C408.351 130.863 408.592 130.022 409.249 129.619L435.252 113.652C435.64 113.414 435.762 112.906 435.523 112.517V112.517C435.285 112.129 434.777 112.008 434.389 112.246L406.592 129.314V129.314C406.229 129.537 406.095 129.998 406.282 130.38V130.38C428.662 176.188 428.196 220.524 418.859 256.314C418.653 257.103 417.852 257.572 417.06 257.378L382.521 248.913C382.078 248.804 381.632 249.075 381.523 249.517V249.517C381.415 249.96 381.686 250.407 382.128 250.515L416.546 258.951C417.368 259.152 417.862 259.994 417.628 260.808C416.376 265.17 414.996 269.394 413.514 273.468C413.236 274.233 412.395 274.63 411.626 274.365L380.072 263.506C379.641 263.358 379.172 263.587 379.023 264.017V264.017C378.875 264.448 379.104 264.918 379.535 265.066L410.96 275.881C411.762 276.157 412.176 277.043 411.867 277.833C409.34 284.288 406.571 290.331 403.675 295.903C403.465 296.307 403.62 296.805 404.023 297.017V297.017C404.427 297.229 404.925 297.075 405.136 296.67C408.081 291.003 410.898 284.852 413.465 278.277C413.759 277.523 414.594 277.132 415.359 277.395L454.975 291.029C455.406 291.177 455.875 290.948 456.023 290.517V290.517C456.172 290.087 455.942 289.617 455.512 289.469L416.023 275.879C415.226 275.604 414.812 274.728 415.1 273.935C416.597 269.809 417.992 265.53 419.256 261.112C419.479 260.333 420.277 259.865 421.064 260.058L431.526 262.622C431.968 262.731 432.415 262.46 432.523 262.017V262.017C432.632 261.575 432.361 261.128 431.918 261.02L421.576 258.485C420.759 258.285 420.266 257.456 420.478 256.641C429.746 221.047 430.317 177.073 408.682 131.559ZM352.023 309.017C351.742 309.376 351.223 309.438 350.865 309.156L345.162 304.676C344.804 304.394 344.742 303.876 345.023 303.517V303.517C345.305 303.159 345.823 303.097 346.182 303.378L351.884 307.859C352.243 308.141 352.305 308.659 352.023 309.017V309.017ZM359.023 285.517C358.781 285.904 358.898 286.413 359.284 286.655L391.386 306.778C391.772 307.02 392.281 306.904 392.523 306.517V306.517C392.765 306.131 392.648 305.622 392.262 305.38L360.16 285.257C359.774 285.015 359.265 285.131 359.023 285.517V285.517ZM352.66 328.932C353.225 328.333 353.195 327.389 352.598 326.823L345.055 319.684C344.724 319.371 344.71 318.848 345.023 318.517V318.517C345.336 318.187 345.859 318.172 346.19 318.485L353.691 325.586C354.299 326.162 355.261 326.128 355.824 325.508C357.589 323.563 359.396 321.518 361.268 319.362V319.362C361.607 318.972 362.186 318.904 362.606 319.205V319.205L372.183 326.072C372.844 326.545 373.762 326.407 374.249 325.757C376.472 322.791 378.668 319.723 380.843 316.551V316.551C381.103 316.172 381.623 316.078 381.999 316.343V316.343L406.825 333.868C407.197 334.13 407.286 334.645 407.023 335.017V335.017C406.76 335.39 406.246 335.478 405.873 335.216L382.968 319.047C382.286 318.566 381.343 318.734 380.865 319.419C379.139 321.893 377.397 324.305 375.639 326.654C375.133 327.329 375.278 328.29 375.964 328.782L415.606 357.205V357.205C416.076 357.542 416.163 358.206 415.796 358.653V358.653C411.928 363.355 408.218 367.693 404.577 371.726C404.029 372.333 404.063 373.266 404.657 373.829L410.491 379.351C410.822 379.664 410.836 380.187 410.523 380.517V380.517C410.21 380.848 409.688 380.863 409.357 380.549L403.574 375.076C402.967 374.501 402.008 374.535 401.437 375.145C394.171 382.921 387.082 389.525 379.448 395.433C366.925 405.124 352.971 412.913 334.42 420.935V420.935C333.893 421.163 333.282 420.901 333.084 420.361V420.361L317.9 378.858C317.595 378.024 316.635 377.637 315.831 378.016C300.328 385.32 283.051 389.845 263.312 391.635C262.479 391.711 261.862 392.448 261.942 393.281L265.265 427.617C265.309 428.07 264.977 428.474 264.523 428.517V428.517C264.07 428.561 263.667 428.229 263.623 427.776L260.292 393.358C260.213 392.546 259.5 391.947 258.686 392.002C250.949 392.528 242.839 392.65 234.318 392.37C233.863 392.355 233.507 391.973 233.523 391.517V391.517C233.54 391.062 233.922 390.706 234.377 390.721C242.805 390.997 250.82 390.879 258.462 390.363C259.302 390.307 259.925 389.566 259.844 388.729L259.425 384.398C259.345 383.577 258.615 382.975 257.793 383.044C203.17 387.576 152.545 369.531 116.871 334.368C116.282 333.787 115.334 333.783 114.746 334.366L58.19 390.522C57.8667 390.843 57.3443 390.841 57.0233 390.517V390.517C56.7022 390.194 56.7041 389.672 57.0274 389.351L113.594 333.185C114.179 332.605 114.186 331.662 113.615 331.068C105.236 322.333 97.7457 312.613 91.2986 301.983C90.8649 301.268 89.9327 301.037 89.2196 301.474L35.6577 334.29C35.2692 334.528 34.7613 334.406 34.5233 334.017V334.017C34.2852 333.629 34.4072 333.121 34.7957 332.883L88.4299 300.023C89.1247 299.597 89.3521 298.695 88.9485 297.987C80.4731 283.115 73.9914 266.555 69.8987 248.502C69.798 248.058 70.0785 247.616 70.5233 247.517V247.517C70.968 247.419 71.4087 247.7 71.5095 248.144C75.555 265.986 81.9555 282.357 90.3231 297.063C90.7395 297.795 91.6795 298.032 92.3976 297.592L104.389 290.245C104.777 290.007 105.285 290.129 105.523 290.517V290.517C105.761 290.906 105.639 291.414 105.251 291.652L93.1863 299.044C92.4866 299.472 92.2607 300.384 92.686 301.086C99.0657 311.611 106.478 321.236 114.77 329.886C115.347 330.488 116.304 330.495 116.895 329.907L126.357 320.513C126.68 320.192 127.202 320.194 127.523 320.517V320.517C127.844 320.841 127.842 321.363 127.519 321.684L118.047 331.089C117.458 331.674 117.456 332.626 118.047 333.208C153.873 368.513 204.927 386.392 259.946 381.196V381.196C260.399 381.153 260.801 381.485 260.844 381.938V381.938L261.494 388.652C261.573 389.469 262.295 390.071 263.112 389.997C282.884 388.209 300.118 383.659 315.541 376.328C316.235 375.998 316.559 375.192 316.295 374.47L310.584 358.861V358.861C310.398 358.353 310.65 357.79 311.152 357.589V357.589C329.371 350.301 340.298 342.043 352.66 328.932ZM361.283 322.388C361.792 321.806 362.66 321.705 363.289 322.155L370.891 327.606C371.581 328.101 371.724 329.07 371.2 329.738C369.649 331.721 368.083 333.655 366.503 335.54C365.951 336.198 364.958 336.251 364.334 335.661L357.323 329.024C356.728 328.46 356.695 327.524 357.246 326.917C358.566 325.463 359.908 323.955 361.283 322.388ZM354.095 330.325C354.667 329.719 355.623 329.687 356.229 330.26L363.365 337.015C363.947 337.566 363.993 338.48 363.463 339.083C350.325 354.046 336.097 365.717 319.892 374.161V374.161C319.186 374.529 318.321 374.187 318.047 373.44L313.292 360.442C313.015 359.683 313.391 358.841 314.136 358.529C331.364 351.324 342.114 343.028 354.095 330.325ZM320.654 375.624C320.543 375.682 320.432 375.74 320.32 375.798C319.645 376.147 319.329 376.943 319.591 377.658L334.051 417.182C334.347 417.993 335.268 418.386 336.058 418.038C353.299 410.433 366.42 402.986 378.224 393.852C385.769 388.012 392.789 381.473 400.01 373.743C400.571 373.143 400.539 372.203 399.943 371.638L366.745 340.214C366.124 339.627 365.139 339.677 364.574 340.318C351.363 355.335 337.019 367.097 320.654 375.624ZM374.673 330.317C374.016 329.846 373.105 329.981 372.607 330.617C370.956 332.731 369.288 334.791 367.602 336.797C367.089 337.407 367.137 338.313 367.716 338.862L401.025 370.391C401.634 370.968 402.599 370.932 403.161 370.309C406.218 366.921 409.328 363.311 412.546 359.444C413.101 358.776 412.972 357.777 412.266 357.271L374.673 330.317ZM290.523 73.5175C290.091 73.3734 289.624 73.607 289.48 74.0392L287.501 79.9739C287.357 80.4062 287.591 80.8734 288.023 81.0175V81.0175C288.456 81.1615 288.923 80.9279 289.067 80.4957L291.045 74.561C291.189 74.1288 290.956 73.6615 290.523 73.5175V73.5175Z" fill="#2481DD"/>
</svg>
