<svg width="465" height="461" viewBox="0 0 465 461" fill="none" xmlns="http://www.w3.org/2000/svg">
<g opacity="0.7">
<path d="M76.6799 65.3664L117.682 101.243C118.437 101.904 119.571 101.896 120.328 101.239C144.919 79.9019 161.911 70.9942 196.142 61.8867C197.174 61.612 197.825 60.5743 197.603 59.5292L186.429 6.91819C186.195 5.81254 185.077 5.12416 183.98 5.39917C138.639 16.7729 113.035 29.3287 76.6608 62.3801C75.7792 63.1811 75.7834 64.582 76.6799 65.3664Z" fill="#2481DD"/>
<path d="M220.567 2.35427L222.432 56.42C222.47 57.5152 223.398 58.3749 224.494 58.3577C308.594 57.0378 364.2 96.6544 393.687 159.153C394.144 160.122 395.282 160.575 396.274 160.167L446.087 139.683C447.133 139.253 447.611 138.034 447.138 137.006C405.588 46.787 320.455 -4.3843 222.464 0.295318C221.377 0.347236 220.53 1.26652 220.567 2.35427Z" fill="#2481DD"/>
<path d="M460.02 191.221L405.938 200.079C404.862 200.255 404.129 201.281 404.276 202.361C417.63 300.43 361.515 366.41 293.266 389.314C292.272 389.648 291.694 390.685 291.944 391.703L305.02 444.944C305.285 446.021 306.384 446.676 307.456 446.394C415.129 418.174 479.129 303.601 462.31 192.882C462.144 191.788 461.113 191.042 460.02 191.221Z" fill="#2481DD"/>
<path d="M217.378 403.947L214.121 458.862C214.054 459.979 213.071 460.825 211.956 460.729C92.3554 450.431 9.5539 359.99 0.177613 252.056C0.076739 250.895 0.995692 249.896 2.16127 249.896H57.2237C58.237 249.896 59.0906 250.667 59.2191 251.673C70.8002 342.306 139.742 398.401 215.444 401.817C216.569 401.867 217.445 402.824 217.378 403.947Z" fill="#2481DD"/>
<path d="M224.769 93.2622C154.781 101.941 107.477 150.546 99.2608 210.486C99.1094 211.591 99.9062 212.598 101.014 212.719L120.139 214.798C121.186 214.911 122.142 214.187 122.336 213.151C132.195 160.61 166.025 121.685 225.232 113.727C226.233 113.593 227 112.741 227 111.731V95.2345C227 94.0425 225.952 93.1156 224.769 93.2622Z" fill="#2481DD"/>
<path d="M153.149 310.979L136.348 323.16C135.369 323.87 135.239 325.281 136.081 326.148C153.622 344.228 170.62 354.808 199.099 363.9C200.146 364.235 201.27 363.655 201.604 362.608L207.889 342.915C208.226 341.859 207.635 340.729 206.579 340.391C183.555 333.013 171.678 326.211 155.713 311.153C155.01 310.49 153.931 310.412 153.149 310.979Z" fill="#2481DD"/>
<path d="M343.231 275.994C317.075 326.27 280.374 344.096 233.127 344.493C232.182 344.501 231.359 345.16 231.163 346.084L226.992 365.685C226.735 366.896 227.645 368.049 228.882 368.084C297.544 369.995 342.896 328.19 361.698 282.014C362.139 280.931 361.539 279.714 360.418 279.381L345.596 274.974C344.671 274.7 343.676 275.138 343.231 275.994Z" fill="#2481DD"/>
</g>
</svg>
