<svg width="370" height="549" viewBox="0 0 370 549" fill="none" xmlns="http://www.w3.org/2000/svg">
<path fill-rule="evenodd" clip-rule="evenodd" d="M166 6C167.657 6 169 4.65685 169 3C169 1.34315 167.657 0 166 0C165.072 0 164.243 0.42116 163.693 1.08273C163.286 1.57147 162.746 2 162.11 2H1.5C0.604496 2 0.160441 3.08665 0.799659 3.71381L27.2997 29.7138C27.4866 29.8972 27.7381 30 28 30H117.11C117.746 30 118.286 30.4285 118.693 30.9173C119.243 31.5788 120.072 32 121 32C122.657 32 124 30.6569 124 29C124 27.3431 122.657 26 121 26C120.072 26 119.243 26.4212 118.693 27.0827C118.286 27.5715 117.746 28 117.11 28H29.0216C28.6287 28 28.2515 27.8459 27.9711 27.5707L6.56726 6.57071C5.60843 5.62998 6.27451 4 7.61776 4H162.11C162.746 4 163.286 4.42853 163.693 4.91727C164.243 5.57884 165.072 6 166 6ZM4.75259 72.8356C4.94236 72.6221 5.21436 72.5 5.5 72.5H341.772C342.505 72.5 343.099 71.9378 343.508 71.3296C344.046 70.5277 344.961 70 346 70C347.657 70 349 71.3431 349 73C349 74.6569 347.657 76 346 76C345.2 76 344.473 75.687 343.936 75.1768C343.547 74.8083 343.072 74.5 342.536 74.5H6.62267C6.19421 74.5 5.7862 74.6832 5.50155 75.0035L2.91178 77.917C2.54486 78.3297 1.91278 78.3669 1.5 78C1.08722 77.6331 1.05004 77.001 1.41695 76.5882L4.75259 72.8356ZM127 111C126.894 111 126.788 110.994 126.685 110.984C126.054 110.918 125.371 110.986 124.915 111.428L111.196 124.718C111.009 124.899 110.76 125 110.5 125H27.9434C27.5786 125 27.2263 125.133 26.9524 125.374L3.41135 146.09C2.99674 146.455 2.36485 146.415 2 146C1.63514 145.585 1.67548 144.954 2.09009 144.589L26.3394 123.249C26.5219 123.089 26.7568 123 27 123H109.488C109.877 123 110.252 122.848 110.531 122.577L123.512 110.003C123.97 109.559 124.058 108.872 124.009 108.235C124.003 108.158 124 108.079 124 108C124 106.343 125.343 105 127 105C128.657 105 130 106.343 130 108C130 109.657 128.657 111 127 111ZM161.784 139.301C161.973 139.109 162.231 139 162.5 139H174.11C174.746 139 175.286 138.571 175.693 138.083C176.243 137.421 177.072 137 178 137C179.657 137 181 138.343 181 140C181 141.657 179.657 143 178 143C177.072 143 176.243 142.579 175.693 141.917C175.286 141.429 174.746 141 174.11 141H163.553C163.149 141 162.762 141.163 162.48 141.452L142.716 161.699C142.527 161.891 142.269 162 142 162H25.8901C25.2543 162 24.714 162.429 24.3075 162.917C23.7572 163.579 22.9278 164 22 164C20.3431 164 19 162.657 19 161C19 159.343 20.3431 158 22 158C22.9278 158 23.7572 158.421 24.3075 159.083C24.714 159.571 25.2543 160 25.8901 160H140.947C141.351 160 141.738 159.837 142.02 159.548L161.784 139.301ZM243.5 166C243.232 166 242.976 166.107 242.788 166.298L210.022 199.553C209.74 199.839 209.355 200 208.954 200H55.0733C54.6621 200 54.269 199.831 53.9858 199.533L47.3251 192.522C46.8435 192.015 46.8198 191.243 46.9486 190.556C46.9823 190.376 47 190.19 47 190C47 188.343 45.6569 187 44 187C42.3431 187 41 188.343 41 190C41 191.657 42.3431 193 44 193C44.5548 193 45.1344 193.12 45.5165 193.522L53.275 201.689C53.4638 201.887 53.7259 202 54 202H210C210.268 202 210.524 201.893 210.712 201.702L243.478 168.447C243.76 168.161 244.145 168 244.546 168H318.11C318.746 168 319.286 168.429 319.693 168.917C320.243 169.579 321.072 170 322 170C323.657 170 325 168.657 325 167C325 165.343 323.657 164 322 164C321.072 164 320.243 164.421 319.693 165.083C319.286 165.571 318.746 166 318.11 166H243.5ZM98.1099 369C98.7457 369 99.286 369.429 99.6925 369.917C100.243 370.579 101.072 371 102 371C103.657 371 105 369.657 105 368C105 366.343 103.657 365 102 365C101.072 365 100.243 365.421 99.6925 366.083C99.286 366.571 98.7457 367 98.1099 367H2.5C1.94772 367 1.5 367.448 1.5 368C1.5 368.552 1.94771 369 2.5 369H98.1099ZM2 496C2 496.552 2.44772 497 3 497H162.11C162.746 497 163.286 497.429 163.693 497.917C164.243 498.579 165.072 499 166 499C167.657 499 169 497.657 169 496C169 494.343 167.657 493 166 493C165.072 493 164.243 493.421 163.693 494.083C163.286 494.571 162.746 495 162.11 495H3C2.44772 495 2 495.448 2 496ZM40.1099 545C40.7457 545 41.286 544.571 41.6925 544.083C42.2428 543.421 43.0722 543 44 543C45.6569 543 47 544.343 47 546C47 547.657 45.6569 549 44 549C43.0722 549 42.2428 548.579 41.6925 547.917C41.286 547.429 40.7457 547 40.1099 547H3C2.44772 547 2 546.552 2 546C2 545.448 2.44772 545 3 545H40.1099ZM275 411C275 412.657 273.657 414 272 414C270.343 414 269 412.657 269 411C269 410.892 269.006 410.785 269.017 410.68C269.084 410.048 269.016 409.361 268.573 408.905L255.519 395.455C255.236 395.164 254.848 395 254.443 395H138.625C137.325 395 136.641 396.54 137.512 397.505L197.998 464.505C198.282 464.82 198.687 465 199.111 465H363.11C363.746 465 364.286 464.571 364.693 464.083C365.243 463.421 366.072 463 367 463C368.657 463 370 464.343 370 466C370 467.657 368.657 469 367 469C366.072 469 365.243 468.579 364.693 467.917C364.286 467.429 363.746 467 363.11 467H198C197.717 467 197.447 466.88 197.258 466.67L133.002 395.495C132.718 395.18 132.313 395 131.889 395H121.068C120.658 395 120.267 395.167 119.984 395.463L98.2223 418.192C98.0337 418.389 97.7728 418.5 97.5 418.5H3C2.44772 418.5 2 418.052 2 417.5C2 416.948 2.44772 416.5 3 416.5H96.4325C96.8416 416.5 97.233 416.333 97.516 416.037L119.278 393.308C119.466 393.111 119.727 393 120 393H133H255.5C255.77 393 256.029 393.109 256.218 393.304L270.008 407.512C270.451 407.968 271.135 408.057 271.769 408.009C271.845 408.003 271.922 408 272 408C273.657 408 275 409.343 275 411ZM73.5 472C76.947 472 79.8917 470.819 82.3341 468.456C84.7765 466.094 85.9985 463.206 86 459.794C86 456.869 85.1098 454.263 83.3295 451.975C81.7335 449.924 79.6959 448.536 77.2169 447.812C76.683 447.656 76.2541 447.25 76.0789 446.722C75.0651 443.667 73.2585 441.162 70.6591 439.206C67.8182 437.069 64.5985 436 61 436C56.5682 436 52.8083 437.529 49.7205 440.586C46.9514 443.327 45.4245 446.603 45.1398 450.413C45.083 451.173 44.5151 451.804 43.7731 451.979C41.7394 452.461 40.0098 453.501 38.5841 455.098C36.8598 457.03 35.9985 459.289 36 461.875C36 464.688 36.9939 467.078 38.9818 469.048C40.9697 471.017 43.3848 472.001 46.2273 472H73.5ZM169 94C169 93.4477 168.552 93 168 93C167.448 93 167 93.4477 167 94V121C167 121.552 167.448 122 168 122C168.552 122 169 121.552 169 121V94ZM173.719 94C173.719 93.4477 173.271 93 172.719 93C172.166 93 171.719 93.4477 171.719 94V121C171.719 121.552 172.166 122 172.719 122C173.271 122 173.719 121.552 173.719 121V94ZM176.438 94C176.438 93.4477 176.885 93 177.438 93C177.99 93 178.438 93.4477 178.438 94V121C178.438 121.552 177.99 122 177.438 122C176.885 122 176.438 121.552 176.438 121V94ZM183.156 94C183.156 93.4477 182.709 93 182.156 93C181.604 93 181.156 93.4477 181.156 94V121C181.156 121.552 181.604 122 182.156 122C182.709 122 183.156 121.552 183.156 121V94ZM185.875 94C185.875 93.4477 186.323 93 186.875 93C187.427 93 187.875 93.4477 187.875 94V121C187.875 121.552 187.427 122 186.875 122C186.323 122 185.875 121.552 185.875 121V94ZM192.594 94C192.594 93.4477 192.146 93 191.594 93C191.041 93 190.594 93.4477 190.594 94V121C190.594 121.552 191.041 122 191.594 122C192.146 122 192.594 121.552 192.594 121V94ZM195.312 94C195.312 93.4477 195.76 93 196.312 93C196.865 93 197.312 93.4477 197.312 94V121C197.312 121.552 196.865 122 196.312 122C195.76 122 195.312 121.552 195.312 121V94ZM202.031 94C202.031 93.4477 201.584 93 201.031 93C200.479 93 200.031 93.4477 200.031 94V121C200.031 121.552 200.479 122 201.031 122C201.584 122 202.031 121.552 202.031 121V94ZM204.75 94C204.75 93.4477 205.198 93 205.75 93C206.302 93 206.75 93.4477 206.75 94V121C206.75 121.552 206.302 122 205.75 122C205.198 122 204.75 121.552 204.75 121V94ZM211.469 94C211.469 93.4477 211.021 93 210.469 93C209.916 93 209.469 93.4477 209.469 94V121C209.469 121.552 209.916 122 210.469 122C211.021 122 211.469 121.552 211.469 121V94ZM214.188 94C214.188 93.4477 214.635 93 215.188 93C215.74 93 216.188 93.4477 216.188 94V121C216.188 121.552 215.74 122 215.188 122C214.635 122 214.188 121.552 214.188 121V94ZM220.906 94C220.906 93.4477 220.459 93 219.906 93C219.354 93 218.906 93.4477 218.906 94V121C218.906 121.552 219.354 122 219.906 122C220.459 122 220.906 121.552 220.906 121V94ZM223.625 94C223.625 93.4477 224.073 93 224.625 93C225.177 93 225.625 93.4477 225.625 94V121C225.625 121.552 225.177 122 224.625 122C224.073 122 223.625 121.552 223.625 121V94ZM230.344 94C230.344 93.4477 229.896 93 229.344 93C228.791 93 228.344 93.4477 228.344 94V121C228.344 121.552 228.791 122 229.344 122C229.896 122 230.344 121.552 230.344 121V94ZM233.062 94C233.062 93.4477 233.51 93 234.062 93C234.615 93 235.062 93.4477 235.062 94V121C235.062 121.552 234.615 122 234.062 122C233.51 122 233.062 121.552 233.062 121V94ZM239.781 94C239.781 93.4477 239.334 93 238.781 93C238.229 93 237.781 93.4477 237.781 94V121C237.781 121.552 238.229 122 238.781 122C239.334 122 239.781 121.552 239.781 121V94ZM242.5 94C242.5 93.4477 242.948 93 243.5 93C244.052 93 244.5 93.4477 244.5 94V121C244.5 121.552 244.052 122 243.5 122C242.948 122 242.5 121.552 242.5 121V94ZM249.219 94C249.219 93.4477 248.771 93 248.219 93C247.666 93 247.219 93.4477 247.219 94V121C247.219 121.552 247.666 122 248.219 122C248.771 122 249.219 121.552 249.219 121V94ZM251.938 94C251.938 93.4477 252.385 93 252.938 93C253.49 93 253.938 93.4477 253.938 94V121C253.938 121.552 253.49 122 252.938 122C252.385 122 251.938 121.552 251.938 121V94ZM258.656 94C258.656 93.4477 258.209 93 257.656 93C257.104 93 256.656 93.4477 256.656 94V121C256.656 121.552 257.104 122 257.656 122C258.209 122 258.656 121.552 258.656 121V94ZM261.375 94C261.375 93.4477 261.823 93 262.375 93C262.927 93 263.375 93.4477 263.375 94V121C263.375 121.552 262.927 122 262.375 122C261.823 122 261.375 121.552 261.375 121V94ZM268.094 94C268.094 93.4477 267.646 93 267.094 93C266.541 93 266.094 93.4477 266.094 94V121C266.094 121.552 266.541 122 267.094 122C267.646 122 268.094 121.552 268.094 121V94ZM270.812 94C270.812 93.4477 271.26 93 271.812 93C272.365 93 272.812 93.4477 272.812 94V121C272.812 121.552 272.365 122 271.812 122C271.26 122 270.812 121.552 270.812 121V94ZM277.531 94C277.531 93.4477 277.084 93 276.531 93C275.979 93 275.531 93.4477 275.531 94V121C275.531 121.552 275.979 122 276.531 122C277.084 122 277.531 121.552 277.531 121V94ZM280.25 94C280.25 93.4477 280.698 93 281.25 93C281.802 93 282.25 93.4477 282.25 94V121C282.25 121.552 281.802 122 281.25 122C280.698 122 280.25 121.552 280.25 121V94ZM286.969 94C286.969 93.4477 286.521 93 285.969 93C285.416 93 284.969 93.4477 284.969 94V121C284.969 121.552 285.416 122 285.969 122C286.521 122 286.969 121.552 286.969 121V94ZM289.688 94C289.688 93.4477 290.135 93 290.688 93C291.24 93 291.688 93.4477 291.688 94V121C291.688 121.552 291.24 122 290.688 122C290.135 122 289.688 121.552 289.688 121V94ZM296.406 94C296.406 93.4477 295.959 93 295.406 93C294.854 93 294.406 93.4477 294.406 94V121C294.406 121.552 294.854 122 295.406 122C295.959 122 296.406 121.552 296.406 121V94ZM299.125 94C299.125 93.4477 299.573 93 300.125 93C300.677 93 301.125 93.4477 301.125 94V121C301.125 121.552 300.677 122 300.125 122C299.573 122 299.125 121.552 299.125 121V94ZM305.844 94C305.844 93.4477 305.396 93 304.844 93C304.291 93 303.844 93.4477 303.844 94V121C303.844 121.552 304.291 122 304.844 122C305.396 122 305.844 121.552 305.844 121V94ZM308.562 94C308.562 93.4477 309.01 93 309.562 93C310.115 93 310.562 93.4477 310.562 94V121C310.562 121.552 310.115 122 309.562 122C309.01 122 308.562 121.552 308.562 121V94ZM315.281 94C315.281 93.4477 314.834 93 314.281 93C313.729 93 313.281 93.4477 313.281 94V121C313.281 121.552 313.729 122 314.281 122C314.834 122 315.281 121.552 315.281 121V94ZM318 94C318 93.4477 318.448 93 319 93C319.552 93 320 93.4477 320 94V121C320 121.552 319.552 122 319 122C318.448 122 318 121.552 318 121V94ZM227 478.5C227 477.672 227.672 477 228.5 477H230.5C231.328 477 232 477.672 232 478.5V488.5C232 489.328 231.328 490 230.5 490H228.5C227.672 490 227 489.328 227 488.5V478.5ZM244.5 477C245.328 477 246 477.672 246 478.5V488.5C246 489.328 245.328 490 244.5 490H242.5C241.672 490 241 489.328 241 488.5V478.5C241 477.672 241.672 477 242.5 477H244.5ZM260 478.5C260 477.672 259.328 477 258.5 477H256.5C255.672 477 255 477.672 255 478.5V488.5C255 489.328 255.672 490 256.5 490H258.5C259.328 490 260 489.328 260 488.5V478.5ZM269 478.5C269 477.672 269.672 477 270.5 477H272.5C273.328 477 274 477.672 274 478.5V488.5C274 489.328 273.328 490 272.5 490H270.5C269.672 490 269 489.328 269 488.5V478.5ZM288 478.5C288 477.672 287.328 477 286.5 477H284.5C283.672 477 283 477.672 283 478.5V488.5C283 489.328 283.672 490 284.5 490H286.5C287.328 490 288 489.328 288 488.5V478.5ZM297 478.5C297 477.672 297.672 477 298.5 477H300.5C301.328 477 302 477.672 302 478.5V488.5C302 489.328 301.328 490 300.5 490H298.5C297.672 490 297 489.328 297 488.5V478.5ZM316 478.5C316 477.672 315.328 477 314.5 477H312.5C311.672 477 311 477.672 311 478.5V488.5C311 489.328 311.672 490 312.5 490H314.5C315.328 490 316 489.328 316 488.5V478.5ZM325 478.5C325 477.672 325.672 477 326.5 477H328.5C329.328 477 330 477.672 330 478.5V488.5C330 489.328 329.328 490 328.5 490H326.5C325.672 490 325 489.328 325 488.5V478.5ZM344 478.5C344 477.672 343.328 477 342.5 477H340.5C339.672 477 339 477.672 339 478.5V488.5C339 489.328 339.672 490 340.5 490H342.5C343.328 490 344 489.328 344 488.5V478.5ZM8.5 529C12.0899 529 15 526.09 15 522.5C15 518.91 12.0899 516 8.5 516C4.91015 516 2 518.91 2 522.5C2 526.09 4.91015 529 8.5 529ZM34 522.5C34 526.09 31.0899 529 27.5 529C23.9101 529 21 526.09 21 522.5C21 518.91 23.9101 516 27.5 516C31.0899 516 34 518.91 34 522.5ZM53 522.5C53 524.985 50.9853 527 48.5 527C46.0147 527 44 524.985 44 522.5C44 520.015 46.0147 518 48.5 518C50.9853 518 53 520.015 53 522.5ZM55 522.5C55 526.09 52.0899 529 48.5 529C44.9101 529 42 526.09 42 522.5C42 518.91 44.9101 516 48.5 516C52.0899 516 55 518.91 55 522.5ZM69.5 527C71.9853 527 74 524.985 74 522.5C74 520.015 71.9853 518 69.5 518C67.0147 518 65 520.015 65 522.5C65 524.985 67.0147 527 69.5 527ZM69.5 529C73.0899 529 76 526.09 76 522.5C76 518.91 73.0899 516 69.5 516C65.9101 516 63 518.91 63 522.5C63 526.09 65.9101 529 69.5 529ZM95 522.5C95 524.985 92.9853 527 90.5 527C88.0147 527 86 524.985 86 522.5C86 520.015 88.0147 518 90.5 518C92.9853 518 95 520.015 95 522.5ZM97 522.5C97 526.09 94.0899 529 90.5 529C86.9101 529 84 526.09 84 522.5C84 518.91 86.9101 516 90.5 516C94.0899 516 97 518.91 97 522.5Z" fill="#2481DD"/>
</svg>
