<svg width="406" height="657" viewBox="0 0 406 657" fill="none" xmlns="http://www.w3.org/2000/svg">
<path fill-rule="evenodd" clip-rule="evenodd" d="M0.26027 1.67271C-0.111345 1.26415 -0.0813986 0.631688 0.327161 0.260073C0.73572 -0.111542 1.36818 -0.0815925 1.73979 0.326967L85.9734 92.9347C86.1625 93.1425 86.4302 93.2613 86.7112 93.2618L333.439 93.7523C334.075 93.7536 334.616 93.3262 335.023 92.8382C335.574 92.1793 336.402 91.7601 337.327 91.7601C338.984 91.7601 340.327 93.1032 340.327 94.7601C340.327 96.4169 338.984 97.7601 337.327 97.7601C336.397 97.7601 335.566 97.337 335.016 96.6728C334.61 96.1832 334.071 95.7536 333.435 95.7523L85.8252 95.2601C85.5442 95.2595 85.2764 95.1408 85.0874 94.9329L0.26027 1.67271ZM1.32716 89.7601C0.774876 89.7601 0.327161 89.3124 0.327161 88.7601C0.327161 88.2078 0.774876 87.7601 1.32716 87.7601H24.3272C24.4234 87.7601 24.5156 87.7069 24.5523 87.6179C25.0015 86.5276 26.0747 85.7601 27.3272 85.7601C28.984 85.7601 30.3272 87.1032 30.3272 88.7601C30.3272 90.4169 28.984 91.7601 27.3272 91.7601C26.0747 91.7601 25.0015 90.9926 24.5522 89.9022C24.5156 89.8132 24.4234 89.7601 24.3272 89.7601H1.32716ZM255.437 133.76C256.073 133.76 256.613 133.332 257.02 132.843C257.57 132.181 258.399 131.76 259.327 131.76C260.984 131.76 262.327 133.103 262.327 134.76C262.327 136.417 260.984 137.76 259.327 137.76C258.399 137.76 257.57 137.339 257.02 136.677C256.613 136.189 256.073 135.76 255.437 135.76H1.32716C0.774876 135.76 0.327161 135.312 0.327161 134.76C0.327161 134.208 0.774878 133.76 1.32716 133.76H255.437ZM1.32716 198.76C0.774872 198.76 0.327161 198.312 0.327161 197.76C0.327161 197.208 0.774876 196.76 1.32716 196.76H145.327C145.423 196.76 145.516 196.707 145.552 196.618C146.002 195.528 147.075 194.76 148.327 194.76C149.984 194.76 151.327 196.103 151.327 197.76C151.327 199.417 149.984 200.76 148.327 200.76C147.075 200.76 146.002 199.993 145.552 198.902C145.516 198.813 145.423 198.76 145.327 198.76H1.32716ZM238.827 229.76C238.547 229.76 238.28 229.878 238.091 230.084L210.685 259.936C210.496 260.143 210.229 260.26 209.949 260.26H1.32716C0.774871 260.26 0.327161 260.708 0.327161 261.26C0.327161 261.812 0.774876 262.26 1.32716 262.26H210.827C211.107 262.26 211.375 262.143 211.564 261.936L238.97 232.084C239.159 231.878 239.426 231.76 239.706 231.76H398.437C399.073 231.76 399.613 232.189 400.02 232.677C400.57 233.339 401.399 233.76 402.327 233.76C403.984 233.76 405.327 232.417 405.327 230.76C405.327 229.103 403.984 227.76 402.327 227.76C401.399 227.76 400.57 228.181 400.02 228.843C399.613 229.332 399.073 229.76 398.437 229.76H238.827ZM129.606 280.067C129.794 279.871 130.055 279.76 130.327 279.76H239.327C239.423 279.76 239.516 279.707 239.552 279.618C240.002 278.528 241.075 277.76 242.327 277.76C243.984 277.76 245.327 279.103 245.327 280.76C245.327 282.417 243.984 283.76 242.327 283.76C241.075 283.76 240.002 282.993 239.552 281.902C239.516 281.813 239.423 281.76 239.327 281.76H131.179C130.907 281.76 130.647 281.871 130.458 282.067L70.5482 344.453C70.3597 344.649 70.0992 344.76 69.827 344.76H1.32716C0.774878 344.76 0.327161 344.312 0.327161 343.76C0.327161 343.208 0.774876 342.76 1.32716 342.76H68.9747C69.247 342.76 69.5074 342.649 69.696 342.453L129.606 280.067ZM104.327 354.76C104.052 354.76 103.788 354.874 103.599 355.074L63.1916 397.946C63.0026 398.146 62.7393 398.26 62.4639 398.26H1.32716C0.774875 398.26 0.327161 398.708 0.327161 399.26C0.327161 399.812 0.774876 400.26 1.32716 400.26H63.3272H304.863C305.399 400.26 305.874 400.568 306.263 400.937C306.801 401.447 307.527 401.76 308.327 401.76C309.984 401.76 311.327 400.417 311.327 398.76C311.327 397.103 309.984 395.76 308.327 395.76C307.289 395.76 306.373 396.288 305.835 397.09C305.426 397.698 304.832 398.26 304.099 398.26H67.9606C67.0839 398.26 66.6315 397.212 67.2329 396.574L104.463 357.074C104.652 356.874 104.915 356.76 105.19 356.76H238.437C239.073 356.76 239.613 357.189 240.02 357.677C240.57 358.339 241.399 358.76 242.327 358.76C243.984 358.76 245.327 357.417 245.327 355.76C245.327 354.103 243.984 352.76 242.327 352.76C241.399 352.76 240.57 353.181 240.02 353.843C239.613 354.332 239.073 354.76 238.437 354.76H104.327ZM1.32716 426.76C0.774875 426.76 0.327161 426.312 0.327161 425.76C0.327161 425.208 0.774876 424.76 1.32716 424.76H43.8272C44.0862 424.76 44.3351 424.861 44.5215 425.04L86.4403 465.48C86.6267 465.66 86.8756 465.76 87.1346 465.76H155.827H313.437C314.073 465.76 314.613 465.332 315.02 464.843C315.57 464.181 316.399 463.76 317.327 463.76C318.984 463.76 320.327 465.103 320.327 466.76C320.327 468.417 318.984 469.76 317.327 469.76C316.399 469.76 315.57 469.339 315.02 468.677C314.613 468.189 314.073 467.76 313.437 467.76H160.329C159.462 467.76 159.006 468.787 159.587 469.43L183.974 496.43C184.163 496.64 184.433 496.76 184.716 496.76H284.327C284.423 496.76 284.516 496.707 284.552 496.618C285.001 495.528 286.075 494.76 287.327 494.76C288.984 494.76 290.327 496.103 290.327 497.76C290.327 499.417 288.984 500.76 287.327 500.76C286.075 500.76 285.001 499.993 284.552 498.902C284.516 498.813 284.423 498.76 284.327 498.76H183.827C183.544 498.76 183.275 498.64 183.085 498.43L155.681 468.09C155.491 467.88 155.221 467.76 154.939 467.76H86.3272C86.0682 467.76 85.8193 467.66 85.6329 467.48L43.714 427.04C43.5276 426.861 43.2787 426.76 43.0197 426.76H1.32716ZM63.8272 504.76C63.5538 504.76 63.2923 504.872 63.1036 505.07L24.5595 545.477C24.1638 545.891 23.5013 545.889 23.1082 545.472L1.74077 522.802C1.36196 522.4 0.729046 522.381 0.327146 522.76C-0.0747433 523.139 -0.0934763 523.772 0.285321 524.174L23.0994 548.379L23.1089 548.389L40.6089 566.456C40.7972 566.65 41.0564 566.76 41.3272 566.76H212.437C213.073 566.76 213.613 567.189 214.02 567.677C214.57 568.339 215.399 568.76 216.327 568.76C217.984 568.76 219.327 567.417 219.327 565.76C219.327 564.103 217.984 562.76 216.327 562.76C215.399 562.76 214.57 563.181 214.02 563.843C213.613 564.332 213.073 564.76 212.437 564.76H42.1743C41.9036 564.76 41.6444 564.65 41.456 564.456L25.883 548.378C25.5094 547.992 25.5071 547.381 25.8777 546.992L63.9598 507.07C64.1485 506.872 64.41 506.76 64.6834 506.76H163.327C163.423 506.76 163.516 506.813 163.552 506.902C164.002 507.993 165.075 508.76 166.327 508.76C167.984 508.76 169.327 507.417 169.327 505.76C169.327 504.103 167.984 502.76 166.327 502.76C165.075 502.76 164.002 503.528 163.552 504.618C163.516 504.707 163.423 504.76 163.327 504.76H63.8272ZM0.262099 575.673C-0.110046 575.265 -0.0809158 574.632 0.327161 574.26C0.735237 573.888 1.36773 573.917 1.73988 574.325L72.9711 652.434C73.1606 652.642 73.4288 652.76 73.71 652.76H228.437C229.073 652.76 229.613 652.332 230.02 651.843C230.57 651.181 231.399 650.76 232.327 650.76C233.984 650.76 235.327 652.103 235.327 653.76C235.327 655.417 233.984 656.76 232.327 656.76C231.399 656.76 230.57 656.339 230.02 655.677C229.613 655.189 229.073 654.76 228.437 654.76H72.8272C72.546 654.76 72.2777 654.642 72.0883 654.434L0.262099 575.673ZM198.327 59.7601C198.327 59.2078 198.775 58.7601 199.327 58.7601H202.327C202.879 58.7601 203.327 59.2078 203.327 59.7601V69.7601C203.327 70.3124 202.879 70.7601 202.327 70.7601H199.327C198.775 70.7601 198.327 70.3124 198.327 69.7601V59.7601ZM210.327 59.7601C210.327 59.2078 210.775 58.7601 211.327 58.7601H214.327C214.879 58.7601 215.327 59.2078 215.327 59.7601V69.7601C215.327 70.3124 214.879 70.7601 214.327 70.7601H211.327C210.775 70.7601 210.327 70.3124 210.327 69.7601V59.7601ZM227.327 59.7601C227.327 59.2078 226.879 58.7601 226.327 58.7601H223.327C222.775 58.7601 222.327 59.2078 222.327 59.7601V69.7601C222.327 70.3124 222.775 70.7601 223.327 70.7601H226.327C226.879 70.7601 227.327 70.3124 227.327 69.7601V59.7601ZM234.327 59.7601C234.327 59.2078 234.775 58.7601 235.327 58.7601H238.327C238.879 58.7601 239.327 59.2078 239.327 59.7601V69.7601C239.327 70.3124 238.879 70.7601 238.327 70.7601H235.327C234.775 70.7601 234.327 70.3124 234.327 69.7601V59.7601ZM251.327 59.7601C251.327 59.2078 250.879 58.7601 250.327 58.7601H247.327C246.775 58.7601 246.327 59.2078 246.327 59.7601V69.7601C246.327 70.3124 246.775 70.7601 247.327 70.7601H250.327C250.879 70.7601 251.327 70.3124 251.327 69.7601V59.7601ZM258.327 59.7601C258.327 59.2078 258.775 58.7601 259.327 58.7601H262.327C262.879 58.7601 263.327 59.2078 263.327 59.7601V69.7601C263.327 70.3124 262.879 70.7601 262.327 70.7601H259.327C258.775 70.7601 258.327 70.3124 258.327 69.7601V59.7601ZM275.327 59.7601C275.327 59.2078 274.879 58.7601 274.327 58.7601H271.327C270.775 58.7601 270.327 59.2078 270.327 59.7601V69.7601C270.327 70.3124 270.775 70.7601 271.327 70.7601H274.327C274.879 70.7601 275.327 70.3124 275.327 69.7601V59.7601ZM282.327 59.7601C282.327 59.2078 282.775 58.7601 283.327 58.7601H286.327C286.879 58.7601 287.327 59.2078 287.327 59.7601V69.7601C287.327 70.3124 286.879 70.7601 286.327 70.7601H283.327C282.775 70.7601 282.327 70.3124 282.327 69.7601V59.7601ZM299.327 59.7601C299.327 59.2078 298.879 58.7601 298.327 58.7601H295.327C294.775 58.7601 294.327 59.2078 294.327 59.7601V69.7601C294.327 70.3124 294.775 70.7601 295.327 70.7601H298.327C298.879 70.7601 299.327 70.3124 299.327 69.7601V59.7601ZM27.3272 90.5101C28.2937 90.5101 29.0772 89.7266 29.0772 88.7601C29.0772 87.7936 28.2937 87.0101 27.3272 87.0101C26.3607 87.0101 25.5772 87.7936 25.5772 88.7601C25.5772 89.7266 26.3607 90.5101 27.3272 90.5101ZM150.077 197.76C150.077 198.727 149.294 199.51 148.327 199.51C147.361 199.51 146.577 198.727 146.577 197.76C146.577 196.794 147.361 196.01 148.327 196.01C149.294 196.01 150.077 196.794 150.077 197.76ZM242.327 282.51C243.294 282.51 244.077 281.727 244.077 280.76C244.077 279.794 243.294 279.01 242.327 279.01C241.361 279.01 240.577 279.794 240.577 280.76C240.577 281.727 241.361 282.51 242.327 282.51ZM289.077 497.76C289.077 498.727 288.294 499.51 287.327 499.51C286.361 499.51 285.577 498.727 285.577 497.76C285.577 496.794 286.361 496.01 287.327 496.01C288.294 496.01 289.077 496.794 289.077 497.76ZM166.327 507.51C167.294 507.51 168.077 506.727 168.077 505.76C168.077 504.794 167.294 504.01 166.327 504.01C165.361 504.01 164.577 504.794 164.577 505.76C164.577 506.727 165.361 507.51 166.327 507.51Z" fill="#2481DD"/>
</svg>
