<svg width="675" height="1003" viewBox="0 0 675 1003" fill="none" xmlns="http://www.w3.org/2000/svg">
<path fill-rule="evenodd" clip-rule="evenodd" d="M301.536 10.9617C304.563 10.9617 307.017 8.50788 307.017 5.48087C307.017 2.45387 304.563 0 301.536 0C299.153 0 297.125 1.52109 296.37 3.6454C296.111 4.37669 295.484 4.9809 294.708 4.9809H1.00198V4.9809C0.554229 4.9809 0.332201 5.52423 0.651811 5.83781V5.83781L49.0662 53.3387V53.3387C49.1597 53.4304 49.2854 53.4818 49.4164 53.4818V53.4818H212.495C213.271 53.4818 213.898 54.086 214.158 54.8173C214.913 56.9416 216.941 58.4627 219.324 58.4627C222.351 58.4627 224.805 56.0089 224.805 52.9819C224.805 49.9549 222.351 47.501 219.324 47.501C216.941 47.501 214.913 49.0221 214.158 51.1463C213.898 51.8776 213.271 52.4818 212.495 52.4818H50.2337C49.8408 52.4818 49.4636 52.3277 49.1832 52.0525L4.84569 8.55162C3.88686 7.61088 4.55293 5.9809 5.89618 5.9809H294.708C295.484 5.9809 296.111 6.5851 296.37 7.31638C297.125 9.44067 299.153 10.9617 301.536 10.9617ZM7.93611 133.949C8.03099 133.843 8.167 133.781 8.30981 133.781V133.781H624.51C624.734 133.781 624.909 133.591 624.909 133.368V133.368C624.909 130.341 627.362 127.887 630.389 127.887C633.416 127.887 635.87 130.341 635.87 133.368C635.87 136.395 633.416 138.849 630.389 138.849C628.258 138.849 626.411 137.633 625.505 135.856C625.196 135.251 624.62 134.781 623.94 134.781H9.20794C8.77949 134.781 8.37148 134.965 8.08683 135.285L1.70787 142.461C1.52441 142.668 1.20837 142.686 1.00198 142.503V142.503C0.795589 142.319 0.776999 142.003 0.960458 141.797L7.93611 133.949V133.949ZM230.285 202.792C229.417 202.792 228.595 202.59 227.865 202.23C227.171 201.888 226.304 201.893 225.749 202.431L200.489 226.902V226.902C200.395 226.992 200.27 227.043 200.141 227.043V227.043H48.3443C47.9795 227.043 47.6272 227.176 47.3534 227.417L2.62133 266.781C2.41403 266.963 2.0981 266.943 1.91567 266.736V266.736C1.73324 266.529 1.75341 266.213 1.96071 266.03L47.2593 226.167V226.167C47.3506 226.087 47.468 226.043 47.5896 226.043V226.043H199.331C199.72 226.043 200.095 225.891 200.374 225.62L225.043 201.723C225.601 201.181 225.63 200.309 225.305 199.602C224.984 198.905 224.805 198.129 224.805 197.311C224.805 194.284 227.258 191.831 230.285 191.831C233.312 191.831 235.766 194.284 235.766 197.311C235.766 200.338 233.312 202.792 230.285 202.792ZM294.785 255.425C294.879 255.328 295.008 255.274 295.142 255.274V255.274H316.631C317.407 255.274 318.034 254.67 318.294 253.939C319.049 251.814 321.077 250.293 323.46 250.293C326.487 250.293 328.941 252.747 328.941 255.774C328.941 258.801 326.487 261.255 323.46 261.255C321.077 261.255 319.049 259.734 318.294 257.61C318.034 256.878 317.407 256.274 316.631 256.274H295.985C295.581 256.274 295.194 256.437 294.912 256.726L258.048 294.489V294.489C257.953 294.586 257.824 294.64 257.69 294.64V294.64H45.2829C44.5068 294.64 43.8799 295.244 43.62 295.976C42.8652 298.1 40.8373 299.621 38.4541 299.621C35.4271 299.621 32.9732 297.167 32.9732 294.14C32.9732 291.113 35.4271 288.659 38.4541 288.659C40.8373 288.659 42.8653 290.18 43.6201 292.305C43.8799 293.036 44.5069 293.64 45.283 293.64H256.847C257.251 293.64 257.638 293.477 257.921 293.188L294.785 255.425V255.425ZM443.126 304.602V304.602C442.992 304.602 442.864 304.656 442.77 304.751V304.751L382.154 366.271C381.873 366.558 381.488 366.719 381.086 366.719H97.7762C97.3651 366.719 96.9719 366.55 96.6887 366.252L83.4036 352.268C82.8261 351.66 82.8816 350.702 83.3206 349.988C83.8329 349.154 84.1284 348.173 84.1284 347.122C84.1284 344.095 81.6745 341.641 78.6475 341.641C75.6205 341.641 73.1667 344.095 73.1667 347.122C73.1667 350.149 75.6205 352.603 78.6475 352.603C79.2787 352.603 79.885 352.496 80.4493 352.3C81.1231 352.066 81.9055 352.143 82.3969 352.66L96.5551 367.563V367.563C96.6495 367.662 96.7805 367.719 96.9176 367.719V367.719H381.923V367.719C382.057 367.719 382.185 367.665 382.279 367.57V367.57L442.895 306.049C443.177 305.763 443.562 305.602 443.963 305.602H579.714C580.49 305.602 581.117 306.206 581.376 306.938C582.131 309.062 584.159 310.583 586.542 310.583C589.569 310.583 592.023 308.129 592.023 305.102C592.023 302.075 589.569 299.621 586.542 299.621C584.159 299.621 582.131 301.142 581.376 303.267C581.116 303.998 580.489 304.602 579.713 304.602H443.126ZM177.783 672.82C178.559 672.82 179.186 673.425 179.446 674.156C180.201 676.28 182.229 677.801 184.612 677.801C187.639 677.801 190.093 675.348 190.093 672.321C190.093 669.294 187.639 666.84 184.612 666.84C182.229 666.84 180.201 668.361 179.446 670.485C179.186 671.216 178.559 671.82 177.783 671.82H1.50198C1.22584 671.82 1.00198 672.044 1.00198 672.32V672.32C1.00198 672.597 1.22584 672.82 1.50198 672.82H177.783ZM1.91567 906.171C1.91567 906.447 2.13953 906.671 2.41567 906.671H294.708C295.484 906.671 296.111 907.275 296.37 908.007C297.125 910.131 299.153 911.652 301.536 911.652C304.563 911.652 307.017 909.198 307.017 906.171C307.017 903.144 304.563 900.69 301.536 900.69C299.153 900.69 297.125 902.211 296.37 904.336C296.111 905.067 295.484 905.671 294.708 905.671H2.41567C2.13953 905.671 1.91567 905.895 1.91567 906.171V906.171ZM71.8187 997.019C72.5948 997.019 73.2217 996.415 73.4815 995.684C74.2363 993.559 76.2643 992.038 78.6475 992.038C81.6745 992.038 84.1284 994.492 84.1284 997.519C84.1284 1000.55 81.6745 1003 78.6475 1003C76.2643 1003 74.2364 1001.48 73.4815 999.355C73.2217 998.623 72.5948 998.019 71.8187 998.019H2.41567C2.13953 998.019 1.91567 997.795 1.91567 997.519V997.519C1.91567 997.243 2.13953 997.019 2.41567 997.019H71.8187ZM500.676 750.88C500.676 753.907 498.222 756.361 495.195 756.361C492.168 756.361 489.714 753.907 489.714 750.88C489.714 750.008 489.918 749.183 490.281 748.451C490.625 747.756 490.621 746.886 490.081 746.329L465.28 720.777C464.997 720.486 464.609 720.321 464.204 720.321H245.747C244.447 720.321 243.763 721.862 244.634 722.827L359.775 850.367C360.059 850.682 360.464 850.862 360.888 850.862H661.927C662.703 850.862 663.33 850.258 663.59 849.527C664.344 847.403 666.372 845.882 668.756 845.882C671.783 845.882 674.236 848.335 674.236 851.362C674.236 854.389 671.783 856.843 668.756 856.843C666.372 856.843 664.344 855.322 663.59 853.198C663.33 852.467 662.703 851.862 661.927 851.862H359.999V851.862C359.858 851.862 359.723 851.802 359.628 851.697V851.697L241.472 720.816C241.187 720.501 240.783 720.321 240.358 720.321H218.351C217.942 720.321 217.55 720.488 217.267 720.784L176.751 763.101V763.101C176.657 763.199 176.527 763.255 176.39 763.255V763.255H2.41567C2.13953 763.255 1.91567 763.031 1.91567 762.755V762.755C1.91567 762.479 2.13952 762.255 2.41567 762.255H175.536C175.945 762.255 176.337 762.088 176.62 761.792L217.136 719.476V719.476C217.23 719.377 217.36 719.321 217.497 719.321V719.321H241.247H465.05V719.321C465.185 719.321 465.314 719.376 465.408 719.473V719.473L490.798 745.632C491.338 746.189 492.208 746.218 492.913 745.895C493.608 745.577 494.381 745.399 495.195 745.399C498.222 745.399 500.676 747.853 500.676 750.88ZM132.543 862.324C138.84 862.324 144.22 860.166 148.682 855.85C153.145 851.534 155.377 846.258 155.38 840.024C155.38 834.68 153.754 829.919 150.501 825.739C147.432 821.796 143.469 819.194 138.613 817.935C138.074 817.795 137.644 817.387 137.481 816.855C135.679 810.95 132.302 806.135 127.353 802.411C122.163 798.506 116.28 796.554 109.706 796.554C101.609 796.554 94.7402 799.346 89.0987 804.931C83.7741 810.203 80.9635 816.556 80.667 823.99C80.6366 824.752 80.0674 825.388 79.3169 825.522C75.1286 826.273 71.6073 828.247 68.7531 831.445C65.6029 834.975 64.0293 839.102 64.032 843.826C64.032 848.965 65.8479 853.333 69.4797 856.931C73.1115 860.529 77.5239 862.327 82.7168 862.324H132.543ZM305.363 170.907C305.363 170.355 304.915 169.907 304.363 169.907V169.907C303.811 169.907 303.363 170.355 303.363 170.907V197.907C303.363 198.46 303.811 198.907 304.363 198.907V198.907C304.915 198.907 305.363 198.46 305.363 197.907V170.907ZM310.082 170.907C310.082 170.355 309.634 169.907 309.082 169.907V169.907C308.53 169.907 308.082 170.355 308.082 170.907V197.907C308.082 198.46 308.53 198.907 309.082 198.907V198.907C309.634 198.907 310.082 198.46 310.082 197.907V170.907ZM312.801 170.907C312.801 170.355 313.248 169.907 313.801 169.907V169.907C314.353 169.907 314.801 170.355 314.801 170.907V197.907C314.801 198.46 314.353 198.907 313.801 198.907V198.907C313.248 198.907 312.801 198.46 312.801 197.907V170.907ZM319.519 170.907C319.519 170.355 319.072 169.907 318.519 169.907V169.907C317.967 169.907 317.519 170.355 317.519 170.907V197.907C317.519 198.46 317.967 198.907 318.519 198.907V198.907C319.072 198.907 319.519 198.46 319.519 197.907V170.907ZM322.238 170.907C322.238 170.355 322.686 169.907 323.238 169.907V169.907C323.79 169.907 324.238 170.355 324.238 170.907V197.907C324.238 198.46 323.79 198.907 323.238 198.907V198.907C322.686 198.907 322.238 198.46 322.238 197.907V170.907ZM328.957 170.907C328.957 170.355 328.509 169.907 327.957 169.907V169.907C327.405 169.907 326.957 170.355 326.957 170.907V197.907C326.957 198.46 327.405 198.907 327.957 198.907V198.907C328.509 198.907 328.957 198.46 328.957 197.907V170.907ZM331.676 170.907C331.676 170.355 332.123 169.907 332.676 169.907V169.907C333.228 169.907 333.676 170.355 333.676 170.907V197.907C333.676 198.46 333.228 198.907 332.676 198.907V198.907C332.123 198.907 331.676 198.46 331.676 197.907V170.907ZM338.394 170.907C338.394 170.355 337.947 169.907 337.394 169.907V169.907C336.842 169.907 336.394 170.355 336.394 170.907V197.907C336.394 198.46 336.842 198.907 337.394 198.907V198.907C337.947 198.907 338.394 198.46 338.394 197.907V170.907ZM341.113 170.907C341.113 170.355 341.561 169.907 342.113 169.907V169.907C342.665 169.907 343.113 170.355 343.113 170.907V197.907C343.113 198.46 342.665 198.907 342.113 198.907V198.907C341.561 198.907 341.113 198.46 341.113 197.907V170.907ZM347.832 170.907C347.832 170.355 347.384 169.907 346.832 169.907V169.907C346.28 169.907 345.832 170.355 345.832 170.907V197.907C345.832 198.46 346.28 198.907 346.832 198.907V198.907C347.384 198.907 347.832 198.46 347.832 197.907V170.907ZM350.551 170.907C350.551 170.355 350.998 169.907 351.551 169.907V169.907C352.103 169.907 352.551 170.355 352.551 170.907V197.907C352.551 198.46 352.103 198.907 351.551 198.907V198.907C350.998 198.907 350.551 198.46 350.551 197.907V170.907ZM357.269 170.907C357.269 170.355 356.822 169.907 356.269 169.907V169.907C355.717 169.907 355.269 170.355 355.269 170.907V197.907C355.269 198.46 355.717 198.907 356.269 198.907V198.907C356.822 198.907 357.269 198.46 357.269 197.907V170.907ZM359.988 170.907C359.988 170.355 360.436 169.907 360.988 169.907V169.907C361.54 169.907 361.988 170.355 361.988 170.907V197.907C361.988 198.46 361.54 198.907 360.988 198.907V198.907C360.436 198.907 359.988 198.46 359.988 197.907V170.907ZM366.707 170.907C366.707 170.355 366.259 169.907 365.707 169.907V169.907C365.155 169.907 364.707 170.355 364.707 170.907V197.907C364.707 198.46 365.155 198.907 365.707 198.907V198.907C366.259 198.907 366.707 198.46 366.707 197.907V170.907ZM369.426 170.907C369.426 170.355 369.873 169.907 370.426 169.907V169.907C370.978 169.907 371.426 170.355 371.426 170.907V197.907C371.426 198.46 370.978 198.907 370.426 198.907V198.907C369.873 198.907 369.426 198.46 369.426 197.907V170.907ZM376.144 170.907C376.144 170.355 375.697 169.907 375.144 169.907V169.907C374.592 169.907 374.144 170.355 374.144 170.907V197.907C374.144 198.46 374.592 198.907 375.144 198.907V198.907C375.697 198.907 376.144 198.46 376.144 197.907V170.907ZM378.863 170.907C378.863 170.355 379.311 169.907 379.863 169.907V169.907C380.415 169.907 380.863 170.355 380.863 170.907V197.907C380.863 198.46 380.415 198.907 379.863 198.907V198.907C379.311 198.907 378.863 198.46 378.863 197.907V170.907ZM385.582 170.907C385.582 170.355 385.134 169.907 384.582 169.907V169.907C384.03 169.907 383.582 170.355 383.582 170.907V197.907C383.582 198.46 384.03 198.907 384.582 198.907V198.907C385.134 198.907 385.582 198.46 385.582 197.907V170.907ZM388.301 170.907C388.301 170.355 388.748 169.907 389.301 169.907V169.907C389.853 169.907 390.301 170.355 390.301 170.907V197.907C390.301 198.46 389.853 198.907 389.301 198.907V198.907C388.748 198.907 388.301 198.46 388.301 197.907V170.907ZM395.019 170.907C395.019 170.355 394.572 169.907 394.019 169.907V169.907C393.467 169.907 393.019 170.355 393.019 170.907V197.907C393.019 198.46 393.467 198.907 394.019 198.907V198.907C394.572 198.907 395.019 198.46 395.019 197.907V170.907ZM397.738 170.907C397.738 170.355 398.186 169.907 398.738 169.907V169.907C399.29 169.907 399.738 170.355 399.738 170.907V197.907C399.738 198.46 399.29 198.907 398.738 198.907V198.907C398.186 198.907 397.738 198.46 397.738 197.907V170.907ZM404.457 170.907C404.457 170.355 404.009 169.907 403.457 169.907V169.907C402.905 169.907 402.457 170.355 402.457 170.907V197.907C402.457 198.46 402.905 198.907 403.457 198.907V198.907C404.009 198.907 404.457 198.46 404.457 197.907V170.907ZM407.176 170.907C407.176 170.355 407.623 169.907 408.176 169.907V169.907C408.728 169.907 409.176 170.355 409.176 170.907V197.907C409.176 198.46 408.728 198.907 408.176 198.907V198.907C407.623 198.907 407.176 198.46 407.176 197.907V170.907ZM413.894 170.907C413.894 170.355 413.447 169.907 412.894 169.907V169.907C412.342 169.907 411.894 170.355 411.894 170.907V197.907C411.894 198.46 412.342 198.907 412.894 198.907V198.907C413.447 198.907 413.894 198.46 413.894 197.907V170.907ZM416.613 170.907C416.613 170.355 417.061 169.907 417.613 169.907V169.907C418.165 169.907 418.613 170.355 418.613 170.907V197.907C418.613 198.46 418.165 198.907 417.613 198.907V198.907C417.061 198.907 416.613 198.46 416.613 197.907V170.907ZM423.332 170.907C423.332 170.355 422.884 169.907 422.332 169.907V169.907C421.78 169.907 421.332 170.355 421.332 170.907V197.907C421.332 198.46 421.78 198.907 422.332 198.907V198.907C422.884 198.907 423.332 198.46 423.332 197.907V170.907ZM426.051 170.907C426.051 170.355 426.498 169.907 427.051 169.907V169.907C427.603 169.907 428.051 170.355 428.051 170.907V197.907C428.051 198.46 427.603 198.907 427.051 198.907V198.907C426.498 198.907 426.051 198.46 426.051 197.907V170.907ZM432.769 170.907C432.769 170.355 432.322 169.907 431.769 169.907V169.907C431.217 169.907 430.769 170.355 430.769 170.907V197.907C430.769 198.46 431.217 198.907 431.769 198.907V198.907C432.322 198.907 432.769 198.46 432.769 197.907V170.907ZM435.488 170.907C435.488 170.355 435.936 169.907 436.488 169.907V169.907C437.04 169.907 437.488 170.355 437.488 170.907V197.907C437.488 198.46 437.04 198.907 436.488 198.907V198.907C435.936 198.907 435.488 198.46 435.488 197.907V170.907ZM442.207 170.907C442.207 170.355 441.759 169.907 441.207 169.907V169.907C440.655 169.907 440.207 170.355 440.207 170.907V197.907C440.207 198.46 440.655 198.907 441.207 198.907V198.907C441.759 198.907 442.207 198.46 442.207 197.907V170.907ZM444.926 170.907C444.926 170.355 445.373 169.907 445.926 169.907V169.907C446.478 169.907 446.926 170.355 446.926 170.907V197.907C446.926 198.46 446.478 198.907 445.926 198.907V198.907C445.373 198.907 444.926 198.46 444.926 197.907V170.907ZM451.644 170.907C451.644 170.355 451.197 169.907 450.644 169.907V169.907C450.092 169.907 449.644 170.355 449.644 170.907V197.907C449.644 198.46 450.092 198.907 450.644 198.907V198.907C451.197 198.907 451.644 198.46 451.644 197.907V170.907ZM454.363 170.907C454.363 170.355 454.811 169.907 455.363 169.907V169.907C455.915 169.907 456.363 170.355 456.363 170.907V197.907C456.363 198.46 455.915 198.907 455.363 198.907V198.907C454.811 198.907 454.363 198.46 454.363 197.907V170.907ZM412.98 872.959C412.98 872.131 413.652 871.459 414.48 871.459H416.48C417.309 871.459 417.98 872.131 417.98 872.959V882.959C417.98 883.788 417.309 884.459 416.48 884.459H414.48C413.652 884.459 412.98 883.788 412.98 882.959V872.959ZM426.98 872.959C426.98 872.131 427.652 871.459 428.48 871.459H430.48C431.309 871.459 431.98 872.131 431.98 872.959V882.959C431.98 883.788 431.309 884.459 430.48 884.459H428.48C427.652 884.459 426.98 883.788 426.98 882.959V872.959ZM445.98 872.959C445.98 872.131 445.309 871.459 444.48 871.459H442.48C441.652 871.459 440.98 872.131 440.98 872.959V882.959C440.98 883.788 441.652 884.459 442.48 884.459H444.48C445.309 884.459 445.98 883.788 445.98 882.959V872.959ZM454.98 872.959C454.98 872.131 455.652 871.459 456.48 871.459H458.48C459.309 871.459 459.98 872.131 459.98 872.959V882.959C459.98 883.788 459.309 884.459 458.48 884.459H456.48C455.652 884.459 454.98 883.788 454.98 882.959V872.959ZM473.98 872.959C473.98 872.131 473.309 871.459 472.48 871.459H470.48C469.652 871.459 468.98 872.131 468.98 872.959V882.959C468.98 883.788 469.652 884.459 470.48 884.459H472.48C473.309 884.459 473.98 883.788 473.98 882.959V872.959ZM482.98 872.959C482.98 872.131 483.652 871.459 484.48 871.459H486.48C487.309 871.459 487.98 872.131 487.98 872.959V882.959C487.98 883.788 487.309 884.459 486.48 884.459H484.48C483.652 884.459 482.98 883.788 482.98 882.959V872.959ZM501.98 872.959C501.98 872.131 501.309 871.459 500.48 871.459H498.48C497.652 871.459 496.98 872.131 496.98 872.959V882.959C496.98 883.788 497.652 884.459 498.48 884.459H500.48C501.309 884.459 501.98 883.788 501.98 882.959V872.959ZM510.98 872.959C510.98 872.131 511.652 871.459 512.48 871.459H514.48C515.309 871.459 515.98 872.131 515.98 872.959V882.959C515.98 883.788 515.309 884.459 514.48 884.459H512.48C511.652 884.459 510.98 883.788 510.98 882.959V872.959ZM529.98 872.959C529.98 872.131 529.309 871.459 528.48 871.459H526.48C525.652 871.459 524.98 872.131 524.98 872.959V882.959C524.98 883.788 525.652 884.459 526.48 884.459H528.48C529.309 884.459 529.98 883.788 529.98 882.959V872.959ZM13.7909 966.461C20.3494 966.461 25.6661 961.144 25.6661 954.585C25.6661 948.027 20.3494 942.71 13.7909 942.71C7.23239 942.71 1.91567 948.027 1.91567 954.585C1.91567 961.144 7.23239 966.461 13.7909 966.461ZM60.3784 954.585C60.3784 961.144 55.0617 966.461 48.5032 966.461C41.9447 966.461 36.628 961.144 36.628 954.585C36.628 948.027 41.9447 942.71 48.5032 942.71C55.0617 942.71 60.3784 948.027 60.3784 954.585ZM96.7445 954.585C96.7445 960.039 92.3232 964.461 86.8693 964.461C81.4153 964.461 76.994 960.039 76.994 954.585C76.994 949.131 81.4153 944.71 86.8693 944.71C92.3232 944.71 96.7445 949.131 96.7445 954.585ZM98.7445 954.585C98.7445 961.144 93.4278 966.461 86.8693 966.461C80.3107 966.461 74.994 961.144 74.994 954.585C74.994 948.027 80.3107 942.71 86.8693 942.71C93.4278 942.71 98.7445 948.027 98.7445 954.585ZM125.234 964.461C130.688 964.461 135.11 960.039 135.11 954.585C135.11 949.131 130.688 944.71 125.234 944.71C119.78 944.71 115.359 949.131 115.359 954.585C115.359 960.039 119.78 964.461 125.234 964.461ZM125.234 966.461C131.793 966.461 137.11 961.144 137.11 954.585C137.11 948.027 131.793 942.71 125.234 942.71C118.676 942.71 113.359 948.027 113.359 954.585C113.359 961.144 118.676 966.461 125.234 966.461ZM173.477 954.585C173.477 960.039 169.055 964.461 163.601 964.461C158.147 964.461 153.726 960.039 153.726 954.585C153.726 949.131 158.147 944.71 163.601 944.71C169.055 944.71 173.477 949.131 173.477 954.585ZM175.477 954.585C175.477 961.144 170.16 966.461 163.601 966.461C157.043 966.461 151.726 961.144 151.726 954.585C151.726 948.027 157.043 942.71 163.601 942.71C170.16 942.71 175.477 948.027 175.477 954.585Z" fill="#2481DD"/>
</svg>
