<svg width="620" height="1004" viewBox="0 0 620 1004" fill="none" xmlns="http://www.w3.org/2000/svg">
<path fill-rule="evenodd" clip-rule="evenodd" d="M0.465563 1.10328C0.279755 0.898997 0.294732 0.582771 0.499012 0.396964C0.703291 0.211156 1.01952 0.226131 1.20533 0.43041L131.036 143.168C131.225 143.376 131.492 143.494 131.773 143.495L509.407 144.246C510.173 144.247 510.793 143.655 511.095 142.951C511.796 141.318 513.418 140.174 515.308 140.174C517.839 140.174 519.891 142.226 519.891 144.757C519.891 147.288 517.839 149.34 515.308 149.34C513.412 149.34 511.785 148.189 511.088 146.547C510.788 145.842 510.171 145.247 509.405 145.246L131.11 144.494C130.969 144.493 130.835 144.434 130.741 144.33L0.465563 1.10328ZM0.999011 136.092C0.722869 136.092 0.499012 135.868 0.499012 135.592C0.499012 135.316 0.722869 135.092 0.999012 135.092H35.8427C36.6086 135.092 37.2273 134.498 37.5279 133.794C38.2269 132.156 39.8518 131.009 41.7448 131.009C44.2759 131.009 46.3277 133.06 46.3277 135.591C46.3277 138.123 44.2759 140.174 41.7448 140.174C39.8519 140.174 38.2271 139.027 37.5281 137.389C37.2274 136.685 36.6087 136.092 35.843 136.092H0.999011ZM38.6896 135.592C38.6896 135.909 38.4581 136.232 38.5478 136.536C38.9552 137.917 40.2323 138.924 41.7448 138.924C43.5855 138.924 45.0777 137.432 45.0777 135.591C45.0777 133.751 43.5855 132.259 41.7448 132.259C40.2322 132.259 38.955 133.266 38.5477 134.647C38.458 134.951 38.6896 135.275 38.6896 135.592V135.592V135.592ZM391.937 207.66C391.636 206.956 391.017 206.362 390.251 206.362H0.999012C0.722869 206.362 0.499012 206.139 0.499012 205.862C0.499012 205.586 0.722873 205.362 0.999015 205.362H390.251C391.017 205.362 391.636 204.769 391.937 204.065C392.635 202.427 394.26 201.279 396.153 201.279C398.684 201.279 400.736 203.331 400.736 205.862C400.736 208.393 398.684 210.445 396.153 210.445C394.261 210.445 392.636 209.297 391.937 207.66ZM0.999005 302.603C0.722863 302.603 0.499012 302.379 0.499012 302.103C0.499012 301.826 0.722869 301.603 0.999012 301.603H220.685C221.451 301.603 222.07 301.009 222.371 300.305C223.07 298.667 224.694 297.52 226.587 297.52C229.118 297.52 231.17 299.572 231.17 302.103C231.17 304.634 229.118 306.685 226.587 306.685C224.694 306.685 223.07 305.538 222.371 303.9C222.07 303.196 221.451 302.603 220.685 302.603H0.999005ZM223.532 302.103C223.532 302.42 223.301 302.743 223.39 303.047C223.798 304.428 225.075 305.435 226.587 305.435C228.428 305.435 229.92 303.943 229.92 302.103C229.92 300.262 228.428 298.77 226.587 298.77C225.075 298.77 223.798 299.777 223.39 301.158C223.301 301.462 223.532 301.786 223.532 302.103V302.103V302.103ZM364.838 352.014C364.698 352.014 364.564 352.073 364.469 352.176L322.142 398.283C321.952 398.489 321.685 398.607 321.405 398.607H0.999019C0.722876 398.607 0.499012 398.831 0.499012 399.107C0.499012 399.383 0.722869 399.607 0.999012 399.607H322.064C322.204 399.607 322.338 399.548 322.433 399.445L364.76 353.338C364.95 353.132 365.217 353.014 365.497 353.014H608.702C609.467 353.014 610.086 353.608 610.387 354.312C611.086 355.949 612.711 357.097 614.603 357.097C617.134 357.097 619.186 355.045 619.186 352.514C619.186 349.983 617.134 347.931 614.603 347.931C612.71 347.931 611.086 349.079 610.387 350.717C610.086 351.421 609.467 352.014 608.701 352.014H364.838ZM198.729 428.549C198.824 428.451 198.954 428.395 199.09 428.395H364.282C365.048 428.395 365.666 427.802 365.967 427.098C366.666 425.46 368.291 424.313 370.184 424.313C372.715 424.313 374.767 426.364 374.767 428.895C374.767 431.426 372.715 433.478 370.184 433.478C368.291 433.478 366.666 432.331 365.967 430.693C365.666 429.989 365.047 429.395 364.282 429.395H199.729C199.457 429.395 199.197 429.506 199.008 429.703L107.029 525.482C106.935 525.58 106.805 525.636 106.669 525.636H0.999015C0.722873 525.636 0.499012 525.412 0.499012 525.136C0.499012 524.86 0.722869 524.636 0.999012 524.636H106.029C106.302 524.636 106.562 524.525 106.751 524.328L198.729 428.549ZM367.129 428.895C367.129 429.213 366.897 429.536 366.987 429.841C367.394 431.221 368.671 432.228 370.184 432.228C372.024 432.228 373.517 430.736 373.517 428.895C373.517 427.055 372.024 425.563 370.184 425.563C368.671 425.563 367.394 426.57 366.987 427.95C366.897 428.254 367.129 428.578 367.129 428.895V428.895V428.895ZM159.372 542.967C159.234 542.967 159.102 543.024 159.008 543.124L96.8195 609.105C96.6306 609.305 96.3673 609.419 96.0918 609.419H0.999011C0.722869 609.419 0.499012 609.643 0.499012 609.919C0.499012 610.195 0.722869 610.419 0.999012 610.419H96.7393H465.47C466.139 610.419 466.706 610.878 467.043 611.456C467.837 612.821 469.315 613.738 471.007 613.738C473.538 613.738 475.59 611.686 475.59 609.155C475.59 606.624 473.538 604.572 471.007 604.572C468.476 604.572 466.424 606.624 466.424 609.155V609.155C466.424 609.298 466.31 609.419 466.167 609.419H100.214C99.3376 609.419 98.8853 608.371 99.4866 607.733L159.292 544.281C159.481 544.081 159.744 543.967 160.019 543.967H364.282C365.048 543.967 365.666 544.561 365.967 545.265C366.666 546.903 368.291 548.05 370.184 548.05C372.715 548.05 374.767 545.998 374.767 543.467C374.767 540.936 372.715 538.884 370.184 538.884C368.291 538.884 366.666 540.032 365.967 541.669C365.666 542.374 365.047 542.967 364.282 542.967H159.372ZM0.999012 650.901C0.72287 650.901 0.499012 650.677 0.499012 650.401C0.499012 650.125 0.722869 649.901 0.999012 649.901H66.9506C67.0801 649.901 67.2046 649.951 67.2978 650.041L131.786 712.253C131.972 712.433 132.221 712.533 132.48 712.533H238.045H478.854C479.62 712.533 480.238 711.94 480.539 711.236C481.238 709.598 482.863 708.45 484.756 708.45C487.287 708.45 489.339 710.502 489.339 713.033C489.339 715.564 487.287 717.616 484.756 717.616C482.863 717.616 481.238 716.469 480.539 714.831C480.238 714.127 479.62 713.533 478.854 713.533H241.421C240.554 713.533 240.098 714.561 240.679 715.204L280.742 759.56C280.932 759.77 281.202 759.89 281.484 759.89H433.025C433.791 759.89 434.41 759.296 434.71 758.592C435.409 756.954 437.034 755.807 438.927 755.807C441.458 755.807 443.51 757.859 443.51 760.39C443.51 762.921 441.458 764.973 438.927 764.973C437.034 764.973 435.409 763.825 434.71 762.188C434.41 761.483 433.791 760.89 433.025 760.89H280.818C280.677 760.89 280.542 760.83 280.447 760.725L238.12 713.863C237.931 713.653 237.661 713.533 237.378 713.533H131.875C131.745 713.533 131.621 713.483 131.528 713.393L67.0393 651.181C66.8529 651.001 66.604 650.901 66.345 650.901H0.999012ZM435.872 760.39C435.872 760.707 435.64 761.03 435.73 761.334C436.137 762.715 437.415 763.723 438.927 763.723C440.768 763.723 442.26 762.23 442.26 760.39C442.26 758.549 440.768 757.057 438.927 757.057C437.414 757.057 436.137 758.064 435.73 759.445C435.64 759.749 435.872 760.073 435.872 760.39V760.39V760.39ZM97.5031 772.111C97.3664 772.111 97.2357 772.167 97.1413 772.266L37.1283 835.179C36.7327 835.593 36.0701 835.591 35.677 835.174L1.20582 798.601C1.01641 798.4 0.699959 798.391 0.499005 798.58C0.298056 798.77 0.288697 799.086 0.4781 799.287L36.0343 837.011L36.039 837.016L62.7724 864.616C62.8666 864.713 62.9962 864.768 63.1316 864.768H324.564C325.33 864.768 325.948 865.362 326.249 866.066C326.948 867.703 328.573 868.851 330.466 868.851C332.997 868.851 335.049 866.799 335.049 864.268C335.049 861.737 332.997 859.685 330.466 859.685C328.573 859.685 326.948 860.833 326.249 862.47C325.948 863.175 325.33 863.768 324.564 863.768H63.767C63.4962 863.768 63.237 863.658 63.0487 863.464L37.7605 837.356C37.3869 836.971 37.3846 836.359 37.7552 835.97L97.4217 773.421C97.6104 773.223 97.8719 773.111 98.1453 773.111H248.183C248.948 773.111 249.567 773.704 249.868 774.409C250.567 776.046 252.192 777.193 254.085 777.193C256.616 777.193 258.667 775.142 258.667 772.611C258.667 770.08 256.616 768.028 254.085 768.028C252.192 768.028 250.567 769.175 249.868 770.813C249.567 771.517 248.948 772.111 248.183 772.111H97.5031ZM250.888 773.555C250.798 773.251 251.029 772.928 251.029 772.611V772.611V772.611C251.029 772.294 250.798 771.97 250.887 771.666C251.295 770.285 252.572 769.278 254.085 769.278C255.925 769.278 257.417 770.77 257.417 772.611C257.417 774.451 255.925 775.943 254.085 775.943C252.572 775.943 251.295 774.936 250.888 773.555ZM0.466482 877.959C0.28041 877.755 0.294974 877.439 0.499012 877.253C0.70305 877.067 1.0193 877.081 1.20537 877.286L111.175 997.873C111.364 998.081 111.633 998.199 111.914 998.199H349.006C349.771 998.199 350.39 997.606 350.691 996.901C351.39 995.264 353.015 994.116 354.908 994.116C357.439 994.116 359.49 996.168 359.49 998.699C359.49 1001.23 357.439 1003.28 354.908 1003.28C353.015 1003.28 351.39 1002.13 350.691 1000.5C350.39 999.793 349.771 999.199 349.006 999.199H111.252C111.111 999.199 110.977 999.14 110.882 999.036L0.466482 877.959ZM302.969 90.7628C302.969 90.2106 303.416 89.7628 303.969 89.7628H309.607C310.159 89.7628 310.607 90.2106 310.607 90.7628V107.094C310.607 107.647 310.159 108.094 309.607 108.094H303.969C303.416 108.094 302.969 107.647 302.969 107.094V90.7628ZM321.3 90.7629C321.3 90.2106 321.748 89.7629 322.3 89.7629H327.938C328.49 89.7629 328.938 90.2106 328.938 90.7629V107.094C328.938 107.647 328.49 108.094 327.938 108.094H322.3C321.748 108.094 321.3 107.647 321.3 107.094V90.7629ZM347.27 90.7629C347.27 90.2106 346.822 89.7629 346.27 89.7629H340.632C340.079 89.7629 339.632 90.2106 339.632 90.7629V107.094C339.632 107.647 340.079 108.094 340.632 108.094H346.27C346.822 108.094 347.27 107.647 347.27 107.094V90.7629ZM357.963 90.7629C357.963 90.2106 358.411 89.7629 358.963 89.7629H364.601C365.153 89.7629 365.601 90.2106 365.601 90.7629V107.094C365.601 107.647 365.153 108.094 364.601 108.094H358.963C358.411 108.094 357.963 107.647 357.963 107.094V90.7629ZM383.933 90.7629C383.933 90.2106 383.485 89.7629 382.933 89.7629H377.294C376.742 89.7629 376.294 90.2106 376.294 90.7629V107.094C376.294 107.647 376.742 108.094 377.294 108.094H382.933C383.485 108.094 383.933 107.647 383.933 107.094V90.7629ZM394.626 90.7629C394.626 90.2106 395.074 89.7629 395.626 89.7629H401.264C401.816 89.7629 402.264 90.2106 402.264 90.7629V107.094C402.264 107.647 401.816 108.094 401.264 108.094H395.626C395.074 108.094 394.626 107.647 394.626 107.094V90.7629ZM420.595 90.7629C420.595 90.2106 420.148 89.7629 419.595 89.7629H413.957C413.405 89.7629 412.957 90.2106 412.957 90.7629V107.094C412.957 107.647 413.405 108.094 413.957 108.094H419.595C420.148 108.094 420.595 107.647 420.595 107.094V90.7629ZM431.289 90.7629C431.289 90.2106 431.737 89.7629 432.289 89.7629H437.927C438.48 89.7629 438.927 90.2106 438.927 90.7629V107.094C438.927 107.647 438.48 108.094 437.927 108.094H432.289C431.737 108.094 431.289 107.647 431.289 107.094V90.7629ZM457.259 90.7629C457.259 90.2106 456.811 89.7629 456.259 89.7629H450.621C450.068 89.7629 449.621 90.2106 449.621 90.7629V107.094C449.621 107.647 450.068 108.094 450.621 108.094H456.259C456.811 108.094 457.259 107.647 457.259 107.094V90.7629Z" fill="#2481DD"/>
</svg>
