<svg xmlns="http://www.w3.org/2000/svg" xmlns:xlink="http://www.w3.org/1999/xlink" role="img" viewBox="0 0 675 1005" xml:space="preserve"><!-- Generator: WPGraphicator version: 1.5.1 --><style type="text/css">.wpgraphicator-path-a7dhkee0x4g10lj7qxle2 path {animation-name: wpgraphicator-path-a7dhkee0x4g10lj7qxle2;animation-delay: 0s;animation-duration: 4s;animation-iteration-count: infinite;animation-fill-mode: both;}@keyframes wpgraphicator-path-a7dhkee0x4g10lj7qxle2{0% {}100% {}}#wpgraphicator-gradient-hg200pu10v7f35r8yxct11 stop:nth-child(1){animation-name: wpgraphicator-gradient-hg200pu10v7f35r8yxct11-stop_0;animation-delay: 0s;animation-duration: 4s;animation-iteration-count: infinite;animation-fill-mode: both;}@keyframes wpgraphicator-gradient-hg200pu10v7f35r8yxct11-stop_0{0%{animation-timing-function: linear;stop-color: rgb(36,129,221);stop-opacity: 0}25%{animation-timing-function: linear;stop-color: rgb(36,129,221);stop-opacity: 1}50%{animation-timing-function: linear;stop-color: rgb(36,129,221);stop-opacity: 1}75%{animation-timing-function: linear;stop-color: rgb(36,129,221);stop-opacity: 0}100%{animation-timing-function: linear;stop-color: rgb(36,129,221);stop-opacity: 0}}#wpgraphicator-gradient-hg200pu10v7f35r8yxct11 stop:nth-child(2){animation-name: wpgraphicator-gradient-hg200pu10v7f35r8yxct11-stop_1;animation-delay: 0s;animation-duration: 4s;animation-iteration-count: infinite;animation-fill-mode: both;}@keyframes wpgraphicator-gradient-hg200pu10v7f35r8yxct11-stop_1{0%{animation-timing-function: linear;stop-color: rgb(36,129,221);stop-opacity: 0}25%{animation-timing-function: linear;stop-color: rgb(36,129,221);stop-opacity: 0}50%{animation-timing-function: linear;stop-color: rgb(36,129,221);stop-opacity: 1}75%{animation-timing-function: linear;stop-color: rgb(36,129,221);stop-opacity: 1}100%{animation-timing-function: linear;stop-color: rgb(36,129,221);stop-opacity: 0}}</style><g class="wpgraphicator-path-a7dhkee0x4g10lj7qxle2-top" style="transform:translateY(499.39px)"><g class="wpgraphicator-path-a7dhkee0x4g10lj7qxle2-left" style="transform:translateX(339.3px)"><g class="wpgraphicator-path-a7dhkee0x4g10lj7qxle2-angle" style="transform:rotate(0deg)"><g class="wpgraphicator-path-a7dhkee0x4g10lj7qxle2-scaleY" style="transform:scaleY(1)"><g class="wpgraphicator-path-a7dhkee0x4g10lj7qxle2-scaleX" style="transform:scaleX(1)"><g class="wpgraphicator-path-a7dhkee0x4g10lj7qxle2-skewY" style="transform:skewY(0deg)"><g class="wpgraphicator-path-a7dhkee0x4g10lj7qxle2-skewX" style="transform:skewX(0deg)"><g class="wpgraphicator-path-a7dhkee0x4g10lj7qxle2"><linearGradient id="wpgraphicator-gradient-hg200pu10v7f35r8yxct11" gradientUnits="objectBoundingBox" x1="0" y1="0.5000000000000001" x2="1" y2="0.4999999999999999"><stop offset="0%" stop-color="rgb(36,129,221)" stop-opacity="0"></stop><stop offset="100%" stop-color="rgb(36,129,221)" stop-opacity="0"></stop></linearGradient><path d="M 301.54 10.96 C 304.56 10.96 307.02 8.51 307.02 5.48 C 307.02 2.45 304.56 0 301.54 0 C 299.25 0 297.3 1.39 296.47 3.38 C 296.19 4.06 295.58 4.61 294.85 4.61 L 1 4.61 C 0.22 4.61 -0.17 5.56 0.39 6.11 L 48.8 53.61 C 48.97 53.77 49.19 53.86 49.42 53.86 L 212.63 53.86 C 213.37 53.86 213.98 54.4 214.26 55.08 C 215.09 57.07 217.04 58.46 219.32 58.46 C 222.35 58.46 224.81 56.01 224.81 52.98 C 224.81 49.95 222.35 47.5 219.32 47.5 C 217.04 47.5 215.09 48.9 214.26 50.88 C 213.98 51.56 213.37 52.11 212.63 52.11 L 50.39 52.11 C 49.99 52.11 49.62 51.95 49.34 51.68 L 5.76 8.93 C 4.8 7.99 5.47 6.36 6.81 6.36 L 294.85 6.36 C 295.58 6.36 296.19 6.9 296.47 7.58 C 297.3 9.57 299.25 10.96 301.54 10.96 Z M 7.66 133.7 C 7.82 133.51 8.06 133.41 8.31 133.41 L 624.87 133.41 C 624.89 133.41 624.91 133.39 624.91 133.37 C 624.91 130.34 627.36 127.89 630.39 127.89 C 633.42 127.89 635.87 130.34 635.87 133.37 C 635.87 136.4 633.42 138.85 630.39 138.85 C 628.37 138.85 626.6 137.76 625.65 136.13 C 625.33 135.57 624.78 135.16 624.14 135.16 L 9.38 135.16 C 8.95 135.16 8.54 135.34 8.26 135.66 L 2.24 142.43 C 1.92 142.79 1.36 142.82 1 142.5 C 0.64 142.18 0.61 141.63 0.93 141.27 L 7.66 133.7 Z M 230.29 202.79 C 229.52 202.79 228.79 202.64 228.13 202.35 C 227.45 202.06 226.64 202.09 226.11 202.6 L 200.75 227.17 C 200.59 227.33 200.37 227.42 200.14 227.42 L 48.49 227.42 C 48.12 227.42 47.77 227.55 47.49 227.79 L 3.15 266.82 C 2.79 267.13 2.23 267.1 1.92 266.74 C 1.6 266.37 1.63 265.82 1.99 265.5 L 47.01 225.89 C 47.17 225.75 47.38 225.67 47.59 225.67 L 199.18 225.67 C 199.57 225.67 199.94 225.52 200.22 225.25 L 224.88 201.36 C 225.41 200.84 225.47 200.03 225.19 199.34 C 224.94 198.71 224.81 198.03 224.81 197.31 C 224.81 194.28 227.26 191.83 230.29 191.83 C 233.31 191.83 235.77 194.28 235.77 197.31 C 235.77 200.34 233.31 202.79 230.29 202.79 Z M 294.52 255.16 C 294.68 254.99 294.91 254.9 295.14 254.9 L 316.77 254.9 C 317.51 254.9 318.11 254.35 318.4 253.67 C 319.22 251.69 321.18 250.29 323.46 250.29 C 326.49 250.29 328.94 252.75 328.94 255.77 C 328.94 258.8 326.49 261.26 323.46 261.26 C 321.18 261.26 319.22 259.86 318.4 257.88 C 318.11 257.2 317.51 256.65 316.77 256.65 L 296.14 256.65 C 295.74 256.65 295.35 256.81 295.07 257.1 L 258.32 294.75 C 258.15 294.92 257.93 295.02 257.69 295.02 L 45.14 295.02 C 44.41 295.02 43.8 295.56 43.52 296.24 C 42.69 298.23 40.74 299.62 38.45 299.62 C 35.43 299.62 32.97 297.17 32.97 294.14 C 32.97 291.11 35.43 288.66 38.45 288.66 C 40.74 288.66 42.69 290.05 43.52 292.04 C 43.8 292.72 44.41 293.27 45.14 293.27 L 256.69 293.27 C 257.09 293.27 257.48 293.1 257.76 292.81 L 294.52 255.16 Z M 443.13 304.23 C 442.89 304.23 442.67 304.32 442.5 304.49 L 382 365.9 C 381.72 366.18 381.33 366.34 380.93 366.34 L 97.94 366.34 C 97.53 366.34 97.13 366.18 96.85 365.88 L 83.6 351.93 C 83.05 351.35 83.07 350.45 83.46 349.75 C 83.89 348.97 84.13 348.07 84.13 347.12 C 84.13 344.1 81.67 341.64 78.65 341.64 C 75.62 341.64 73.17 344.1 73.17 347.12 C 73.17 350.15 75.62 352.6 78.65 352.6 C 79.17 352.6 79.68 352.53 80.16 352.39 C 80.81 352.21 81.54 352.3 82 352.79 L 96.28 367.82 C 96.45 368 96.68 368.09 96.92 368.09 L 381.92 368.09 C 382.16 368.09 382.38 368 382.55 367.83 L 443.05 306.42 C 443.33 306.14 443.72 305.98 444.12 305.98 L 579.85 305.98 C 580.59 305.98 581.2 306.52 581.48 307.2 C 582.3 309.19 584.26 310.58 586.54 310.58 C 589.57 310.58 592.02 308.13 592.02 305.1 C 592.02 302.08 589.57 299.62 586.54 299.62 C 584.26 299.62 582.3 301.02 581.48 303 C 581.2 303.68 580.59 304.23 579.85 304.23 L 443.13 304.23 Z M 177.92 673.2 C 178.66 673.2 179.27 673.74 179.55 674.42 C 180.37 676.41 182.33 677.8 184.61 677.8 C 187.64 677.8 190.09 675.35 190.09 672.32 C 190.09 669.29 187.64 666.84 184.61 666.84 C 182.33 666.84 180.37 668.23 179.55 670.22 C 179.27 670.9 178.66 671.45 177.92 671.45 L 1.88 671.45 C 1.39 671.45 1 671.84 1 672.32 C 1 672.8 1.39 673.2 1.88 673.2 L 177.92 673.2 Z M 1.92 906.17 C 1.92 906.66 2.31 907.05 2.79 907.05 L 294.85 907.05 C 295.58 907.05 296.19 907.59 296.47 908.27 C 297.3 910.26 299.25 911.65 301.54 911.65 C 304.56 911.65 307.02 909.2 307.02 906.17 C 307.02 903.14 304.56 900.69 301.54 900.69 C 299.25 900.69 297.3 902.09 296.47 904.07 C 296.19 904.75 295.58 905.3 294.85 905.3 L 2.79 905.3 C 2.31 905.3 1.92 905.69 1.92 906.17 Z M 71.96 996.64 C 72.69 996.64 73.3 996.1 73.58 995.42 C 74.41 993.43 76.37 992.04 78.65 992.04 C 81.67 992.04 84.13 994.49 84.13 997.52 C 84.13 1000.55 81.67 1003 78.65 1003 C 76.37 1003 74.41 1001.61 73.58 999.62 C 73.3 998.94 72.69 998.39 71.96 998.39 L 2.79 998.39 C 2.31 998.39 1.92 998 1.92 997.52 C 1.92 997.04 2.31 996.64 2.79 996.64 L 71.96 996.64 Z M 500.68 750.88 C 500.68 753.91 498.22 756.36 495.2 756.36 C 492.17 756.36 489.71 753.91 489.71 750.88 C 489.71 750.11 489.87 749.38 490.16 748.71 C 490.45 748.03 490.42 747.22 489.91 746.69 L 465.12 721.15 C 464.84 720.86 464.45 720.7 464.05 720.7 L 246.59 720.7 C 245.29 720.7 244.61 722.24 245.48 723.2 L 359.94 849.99 C 360.23 850.31 360.63 850.49 361.06 850.49 L 662.07 850.49 C 662.8 850.49 663.41 849.94 663.69 849.26 C 664.52 847.28 666.47 845.88 668.76 845.88 C 671.78 845.88 674.24 848.34 674.24 851.36 C 674.24 854.39 671.78 856.84 668.76 856.84 C 666.47 856.84 664.52 855.45 663.69 853.47 C 663.41 852.78 662.8 852.24 662.07 852.24 L 360 852.24 C 359.75 852.24 359.52 852.13 359.35 851.95 L 241.31 721.19 C 241.02 720.88 240.62 720.7 240.19 720.7 L 218.51 720.7 C 218.1 720.7 217.71 720.86 217.43 721.16 L 177.02 763.36 C 176.86 763.53 176.63 763.63 176.39 763.63 L 2.79 763.63 C 2.31 763.63 1.92 763.24 1.92 762.76 C 1.92 762.27 2.31 761.88 2.79 761.88 L 175.38 761.88 C 175.79 761.88 176.18 761.71 176.46 761.42 L 216.87 719.22 C 217.03 719.04 217.26 718.95 217.5 718.95 L 241.25 718.95 L 465.05 718.95 C 465.29 718.95 465.51 719.04 465.68 719.21 L 491.16 745.47 C 491.68 746 492.49 746.05 493.18 745.78 C 493.8 745.54 494.48 745.4 495.2 745.4 C 498.22 745.4 500.68 747.85 500.68 750.88 Z M 132.54 862.32 C 138.84 862.32 144.22 860.17 148.68 855.85 C 153.15 851.53 155.38 846.26 155.38 840.02 C 155.38 834.68 153.75 829.92 150.5 825.74 C 147.43 821.8 143.47 819.19 138.61 817.94 C 138.07 817.8 137.64 817.39 137.48 816.86 C 135.68 810.95 132.3 806.14 127.35 802.41 C 122.16 798.51 116.28 796.55 109.71 796.55 C 101.61 796.55 94.74 799.35 89.1 804.93 C 83.77 810.2 80.96 816.56 80.67 823.99 C 80.64 824.75 80.07 825.39 79.32 825.52 C 75.13 826.27 71.61 828.25 68.75 831.45 C 65.6 834.98 64.03 839.1 64.03 843.83 C 64.03 848.97 65.85 853.33 69.48 856.93 C 73.11 860.53 77.52 862.33 82.72 862.32 L 132.54 862.32 Z M 305.36 170.91 C 305.36 170.36 304.92 169.91 304.36 169.91 C 303.81 169.91 303.36 170.36 303.36 170.91 L 303.36 197.91 C 303.36 198.46 303.81 198.91 304.36 198.91 C 304.92 198.91 305.36 198.46 305.36 197.91 L 305.36 170.91 Z M 310.08 170.91 C 310.08 170.36 309.63 169.91 309.08 169.91 C 308.53 169.91 308.08 170.36 308.08 170.91 L 308.08 197.91 C 308.08 198.46 308.53 198.91 309.08 198.91 C 309.63 198.91 310.08 198.46 310.08 197.91 L 310.08 170.91 Z M 312.8 170.91 C 312.8 170.36 313.25 169.91 313.8 169.91 C 314.35 169.91 314.8 170.36 314.8 170.91 L 314.8 197.91 C 314.8 198.46 314.35 198.91 313.8 198.91 C 313.25 198.91 312.8 198.46 312.8 197.91 L 312.8 170.91 Z M 319.52 170.91 C 319.52 170.36 319.07 169.91 318.52 169.91 C 317.97 169.91 317.52 170.36 317.52 170.91 L 317.52 197.91 C 317.52 198.46 317.97 198.91 318.52 198.91 C 319.07 198.91 319.52 198.46 319.52 197.91 L 319.52 170.91 Z M 322.24 170.91 C 322.24 170.36 322.69 169.91 323.24 169.91 C 323.79 169.91 324.24 170.36 324.24 170.91 L 324.24 197.91 C 324.24 198.46 323.79 198.91 323.24 198.91 C 322.69 198.91 322.24 198.46 322.24 197.91 L 322.24 170.91 Z M 328.96 170.91 C 328.96 170.36 328.51 169.91 327.96 169.91 C 327.4 169.91 326.96 170.36 326.96 170.91 L 326.96 197.91 C 326.96 198.46 327.4 198.91 327.96 198.91 C 328.51 198.91 328.96 198.46 328.96 197.91 L 328.96 170.91 Z M 331.68 170.91 C 331.68 170.36 332.12 169.91 332.68 169.91 C 333.23 169.91 333.68 170.36 333.68 170.91 L 333.68 197.91 C 333.68 198.46 333.23 198.91 332.68 198.91 C 332.12 198.91 331.68 198.46 331.68 197.91 L 331.68 170.91 Z M 338.39 170.91 C 338.39 170.36 337.95 169.91 337.39 169.91 C 336.84 169.91 336.39 170.36 336.39 170.91 L 336.39 197.91 C 336.39 198.46 336.84 198.91 337.39 198.91 C 337.95 198.91 338.39 198.46 338.39 197.91 L 338.39 170.91 Z M 341.11 170.91 C 341.11 170.36 341.56 169.91 342.11 169.91 C 342.67 169.91 343.11 170.36 343.11 170.91 L 343.11 197.91 C 343.11 198.46 342.67 198.91 342.11 198.91 C 341.56 198.91 341.11 198.46 341.11 197.91 L 341.11 170.91 Z M 347.83 170.91 C 347.83 170.36 347.38 169.91 346.83 169.91 C 346.28 169.91 345.83 170.36 345.83 170.91 L 345.83 197.91 C 345.83 198.46 346.28 198.91 346.83 198.91 C 347.38 198.91 347.83 198.46 347.83 197.91 L 347.83 170.91 Z M 350.55 170.91 C 350.55 170.36 351 169.91 351.55 169.91 C 352.1 169.91 352.55 170.36 352.55 170.91 L 352.55 197.91 C 352.55 198.46 352.1 198.91 351.55 198.91 C 351 198.91 350.55 198.46 350.55 197.91 L 350.55 170.91 Z M 357.27 170.91 C 357.27 170.36 356.82 169.91 356.27 169.91 C 355.72 169.91 355.27 170.36 355.27 170.91 L 355.27 197.91 C 355.27 198.46 355.72 198.91 356.27 198.91 C 356.82 198.91 357.27 198.46 357.27 197.91 L 357.27 170.91 Z M 359.99 170.91 C 359.99 170.36 360.44 169.91 360.99 169.91 C 361.54 169.91 361.99 170.36 361.99 170.91 L 361.99 197.91 C 361.99 198.46 361.54 198.91 360.99 198.91 C 360.44 198.91 359.99 198.46 359.99 197.91 L 359.99 170.91 Z M 366.71 170.91 C 366.71 170.36 366.26 169.91 365.71 169.91 C 365.16 169.91 364.71 170.36 364.71 170.91 L 364.71 197.91 C 364.71 198.46 365.16 198.91 365.71 198.91 C 366.26 198.91 366.71 198.46 366.71 197.91 L 366.71 170.91 Z M 369.43 170.91 C 369.43 170.36 369.87 169.91 370.43 169.91 C 370.98 169.91 371.43 170.36 371.43 170.91 L 371.43 197.91 C 371.43 198.46 370.98 198.91 370.43 198.91 C 369.87 198.91 369.43 198.46 369.43 197.91 L 369.43 170.91 Z M 376.14 170.91 C 376.14 170.36 375.7 169.91 375.14 169.91 C 374.59 169.91 374.14 170.36 374.14 170.91 L 374.14 197.91 C 374.14 198.46 374.59 198.91 375.14 198.91 C 375.7 198.91 376.14 198.46 376.14 197.91 L 376.14 170.91 Z M 378.86 170.91 C 378.86 170.36 379.31 169.91 379.86 169.91 C 380.42 169.91 380.86 170.36 380.86 170.91 L 380.86 197.91 C 380.86 198.46 380.42 198.91 379.86 198.91 C 379.31 198.91 378.86 198.46 378.86 197.91 L 378.86 170.91 Z M 385.58 170.91 C 385.58 170.36 385.13 169.91 384.58 169.91 C 384.03 169.91 383.58 170.36 383.58 170.91 L 383.58 197.91 C 383.58 198.46 384.03 198.91 384.58 198.91 C 385.13 198.91 385.58 198.46 385.58 197.91 L 385.58 170.91 Z M 388.3 170.91 C 388.3 170.36 388.75 169.91 389.3 169.91 C 389.85 169.91 390.3 170.36 390.3 170.91 L 390.3 197.91 C 390.3 198.46 389.85 198.91 389.3 198.91 C 388.75 198.91 388.3 198.46 388.3 197.91 L 388.3 170.91 Z M 395.02 170.91 C 395.02 170.36 394.57 169.91 394.02 169.91 C 393.47 169.91 393.02 170.36 393.02 170.91 L 393.02 197.91 C 393.02 198.46 393.47 198.91 394.02 198.91 C 394.57 198.91 395.02 198.46 395.02 197.91 L 395.02 170.91 Z M 397.74 170.91 C 397.74 170.36 398.19 169.91 398.74 169.91 C 399.29 169.91 399.74 170.36 399.74 170.91 L 399.74 197.91 C 399.74 198.46 399.29 198.91 398.74 198.91 C 398.19 198.91 397.74 198.46 397.74 197.91 L 397.74 170.91 Z M 404.46 170.91 C 404.46 170.36 404.01 169.91 403.46 169.91 C 402.91 169.91 402.46 170.36 402.46 170.91 L 402.46 197.91 C 402.46 198.46 402.91 198.91 403.46 198.91 C 404.01 198.91 404.46 198.46 404.46 197.91 L 404.46 170.91 Z M 407.18 170.91 C 407.18 170.36 407.62 169.91 408.18 169.91 C 408.73 169.91 409.18 170.36 409.18 170.91 L 409.18 197.91 C 409.18 198.46 408.73 198.91 408.18 198.91 C 407.62 198.91 407.18 198.46 407.18 197.91 L 407.18 170.91 Z M 413.89 170.91 C 413.89 170.36 413.45 169.91 412.89 169.91 C 412.34 169.91 411.89 170.36 411.89 170.91 L 411.89 197.91 C 411.89 198.46 412.34 198.91 412.89 198.91 C 413.45 198.91 413.89 198.46 413.89 197.91 L 413.89 170.91 Z M 416.61 170.91 C 416.61 170.36 417.06 169.91 417.61 169.91 C 418.17 169.91 418.61 170.36 418.61 170.91 L 418.61 197.91 C 418.61 198.46 418.17 198.91 417.61 198.91 C 417.06 198.91 416.61 198.46 416.61 197.91 L 416.61 170.91 Z M 423.33 170.91 C 423.33 170.36 422.88 169.91 422.33 169.91 C 421.78 169.91 421.33 170.36 421.33 170.91 L 421.33 197.91 C 421.33 198.46 421.78 198.91 422.33 198.91 C 422.88 198.91 423.33 198.46 423.33 197.91 L 423.33 170.91 Z M 426.05 170.91 C 426.05 170.36 426.5 169.91 427.05 169.91 C 427.6 169.91 428.05 170.36 428.05 170.91 L 428.05 197.91 C 428.05 198.46 427.6 198.91 427.05 198.91 C 426.5 198.91 426.05 198.46 426.05 197.91 L 426.05 170.91 Z M 432.77 170.91 C 432.77 170.36 432.32 169.91 431.77 169.91 C 431.22 169.91 430.77 170.36 430.77 170.91 L 430.77 197.91 C 430.77 198.46 431.22 198.91 431.77 198.91 C 432.32 198.91 432.77 198.46 432.77 197.91 L 432.77 170.91 Z M 435.49 170.91 C 435.49 170.36 435.94 169.91 436.49 169.91 C 437.04 169.91 437.49 170.36 437.49 170.91 L 437.49 197.91 C 437.49 198.46 437.04 198.91 436.49 198.91 C 435.94 198.91 435.49 198.46 435.49 197.91 L 435.49 170.91 Z M 442.21 170.91 C 442.21 170.36 441.76 169.91 441.21 169.91 C 440.66 169.91 440.21 170.36 440.21 170.91 L 440.21 197.91 C 440.21 198.46 440.66 198.91 441.21 198.91 C 441.76 198.91 442.21 198.46 442.21 197.91 L 442.21 170.91 Z M 444.93 170.91 C 444.93 170.36 445.37 169.91 445.93 169.91 C 446.48 169.91 446.93 170.36 446.93 170.91 L 446.93 197.91 C 446.93 198.46 446.48 198.91 445.93 198.91 C 445.37 198.91 444.93 198.46 444.93 197.91 L 444.93 170.91 Z M 451.64 170.91 C 451.64 170.36 451.2 169.91 450.64 169.91 C 450.09 169.91 449.64 170.36 449.64 170.91 L 449.64 197.91 C 449.64 198.46 450.09 198.91 450.64 198.91 C 451.2 198.91 451.64 198.46 451.64 197.91 L 451.64 170.91 Z M 454.36 170.91 C 454.36 170.36 454.81 169.91 455.36 169.91 C 455.92 169.91 456.36 170.36 456.36 170.91 L 456.36 197.91 C 456.36 198.46 455.92 198.91 455.36 198.91 C 454.81 198.91 454.36 198.46 454.36 197.91 L 454.36 170.91 Z M 412.98 872.96 C 412.98 872.13 413.65 871.46 414.48 871.46 L 416.48 871.46 C 417.31 871.46 417.98 872.13 417.98 872.96 L 417.98 882.96 C 417.98 883.79 417.31 884.46 416.48 884.46 L 414.48 884.46 C 413.65 884.46 412.98 883.79 412.98 882.96 L 412.98 872.96 Z M 426.98 872.96 C 426.98 872.13 427.65 871.46 428.48 871.46 L 430.48 871.46 C 431.31 871.46 431.98 872.13 431.98 872.96 L 431.98 882.96 C 431.98 883.79 431.31 884.46 430.48 884.46 L 428.48 884.46 C 427.65 884.46 426.98 883.79 426.98 882.96 L 426.98 872.96 Z M 445.98 872.96 C 445.98 872.13 445.31 871.46 444.48 871.46 L 442.48 871.46 C 441.65 871.46 440.98 872.13 440.98 872.96 L 440.98 882.96 C 440.98 883.79 441.65 884.46 442.48 884.46 L 444.48 884.46 C 445.31 884.46 445.98 883.79 445.98 882.96 L 445.98 872.96 Z M 454.98 872.96 C 454.98 872.13 455.65 871.46 456.48 871.46 L 458.48 871.46 C 459.31 871.46 459.98 872.13 459.98 872.96 L 459.98 882.96 C 459.98 883.79 459.31 884.46 458.48 884.46 L 456.48 884.46 C 455.65 884.46 454.98 883.79 454.98 882.96 L 454.98 872.96 Z M 473.98 872.96 C 473.98 872.13 473.31 871.46 472.48 871.46 L 470.48 871.46 C 469.65 871.46 468.98 872.13 468.98 872.96 L 468.98 882.96 C 468.98 883.79 469.65 884.46 470.48 884.46 L 472.48 884.46 C 473.31 884.46 473.98 883.79 473.98 882.96 L 473.98 872.96 Z M 482.98 872.96 C 482.98 872.13 483.65 871.46 484.48 871.46 L 486.48 871.46 C 487.31 871.46 487.98 872.13 487.98 872.96 L 487.98 882.96 C 487.98 883.79 487.31 884.46 486.48 884.46 L 484.48 884.46 C 483.65 884.46 482.98 883.79 482.98 882.96 L 482.98 872.96 Z M 501.98 872.96 C 501.98 872.13 501.31 871.46 500.48 871.46 L 498.48 871.46 C 497.65 871.46 496.98 872.13 496.98 872.96 L 496.98 882.96 C 496.98 883.79 497.65 884.46 498.48 884.46 L 500.48 884.46 C 501.31 884.46 501.98 883.79 501.98 882.96 L 501.98 872.96 Z M 510.98 872.96 C 510.98 872.13 511.65 871.46 512.48 871.46 L 514.48 871.46 C 515.31 871.46 515.98 872.13 515.98 872.96 L 515.98 882.96 C 515.98 883.79 515.31 884.46 514.48 884.46 L 512.48 884.46 C 511.65 884.46 510.98 883.79 510.98 882.96 L 510.98 872.96 Z M 529.98 872.96 C 529.98 872.13 529.31 871.46 528.48 871.46 L 526.48 871.46 C 525.65 871.46 524.98 872.13 524.98 872.96 L 524.98 882.96 C 524.98 883.79 525.65 884.46 526.48 884.46 L 528.48 884.46 C 529.31 884.46 529.98 883.79 529.98 882.96 L 529.98 872.96 Z M 13.79 966.46 C 20.35 966.46 25.67 961.14 25.67 954.59 C 25.67 948.03 20.35 942.71 13.79 942.71 C 7.23 942.71 1.92 948.03 1.92 954.59 C 1.92 961.14 7.23 966.46 13.79 966.46 Z M 60.38 954.59 C 60.38 961.14 55.06 966.46 48.5 966.46 C 41.94 966.46 36.63 961.14 36.63 954.59 C 36.63 948.03 41.94 942.71 48.5 942.71 C 55.06 942.71 60.38 948.03 60.38 954.59 Z M 96.74 954.59 C 96.74 960.04 92.32 964.46 86.87 964.46 C 81.42 964.46 76.99 960.04 76.99 954.59 C 76.99 949.13 81.42 944.71 86.87 944.71 C 92.32 944.71 96.74 949.13 96.74 954.59 Z M 98.74 954.59 C 98.74 961.14 93.43 966.46 86.87 966.46 C 80.31 966.46 74.99 961.14 74.99 954.59 C 74.99 948.03 80.31 942.71 86.87 942.71 C 93.43 942.71 98.74 948.03 98.74 954.59 Z M 125.23 964.46 C 130.69 964.46 135.11 960.04 135.11 954.59 C 135.11 949.13 130.69 944.71 125.23 944.71 C 119.78 944.71 115.36 949.13 115.36 954.59 C 115.36 960.04 119.78 964.46 125.23 964.46 Z M 125.23 966.46 C 131.79 966.46 137.11 961.14 137.11 954.59 C 137.11 948.03 131.79 942.71 125.23 942.71 C 118.68 942.71 113.36 948.03 113.36 954.59 C 113.36 961.14 118.68 966.46 125.23 966.46 Z M 173.48 954.59 C 173.48 960.04 169.06 964.46 163.6 964.46 C 158.15 964.46 153.73 960.04 153.73 954.59 C 153.73 949.13 158.15 944.71 163.6 944.71 C 169.06 944.71 173.48 949.13 173.48 954.59 Z M 175.48 954.59 C 175.48 961.14 170.16 966.46 163.6 966.46 C 157.04 966.46 151.73 961.14 151.73 954.59 C 151.73 948.03 157.04 942.71 163.6 942.71 C 170.16 942.71 175.48 948.03 175.48 954.59 Z" stroke="#000000" stroke-opacity="1" stroke-width="0" stroke-dasharray="none" stroke-dashoffset="0" stroke-linecap="butt" stroke-linejoin="miter" stroke-miterlimit="4" fill="url(#wpgraphicator-gradient-hg200pu10v7f35r8yxct11)" fill-opacity="1" fill-rule="evenodd" opacity="1" transform=" translate(-337.18, -501.5)"></path></g></g></g></g></g></g></g></g></svg>