<svg width="999" height="651" viewBox="0 0 999 651" fill="none" xmlns="http://www.w3.org/2000/svg">
<path fill-rule="evenodd" clip-rule="evenodd" d="M31.6361 0.285288C31.2474 -0.0949334 30.6262 -0.0949331 30.2375 0.285288L29.3007 1.20175C28.8998 1.59397 28.8998 2.23919 29.3007 2.63142L34.9398 8.14791C35.3407 8.54013 35.3407 9.18535 34.9398 9.57758L29.3007 15.0941C28.8998 15.4863 28.8998 16.1315 29.3007 16.5237L30.2375 17.4402C30.6262 17.8204 31.2474 17.8204 31.6361 17.4402L39.6735 9.57758C40.0744 9.18535 40.0744 8.54013 39.6735 8.14791L31.6361 0.285288ZM43.4701 0.285288C43.0814 -0.0949334 42.4602 -0.0949331 42.0715 0.285288L41.1347 1.20175C40.7337 1.59397 40.7337 2.23919 41.1347 2.63142L46.7738 8.14791C47.1747 8.54013 47.1747 9.18535 46.7738 9.57758L41.1347 15.0941C40.7337 15.4863 40.7337 16.1315 41.1347 16.5237L42.0715 17.4402C42.4602 17.8204 43.0814 17.8204 43.4701 17.4402L51.5074 9.57758C51.9084 9.18535 51.9084 8.54013 51.5074 8.14791L43.4701 0.285288ZM53.9055 0.285288C54.2942 -0.0949331 54.9154 -0.0949334 55.3041 0.285288L63.3414 8.14791C63.7424 8.54013 63.7424 9.18535 63.3414 9.57758L55.3041 17.4402C54.9154 17.8204 54.2942 17.8204 53.9055 17.4402L52.9687 16.5237C52.5677 16.1315 52.5677 15.4863 52.9687 15.0941L58.6077 9.57758C59.0087 9.18535 59.0087 8.54013 58.6077 8.14791L52.9687 2.63142C52.5677 2.23919 52.5677 1.59397 52.9687 1.20175L53.9055 0.285288ZM67.1385 0.285288C66.7499 -0.0949334 66.1286 -0.0949331 65.74 0.285288L64.8031 1.20175C64.4022 1.59397 64.4022 2.23919 64.8031 2.63142L70.4422 8.14791C70.8432 8.54013 70.8432 9.18535 70.4422 9.57758L64.8031 15.0941C64.4022 15.4863 64.4022 16.1315 64.8031 16.5237L65.74 17.4402C66.1286 17.8204 66.7499 17.8204 67.1385 17.4402L75.1759 9.57758C75.5768 9.18535 75.5768 8.54013 75.1759 8.14791L67.1385 0.285288ZM77.5739 0.285288C77.9626 -0.0949331 78.5839 -0.0949334 78.9725 0.285288L87.0099 8.14791C87.4108 8.54013 87.4108 9.18535 87.0099 9.57758L78.9725 17.4402C78.5839 17.8204 77.9626 17.8204 77.5739 17.4402L76.6371 16.5237C76.2362 16.1315 76.2362 15.4863 76.6371 15.0941L82.2762 9.57758C82.6771 9.18535 82.6771 8.54013 82.2762 8.14791L76.6371 2.63142C76.2362 2.23919 76.2362 1.59397 76.6371 1.20175L77.5739 0.285288ZM90.807 0.285288C90.4183 -0.0949334 89.7971 -0.0949331 89.4084 0.285288L88.4716 1.20175C88.0706 1.59397 88.0707 2.23919 88.4716 2.63142L94.1107 8.14791C94.5116 8.54013 94.5116 9.18535 94.1107 9.57758L88.4716 15.0941C88.0706 15.4863 88.0706 16.1315 88.4716 16.5237L89.4084 17.4402C89.7971 17.8204 90.4183 17.8204 90.807 17.4402L98.8444 9.57758C99.2453 9.18535 99.2453 8.54013 98.8444 8.14791L90.807 0.285288ZM101.242 0.285288C101.631 -0.0949331 102.252 -0.0949334 102.641 0.285288L110.678 8.14791C111.079 8.54013 111.079 9.18535 110.678 9.57758L102.641 17.4402C102.252 17.8204 101.631 17.8204 101.242 17.4402L100.306 16.5237C99.9046 16.1315 99.9046 15.4863 100.306 15.0941L105.945 9.57758C106.346 9.18535 106.346 8.54013 105.945 8.14791L100.306 2.63142C99.9046 2.23919 99.9046 1.59397 100.306 1.20175L101.242 0.285288ZM110.5 60.0001C109.672 60.0001 109 60.6717 109 61.5001V70.5001C109 71.3285 109.672 72.0001 110.5 72.0001H112.5C113.328 72.0001 114 71.3285 114 70.5001V61.5001C114 60.6717 113.328 60.0001 112.5 60.0001H110.5ZM122.5 60.0001C121.672 60.0001 121 60.6717 121 61.5001V70.5001C121 71.3285 121.672 72.0001 122.5 72.0001H124.5C125.328 72.0001 126 71.3285 126 70.5001V61.5001C126 60.6717 125.328 60.0001 124.5 60.0001H122.5ZM136.5 60.0001C137.328 60.0001 138 60.6717 138 61.5001V70.5001C138 71.3285 137.328 72.0001 136.5 72.0001H134.5C133.672 72.0001 133 71.3285 133 70.5001V61.5001C133 60.6717 133.672 60.0001 134.5 60.0001H136.5ZM146.5 60.0001C145.672 60.0001 145 60.6717 145 61.5001V70.5001C145 71.3285 145.672 72.0001 146.5 72.0001H148.5C149.328 72.0001 150 71.3285 150 70.5001V61.5001C150 60.6717 149.328 60.0001 148.5 60.0001H146.5ZM160.5 60.0001C161.328 60.0001 162 60.6717 162 61.5001V70.5001C162 71.3285 161.328 72.0001 160.5 72.0001H158.5C157.672 72.0001 157 71.3285 157 70.5001V61.5001C157 60.6717 157.672 60.0001 158.5 60.0001H160.5ZM170.5 60.0001C169.672 60.0001 169 60.6717 169 61.5001V70.5001C169 71.3285 169.672 72.0001 170.5 72.0001H172.5C173.328 72.0001 174 71.3285 174 70.5001V61.5001C174 60.6717 173.328 60.0001 172.5 60.0001H170.5ZM184.5 60.0001C185.328 60.0001 186 60.6717 186 61.5001V70.5001C186 71.3285 185.328 72.0001 184.5 72.0001H182.5C181.672 72.0001 181 71.3285 181 70.5001V61.5001C181 60.6717 181.672 60.0001 182.5 60.0001H184.5ZM194.5 60.0001C193.672 60.0001 193 60.6717 193 61.5001V70.5001C193 71.3285 193.672 72.0001 194.5 72.0001H196.5C197.328 72.0001 198 71.3285 198 70.5001V61.5001C198 60.6717 197.328 60.0001 196.5 60.0001H194.5ZM208.5 60.0001C209.328 60.0001 210 60.6717 210 61.5001V70.5001C210 71.3285 209.328 72.0001 208.5 72.0001H206.5C205.672 72.0001 205 71.3285 205 70.5001V61.5001C205 60.6717 205.672 60.0001 206.5 60.0001H208.5ZM50.5 638C51.8807 638 53 636.881 53 635.5C53 634.119 51.8807 633 50.5 633C49.1193 633 48 634.119 48 635.5C48 636.881 49.1193 638 50.5 638ZM50.5 639C52.433 639 54 637.433 54 635.5C54 633.567 52.433 632 50.5 632C48.567 632 47 633.567 47 635.5C47 637.433 48.567 639 50.5 639ZM65 635.5C65 636.881 63.8807 638 62.5 638C61.1193 638 60 636.881 60 635.5C60 634.119 61.1193 633 62.5 633C63.8807 633 65 634.119 65 635.5ZM66 635.5C66 637.433 64.433 639 62.5 639C60.567 639 59 637.433 59 635.5C59 633.567 60.567 632 62.5 632C64.433 632 66 633.567 66 635.5ZM76.5 638C77.8807 638 79 636.881 79 635.5C79 634.119 77.8807 633 76.5 633C75.1193 633 74 634.119 74 635.5C74 636.881 75.1193 638 76.5 638ZM76.5 639C78.433 639 80 637.433 80 635.5C80 633.567 78.433 632 76.5 632C74.567 632 73 633.567 73 635.5C73 637.433 74.567 639 76.5 639ZM94 635.5C94 637.433 92.433 639 90.5 639C88.567 639 87 637.433 87 635.5C87 633.567 88.567 632 90.5 632C92.433 632 94 633.567 94 635.5ZM106 635.5C106 637.433 104.433 639 102.5 639C100.567 639 99 637.433 99 635.5C99 633.567 100.567 632 102.5 632C104.433 632 106 633.567 106 635.5ZM114.5 639C116.433 639 118 637.433 118 635.5C118 633.567 116.433 632 114.5 632C112.567 632 111 633.567 111 635.5C111 637.433 112.567 639 114.5 639ZM145 635.5C145 637.433 143.433 639 141.5 639C139.567 639 138 637.433 138 635.5C138 633.567 139.567 632 141.5 632C143.433 632 145 633.567 145 635.5ZM166.5 639C168.433 639 170 637.433 170 635.5C170 633.567 168.433 632 166.5 632C164.567 632 163 633.567 163 635.5C163 637.433 164.567 639 166.5 639ZM128.5 638C129.881 638 131 636.881 131 635.5C131 634.119 129.881 633 128.5 633C127.119 633 126 634.119 126 635.5C126 636.881 127.119 638 128.5 638ZM128.5 639C130.433 639 132 637.433 132 635.5C132 633.567 130.433 632 128.5 632C126.567 632 125 633.567 125 635.5C125 637.433 126.567 639 128.5 639ZM156 635.5C156 636.881 154.881 638 153.5 638C152.119 638 151 636.881 151 635.5C151 634.119 152.119 633 153.5 633C154.881 633 156 634.119 156 635.5ZM157 635.5C157 637.433 155.433 639 153.5 639C151.567 639 150 637.433 150 635.5C150 633.567 151.567 632 153.5 632C155.433 632 157 633.567 157 635.5ZM802 7.74999C802.966 7.74999 803.75 6.96649 803.75 5.99999C803.75 5.03349 802.966 4.24999 802 4.24999C801.034 4.24999 800.25 5.03349 800.25 5.99999C800.25 6.96649 801.034 7.74999 802 7.74999ZM802 8.99999C803.657 8.99999 805 7.65685 805 5.99999C805 4.34314 803.657 2.99999 802 2.99999C801.072 2.99999 800.243 3.42116 799.693 4.08274C799.286 4.57148 798.746 4.99999 798.11 4.99999H410C409.732 4.99999 409.475 5.10771 409.287 5.29892L322.522 93.5516C322.24 93.8384 321.854 94 321.452 94H70.8901C70.2543 94 69.714 93.5715 69.3075 93.0827C68.7572 92.4211 67.9278 92 67 92C65.3431 92 64 93.3431 64 95C64 96.6568 65.3431 98 67 98C67.9278 98 68.7572 97.5788 69.3075 96.9173C69.714 96.4285 70.2543 96 70.8901 96H322.5C322.768 96 323.025 95.8923 323.213 95.7011L409.978 7.44838C410.26 7.16155 410.646 6.99999 411.048 6.99999H798.11C798.746 6.99999 799.286 7.4285 799.693 7.91724C800.243 8.57882 801.072 8.99999 802 8.99999ZM153 13.75C153.966 13.75 154.75 12.9665 154.75 12C154.75 11.0335 153.966 10.25 153 10.25C152.034 10.25 151.25 11.0335 151.25 12C151.25 12.9665 152.034 13.75 153 13.75ZM155.307 13.9173C155.714 13.4285 156.254 13 156.89 13H230.11C230.746 13 231.286 13.4285 231.693 13.9173C232.243 14.5788 233.072 15 234 15C235.657 15 237 13.6568 237 12C237 10.3431 235.657 8.99999 234 8.99999C233.072 8.99999 232.243 9.42115 231.693 10.0827C231.286 10.5715 230.746 11 230.11 11H156.89C156.254 11 155.714 10.5715 155.307 10.0827C154.757 9.42115 153.928 8.99999 153 8.99999C151.343 8.99999 150 10.3431 150 12C150 13.6568 151.343 15 153 15C153.928 15 154.757 14.5788 155.307 13.9173ZM322.75 29C322.75 29.9665 321.966 30.75 321 30.75C320.034 30.75 319.25 29.9665 319.25 29C319.25 28.0335 320.034 27.25 321 27.25C321.966 27.25 322.75 28.0335 322.75 29ZM324 29C324 30.6568 322.657 32 321 32C320.072 32 319.243 31.5788 318.693 30.9173C318.286 30.4285 317.746 30 317.11 30H21.8902C21.2544 30 20.7141 30.4286 20.3075 30.9173C19.7573 31.5789 18.9278 32.0001 18 32.0001C16.3431 32.0001 15 30.657 15 29.0001C15 27.3433 16.3431 26.0001 18 26.0001C18.9278 26.0001 19.7571 26.4212 20.3074 27.0828C20.714 27.5715 21.2543 28 21.89 28H317.11C317.746 28 318.286 27.5715 318.693 27.0827C319.243 26.4212 320.072 26 321 26C322.657 26 324 27.3431 324 29ZM19.75 29.0001C19.75 29.9666 18.9665 30.7501 18 30.7501C17.0335 30.7501 16.25 29.9666 16.25 29.0001C16.25 28.0336 17.0335 27.2501 18 27.2501C18.9665 27.2501 19.75 28.0336 19.75 29.0001ZM611.308 70.9173C610.757 71.5789 609.928 72.0001 609 72.0001C607.343 72.0001 606 70.657 606 69.0001C606 67.3433 607.343 66.0001 609 66.0001C609.928 66.0001 610.757 66.4212 611.307 67.0828C611.714 67.5715 612.254 68 612.89 68H737.11C737.746 68 738.286 67.5715 738.693 67.0827C739.243 66.4212 740.072 66 741 66C742.657 66 744 67.3431 744 69C744 70.6568 742.657 72 741 72C740.072 72 739.243 71.5788 738.693 70.9172C738.286 70.4285 737.746 70 737.11 70H612.89C612.254 70 611.714 70.4286 611.308 70.9173ZM386.307 87.0827C386.714 87.5715 387.254 88 387.89 88H490C490.242 88 490.476 88.0876 490.658 88.2467L520.905 114.653C521.363 115.053 522.016 115.1 522.619 115.024C522.744 115.008 522.871 115 523 115C524.657 115 526 116.343 526 118C526 119.657 524.657 121 523 121C521.343 121 520 119.657 520 118C520 117.973 520 117.946 520.001 117.918C520.002 117.89 520.003 117.862 520.005 117.834C520.041 117.171 519.927 116.454 519.427 116.018L490.049 90.37C489.776 90.1315 489.425 90 489.062 90H387.89C387.254 90 386.714 90.4285 386.307 90.9173C385.757 91.5788 384.928 92 384 92C382.343 92 381 90.6568 381 89C381 87.3431 382.343 86 384 86C384.928 86 385.757 86.4211 386.307 87.0827ZM151.308 135.917C150.757 136.579 149.928 137 149 137C147.343 137 146 135.657 146 134C146 132.343 147.343 131 149 131C149.928 131 150.757 131.421 151.307 132.083C151.714 132.571 152.254 133 152.89 133H542.088C542.442 133 542.784 132.875 543.054 132.648L572.396 107.963C572.91 107.531 573.033 106.806 573.003 106.135C573.001 106.091 573 106.045 573 106C573 104.343 574.343 103 576 103C577.657 103 579 104.343 579 106C579 107.657 577.657 109 576 109C575.861 109 575.725 108.991 575.592 108.972C574.997 108.891 574.353 108.931 573.893 109.317L543.644 134.765C543.464 134.917 543.236 135 543 135H152.89C152.254 135 151.714 135.429 151.308 135.917ZM5.30755 235.917C5.71409 235.428 6.2544 235 6.89015 235H167.926C168.337 235 168.731 235.169 169.014 235.467L196.275 264.188C196.464 264.387 196.726 264.5 197 264.5H454.5C454.752 264.5 454.995 264.405 455.18 264.233L480.872 240.41C481.473 239.852 482.411 239.881 482.977 240.475L542.276 302.69C542.465 302.888 542.726 303 543 303H669.539C669.91 303 670.268 303.138 670.544 303.386L688.469 319.563C689.085 320.119 689.133 321.07 688.575 321.685L666.504 346.008C666.219 346.321 665.816 346.5 665.393 346.5H342.047C341.645 346.5 341.26 346.339 340.978 346.052L279.213 283.299C279.025 283.108 278.768 283 278.5 283H155.89C155.254 283 154.714 282.571 154.307 282.083C153.757 281.421 152.928 281 152 281C150.343 281 149 282.343 149 284C149 285.657 150.343 287 152 287C152.928 287 153.757 286.579 154.307 285.917C154.714 285.429 155.254 285 155.89 285H277.453C277.855 285 278.24 285.161 278.522 285.448L340.287 348.201C340.475 348.392 340.732 348.5 341 348.5H666.5C666.782 348.5 667.051 348.381 667.241 348.172L689.977 323.115C690.553 322.481 691.543 322.457 692.149 323.063L719.793 350.707C719.98 350.895 720.235 351 720.5 351H741.043C742.373 351 743.045 352.602 742.114 353.551L720.521 375.551C720.239 375.838 719.853 376 719.451 376H465C464.735 376 464.48 376.105 464.293 376.293L438.525 402.061C438.244 402.342 437.862 402.5 437.465 402.5H348.535C348.138 402.5 347.756 402.342 347.475 402.061L304.707 359.293L304.5 359.086C304.445 359.031 304.371 359 304.293 359C304.131 359 304 359.131 304 359.293V360C304 359 303.999 359 303.998 359H303.994H303.986H303.975H303.961H303.944H303.924H303.901H303.875H303.846H303.814H303.779H303.74H303.699H303.655H303.608H303.559H303.506H303.45H303.391H303.33H303.266H303.198H303.128H303.056H302.98H302.901H302.82H302.736H302.649H302.56H302.467H302.372H302.274H302.174H302.071H301.965H301.856H301.745H301.631H301.515H301.396H301.274H301.15H301.023H300.893H300.761H300.627H300.49H300.35H300.208H300.063H299.916H299.766H299.614H299.46H299.303H299.143H298.982H298.817H298.651H298.482H298.31H298.137H297.961H297.782H297.602H297.419H297.233H297.046H296.856H296.664H296.47H296.273H296.074H295.873H295.67H295.465H295.257H295.048H294.836H294.622H294.406H294.188H293.967H293.745H293.521H293.294H293.066H292.835H292.602H292.368H292.131H291.893H291.652H291.41H291.165H290.919H290.671H290.42H290.168H289.914H289.658H289.4H289.141H288.879H288.616H288.351H288.084H287.816H287.545H287.273H286.999H286.723H286.446H286.167H285.886H285.603H285.319H285.033H284.746H284.456H284.166H283.873H283.579H283.283H282.986H282.688H282.387H282.085H281.782H281.477H281.171H280.863H280.553H280.242H279.93H279.616H279.301H278.984H278.666H278.347H278.026H277.704H277.38H277.055H276.729H276.401H276.072H275.742H275.411H275.078H274.744H274.409H274.072H273.734H273.396H273.055H272.714H272.372H272.028H271.683H271.337H270.99H270.642H270.293H269.942H269.591H269.238H268.884H268.53H268.174H267.817H267.46H267.101H266.741H266.381H266.019H265.657H265.293H264.929H264.563H264.197H263.83H263.462H263.093H262.724H262.353H261.982H261.61H261.237H260.863H260.489H260.114H259.738H259.361H258.983H258.605H258.226H257.847H257.467H257.086H256.704H256.322H255.939H255.556H255.172H254.787H254.402H254.017H253.63H253.243H252.856H252.468H252.08H251.691H251.302H250.912H250.522H250.131H249.74H249.348H248.956H248.564H248.171H247.778H247.385H246.991H246.597H246.202H245.808H245.413H245.017H244.622H244.226H243.83H243.433H243.037H242.64H242.243H241.846H241.449H241.051H240.654H240.256H239.858H239.46H239.062H238.664H238.265H237.867H237.469H237.07H236.672H236.273H235.875H235.477H235.078H234.68H234.281H233.883H233.485H233.087H232.689H232.291H231.893H231.496H231.098H230.701H230.304H229.907H229.51H229.113H228.717H228.321H227.925H227.529H227.134H226.739H226.344H225.95H225.555H225.162H224.768H224.375H223.982H223.59H223.198H222.806H222.415H222.024H221.634H221.244H220.855H220.466H220.077H219.689H219.302H218.915H218.529H218.143H217.758H217.373H216.989H216.605H216.223H215.84H215.459H215.078H214.698H214.318H213.939H213.561H213.183H212.806H212.43H212.055H211.68H211.307H210.934H210.561H210.19H209.819H209.45H209.081H208.713H208.345H207.979H207.614H207.249H206.886H206.523H206.161H205.8H205.441H205.082H204.724H204.367H204.011H203.657H203.303H202.95H202.599H202.248H201.899H201.55H201.203H200.857H200.512H200.168H199.825H199.484H199.144H198.804H198.467H198.13H197.794H197.46H197.127H196.796H196.465H196.136H195.809H195.482H195.157H194.833H194.511H194.19H193.87H193.552H193.235H192.92H192.606H192.293H191.982H191.673H191.364H191.058H190.753H190.449H190.147H189.846H189.547H189.25H188.954H188.66H188.367H188.076H187.787H187.499H187.213H186.929H186.646H186.365H186.085H185.808H185.532H185.258H184.985H184.714H184.446H184.178H183.913H183.65H183.388H183.128H182.87H182.614H182.36H182.107H181.857H181.608H181.362H181.117H180.874H180.633H180.394H180.158H179.923H179.69H179.459H179.23H179.004H178.779H178.556H178.336H178.117H177.901H177.687H177.475H177.265H177.057H176.851H176.648H176.446H176.247H176.051H175.856H175.664H175.474H175.286H175.1H174.917H174.736H174.557H174.381H174.207H174.035H173.866H173.699H173.534H173.372H173.213H173.055H172.9H172.748H172.598H172.451H172.306H172.163H172.023H171.886H171.751H171.618H171.489H171.361H171.237H171.115H170.995H170.878H170.764H170.653H170.544H170.438H170.334H170.233H170.135H170.04H169.947H169.857H169.77H169.685H169.604H169.525H169.449H169.376H169.305H169.238H169.173H169.111H169.052H168.996H168.943H168.892H168.845C168.836 359 168.827 358.994 168.824 358.985C168.408 357.828 167.301 357 166 357C164.343 357 163 358.343 163 360C163 361.657 164.343 363 166 363C167.301 363 168.408 362.172 168.824 361.015C168.827 361.006 168.836 361 168.845 361H168.892H168.943H168.996H169.052H169.111H169.173H169.238H169.305H169.376H169.449H169.525H169.604H169.685H169.77H169.857H169.947H170.04H170.135H170.233H170.334H170.438H170.544H170.653H170.764H170.878H170.995H171.115H171.237H171.361H171.489H171.618H171.751H171.886H172.023H172.163H172.306H172.451H172.598H172.748H172.9H173.055H173.213H173.372H173.534H173.699H173.866H174.035H174.207H174.381H174.557H174.736H174.917H175.1H175.286H175.474H175.664H175.856H176.051H176.247H176.446H176.648H176.851H177.057H177.265H177.475H177.687H177.901H178.117H178.336H178.556H178.779H179.004H179.23H179.459H179.69H179.923H180.158H180.394H180.633H180.874H181.117H181.362H181.608H181.857H182.107H182.36H182.614H182.87H183.128H183.388H183.65H183.913H184.178H184.446H184.714H184.985H185.258H185.532H185.808H186.085H186.365H186.646H186.929H187.213H187.499H187.787H188.076H188.367H188.66H188.954H189.25H189.547H189.846H190.147H190.449H190.753H191.058H191.364H191.673H191.982H192.293H192.606H192.92H193.235H193.552H193.87H194.19H194.511H194.833H195.157H195.482H195.809H196.136H196.465H196.796H197.127H197.46H197.794H198.13H198.467H198.804H199.144H199.484H199.825H200.168H200.512H200.857H201.203H201.55H201.899H202.248H202.599H202.95H203.303H203.657H204.011H204.367H204.724H205.082H205.441H205.8H206.161H206.523H206.886H207.249H207.614H207.979H208.345H208.713H209.081H209.45H209.819H210.19H210.561H210.934H211.307H211.68H212.055H212.43H212.806H213.183H213.561H213.939H214.318H214.698H215.078H215.459H215.84H216.223H216.605H216.989H217.373H217.758H218.143H218.529H218.915H219.302H219.689H220.077H220.466H220.855H221.244H221.634H222.024H222.415H222.806H223.198H223.59H223.982H224.375H224.768H225.162H225.555H225.95H226.344H226.739H227.134H227.529H227.925H228.321H228.717H229.113H229.51H229.907H230.304H230.701H231.098H231.496H231.893H232.291H232.689H233.087H233.485H233.883H234.281H234.68H235.078H235.477H235.875H236.273H236.672H237.07H237.469H237.867H238.265H238.664H239.062H239.46H239.858H240.256H240.654H241.051H241.449H241.846H242.243H242.64H243.037H243.433H243.83H244.226H244.622H245.017H245.413H245.808H246.202H246.597H246.991H247.385H247.778H248.171H248.564H248.956H249.348H249.74H250.131H250.522H250.912H251.302H251.691H252.08H252.468H252.856H253.243H253.63H254.017H254.402H254.787H255.172H255.556H255.939H256.322H256.704H257.086H257.467H257.847H258.226H258.605H258.983H259.361H259.738H260.114H260.489H260.863H261.237H261.61H261.982H262.353H262.724H263.093H263.462H263.83H264.197H264.563H264.929H265.293H265.657H266.019H266.381H266.741H267.101H267.46H267.817H268.174H268.53H268.884H269.238H269.591H269.942H270.293H270.642H270.99H271.337H271.683H272.028H272.372H272.714H273.055H273.396H273.734H274.072H274.409H274.744H275.078H275.411H275.742H276.072H276.401H276.729H277.055H277.38H277.704H278.026H278.347H278.666H278.984H279.301H279.616H279.93H280.242H280.553H280.863H281.171H281.477H281.782H282.085H282.387H282.688H282.986H283.283H283.579H283.873H284.166H284.456H284.746H285.033H285.319H285.603H285.886H286.167H286.446H286.723H286.999H287.273H287.545H287.816H288.084H288.351H288.616H288.879H289.141H289.4H289.658H289.914H290.168H290.42H290.671H290.919H291.165H291.41H291.652H291.893H292.131H292.368H292.602H292.835H293.066H293.294H293.521H293.745H293.967H294.188H294.406H294.622H294.836H295.048H295.257H295.465H295.67H295.873H296.074H296.273H296.47H296.664H296.856H297.046H297.233H297.419H297.602H297.782H297.961H298.137H298.31H298.482H298.651H298.817H298.982H299.143H299.303H299.46H299.614H299.766H299.916H300.063H300.208H300.35H300.49H300.627H300.761H300.893H301.023H301.15H301.274H301.396H301.515H301.631H301.745H301.856H301.965H302.071H302.174H302.274H302.372H302.467H302.56H302.649H302.736H302.82H302.901H302.98H303.056H303.128H303.198H303.266H303.33H303.391H303.45H303.506H303.559C303.576 361 303.593 361.007 303.605 361.019L342.525 399.939C343.47 400.884 342.801 402.5 341.465 402.5H103.5C102.948 402.5 102.5 402.948 102.5 403.5C102.5 404.052 102.948 404.5 103.5 404.5H347.5H438.5C438.765 404.5 439.02 404.395 439.207 404.207L464.975 378.439C465.256 378.158 465.638 378 466.036 378H720.5C720.768 378 721.026 377.892 721.214 377.7L746.979 351.449C747.261 351.162 747.647 351 748.049 351H997C997.552 351 998 350.552 998 350C998 349.448 997.552 349 997 349H747H721.536C721.138 349 720.756 348.842 720.475 348.561L691.707 319.793L691.689 319.775L691.67 319.758L671.17 301.258C670.986 301.092 670.747 301 670.5 301H544.071C543.661 301 543.268 300.832 542.985 300.535L482.724 237.31L482.716 237.301L482.707 237.293L444.707 199.293C444.52 199.105 444.265 199 444 199H264.89C264.254 199 263.714 198.571 263.307 198.083C262.757 197.421 261.928 197 261 197C259.343 197 258 198.343 258 200C258 201.657 259.343 203 261 203C261.928 203 262.757 202.579 263.307 201.917C263.714 201.429 264.254 201 264.89 201H442.964C443.362 201 443.744 201.158 444.025 201.439L479.457 236.871C480.059 237.473 480.04 238.454 479.416 239.032L454.539 262.1C454.262 262.357 453.898 262.5 453.519 262.5H198.074C197.663 262.5 197.269 262.331 196.986 262.033L169.725 233.311C169.536 233.113 169.274 233 169 233H6.88997C6.25427 233 5.71398 232.571 5.30744 232.083C4.75715 231.421 3.92775 231 3 231C1.34315 231 0 232.343 0 234C0 235.657 1.34315 237 3 237C3.92781 237 4.75725 236.579 5.30755 235.917ZM802 79C802 80.6568 800.657 82 799 82C797.343 82 796 80.6568 796 79C796 78.8819 796.007 78.7654 796.02 78.6509C796.092 78.0289 796.033 77.3541 795.607 76.8956L758.009 36.4783C757.726 36.1733 757.328 36 756.911 36H630.89C630.254 36 629.714 36.4285 629.307 36.9172C628.757 37.5788 627.928 38 627 38C625.343 38 624 36.6568 624 35C624 33.3431 625.343 32 627 32C627.928 32 628.757 32.4212 629.307 33.0827C629.714 33.5715 630.254 34 630.89 34H758C758.278 34 758.543 34.1155 758.732 34.3189L797.019 75.4772C797.459 75.9502 798.155 76.0492 798.799 76.0066C798.866 76.0022 798.932 76 799 76C800.657 76 802 77.3431 802 79ZM261 201.75C261.966 201.75 262.75 200.966 262.75 200C262.75 199.034 261.966 198.25 261 198.25C260.034 198.25 259.25 199.034 259.25 200C259.25 200.966 260.034 201.75 261 201.75ZM153.75 284C153.75 284.966 152.966 285.75 152 285.75C151.034 285.75 150.25 284.966 150.25 284C150.25 283.034 151.034 282.25 152 282.25C152.966 282.25 153.75 283.034 153.75 284ZM295 164.75C295.966 164.75 296.75 163.966 296.75 163C296.75 162.034 295.966 161.25 295 161.25C294.034 161.25 293.25 162.034 293.25 163C293.25 163.966 294.034 164.75 295 164.75ZM297.307 164.917C297.714 164.429 298.254 164 298.89 164H603.013C603.394 164 603.76 164.144 604.038 164.404L625.457 184.426C625.878 184.82 626 185.424 626 186C626 187.657 627.343 189 629 189C630.657 189 632 187.657 632 186C632 184.343 630.657 183 629 183C628.814 183 628.631 183.017 628.454 183.05C627.777 183.174 627.02 183.15 626.517 182.68L604.683 162.269C604.498 162.096 604.254 162 604 162H298.89C298.254 162 297.714 161.571 297.307 161.083C296.757 160.421 295.928 160 295 160C293.343 160 292 161.343 292 163C292 164.657 293.343 166 295 166C295.928 166 296.757 165.579 297.307 164.917ZM426.75 52.0001C426.75 52.9666 425.966 53.7501 425 53.7501C424.034 53.7501 423.25 52.9666 423.25 52.0001C423.25 51.0336 424.034 50.2501 425 50.2501C425.966 50.2501 426.75 51.0336 426.75 52.0001ZM427.308 53.9173C426.757 54.5789 425.928 55.0001 425 55.0001C423.343 55.0001 422 53.657 422 52.0001C422 50.3433 423.343 49.0001 425 49.0001C425.928 49.0001 426.757 49.4212 427.307 50.0828C427.714 50.5715 428.254 51 428.89 51H490C490.552 51 491 51.4477 491 52C491 52.5523 490.552 53 490 53H428.89C428.254 53 427.714 53.4286 427.308 53.9173ZM384 90.75C384.966 90.75 385.75 89.9665 385.75 89C385.75 88.0335 384.966 87.25 384 87.25C383.034 87.25 382.25 88.0335 382.25 89C382.25 89.9665 383.034 90.75 384 90.75ZM235.75 12C235.75 12.9665 234.966 13.75 234 13.75C233.034 13.75 232.25 12.9665 232.25 12C232.25 11.0335 233.034 10.25 234 10.25C234.966 10.25 235.75 11.0335 235.75 12ZM67 96.75C67.9665 96.75 68.75 95.9665 68.75 95C68.75 94.0335 67.9665 93.25 67 93.25C66.0335 93.25 65.25 94.0335 65.25 95C65.25 95.9665 66.0335 96.75 67 96.75ZM524.75 118C524.75 118.966 523.966 119.75 523 119.75C522.034 119.75 521.25 118.966 521.25 118C521.25 117.033 522.034 116.25 523 116.25C523.966 116.25 524.75 117.033 524.75 118ZM576 107.75C576.966 107.75 577.75 106.966 577.75 106C577.75 105.033 576.966 104.25 576 104.25C575.034 104.25 574.25 105.033 574.25 106C574.25 106.966 575.034 107.75 576 107.75ZM630.75 186C630.75 186.966 629.966 187.75 629 187.75C628.034 187.75 627.25 186.966 627.25 186C627.25 185.034 628.034 184.25 629 184.25C629.966 184.25 630.75 185.034 630.75 186ZM752 144.75C752.966 144.75 753.75 143.966 753.75 143C753.75 142.034 752.966 141.25 752 141.25C751.034 141.25 750.25 142.034 750.25 143C750.25 143.966 751.034 144.75 752 144.75ZM752 146C753.657 146 755 144.657 755 143C755 141.343 753.657 140 752 140C751.072 140 750.243 140.421 749.693 141.083C749.286 141.571 748.746 142 748.11 142H655.036C654.638 142 654.256 141.842 653.975 141.561L563.707 51.2929C563.52 51.1054 563.265 51 563 51H515C514.448 51 514 51.4477 514 52C514 52.5523 514.448 53 515 53H561.964C562.362 53 562.744 53.158 563.025 53.4393L653.293 143.707C653.48 143.895 653.735 144 654 144H748.11C748.746 144 749.286 144.429 749.693 144.917C750.243 145.579 751.072 146 752 146ZM845.75 315C845.75 315.966 844.966 316.75 844 316.75C843.034 316.75 842.25 315.966 842.25 315C842.25 314.034 843.034 313.25 844 313.25C844.966 313.25 845.75 314.034 845.75 315ZM846.307 316.917C845.757 317.579 844.928 318 844 318C842.343 318 841 316.657 841 315C841 313.343 842.343 312 844 312C844.928 312 845.757 312.421 846.307 313.083C846.714 313.571 847.254 314 847.89 314H997C997.552 314 998 314.448 998 315C998 315.552 997.552 316 997 316H847.89C847.254 316 846.714 316.429 846.307 316.917ZM794 382.75C794.966 382.75 795.75 381.966 795.75 381C795.75 380.034 794.966 379.25 794 379.25C793.034 379.25 792.25 380.034 792.25 381C792.25 381.966 793.034 382.75 794 382.75ZM796.307 382.917C796.714 382.429 797.254 382 797.89 382H997C997.552 382 998 381.552 998 381C998 380.448 997.552 380 997 380H797.89C797.254 380 796.714 379.571 796.307 379.083C795.757 378.421 794.928 378 794 378C792.343 378 791 379.343 791 381C791 382.657 792.343 384 794 384C794.928 384 795.757 383.579 796.307 382.917ZM885.75 433C885.75 433.966 884.966 434.75 884 434.75C883.034 434.75 882.25 433.966 882.25 433C882.25 432.034 883.034 431.25 884 431.25C884.966 431.25 885.75 432.034 885.75 433ZM886.307 434.917C885.757 435.579 884.928 436 884 436C882.343 436 881 434.657 881 433C881 431.343 882.343 430 884 430C884.928 430 885.757 430.421 886.307 431.083C886.714 431.571 887.254 432 887.89 432H997C997.552 432 998 432.448 998 433C998 433.552 997.552 434 997 434H887.89C887.254 434 886.714 434.429 886.307 434.917ZM759 404.75C759.966 404.75 760.75 403.966 760.75 403C760.75 402.034 759.966 401.25 759 401.25C758.034 401.25 757.25 402.034 757.25 403C757.25 403.966 758.034 404.75 759 404.75ZM759 406C759.577 406 760.183 406.121 760.579 406.54L776.773 423.687C776.964 423.889 777.23 424.002 777.508 424L836.042 423.508C836.415 423.505 836.776 423.641 837.054 423.89L857.952 442.564C858.574 443.12 858.623 444.076 858.062 444.693L830.004 475.51C829.72 475.822 829.317 476 828.895 476H735.891C735.483 476 735.094 475.834 734.811 475.541L651.72 389.306C651.532 389.111 651.272 389 651 389H551.89C551.254 389 550.714 388.571 550.307 388.083C549.757 387.421 548.928 387 548 387C546.343 387 545 388.343 545 390C545 391.657 546.343 393 548 393C548.928 393 549.757 392.579 550.307 391.917C550.714 391.429 551.254 391 551.89 391H649.937C650.345 391 650.735 391.166 651.017 391.459L730.028 473.459C730.946 474.412 730.271 476 728.948 476H595.89C595.254 476 594.714 475.571 594.307 475.083C593.757 474.421 592.928 474 592 474C590.343 474 589 475.343 589 477C589 478.657 590.343 480 592 480C592.928 480 593.757 479.579 594.307 478.917C594.714 478.429 595.254 478 595.89 478H733.765C734.173 478 734.563 478.166 734.845 478.459L742.78 486.694C742.968 486.889 743.228 487 743.5 487H997C997.552 487 998 486.552 998 486C998 485.448 997.552 485 997 485H744.563C744.155 485 743.765 484.834 743.483 484.541L739.628 480.541C738.711 479.588 739.386 478 740.709 478H830C830.281 478 830.55 477.881 830.739 477.673L859.476 446.11C860.052 445.478 861.04 445.454 861.646 446.06L874.793 459.207C874.98 459.395 875.235 459.5 875.5 459.5H997C997.552 459.5 998 459.052 998 458.5C998 457.948 997.552 457.5 997 457.5H876.536C876.138 457.5 875.756 457.342 875.475 457.061L861.207 442.793L861.187 442.773L861.166 442.754L837.666 421.754C837.481 421.589 837.24 421.498 836.992 421.5L778.582 421.991C778.165 421.994 777.765 421.824 777.479 421.521L762.33 405.481C761.855 404.979 761.829 404.218 761.952 403.538C761.983 403.364 762 403.184 762 403C762 401.343 760.657 400 759 400C757.343 400 756 401.343 756 403C756 404.657 757.343 406 759 406ZM593.75 477C593.75 477.966 592.966 478.75 592 478.75C591.034 478.75 590.25 477.966 590.25 477C590.25 476.034 591.034 475.25 592 475.25C592.966 475.25 593.75 476.034 593.75 477ZM741 70.75C741.966 70.75 742.75 69.9665 742.75 69C742.75 68.0335 741.966 67.25 741 67.25C740.034 67.25 739.25 68.0335 739.25 69C739.25 69.9665 740.034 70.75 741 70.75ZM628.75 35C628.75 35.9665 627.966 36.75 627 36.75C626.034 36.75 625.25 35.9665 625.25 35C625.25 34.0335 626.034 33.25 627 33.25C627.966 33.25 628.75 34.0335 628.75 35ZM826.75 60C826.75 60.9665 825.966 61.75 825 61.75C824.034 61.75 823.25 60.9665 823.25 60C823.25 59.0335 824.034 58.25 825 58.25C825.966 58.25 826.75 59.0335 826.75 60ZM828 60C828 61.6568 826.657 63 825 63C823.343 63 822 61.6568 822 60C822 58.3431 823.343 57 825 57C825.187 57 825.37 57.0171 825.548 57.0499C826.224 57.1748 826.981 57.151 827.484 56.6821L877.818 9.76846C878.003 9.59595 878.247 9.49999 878.5 9.49999H997C997.552 9.49999 998 9.94771 998 10.5C998 11.0523 997.552 11.5 997 11.5H879.484C879.105 11.5 878.739 11.6439 878.462 11.9027L828.544 58.4279C828.123 58.8205 828 59.4242 828 60ZM902 82.75C902.966 82.75 903.75 81.9665 903.75 81C903.75 80.0335 902.966 79.25 902 79.25C901.034 79.25 900.25 80.0335 900.25 81C900.25 81.9665 901.034 82.75 902 82.75ZM902 84C903.657 84 905 82.6568 905 81C905 79.3431 903.657 78 902 78C901.072 78 900.243 78.4212 899.693 79.0827C899.286 79.5715 898.746 80 898.11 80H837C836.735 80 836.48 80.1054 836.293 80.2929L809.5 107.086C809.109 107.476 809.109 108.109 809.5 108.5C809.891 108.891 810.524 108.891 810.914 108.5L836.975 82.4393C837.256 82.158 837.638 82 838.036 82H898.11C898.746 82 899.286 82.4285 899.693 82.9172C900.243 83.5788 901.072 84 902 84ZM548 391.75C548.966 391.75 549.75 390.966 549.75 390C549.75 389.034 548.966 388.25 548 388.25C547.034 388.25 546.25 389.034 546.25 390C546.25 390.966 547.034 391.75 548 391.75ZM725.75 519C725.75 519.966 724.966 520.75 724 520.75C723.034 520.75 722.25 519.966 722.25 519C722.25 518.034 723.034 517.25 724 517.25C724.966 517.25 725.75 518.034 725.75 519ZM727 519C727 520.657 725.657 522 724 522C723.072 522 722.243 521.579 721.693 520.917C721.286 520.429 720.746 520 720.11 520H472.102C471.681 520 471.279 520.177 470.995 520.488L356.384 645.921C355.967 646.377 355.91 647.041 355.98 647.654C355.993 647.768 356 647.883 356 648C356 649.657 354.657 651 353 651C351.343 651 350 649.657 350 648C350 646.343 351.343 645 353 645C353.068 645 353.136 645.002 353.203 645.007C353.856 645.05 354.563 644.949 355.004 644.466L470.262 518.325C470.451 518.118 470.719 518 471 518H720.11C720.746 518 721.286 517.571 721.693 517.083C722.243 516.421 723.072 516 724 516C725.657 516 727 517.343 727 519ZM681 539.75C681.966 539.75 682.75 538.966 682.75 538C682.75 537.034 681.966 536.25 681 536.25C680.034 536.25 679.25 537.034 679.25 538C679.25 538.966 680.034 539.75 681 539.75ZM683.307 539.917C682.757 540.579 681.928 541 681 541C679.343 541 678 539.657 678 538C678 536.343 679.343 535 681 535C681.928 535 682.757 535.421 683.307 536.083C683.714 536.571 684.254 537 684.89 537H997C997.552 537 998 537.448 998 538C998 538.552 997.552 539 997 539H684.89C684.254 539 683.714 539.429 683.307 539.917ZM742.75 608C742.75 608.966 741.966 609.75 741 609.75C740.034 609.75 739.25 608.966 739.25 608C739.25 607.034 740.034 606.25 741 606.25C741.966 606.25 742.75 607.034 742.75 608ZM743.307 609.917C743.714 609.429 744.254 609 744.89 609H947C947.24 609 947.472 608.914 947.654 608.757L976.45 583.865C976.722 583.63 977.071 583.5 977.431 583.5H997C997.552 583.5 998 583.052 998 582.5C998 581.948 997.552 581.5 997 581.5H976.5C976.26 581.5 976.028 581.586 975.846 581.743L947.05 606.635C946.778 606.87 946.429 607 946.069 607H744.89C744.254 607 743.714 606.571 743.307 606.083C742.757 605.421 741.928 605 741 605C739.343 605 738 606.343 738 608C738 609.657 739.343 611 741 611C741.928 611 742.757 610.579 743.307 609.917ZM693 593.75C693.966 593.75 694.75 592.966 694.75 592C694.75 591.034 693.966 590.25 693 590.25C692.034 590.25 691.25 591.034 691.25 592C691.25 592.966 692.034 593.75 693 593.75ZM695.956 592.517C695.985 592.349 696 592.176 696 592C696 590.343 694.657 589 693 589C691.343 589 690 590.343 690 592C690 593.657 691.343 595 693 595H693.014C693.586 594.997 694.187 595.112 694.586 595.523L729.283 631.197C729.471 631.391 729.73 631.5 730 631.5H984C984.265 631.5 984.52 631.395 984.707 631.207L998 617.914C998.391 617.524 998.391 616.89 998 616.5C997.609 616.109 996.976 616.109 996.586 616.5L984.025 629.061C983.744 629.342 983.362 629.5 982.964 629.5H731.056C730.651 629.5 730.263 629.336 729.981 629.046L696.356 594.474C695.87 593.974 695.836 593.205 695.956 592.517ZM433.75 627C433.75 627.966 432.966 628.75 432 628.75C431.034 628.75 430.25 627.966 430.25 627C430.25 626.034 431.034 625.25 432 625.25C432.966 625.25 433.75 626.034 433.75 627ZM434.307 628.917C433.757 629.579 432.928 630 432 630C430.343 630 429 628.657 429 627C429 625.343 430.343 624 432 624C432.928 624 433.757 624.421 434.307 625.083C434.714 625.571 435.254 626 435.89 626H498.5C498.765 626 499.02 626.105 499.207 626.293L515.411 642.497C515.811 642.897 516.404 643.006 516.97 643L517 643C518.657 643 520 644.343 520 646C520 647.657 518.657 649 517 649C515.343 649 514 647.657 514 646C514 645.831 514.014 645.665 514.041 645.504C514.157 644.809 514.116 644.03 513.618 643.532L498.525 628.439C498.244 628.158 497.862 628 497.464 628H435.89C435.254 628 434.714 628.429 434.307 628.917ZM353 649.75C353.966 649.75 354.75 648.966 354.75 648C354.75 647.034 353.966 646.25 353 646.25C352.034 646.25 351.25 647.034 351.25 648C351.25 648.966 352.034 649.75 353 649.75ZM449.75 592C449.75 592.966 448.966 593.75 448 593.75C447.034 593.75 446.25 592.966 446.25 592C446.25 591.034 447.034 590.25 448 590.25C448.966 590.25 449.75 591.034 449.75 592ZM450.307 593.917C450.714 593.429 451.254 593 451.89 593H553.564C553.926 593 554.276 593.131 554.549 593.369L583.488 618.574C584.044 619.058 584.12 619.878 584.025 620.609C584.009 620.737 584 620.868 584 621C584 622.657 585.343 624 587 624C588.657 624 590 622.657 590 621C590 619.343 588.657 618 587 618C586.964 618 586.927 618.001 586.891 618.002C586.36 618.021 585.805 617.939 585.404 617.59L555.157 591.246C554.975 591.087 554.741 591 554.5 591H451.89C451.254 591 450.714 590.571 450.307 590.083C449.757 589.421 448.928 589 448 589C446.343 589 445 590.343 445 592C445 593.657 446.343 595 448 595C448.928 595 449.757 594.579 450.307 593.917ZM474 563.75C474.966 563.75 475.75 562.966 475.75 562C475.75 561.034 474.966 560.25 474 560.25C473.034 560.25 472.25 561.034 472.25 562C472.25 562.966 473.034 563.75 474 563.75ZM476.307 563.917C476.714 563.429 477.254 563 477.89 563H645.5H674.693C676.01 563 676.688 564.575 675.783 565.531L602.02 643.495C601.575 643.966 600.877 644.058 600.231 644.009C600.155 644.003 600.078 644 600 644C598.343 644 597 645.343 597 647C597 648.657 598.343 650 600 650C601.657 650 603 648.657 603 647C603 646.948 602.999 646.897 602.996 646.845C602.993 646.79 602.989 646.735 602.983 646.681C602.918 646.06 602.983 645.388 603.412 644.934L680.487 563.469C680.77 563.17 681.164 563 681.576 563H997C997.552 563 998 562.552 998 562C998 561.448 997.552 561 997 561H680.5H646.396C646.048 561 645.711 560.879 645.443 560.659L609.635 531.227C609.456 531.08 609.232 531 609 531H579.89C579.254 531 578.714 530.571 578.307 530.083C577.757 529.421 576.928 529 576 529C574.343 529 573 530.343 573 532C573 533.657 574.343 535 576 535C576.928 535 577.757 534.579 578.307 533.917C578.714 533.429 579.254 533 579.89 533H608.104C608.452 533 608.789 533.121 609.057 533.341L639.474 558.341C640.561 559.235 639.929 561 638.521 561H477.89C477.254 561 476.714 560.571 476.307 560.083C475.757 559.421 474.928 559 474 559C472.343 559 471 560.343 471 562C471 563.657 472.343 565 474 565C474.928 565 475.757 564.579 476.307 563.917ZM577.75 532C577.75 532.966 576.966 533.75 576 533.75C575.034 533.75 574.25 532.966 574.25 532C574.25 531.034 575.034 530.25 576 530.25C576.966 530.25 577.75 531.034 577.75 532ZM587 622.75C587.966 622.75 588.75 621.966 588.75 621C588.75 620.034 587.966 619.25 587 619.25C586.034 619.25 585.25 620.034 585.25 621C585.25 621.966 586.034 622.75 587 622.75ZM518.75 646C518.75 646.966 517.966 647.75 517 647.75C516.034 647.75 515.25 646.966 515.25 646C515.25 645.034 516.034 644.25 517 644.25C517.966 644.25 518.75 645.034 518.75 646ZM600 648.75C600.966 648.75 601.75 647.966 601.75 647C601.75 646.034 600.966 645.25 600 645.25C599.034 645.25 598.25 646.034 598.25 647C598.25 647.966 599.034 648.75 600 648.75ZM87.75 473C87.75 473.966 86.9665 474.75 86 474.75C85.0335 474.75 84.25 473.966 84.25 473C84.25 472.034 85.0335 471.25 86 471.25C86.9665 471.25 87.75 472.034 87.75 473ZM89.8901 472C89.2543 472 88.714 471.571 88.3075 471.083C87.7572 470.421 86.9278 470 86 470C84.3431 470 83 471.343 83 473C83 474.657 84.3431 476 86 476C86.9278 476 87.7572 475.579 88.3075 474.917C88.714 474.429 89.2543 474 89.8901 474H325C325.265 474 325.52 473.895 325.707 473.707L367.975 431.439C368.256 431.158 368.638 431 369.035 431H516.964C517.362 431 517.744 431.158 518.025 431.439L590.793 504.207C590.98 504.395 591.235 504.5 591.5 504.5H785.691C786.006 504.5 786.314 504.6 786.57 504.785L809.414 521.31C809.584 521.434 809.79 521.5 810 521.5H997C997.552 521.5 998 521.052 998 520.5C998 519.948 997.552 519.5 997 519.5H810.809C810.494 519.5 810.186 519.4 809.93 519.215L787.086 502.69C786.916 502.566 786.71 502.5 786.5 502.5H592.536C592.138 502.5 591.756 502.342 591.475 502.061L518.707 429.293C518.52 429.105 518.265 429 518 429H368C367.735 429 367.48 429.105 367.293 429.293L325.025 471.561C324.744 471.842 324.362 472 323.964 472H89.8901ZM166 361.75C166.966 361.75 167.75 360.966 167.75 360C167.75 359.034 166.966 358.25 166 358.25C165.034 358.25 164.25 359.034 164.25 360C164.25 360.966 165.034 361.75 166 361.75ZM191.75 573C191.75 573.966 190.966 574.75 190 574.75C189.034 574.75 188.25 573.966 188.25 573C188.25 572.034 189.034 571.25 190 571.25C190.966 571.25 191.75 572.034 191.75 573ZM193.89 572C193.254 572 192.714 571.571 192.307 571.083C191.757 570.421 190.928 570 190 570C188.343 570 187 571.343 187 573C187 574.657 188.343 576 190 576C190.928 576 191.757 575.579 192.307 574.917C192.714 574.429 193.254 574 193.89 574H370C370.285 574 370.557 573.878 370.746 573.666L387.237 555.176L387.246 555.166L458.994 476.986C459.278 476.676 459.679 476.5 460.099 476.5H522.5C523.052 476.5 523.5 476.052 523.5 475.5C523.5 474.948 523.052 474.5 522.5 474.5H459C458.72 474.5 458.453 474.617 458.263 474.824L387.538 551.89C386.958 552.522 385.969 552.54 385.366 551.93L344.211 510.297C344.023 510.107 343.767 510 343.5 510H247.89C247.254 510 246.714 509.571 246.307 509.083C245.757 508.421 244.928 508 244 508C242.343 508 241 509.343 241 511C241 512.657 242.343 514 244 514C244.928 514 245.757 513.579 246.307 512.917C246.714 512.429 247.254 512 247.89 512H342.456C342.857 512 343.241 512.16 343.523 512.445L384.138 553.533C384.695 554.097 384.718 554.995 384.191 555.586L369.999 571.498C369.715 571.817 369.307 572 368.88 572H193.89ZM244 512.75C244.966 512.75 245.75 511.966 245.75 511C245.75 510.034 244.966 509.25 244 509.25C243.034 509.25 242.25 510.034 242.25 511C242.25 511.966 243.034 512.75 244 512.75ZM497 53C496.448 53 496 52.5523 496 52C496 51.4477 496.448 51 497 51H503.5C504.052 51 504.5 51.4477 504.5 52C504.5 52.5523 504.052 53 503.5 53H497ZM373.5 65C372.948 65 372.5 64.5523 372.5 64C372.5 63.4477 372.948 63 373.5 63H386.5C387.052 63 387.5 63.4477 387.5 64C387.5 64.5523 387.052 65 386.5 65H373.5ZM251 478.414C251.391 478.024 251.391 477.39 251 477C250.609 476.609 249.976 476.609 249.586 477L224.025 502.561C223.744 502.842 223.362 503 222.964 503H116.5C115.948 503 115.5 503.448 115.5 504C115.5 504.552 115.948 505 116.5 505H224C224.265 505 224.52 504.895 224.707 504.707L251 478.414Z" fill="#2481DD"/>
</svg>
