<svg width="943" height="580" viewBox="0 0 943 580" fill="none" xmlns="http://www.w3.org/2000/svg">
<path fill-rule="evenodd" clip-rule="evenodd" d="M501 1.5C501 0.671573 501.672 0 502.5 0H503.5C504.328 0 505 0.671573 505 1.5V8.5C505 9.32843 504.328 10 503.5 10H502.5C501.672 10 501 9.32843 501 8.5V1.5ZM504 28C505.039 28 505.954 27.4723 506.492 26.6704C506.901 26.0622 507.495 25.5 508.228 25.5H941C941.552 25.5 942 25.0523 942 24.5V24.5C942 23.9477 941.552 23.5 941 23.5H507.464C506.928 23.5 506.453 23.1917 506.064 22.8232C505.527 22.313 504.8 22 504 22C502.343 22 501 23.3431 501 25C501 26.6569 502.343 28 504 28ZM870 78V78C869.715 78 869.443 78.1218 869.253 78.3346V78.3346L817.145 136.797C816.558 137.457 815.53 137.468 814.928 136.822L769.732 88.3183V88.3183C769.542 88.1153 769.277 88 769 88V88H605.89C605.254 88 604.714 87.5715 604.307 87.0828C603.757 86.4212 602.928 86 602 86C600.343 86 599 87.3431 599 89C599 90.6569 600.343 92 602 92C602.928 92 603.757 91.5788 604.307 90.9172C604.714 90.4285 605.254 90 605.89 90H767.912C768.329 90 768.726 90.1729 769.01 90.4774L813.782 138.525C814.31 139.092 814.32 139.968 813.804 140.546L799.854 156.197C799.281 156.841 798.284 156.869 797.674 156.26L796.707 155.293V155.293C796.519 155.105 796.265 155 796 155V155H706V155C705.722 155 705.456 155.116 705.267 155.32V155.32L680.509 182.02C680.225 182.326 679.826 182.5 679.409 182.5H584.464C583.928 182.5 583.453 182.192 583.064 181.823C582.527 181.313 581.8 181 581 181C579.343 181 578 182.343 578 184C578 185.657 579.343 187 581 187C582.039 187 582.954 186.472 583.492 185.67C583.901 185.062 584.495 184.5 585.228 184.5H680.5V184.5C680.778 184.5 681.044 184.384 681.233 184.18V184.18L705.991 157.48C706.275 157.174 706.674 157 707.091 157H794.964C795.362 157 795.744 157.158 796.025 157.439L796.463 157.877C797.025 158.439 797.051 159.342 796.522 159.936L767.499 192.498C767.215 192.817 766.807 193 766.379 193H687.5V193C687.209 193 686.932 193.127 686.742 193.348V193.348L665.99 217.478C665.705 217.809 665.29 218 664.853 218H541.048C540.646 218 540.261 217.838 539.978 217.551L538.996 216.551C538.064 215.603 538.736 214 540.066 214H550.11C550.746 214 551.286 214.429 551.693 214.917C552.243 215.579 553.072 216 554 216C555.657 216 557 214.657 557 213C557 211.343 555.657 210 554 210C553.072 210 552.243 210.421 551.693 211.083C551.286 211.571 550.746 212 550.11 212H535.153C534.75 212 534.365 211.838 534.083 211.551L501.165 178.051C500.233 177.103 500.905 175.5 502.235 175.5H534V175.5C534.274 175.5 534.535 175.388 534.724 175.19V175.19L552.511 156.514C552.886 156.119 553.455 156 554 156V156C555.657 156 557 154.657 557 153C557 151.343 555.657 150 554 150C552.343 150 551 151.343 551 153C551 153.193 551.018 153.381 551.053 153.563C551.184 154.254 551.162 155.03 550.677 155.539L534.015 173.034C533.732 173.332 533.339 173.5 532.929 173.5H497.322C496.92 173.5 496.534 173.338 496.252 173.051L484.213 160.799V160.799C484.025 160.608 483.768 160.5 483.5 160.5V160.5H423.464C422.928 160.5 422.453 160.192 422.064 159.823C421.527 159.313 420.8 159 420 159C418.343 159 417 160.343 417 162C417 163.657 418.343 165 420 165C421.039 165 421.954 164.472 422.492 163.67C422.901 163.062 423.495 162.5 424.228 162.5H482.452C482.854 162.5 483.239 162.662 483.522 162.949L491.382 170.949C492.315 171.897 491.642 173.5 490.312 173.5H423.228C422.495 173.5 421.901 172.938 421.492 172.33C420.954 171.528 420.039 171 419 171C417.343 171 416 172.343 416 174C416 175.657 417.343 177 419 177C419.8 177 420.527 176.687 421.064 176.177C421.453 175.808 421.928 175.5 422.464 175.5H495.226C495.628 175.5 496.013 175.662 496.295 175.949L529.213 209.449C530.145 210.397 529.473 212 528.143 212H411.425C411.067 212 410.72 211.872 410.449 211.639L341.151 152.241V152.241C340.97 152.085 340.739 152 340.5 152V152H258.56C258.153 152 257.764 151.835 257.482 151.543L245.241 138.894C244.707 138.343 244.724 137.476 244.91 136.731C244.969 136.497 245 136.252 245 136C245 134.343 243.657 133 242 133C240.343 133 239 134.343 239 136C239 137.657 240.343 139 242 139V139C242.325 139 242.652 139.095 242.878 139.329L256.781 153.695V153.695C256.97 153.89 257.229 154 257.5 154V154H339.575C339.933 154 340.28 154.128 340.551 154.361L409.849 213.759V213.759C410.03 213.915 410.261 214 410.5 214V214H533.056C533.458 214 533.844 214.162 534.126 214.449L539.287 219.701V219.701C539.475 219.892 539.732 220 540 220V220H666V220C666.291 220 666.568 219.873 666.758 219.652V219.652L687.51 195.522C687.795 195.191 688.21 195 688.647 195H767.5V195C767.785 195 768.057 194.878 768.247 194.665V194.665L797.824 161.481C798.397 160.837 799.394 160.809 800.004 161.419L816.793 178.207V178.207C816.98 178.395 817.235 178.5 817.5 178.5V178.5H941C941.552 178.5 942 178.052 942 177.5V177.5C942 176.948 941.552 176.5 941 176.5H818.535C818.138 176.5 817.756 176.342 817.475 176.061L801.215 159.801C800.653 159.239 800.627 158.336 801.156 157.742L814.988 142.224C815.576 141.564 816.603 141.553 817.205 142.199L829.768 155.682V155.682C829.958 155.885 830.223 156 830.5 156V156H941C941.552 156 942 155.552 942 155V155C942 154.448 941.552 154 941 154H831.588C831.171 154 830.774 153.827 830.49 153.523L818.352 140.496C817.823 139.929 817.814 139.053 818.329 138.475L870.001 80.5019C870.285 80.1826 870.693 80 871.121 80H904.479C905.856 80 906.505 81.701 905.478 82.6186L894.235 92.6622C893.761 93.086 893.072 93.1255 892.443 93.0324C892.298 93.0111 892.15 93 892 93C890.343 93 889 94.3431 889 96C889 97.6569 890.343 99 892 99C893.657 99 895 97.6569 895 96C895 95.9642 894.999 95.9284 894.998 95.8929C894.976 95.2573 895.093 94.5775 895.568 94.1539L910.985 80.3814C911.259 80.1358 911.615 80 911.984 80H941C941.552 80 942 79.5523 942 79V79C942 78.4477 941.552 78 941 78H917.581C916.203 78 915.554 76.299 916.582 75.3814L929.455 63.8814C929.73 63.6358 930.085 63.5 930.454 63.5H941C941.552 63.5 942 63.0523 942 62.5V62.5C942 61.9477 941.552 61.5 941 61.5H929.5V61.5C929.254 61.5 929.017 61.5905 928.834 61.7542V61.7542L911.075 77.6186C910.8 77.8642 910.444 78 910.076 78H870ZM420 160C421.105 160 422 160.895 422 162C422 163.105 421.105 164 420 164C418.895 164 418 163.105 418 162C418 160.895 418.895 160 420 160ZM124.531 196.923C124.251 196.652 123.877 196.5 123.487 196.5H50.4638C49.9284 196.5 49.4528 196.808 49.0644 197.177C48.5266 197.687 47.7998 198 47 198C45.3431 198 44 196.657 44 195C44 193.343 45.3431 192 47 192C48.0385 192 48.9538 192.528 49.4923 193.33C49.9008 193.938 50.4952 194.5 51.2278 194.5H124.5V194.5C124.76 194.5 125.01 194.601 125.196 194.782V194.782L157.969 226.577C158.249 226.848 158.623 227 159.013 227H315.464C315.862 227 316.244 226.842 316.525 226.561L322.618 220.468C323.116 219.97 323.157 219.191 323.041 218.496C323.014 218.335 323 218.169 323 218C323 216.343 324.343 215 326 215C327.657 215 329 216.343 329 218C329 219.657 327.657 221 326 221C325.99 221 325.98 221 325.97 221C325.404 220.994 324.811 221.103 324.411 221.503L317.207 228.707V228.707C317.02 228.895 316.765 229 316.5 229V229H158V229C157.74 229 157.49 228.899 157.304 228.718V228.718L124.531 196.923ZM206.89 525C206.254 525 205.714 524.571 205.308 524.083C204.757 523.421 203.928 523 203 523C201.343 523 200 524.343 200 526C200 527.657 201.343 529 203 529C203.928 529 204.757 528.579 205.308 527.917C205.714 527.429 206.254 527 206.89 527H443.11C443.746 527 444.286 527.429 444.693 527.917C445.243 528.579 446.072 529 447 529C448.657 529 450 527.657 450 526C450 524.343 448.657 523 447 523C446.072 523 445.243 523.421 444.693 524.083C444.286 524.571 443.746 525 443.11 525H206.89ZM488.224 577.689L555.02 507.505C555.461 507.042 556.149 506.948 556.787 506.993C556.857 506.997 556.928 507 557 507C558.657 507 560 505.657 560 504C560 502.343 558.657 501 557 501C555.343 501 554 502.343 554 504C554 504.114 554.006 504.227 554.019 504.337C554.089 504.966 554.026 505.649 553.59 506.107L487.515 575.534C487.231 575.832 486.839 576 486.428 576H328.89C328.254 576 327.714 575.571 327.307 575.083C326.757 574.421 325.928 574 325 574C323.343 574 322 575.343 322 577C322 578.657 323.343 580 325 580C325.928 580 326.757 579.579 327.307 578.917C327.714 578.429 328.254 578 328.89 578H487.5V578C487.774 578 488.036 577.888 488.224 577.689V577.689ZM527.862 447.997C527.219 447.968 526.529 448.08 526.099 448.559L497.744 480.168V480.168C497.555 480.379 497.284 480.5 497 480.5V480.5H419.464C418.928 480.5 418.453 480.808 418.064 481.177C417.527 481.687 416.8 482 416 482C414.343 482 413 480.657 413 479C413 477.343 414.343 476 416 476C417.039 476 417.954 476.528 418.492 477.33C418.901 477.938 419.495 478.5 420.228 478.5H495.884C496.31 478.5 496.716 478.319 497.001 478.002L524.648 447.181C525.068 446.713 525.113 446.034 525.028 445.411C525.01 445.277 525 445.14 525 445C525 443.343 526.343 442 528 442C529.657 442 531 443.343 531 445C531 446.657 529.657 448 528 448C527.954 448 527.907 447.999 527.862 447.997ZM479.307 393.917C479.714 393.429 480.254 393 480.89 393H500.337C500.779 393 501.199 393.195 501.484 393.534L516.735 411.644V411.644C516.925 411.87 517.205 412 517.5 412V412H533.11C533.746 412 534.286 412.429 534.693 412.917C535.243 413.579 536.072 414 537 414C538.657 414 540 412.657 540 411C540 409.343 538.657 408 537 408C536.072 408 535.243 408.421 534.693 409.083C534.286 409.571 533.746 410 533.11 410H518.663C518.221 410 517.801 409.805 517.516 409.466L502.265 391.356V391.356C502.075 391.13 501.795 391 501.5 391V391H480.89C480.254 391 479.714 390.571 479.307 390.083C478.757 389.421 477.928 389 477 389C475.343 389 474 390.343 474 392C474 393.657 475.343 395 477 395C477.928 395 478.757 394.579 479.307 393.917ZM730.307 226.083C730.714 226.571 731.254 227 731.89 227H762V227C762.265 227 762.52 227.105 762.707 227.293V227.293L787.939 252.525C788.525 253.111 789.475 253.111 790.061 252.525L804.793 237.793V237.793C804.98 237.605 805.235 237.5 805.5 237.5V237.5H941C941.552 237.5 942 237.948 942 238.5V238.5C942 239.052 941.552 239.5 941 239.5H806.536C806.138 239.5 805.756 239.658 805.475 239.939L789.707 255.707L781.207 264.207V264.207C781.02 264.395 780.765 264.5 780.5 264.5V264.5H522.228C521.495 264.5 520.901 265.062 520.492 265.67C519.954 266.472 519.039 267 518 267C516.343 267 515 265.657 515 264C515 262.343 516.343 261 518 261C518.8 261 519.527 261.313 520.064 261.823C520.453 262.192 520.928 262.5 521.464 262.5H779.464C779.862 262.5 780.244 262.342 780.525 262.061L786.525 256.061C787.111 255.475 787.111 254.525 786.525 253.939L762.025 229.439C761.744 229.158 761.362 229 760.964 229H731.89C731.254 229 730.714 229.429 730.307 229.917C729.757 230.579 728.928 231 728 231C726.343 231 725 229.657 725 228C725 226.343 726.343 225 728 225C728.928 225 729.757 225.421 730.307 226.083ZM721.5 205V205C721.218 205 720.95 205.119 720.76 205.327V205.327L686.004 243.51C685.72 243.822 685.317 244 684.895 244H498.89C498.254 244 497.714 243.571 497.307 243.083C496.757 242.421 495.928 242 495 242C493.343 242 492 243.343 492 245C492 246.657 493.343 248 495 248C495.928 248 496.757 247.579 497.307 246.917C497.714 246.429 498.254 246 498.89 246H686V246C686.282 246 686.55 245.881 686.74 245.673V245.673L721.496 207.49C721.78 207.178 722.183 207 722.605 207H801.065C801.427 207 801.776 207.131 802.049 207.368L812.844 216.755V216.755C813.026 216.913 813.259 217 813.5 217V217H941C941.552 217 942 216.552 942 216V216C942 215.448 941.552 215 941 215H814.435C814.073 215 813.724 214.869 813.451 214.632L802.656 205.245V205.245C802.474 205.087 802.241 205 802 205V205H721.5ZM361.286 33.5305C362.19 32.5741 361.512 31 360.196 31H207.89C207.254 31 206.714 31.4285 206.308 31.9173C205.757 32.5788 204.928 33 204 33C202.343 33 201 31.6569 201 30C201 28.3431 202.343 27 204 27C204.928 27 205.757 27.4212 206.308 28.0827C206.714 28.5715 207.254 29 207.89 29H366H426V29C426.251 29 426.492 29.0941 426.677 29.2636V29.2636L468.959 68.1047C469.236 68.3589 469.598 68.5 469.974 68.5H588.536C589.072 68.5 589.547 68.1918 589.936 67.8232C590.473 67.313 591.2 67 592 67C593.657 67 595 68.3431 595 70C595 71.6569 593.657 73 592 73C590.961 73 590.046 72.4723 589.508 71.6704C589.099 71.0622 588.505 70.5 587.772 70.5H469V70.5C468.749 70.5 468.508 70.4059 468.323 70.2364V70.2364L426.041 31.3953C425.764 31.1411 425.402 31 425.026 31H367.077C366.664 31 366.27 31.1698 365.987 31.4695L340.727 58.187V58.187C340.538 58.3868 340.275 58.5 340 58.5V58.5H251.464C250.928 58.5 250.453 58.8083 250.064 59.1768C249.527 59.687 248.8 60 248 60C246.343 60 245 58.6569 245 57C245 55.3431 246.343 54 248 54C249.039 54 249.954 54.5277 250.492 55.3296C250.901 55.9378 251.495 56.5 252.228 56.5H338.923C339.336 56.5 339.73 56.3302 340.013 56.0305L361.286 33.5305ZM52 122C52 121.448 51.5523 121 51 121V121C50.4477 121 50 121.448 50 122V149C50 149.552 50.4477 150 51 150V150C51.5523 150 52 149.552 52 149V122ZM56.7188 122C56.7188 121.448 56.271 121 55.7188 121V121C55.1665 121 54.7188 121.448 54.7188 122V149C54.7188 149.552 55.1665 150 55.7188 150V150C56.271 150 56.7188 149.552 56.7188 149V122ZM59.4375 122C59.4375 121.448 59.8852 121 60.4375 121V121C60.9898 121 61.4375 121.448 61.4375 122V149C61.4375 149.552 60.9898 150 60.4375 150V150C59.8852 150 59.4375 149.552 59.4375 149V122ZM66.1562 122C66.1562 121.448 65.7085 121 65.1562 121V121C64.604 121 64.1562 121.448 64.1562 122V149C64.1562 149.552 64.604 150 65.1562 150V150C65.7085 150 66.1562 149.552 66.1562 149V122ZM68.875 122C68.875 121.448 69.3227 121 69.875 121V121C70.4273 121 70.875 121.448 70.875 122V149C70.875 149.552 70.4273 150 69.875 150V150C69.3227 150 68.875 149.552 68.875 149V122ZM75.5938 122C75.5938 121.448 75.146 121 74.5938 121V121C74.0415 121 73.5938 121.448 73.5938 122V149C73.5938 149.552 74.0415 150 74.5938 150V150C75.146 150 75.5938 149.552 75.5938 149V122ZM78.3125 122C78.3125 121.448 78.7602 121 79.3125 121V121C79.8648 121 80.3125 121.448 80.3125 122V149C80.3125 149.552 79.8648 150 79.3125 150V150C78.7602 150 78.3125 149.552 78.3125 149V122ZM85.0312 122C85.0312 121.448 84.5835 121 84.0312 121V121C83.479 121 83.0312 121.448 83.0312 122V149C83.0312 149.552 83.479 150 84.0312 150V150C84.5835 150 85.0312 149.552 85.0312 149V122ZM87.75 122C87.75 121.448 88.1977 121 88.75 121V121C89.3023 121 89.75 121.448 89.75 122V149C89.75 149.552 89.3023 150 88.75 150V150C88.1977 150 87.75 149.552 87.75 149V122ZM94.4688 122C94.4688 121.448 94.021 121 93.4688 121V121C92.9165 121 92.4688 121.448 92.4688 122V149C92.4688 149.552 92.9165 150 93.4688 150V150C94.021 150 94.4688 149.552 94.4688 149V122ZM97.1875 122C97.1875 121.448 97.6352 121 98.1875 121V121C98.7398 121 99.1875 121.448 99.1875 122V149C99.1875 149.552 98.7398 150 98.1875 150V150C97.6352 150 97.1875 149.552 97.1875 149V122ZM103.906 122C103.906 121.448 103.459 121 102.906 121V121C102.354 121 101.906 121.448 101.906 122V149C101.906 149.552 102.354 150 102.906 150V150C103.459 150 103.906 149.552 103.906 149V122ZM106.625 122C106.625 121.448 107.073 121 107.625 121V121C108.177 121 108.625 121.448 108.625 122V149C108.625 149.552 108.177 150 107.625 150V150C107.073 150 106.625 149.552 106.625 149V122ZM113.344 122C113.344 121.448 112.896 121 112.344 121V121C111.791 121 111.344 121.448 111.344 122V149C111.344 149.552 111.791 150 112.344 150V150C112.896 150 113.344 149.552 113.344 149V122ZM116.062 122C116.062 121.448 116.51 121 117.062 121V121C117.615 121 118.062 121.448 118.062 122V149C118.062 149.552 117.615 150 117.062 150V150C116.51 150 116.062 149.552 116.062 149V122ZM122.781 122C122.781 121.448 122.334 121 121.781 121V121C121.229 121 120.781 121.448 120.781 122V149C120.781 149.552 121.229 150 121.781 150V150C122.334 150 122.781 149.552 122.781 149V122ZM125.5 122C125.5 121.448 125.948 121 126.5 121V121C127.052 121 127.5 121.448 127.5 122V149C127.5 149.552 127.052 150 126.5 150V150C125.948 150 125.5 149.552 125.5 149V122ZM132.219 122C132.219 121.448 131.771 121 131.219 121V121C130.666 121 130.219 121.448 130.219 122V149C130.219 149.552 130.666 150 131.219 150V150C131.771 150 132.219 149.552 132.219 149V122ZM134.938 122C134.938 121.448 135.385 121 135.938 121V121C136.49 121 136.938 121.448 136.938 122V149C136.938 149.552 136.49 150 135.938 150V150C135.385 150 134.938 149.552 134.938 149V122ZM141.656 122C141.656 121.448 141.209 121 140.656 121V121C140.104 121 139.656 121.448 139.656 122V149C139.656 149.552 140.104 150 140.656 150V150C141.209 150 141.656 149.552 141.656 149V122ZM144.375 122C144.375 121.448 144.823 121 145.375 121V121C145.927 121 146.375 121.448 146.375 122V149C146.375 149.552 145.927 150 145.375 150V150C144.823 150 144.375 149.552 144.375 149V122ZM151.094 122C151.094 121.448 150.646 121 150.094 121V121C149.541 121 149.094 121.448 149.094 122V149C149.094 149.552 149.541 150 150.094 150V150C150.646 150 151.094 149.552 151.094 149V122ZM153.812 122C153.812 121.448 154.26 121 154.812 121V121C155.365 121 155.812 121.448 155.812 122V149C155.812 149.552 155.365 150 154.812 150V150C154.26 150 153.812 149.552 153.812 149V122ZM160.531 122C160.531 121.448 160.084 121 159.531 121V121C158.979 121 158.531 121.448 158.531 122V149C158.531 149.552 158.979 150 159.531 150V150C160.084 150 160.531 149.552 160.531 149V122ZM163.25 122C163.25 121.448 163.698 121 164.25 121V121C164.802 121 165.25 121.448 165.25 122V149C165.25 149.552 164.802 150 164.25 150V150C163.698 150 163.25 149.552 163.25 149V122ZM169.969 122C169.969 121.448 169.521 121 168.969 121V121C168.416 121 167.969 121.448 167.969 122V149C167.969 149.552 168.416 150 168.969 150V150C169.521 150 169.969 149.552 169.969 149V122ZM172.688 122C172.688 121.448 173.135 121 173.688 121V121C174.24 121 174.688 121.448 174.688 122V149C174.688 149.552 174.24 150 173.688 150V150C173.135 150 172.688 149.552 172.688 149V122ZM179.406 122C179.406 121.448 178.959 121 178.406 121V121C177.854 121 177.406 121.448 177.406 122V149C177.406 149.552 177.854 150 178.406 150V150C178.959 150 179.406 149.552 179.406 149V122ZM182.125 122C182.125 121.448 182.573 121 183.125 121V121C183.677 121 184.125 121.448 184.125 122V149C184.125 149.552 183.677 150 183.125 150V150C182.573 150 182.125 149.552 182.125 149V122ZM188.844 122C188.844 121.448 188.396 121 187.844 121V121C187.291 121 186.844 121.448 186.844 122V149C186.844 149.552 187.291 150 187.844 150V150C188.396 150 188.844 149.552 188.844 149V122ZM191.562 122C191.562 121.448 192.01 121 192.562 121V121C193.115 121 193.562 121.448 193.562 122V149C193.562 149.552 193.115 150 192.562 150V150C192.01 150 191.562 149.552 191.562 149V122ZM198.281 122C198.281 121.448 197.834 121 197.281 121V121C196.729 121 196.281 121.448 196.281 122V149C196.281 149.552 196.729 150 197.281 150V150C197.834 150 198.281 149.552 198.281 149V122ZM201 122C201 121.448 201.448 121 202 121V121C202.552 121 203 121.448 203 122V149C203 149.552 202.552 150 202 150V150C201.448 150 201 149.552 201 149V122ZM23 104C23.9278 104 24.7572 103.579 25.3075 102.917C25.714 102.429 26.2543 102 26.89 102H361.551C361.918 102 362.272 102.135 362.546 102.378L398.423 134.218C398.892 134.635 399.015 135.303 399.001 135.931C399 135.954 399 135.977 399 136C399 137.657 400.343 139 402 139C403.657 139 405 137.657 405 136C405 134.343 403.657 133 402 133C401.837 133 401.677 133.013 401.52 133.038C400.884 133.14 400.184 133.108 399.702 132.68L363.164 100.252V100.252C362.981 100.09 362.745 100 362.5 100V100H26.8901C26.2543 100 25.714 99.5715 25.3075 99.0827C24.7572 98.4212 23.9278 98 23 98C21.3431 98 20 99.3431 20 101C20 102.657 21.3431 104 23 104ZM193.308 167.083C193.714 167.571 194.254 168 194.89 168H207V168C207.265 168 207.52 168.105 207.707 168.293V168.293L227.475 188.061C227.756 188.342 228.138 188.5 228.536 188.5H342.772C343.505 188.5 344.099 187.938 344.508 187.33C345.046 186.528 345.961 186 347 186C348.657 186 350 187.343 350 189C350 190.657 348.657 192 347 192C346.2 192 345.473 191.687 344.936 191.177C344.547 190.808 344.072 190.5 343.536 190.5H227.5V190.5C227.235 190.5 226.98 190.395 226.793 190.207V190.207L207.025 170.439C206.744 170.158 206.362 170 205.964 170H194.89C194.254 170 193.714 170.429 193.308 170.917C192.757 171.579 191.928 172 191 172C189.343 172 188 170.657 188 169C188 167.343 189.343 166 191 166C191.928 166 192.757 166.421 193.308 167.083ZM554 109C555.657 109 557 107.657 557 106C557 104.343 555.657 103 554 103C553.072 103 552.243 103.421 551.693 104.083C551.286 104.571 550.746 105 550.11 105H469.89C469.254 105 468.714 104.571 468.307 104.083C467.757 103.421 466.928 103 466 103C464.343 103 463 104.343 463 106C463 107.657 464.343 109 466 109C466.928 109 467.757 108.579 468.307 107.917C468.714 107.429 469.254 107 469.89 107H550.11C550.746 107 551.286 107.429 551.693 107.917C552.243 108.579 553.072 109 554 109ZM497 245C497 246.105 496.105 247 495 247C493.895 247 493 246.105 493 245C493 243.895 493.895 243 495 243C496.105 243 497 243.895 497 245ZM518 266C519.105 266 520 265.105 520 264C520 262.895 519.105 262 518 262C516.895 262 516 262.895 516 264C516 265.105 516.895 266 518 266ZM583 184C583 185.105 582.105 186 581 186C579.895 186 579 185.105 579 184C579 182.895 579.895 182 581 182C582.105 182 583 182.895 583 184ZM604 89C604 90.1046 603.105 91 602 91C600.895 91 600 90.1046 600 89C600 87.8954 600.895 87 602 87C603.105 87 604 87.8954 604 89ZM271.464 396.5C270.928 396.5 270.453 396.808 270.064 397.177C269.527 397.687 268.8 398 268 398C266.343 398 265 396.657 265 395C265 393.343 266.343 392 268 392C269.039 392 269.954 392.528 270.492 393.33C270.901 393.938 271.495 394.5 272.228 394.5H412.964C413.362 394.5 413.744 394.342 414.025 394.061L430.618 377.468C431.116 376.97 431.157 376.191 431.041 375.497C431.014 375.335 431 375.169 431 375C431 373.343 432.343 372 434 372C435.657 372 437 373.343 437 375C437 376.657 435.657 378 434 378C433.99 378 433.98 378 433.97 378C433.404 377.994 432.811 378.103 432.411 378.503L414.707 396.207V396.207C414.52 396.395 414.265 396.5 414 396.5V396.5H271.464ZM98 442C99.6569 442 101 440.657 101 439C101 438.923 100.997 438.847 100.991 438.772C100.944 438.138 101.033 437.454 101.49 437.011L113.969 424.923C114.248 424.652 114.623 424.5 115.012 424.5H231.398C232.696 424.5 233.381 426.036 232.514 427.002L171.501 495.002C171.216 495.319 170.81 495.5 170.384 495.5H7.22783C6.49518 495.5 5.90075 494.938 5.49229 494.33C4.95377 493.528 4.03851 493 3 493C1.34315 493 0 494.343 0 496C0 497.657 1.34315 499 3 499C3.79984 499 4.52657 498.687 5.06438 498.177C5.45284 497.808 5.92839 497.5 6.46384 497.5H171.5V497.5C171.784 497.5 172.055 497.379 172.244 497.168V497.168L236.999 424.998C237.284 424.681 237.69 424.5 238.116 424.5H247.509C247.891 424.5 248.259 424.646 248.537 424.907L272.815 447.729V447.729C273.001 447.903 273.245 448 273.5 448V448H398.11C398.746 448 399.286 448.429 399.693 448.917C400.243 449.579 401.072 450 402 450C403.657 450 405 448.657 405 447C405 445.343 403.657 444 402 444C401.072 444 400.243 444.421 399.693 445.083C399.286 445.571 398.746 446 398.11 446H274.491C274.109 446 273.741 445.854 273.463 445.593L249.185 422.771V422.771C248.999 422.597 248.755 422.5 248.5 422.5V422.5H237H114V422.5C113.74 422.5 113.491 422.601 113.304 422.782V422.782L100.099 435.575C99.6418 436.017 98.9551 436.085 98.3226 436.017C98.2166 436.006 98.109 436 98 436C96.3431 436 95 437.343 95 439C95 440.657 96.3431 442 98 442ZM593.89 570C593.254 570 592.714 570.429 592.307 570.917C591.757 571.579 590.928 572 590 572C588.343 572 587 570.657 587 569C587 567.343 588.343 566 590 566C590.928 566 591.757 566.421 592.307 567.083C592.714 567.571 593.254 568 593.89 568H941.5C942.052 568 942.5 568.448 942.5 569V569C942.5 569.552 942.052 570 941.5 570H593.89ZM892 532C892.928 532 893.757 531.579 894.307 530.917C894.714 530.429 895.254 530 895.89 530H941C941.552 530 942 529.552 942 529V529C942 528.448 941.552 528 941 528H895.89C895.254 528 894.714 527.571 894.307 527.083C893.757 526.421 892.928 526 892 526C890.343 526 889 527.343 889 529C889 530.657 890.343 532 892 532ZM923 469C924.657 469 926 467.657 926 466V466C926 465.438 926.116 464.85 926.519 464.458L941.981 449.414C942.376 449.029 942.385 448.396 942 448V448C941.615 447.604 940.982 447.595 940.586 447.981L925.508 462.651C925.004 463.142 924.227 463.172 923.534 463.047C923.361 463.016 923.182 463 923 463C921.343 463 920 464.343 920 466C920 467.657 921.343 469 923 469ZM517.6 1.5C517.6 0.671573 516.928 0 516.1 0H515.1C514.272 0 513.6 0.671573 513.6 1.5V8.5C513.6 9.32843 514.272 10 515.1 10H516.1C516.928 10 517.6 9.32843 517.6 8.5V1.5ZM526.2 1.5C526.2 0.671573 526.872 0 527.7 0H528.7C529.528 0 530.2 0.671573 530.2 1.5V8.5C530.2 9.32843 529.528 10 528.7 10H527.7C526.872 10 526.2 9.32843 526.2 8.5V1.5ZM542.8 1.5C542.8 0.671573 542.128 0 541.3 0H540.3C539.472 0 538.8 0.671573 538.8 1.5V8.5C538.8 9.32843 539.472 10 540.3 10H541.3C542.128 10 542.8 9.32843 542.8 8.5V1.5ZM551.4 1.5C551.4 0.671573 552.072 0 552.9 0H553.9C554.728 0 555.4 0.671573 555.4 1.5V8.5C555.4 9.32843 554.728 10 553.9 10H552.9C552.072 10 551.4 9.32843 551.4 8.5V1.5ZM568 1.5C568 0.671573 567.328 0 566.5 0H565.5C564.672 0 564 0.671573 564 1.5V8.5C564 9.32843 564.672 10 565.5 10H566.5C567.328 10 568 9.32843 568 8.5V1.5ZM576.6 1.5C576.6 0.671573 577.272 0 578.1 0H579.1C579.928 0 580.6 0.671573 580.6 1.5V8.5C580.6 9.32843 579.928 10 579.1 10H578.1C577.272 10 576.6 9.32843 576.6 8.5V1.5ZM593.2 1.5C593.2 0.671573 592.528 0 591.7 0H590.7C589.872 0 589.2 0.671573 589.2 1.5V8.5C589.2 9.32843 589.872 10 590.7 10H591.7C592.528 10 593.2 9.32843 593.2 8.5V1.5ZM601.8 1.5C601.8 0.671573 602.472 0 603.3 0H604.3C605.128 0 605.8 0.671573 605.8 1.5V8.5C605.8 9.32843 605.128 10 604.3 10H603.3C602.472 10 601.8 9.32843 601.8 8.5V1.5ZM618.4 1.5C618.4 0.671573 617.728 0 616.9 0H615.9C615.072 0 614.4 0.671573 614.4 1.5V8.5C614.4 9.32843 615.072 10 615.9 10H616.9C617.728 10 618.4 9.32843 618.4 8.5V1.5ZM627 1.5C627 0.671573 627.672 0 628.5 0H629.5C630.328 0 631 0.671573 631 1.5V8.5C631 9.32843 630.328 10 629.5 10H628.5C627.672 10 627 9.32843 627 8.5V1.5ZM643.6 1.5C643.6 0.671573 642.928 0 642.1 0H641.1C640.272 0 639.6 0.671573 639.6 1.5V8.5C639.6 9.32843 640.272 10 641.1 10H642.1C642.928 10 643.6 9.32843 643.6 8.5V1.5ZM652.2 1.5C652.2 0.671573 652.872 0 653.7 0H654.7C655.528 0 656.2 0.671573 656.2 1.5V8.5C656.2 9.32843 655.528 10 654.7 10H653.7C652.872 10 652.2 9.32843 652.2 8.5V1.5ZM668.8 1.5C668.8 0.671573 668.128 0 667.3 0H666.3C665.472 0 664.8 0.671573 664.8 1.5V8.5C664.8 9.32843 665.472 10 666.3 10H667.3C668.128 10 668.8 9.32843 668.8 8.5V1.5ZM677.4 1.5C677.4 0.671573 678.072 0 678.9 0H679.9C680.728 0 681.4 0.671573 681.4 1.5V8.5C681.4 9.32843 680.728 10 679.9 10H678.9C678.072 10 677.4 9.32843 677.4 8.5V1.5ZM694 1.5C694 0.671573 693.328 0 692.5 0H691.5C690.672 0 690 0.671573 690 1.5V8.5C690 9.32843 690.672 10 691.5 10H692.5C693.328 10 694 9.32843 694 8.5V1.5ZM26 509.5C26 508.672 26.6716 508 27.5 508H28.5C29.3284 508 30 508.672 30 509.5V516.5C30 517.328 29.3284 518 28.5 518H27.5C26.6716 518 26 517.328 26 516.5V509.5ZM44 509.5C44 508.672 43.3284 508 42.5 508H41.5C40.6716 508 40 508.672 40 509.5V516.5C40 517.328 40.6716 518 41.5 518H42.5C43.3284 518 44 517.328 44 516.5V509.5ZM54 509.5C54 508.672 54.6716 508 55.5 508H56.5C57.3284 508 58 508.672 58 509.5V516.5C58 517.328 57.3284 518 56.5 518H55.5C54.6716 518 54 517.328 54 516.5V509.5ZM72 509.5C72 508.672 71.3284 508 70.5 508H69.5C68.6716 508 68 508.672 68 509.5V516.5C68 517.328 68.6716 518 69.5 518H70.5C71.3284 518 72 517.328 72 516.5V509.5ZM82 509.5C82 508.672 82.6716 508 83.5 508H84.5C85.3284 508 86 508.672 86 509.5V516.5C86 517.328 85.3284 518 84.5 518H83.5C82.6716 518 82 517.328 82 516.5V509.5ZM98.5 518C99.3284 518 100 517.328 100 516.5V509.5C100 508.672 99.3284 508 98.5 508H97.5C96.6716 508 96 508.672 96 509.5V516.5C96 517.328 96.6716 518 97.5 518H98.5ZM110 509.5C110 508.672 110.672 508 111.5 508H112.5C113.328 508 114 508.672 114 509.5V516.5C114 517.328 113.328 518 112.5 518H111.5C110.672 518 110 517.328 110 516.5V509.5ZM128 509.5C128 508.672 127.328 508 126.5 508H125.5C124.672 508 124 508.672 124 509.5V516.5C124 517.328 124.672 518 125.5 518H126.5C127.328 518 128 517.328 128 516.5V509.5ZM138 509.5C138 508.672 138.672 508 139.5 508H140.5C141.328 508 142 508.672 142 509.5V516.5C142 517.328 141.328 518 140.5 518H139.5C138.672 518 138 517.328 138 516.5V509.5ZM478.956 424.368C479.734 423.608 480.976 423.608 481.753 424.368L493.205 435.57C494.006 436.355 494.006 437.645 493.205 438.43L481.753 449.632C480.976 450.392 479.734 450.392 478.956 449.632L478.239 448.93C477.437 448.145 477.437 446.855 478.239 446.07L486.049 438.43C486.851 437.645 486.851 436.355 486.049 435.57L478.239 427.93C477.437 427.145 477.437 425.855 478.239 425.07L478.956 424.368ZM460.865 424.368C460.087 423.608 458.845 423.608 458.068 424.368L457.35 425.07C456.548 425.855 456.548 427.145 457.35 427.93L465.16 435.57C465.962 436.355 465.962 437.645 465.16 438.43L457.35 446.07C456.548 446.855 456.548 448.145 457.35 448.93L458.068 449.632C458.845 450.392 460.087 450.392 460.865 449.632L472.316 438.43C473.118 437.645 473.118 436.355 472.316 435.57L460.865 424.368ZM437.179 424.368C437.956 423.608 439.199 423.608 439.976 424.368L451.427 435.57C452.229 436.355 452.229 437.645 451.427 438.43L439.976 449.632C439.199 450.392 437.956 450.392 437.179 449.632L436.461 448.93C435.659 448.145 435.659 446.855 436.461 446.07L444.272 438.43C445.074 437.645 445.074 436.355 444.272 435.57L436.461 427.93C435.659 427.145 435.659 425.855 436.461 425.07L437.179 424.368ZM279.5 556C281.985 556 284 553.985 284 551.5C284 549.015 281.985 547 279.5 547C277.015 547 275 549.015 275 551.5C275 553.985 277.015 556 279.5 556ZM279.5 558C283.09 558 286 555.09 286 551.5C286 547.91 283.09 545 279.5 545C275.91 545 273 547.91 273 551.5C273 555.09 275.91 558 279.5 558ZM305 551.5C305 553.985 302.985 556 300.5 556C298.015 556 296 553.985 296 551.5C296 549.015 298.015 547 300.5 547C302.985 547 305 549.015 305 551.5ZM307 551.5C307 555.09 304.09 558 300.5 558C296.91 558 294 555.09 294 551.5C294 547.91 296.91 545 300.5 545C304.09 545 307 547.91 307 551.5ZM321.5 556C323.985 556 326 553.985 326 551.5C326 549.015 323.985 547 321.5 547C319.015 547 317 549.015 317 551.5C317 553.985 319.015 556 321.5 556ZM321.5 558C325.09 558 328 555.09 328 551.5C328 547.91 325.09 545 321.5 545C317.91 545 315 547.91 315 551.5C315 555.09 317.91 558 321.5 558ZM409 551.5C409 553.985 406.985 556 404.5 556C402.015 556 400 553.985 400 551.5C400 549.015 402.015 547 404.5 547C406.985 547 409 549.015 409 551.5ZM411 551.5C411 555.09 408.09 558 404.5 558C400.91 558 398 555.09 398 551.5C398 547.91 400.91 545 404.5 545C408.09 545 411 547.91 411 551.5ZM446.5 556C448.985 556 451 553.985 451 551.5C451 549.015 448.985 547 446.5 547C444.015 547 442 549.015 442 551.5C442 553.985 444.015 556 446.5 556ZM446.5 558C450.09 558 453 555.09 453 551.5C453 547.91 450.09 545 446.5 545C442.91 545 440 547.91 440 551.5C440 555.09 442.91 558 446.5 558ZM340.5 558C344.09 558 347 555.09 347 551.5C347 547.91 344.09 545 340.5 545C336.91 545 334 547.91 334 551.5C334 555.09 336.91 558 340.5 558ZM369 551.5C369 555.09 366.09 558 362.5 558C358.91 558 356 555.09 356 551.5C356 547.91 358.91 545 362.5 545C366.09 545 369 547.91 369 551.5ZM383.5 558C387.09 558 390 555.09 390 551.5C390 547.91 387.09 545 383.5 545C379.91 545 377 547.91 377 551.5C377 555.09 379.91 558 383.5 558ZM432 551.5C432 555.09 429.09 558 425.5 558C421.91 558 419 555.09 419 551.5C419 547.91 421.91 545 425.5 545C429.09 545 432 547.91 432 551.5ZM468.5 558C472.09 558 475 555.09 475 551.5C475 547.91 472.09 545 468.5 545C464.91 545 462 547.91 462 551.5C462 555.09 464.91 558 468.5 558Z" fill="#2481DD"/>
</svg>
