<svg width="67" height="24" viewBox="0 0 67 24" fill="none" xmlns="http://www.w3.org/2000/svg">
<path d="M3.816 10.904H14.984V14.424H3.816V10.904ZM4.168 23H0.00800014V0.599998H16.36V4.088H4.168V23ZM30.629 23.32C28.8797 23.32 27.269 23.032 25.797 22.456C24.325 21.88 23.045 21.08 21.957 20.056C20.869 19.0107 20.0263 17.7947 19.429 16.408C18.8317 15 18.533 13.464 18.533 11.8C18.533 10.136 18.8317 8.61067 19.429 7.224C20.0263 5.816 20.869 4.6 21.957 3.576C23.045 2.53067 24.325 1.72 25.797 1.144C27.269 0.567999 28.869 0.279999 30.597 0.279999C32.3463 0.279999 33.9463 0.567999 35.397 1.144C36.869 1.72 38.149 2.53067 39.237 3.576C40.325 4.6 41.1677 5.816 41.765 7.224C42.3623 8.61067 42.661 10.136 42.661 11.8C42.661 13.464 42.3623 15 41.765 16.408C41.1677 17.816 40.325 19.032 39.237 20.056C38.149 21.08 36.869 21.88 35.397 22.456C33.9463 23.032 32.357 23.32 30.629 23.32ZM30.597 19.672C31.7277 19.672 32.773 19.48 33.733 19.096C34.693 18.712 35.525 18.168 36.229 17.464C36.933 16.7387 37.477 15.9067 37.861 14.968C38.2663 14.008 38.469 12.952 38.469 11.8C38.469 10.648 38.2663 9.60267 37.861 8.664C37.477 7.704 36.933 6.872 36.229 6.168C35.525 5.44267 34.693 4.888 33.733 4.504C32.773 4.12 31.7277 3.928 30.597 3.928C29.4663 3.928 28.421 4.12 27.461 4.504C26.5223 4.888 25.6903 5.44267 24.965 6.168C24.261 6.872 23.7063 7.704 23.301 8.664C22.917 9.60267 22.725 10.648 22.725 11.8C22.725 12.9307 22.917 13.976 23.301 14.936C23.7063 15.896 24.261 16.7387 24.965 17.464C25.669 18.168 26.501 18.712 27.461 19.096C28.421 19.48 29.4663 19.672 30.597 19.672ZM47.0705 23V0.599998H56.2865C58.2705 0.599998 59.9665 0.919999 61.3745 1.56C62.8038 2.2 63.9025 3.11733 64.6705 4.312C65.4385 5.50667 65.8225 6.92533 65.8225 8.568C65.8225 10.2107 65.4385 11.6293 64.6705 12.824C63.9025 13.9973 62.8038 14.904 61.3745 15.544C59.9665 16.1627 58.2705 16.472 56.2865 16.472H49.3745L51.2305 14.584V23H47.0705ZM61.7265 23L56.0625 14.872H60.5105L66.2065 23H61.7265ZM51.2305 15.032L49.3745 13.048H56.0945C57.9292 13.048 59.3052 12.6533 60.2225 11.864C61.1612 11.0747 61.6305 9.976 61.6305 8.568C61.6305 7.13867 61.1612 6.04 60.2225 5.272C59.3052 4.504 57.9292 4.12 56.0945 4.12H49.3745L51.2305 2.072V15.032Z" fill="white"/>
</svg>
