<svg width="407" height="50" viewBox="0 0 407 50" fill="none" xmlns="http://www.w3.org/2000/svg">
<path d="M19.148 49.68C15.4307 49.68 11.872 49.1587 8.472 48.116C5.072 47.028 2.37467 45.6453 0.38 43.968L3.44 37.1C5.344 38.596 7.70133 39.8427 10.512 40.84C13.3227 41.8373 16.2013 42.336 19.148 42.336C21.6413 42.336 23.6587 42.064 25.2 41.52C26.7413 40.976 27.8747 40.2507 28.6 39.344C29.3253 38.392 29.688 37.3267 29.688 36.148C29.688 34.6973 29.1667 33.5413 28.124 32.68C27.0813 31.7733 25.7213 31.0707 24.044 30.572C22.412 30.028 20.576 29.5293 18.536 29.076C16.5413 28.6227 14.524 28.1013 12.484 27.512C10.4893 26.8773 8.65333 26.084 6.976 25.132C5.344 24.1347 4.00667 22.82 2.964 21.188C1.92133 19.556 1.4 17.4707 1.4 14.932C1.4 12.348 2.08 9.99066 3.44 7.86C4.84533 5.684 6.95333 3.96133 9.764 2.692C12.62 1.37733 16.224 0.719997 20.576 0.719997C23.432 0.719997 26.2653 1.08266 29.076 1.808C31.8867 2.53333 34.3347 3.576 36.42 4.936L33.632 11.804C31.5013 10.5347 29.3027 9.60533 27.036 9.016C24.7693 8.38133 22.5933 8.064 20.508 8.064C18.06 8.064 16.0653 8.35866 14.524 8.948C13.028 9.53733 11.9173 10.308 11.192 11.26C10.512 12.212 10.172 13.3 10.172 14.524C10.172 15.9747 10.6707 17.1533 11.668 18.06C12.7107 18.9213 14.048 19.6013 15.68 20.1C17.3573 20.5987 19.216 21.0973 21.256 21.596C23.296 22.0493 25.3133 22.5707 27.308 23.16C29.348 23.7493 31.184 24.52 32.816 25.472C34.4933 26.424 35.8307 27.716 36.828 29.348C37.8707 30.98 38.392 33.0427 38.392 35.536C38.392 38.0747 37.6893 40.432 36.284 42.608C34.924 44.7387 32.816 46.4613 29.96 47.776C27.104 49.0453 23.5 49.68 19.148 49.68ZM69.4616 49.68C65.7443 49.68 62.3216 49.068 59.1936 47.844C56.0656 46.62 53.3456 44.92 51.0336 42.744C48.7216 40.5227 46.931 37.9387 45.6616 34.992C44.3923 32 43.7576 28.736 43.7576 25.2C43.7576 21.664 44.3923 18.4227 45.6616 15.476C46.931 12.484 48.7216 9.9 51.0336 7.724C53.3456 5.50266 56.0656 3.78 59.1936 2.556C62.3216 1.332 65.7216 0.719997 69.3936 0.719997C73.111 0.719997 76.511 1.332 79.5936 2.556C82.7216 3.78 85.4416 5.50266 87.7536 7.724C90.0656 9.9 91.8563 12.484 93.1256 15.476C94.395 18.4227 95.0296 21.664 95.0296 25.2C95.0296 28.736 94.395 32 93.1256 34.992C91.8563 37.984 90.0656 40.568 87.7536 42.744C85.4416 44.92 82.7216 46.62 79.5936 47.844C76.511 49.068 73.1336 49.68 69.4616 49.68ZM69.3936 41.928C71.7963 41.928 74.0176 41.52 76.0576 40.704C78.0976 39.888 79.8656 38.732 81.3616 37.236C82.8576 35.6947 84.0136 33.9267 84.8296 31.932C85.691 29.892 86.1216 27.648 86.1216 25.2C86.1216 22.752 85.691 20.5307 84.8296 18.536C84.0136 16.496 82.8576 14.728 81.3616 13.232C79.8656 11.6907 78.0976 10.512 76.0576 9.696C74.0176 8.88 71.7963 8.472 69.3936 8.472C66.991 8.472 64.7696 8.88 62.7296 9.696C60.735 10.512 58.967 11.6907 57.4256 13.232C55.9296 14.728 54.751 16.496 53.8896 18.536C53.0736 20.5307 52.6656 22.752 52.6656 25.2C52.6656 27.6027 53.0736 29.824 53.8896 31.864C54.751 33.904 55.9296 35.6947 57.4256 37.236C58.9216 38.732 60.6896 39.888 62.7296 40.704C64.7696 41.52 66.991 41.928 69.3936 41.928ZM104.4 49V1.4H113.24V41.52H138.128V49H104.4ZM164.911 49.68C158.383 49.68 153.26 47.844 149.543 44.172C145.871 40.5 144.035 35.196 144.035 28.26V1.4H152.875V27.92C152.875 32.816 153.917 36.3747 156.003 38.596C158.133 40.8173 161.125 41.928 164.979 41.928C168.832 41.928 171.801 40.8173 173.887 38.596C175.972 36.3747 177.015 32.816 177.015 27.92V1.4H185.719V28.26C185.719 35.196 183.86 40.5 180.143 44.172C176.471 47.844 171.393 49.68 164.911 49.68ZM206.892 49V8.88H191.116V1.4H231.508V8.88H215.732V49H206.892ZM238.142 49V1.4H246.982V49H238.142ZM282.161 49.68C278.444 49.68 275.021 49.068 271.893 47.844C268.765 46.62 266.045 44.92 263.733 42.744C261.421 40.5227 259.63 37.9387 258.361 34.992C257.092 32 256.457 28.736 256.457 25.2C256.457 21.664 257.092 18.4227 258.361 15.476C259.63 12.484 261.421 9.9 263.733 7.724C266.045 5.50266 268.765 3.78 271.893 2.556C275.021 1.332 278.421 0.719997 282.093 0.719997C285.81 0.719997 289.21 1.332 292.293 2.556C295.421 3.78 298.141 5.50266 300.453 7.724C302.765 9.9 304.556 12.484 305.825 15.476C307.094 18.4227 307.729 21.664 307.729 25.2C307.729 28.736 307.094 32 305.825 34.992C304.556 37.984 302.765 40.568 300.453 42.744C298.141 44.92 295.421 46.62 292.293 47.844C289.21 49.068 285.833 49.68 282.161 49.68ZM282.093 41.928C284.496 41.928 286.717 41.52 288.757 40.704C290.797 39.888 292.565 38.732 294.061 37.236C295.557 35.6947 296.713 33.9267 297.529 31.932C298.39 29.892 298.821 27.648 298.821 25.2C298.821 22.752 298.39 20.5307 297.529 18.536C296.713 16.496 295.557 14.728 294.061 13.232C292.565 11.6907 290.797 10.512 288.757 9.696C286.717 8.88 284.496 8.472 282.093 8.472C279.69 8.472 277.469 8.88 275.429 9.696C273.434 10.512 271.666 11.6907 270.125 13.232C268.629 14.728 267.45 16.496 266.589 18.536C265.773 20.5307 265.365 22.752 265.365 25.2C265.365 27.6027 265.773 29.824 266.589 31.864C267.45 33.904 268.629 35.6947 270.125 37.236C271.621 38.732 273.389 39.888 275.429 40.704C277.469 41.52 279.69 41.928 282.093 41.928ZM317.099 49V1.4H324.375L354.227 38.052H350.623V1.4H359.395V49H352.119L322.267 12.348H325.871V49H317.099ZM386.906 49.68C383.188 49.68 379.63 49.1587 376.23 48.116C372.83 47.028 370.132 45.6453 368.138 43.968L371.198 37.1C373.102 38.596 375.459 39.8427 378.27 40.84C381.08 41.8373 383.959 42.336 386.906 42.336C389.399 42.336 391.416 42.064 392.958 41.52C394.499 40.976 395.632 40.2507 396.358 39.344C397.083 38.392 397.446 37.3267 397.446 36.148C397.446 34.6973 396.924 33.5413 395.882 32.68C394.839 31.7733 393.479 31.0707 391.802 30.572C390.17 30.028 388.334 29.5293 386.294 29.076C384.299 28.6227 382.282 28.1013 380.242 27.512C378.247 26.8773 376.411 26.084 374.734 25.132C373.102 24.1347 371.764 22.82 370.722 21.188C369.679 19.556 369.158 17.4707 369.158 14.932C369.158 12.348 369.838 9.99066 371.198 7.86C372.603 5.684 374.711 3.96133 377.522 2.692C380.378 1.37733 383.982 0.719997 388.334 0.719997C391.19 0.719997 394.023 1.08266 396.834 1.808C399.644 2.53333 402.092 3.576 404.178 4.936L401.39 11.804C399.259 10.5347 397.06 9.60533 394.794 9.016C392.527 8.38133 390.351 8.064 388.266 8.064C385.818 8.064 383.823 8.35866 382.282 8.948C380.786 9.53733 379.675 10.308 378.95 11.26C378.27 12.212 377.93 13.3 377.93 14.524C377.93 15.9747 378.428 17.1533 379.426 18.06C380.468 18.9213 381.806 19.6013 383.438 20.1C385.115 20.5987 386.974 21.0973 389.014 21.596C391.054 22.0493 393.071 22.5707 395.066 23.16C397.106 23.7493 398.942 24.52 400.574 25.472C402.251 26.424 403.588 27.716 404.586 29.348C405.628 30.98 406.15 33.0427 406.15 35.536C406.15 38.0747 405.447 40.432 404.042 42.608C402.682 44.7387 400.574 46.4613 397.718 47.776C394.862 49.0453 391.258 49.68 386.906 49.68Z" fill="#2DA1DE"/>
<path d="M19.148 49.68C15.4307 49.68 11.872 49.1587 8.472 48.116C5.072 47.028 2.37467 45.6453 0.38 43.968L3.44 37.1C5.344 38.596 7.70133 39.8427 10.512 40.84C13.3227 41.8373 16.2013 42.336 19.148 42.336C21.6413 42.336 23.6587 42.064 25.2 41.52C26.7413 40.976 27.8747 40.2507 28.6 39.344C29.3253 38.392 29.688 37.3267 29.688 36.148C29.688 34.6973 29.1667 33.5413 28.124 32.68C27.0813 31.7733 25.7213 31.0707 24.044 30.572C22.412 30.028 20.576 29.5293 18.536 29.076C16.5413 28.6227 14.524 28.1013 12.484 27.512C10.4893 26.8773 8.65333 26.084 6.976 25.132C5.344 24.1347 4.00667 22.82 2.964 21.188C1.92133 19.556 1.4 17.4707 1.4 14.932C1.4 12.348 2.08 9.99066 3.44 7.86C4.84533 5.684 6.95333 3.96133 9.764 2.692C12.62 1.37733 16.224 0.719997 20.576 0.719997C23.432 0.719997 26.2653 1.08266 29.076 1.808C31.8867 2.53333 34.3347 3.576 36.42 4.936L33.632 11.804C31.5013 10.5347 29.3027 9.60533 27.036 9.016C24.7693 8.38133 22.5933 8.064 20.508 8.064C18.06 8.064 16.0653 8.35866 14.524 8.948C13.028 9.53733 11.9173 10.308 11.192 11.26C10.512 12.212 10.172 13.3 10.172 14.524C10.172 15.9747 10.6707 17.1533 11.668 18.06C12.7107 18.9213 14.048 19.6013 15.68 20.1C17.3573 20.5987 19.216 21.0973 21.256 21.596C23.296 22.0493 25.3133 22.5707 27.308 23.16C29.348 23.7493 31.184 24.52 32.816 25.472C34.4933 26.424 35.8307 27.716 36.828 29.348C37.8707 30.98 38.392 33.0427 38.392 35.536C38.392 38.0747 37.6893 40.432 36.284 42.608C34.924 44.7387 32.816 46.4613 29.96 47.776C27.104 49.0453 23.5 49.68 19.148 49.68ZM69.4616 49.68C65.7443 49.68 62.3216 49.068 59.1936 47.844C56.0656 46.62 53.3456 44.92 51.0336 42.744C48.7216 40.5227 46.931 37.9387 45.6616 34.992C44.3923 32 43.7576 28.736 43.7576 25.2C43.7576 21.664 44.3923 18.4227 45.6616 15.476C46.931 12.484 48.7216 9.9 51.0336 7.724C53.3456 5.50266 56.0656 3.78 59.1936 2.556C62.3216 1.332 65.7216 0.719997 69.3936 0.719997C73.111 0.719997 76.511 1.332 79.5936 2.556C82.7216 3.78 85.4416 5.50266 87.7536 7.724C90.0656 9.9 91.8563 12.484 93.1256 15.476C94.395 18.4227 95.0296 21.664 95.0296 25.2C95.0296 28.736 94.395 32 93.1256 34.992C91.8563 37.984 90.0656 40.568 87.7536 42.744C85.4416 44.92 82.7216 46.62 79.5936 47.844C76.511 49.068 73.1336 49.68 69.4616 49.68ZM69.3936 41.928C71.7963 41.928 74.0176 41.52 76.0576 40.704C78.0976 39.888 79.8656 38.732 81.3616 37.236C82.8576 35.6947 84.0136 33.9267 84.8296 31.932C85.691 29.892 86.1216 27.648 86.1216 25.2C86.1216 22.752 85.691 20.5307 84.8296 18.536C84.0136 16.496 82.8576 14.728 81.3616 13.232C79.8656 11.6907 78.0976 10.512 76.0576 9.696C74.0176 8.88 71.7963 8.472 69.3936 8.472C66.991 8.472 64.7696 8.88 62.7296 9.696C60.735 10.512 58.967 11.6907 57.4256 13.232C55.9296 14.728 54.751 16.496 53.8896 18.536C53.0736 20.5307 52.6656 22.752 52.6656 25.2C52.6656 27.6027 53.0736 29.824 53.8896 31.864C54.751 33.904 55.9296 35.6947 57.4256 37.236C58.9216 38.732 60.6896 39.888 62.7296 40.704C64.7696 41.52 66.991 41.928 69.3936 41.928ZM104.4 49V1.4H113.24V41.52H138.128V49H104.4ZM164.911 49.68C158.383 49.68 153.26 47.844 149.543 44.172C145.871 40.5 144.035 35.196 144.035 28.26V1.4H152.875V27.92C152.875 32.816 153.917 36.3747 156.003 38.596C158.133 40.8173 161.125 41.928 164.979 41.928C168.832 41.928 171.801 40.8173 173.887 38.596C175.972 36.3747 177.015 32.816 177.015 27.92V1.4H185.719V28.26C185.719 35.196 183.86 40.5 180.143 44.172C176.471 47.844 171.393 49.68 164.911 49.68ZM206.892 49V8.88H191.116V1.4H231.508V8.88H215.732V49H206.892ZM238.142 49V1.4H246.982V49H238.142ZM282.161 49.68C278.444 49.68 275.021 49.068 271.893 47.844C268.765 46.62 266.045 44.92 263.733 42.744C261.421 40.5227 259.63 37.9387 258.361 34.992C257.092 32 256.457 28.736 256.457 25.2C256.457 21.664 257.092 18.4227 258.361 15.476C259.63 12.484 261.421 9.9 263.733 7.724C266.045 5.50266 268.765 3.78 271.893 2.556C275.021 1.332 278.421 0.719997 282.093 0.719997C285.81 0.719997 289.21 1.332 292.293 2.556C295.421 3.78 298.141 5.50266 300.453 7.724C302.765 9.9 304.556 12.484 305.825 15.476C307.094 18.4227 307.729 21.664 307.729 25.2C307.729 28.736 307.094 32 305.825 34.992C304.556 37.984 302.765 40.568 300.453 42.744C298.141 44.92 295.421 46.62 292.293 47.844C289.21 49.068 285.833 49.68 282.161 49.68ZM282.093 41.928C284.496 41.928 286.717 41.52 288.757 40.704C290.797 39.888 292.565 38.732 294.061 37.236C295.557 35.6947 296.713 33.9267 297.529 31.932C298.39 29.892 298.821 27.648 298.821 25.2C298.821 22.752 298.39 20.5307 297.529 18.536C296.713 16.496 295.557 14.728 294.061 13.232C292.565 11.6907 290.797 10.512 288.757 9.696C286.717 8.88 284.496 8.472 282.093 8.472C279.69 8.472 277.469 8.88 275.429 9.696C273.434 10.512 271.666 11.6907 270.125 13.232C268.629 14.728 267.45 16.496 266.589 18.536C265.773 20.5307 265.365 22.752 265.365 25.2C265.365 27.6027 265.773 29.824 266.589 31.864C267.45 33.904 268.629 35.6947 270.125 37.236C271.621 38.732 273.389 39.888 275.429 40.704C277.469 41.52 279.69 41.928 282.093 41.928ZM317.099 49V1.4H324.375L354.227 38.052H350.623V1.4H359.395V49H352.119L322.267 12.348H325.871V49H317.099ZM386.906 49.68C383.188 49.68 379.63 49.1587 376.23 48.116C372.83 47.028 370.132 45.6453 368.138 43.968L371.198 37.1C373.102 38.596 375.459 39.8427 378.27 40.84C381.08 41.8373 383.959 42.336 386.906 42.336C389.399 42.336 391.416 42.064 392.958 41.52C394.499 40.976 395.632 40.2507 396.358 39.344C397.083 38.392 397.446 37.3267 397.446 36.148C397.446 34.6973 396.924 33.5413 395.882 32.68C394.839 31.7733 393.479 31.0707 391.802 30.572C390.17 30.028 388.334 29.5293 386.294 29.076C384.299 28.6227 382.282 28.1013 380.242 27.512C378.247 26.8773 376.411 26.084 374.734 25.132C373.102 24.1347 371.764 22.82 370.722 21.188C369.679 19.556 369.158 17.4707 369.158 14.932C369.158 12.348 369.838 9.99066 371.198 7.86C372.603 5.684 374.711 3.96133 377.522 2.692C380.378 1.37733 383.982 0.719997 388.334 0.719997C391.19 0.719997 394.023 1.08266 396.834 1.808C399.644 2.53333 402.092 3.576 404.178 4.936L401.39 11.804C399.259 10.5347 397.06 9.60533 394.794 9.016C392.527 8.38133 390.351 8.064 388.266 8.064C385.818 8.064 383.823 8.35866 382.282 8.948C380.786 9.53733 379.675 10.308 378.95 11.26C378.27 12.212 377.93 13.3 377.93 14.524C377.93 15.9747 378.428 17.1533 379.426 18.06C380.468 18.9213 381.806 19.6013 383.438 20.1C385.115 20.5987 386.974 21.0973 389.014 21.596C391.054 22.0493 393.071 22.5707 395.066 23.16C397.106 23.7493 398.942 24.52 400.574 25.472C402.251 26.424 403.588 27.716 404.586 29.348C405.628 30.98 406.15 33.0427 406.15 35.536C406.15 38.0747 405.447 40.432 404.042 42.608C402.682 44.7387 400.574 46.4613 397.718 47.776C394.862 49.0453 391.258 49.68 386.906 49.68Z" fill="url(#paint0_linear_2765_1866)"/>
<defs>
<linearGradient id="paint0_linear_2765_1866" x1="145.31" y1="50.5036" x2="165.597" y2="-29.1051" gradientUnits="userSpaceOnUse">
<stop stop-color="#008FE0"/>
<stop offset="0.47" stop-color="#0998EF"/>
<stop offset="1" stop-color="#13CFFF"/>
</linearGradient>
</defs>
</svg>
