<svg width="276" height="50" viewBox="0 0 276 50" fill="none" xmlns="http://www.w3.org/2000/svg">
<path d="M0.392 49V1.4H21.2C26.368 1.4 30.9013 2.39733 34.8 4.392C38.6987 6.38666 41.736 9.152 43.912 12.688C46.088 16.224 47.176 20.3947 47.176 25.2C47.176 29.96 46.088 34.1307 43.912 37.712C41.736 41.248 38.6987 44.0133 34.8 46.008C30.9013 48.0027 26.368 49 21.2 49H0.392ZM9.232 41.52H20.792C24.3733 41.52 27.456 40.84 30.04 39.48C32.6693 38.12 34.6867 36.216 36.092 33.768C37.5427 31.32 38.268 28.464 38.268 25.2C38.268 21.8907 37.5427 19.0347 36.092 16.632C34.6867 14.184 32.6693 12.28 30.04 10.92C27.456 9.56 24.3733 8.88 20.792 8.88H9.232V41.52ZM56.5717 49V1.4H65.4117V49H56.5717ZM100.523 49.68C96.8052 49.68 93.3825 49.0907 90.2545 47.912C87.1719 46.688 84.4745 44.988 82.1625 42.812C79.8505 40.5907 78.0599 37.984 76.7905 34.992C75.5212 32 74.8865 28.736 74.8865 25.2C74.8865 21.664 75.5212 18.4 76.7905 15.408C78.0599 12.416 79.8505 9.832 82.1625 7.656C84.5199 5.43467 87.2625 3.73467 90.3905 2.556C93.5185 1.332 96.9412 0.719997 100.659 0.719997C104.693 0.719997 108.32 1.37733 111.539 2.692C114.803 4.00666 117.545 5.93333 119.767 8.472L114.191 13.912C112.332 12.0533 110.315 10.6933 108.139 9.832C106.008 8.92533 103.651 8.472 101.067 8.472C98.5732 8.472 96.2612 8.88 94.1305 9.696C91.9999 10.512 90.1639 11.668 88.6225 13.164C87.0812 14.66 85.8799 16.428 85.0185 18.468C84.2025 20.508 83.7945 22.752 83.7945 25.2C83.7945 27.6027 84.2025 29.824 85.0185 31.864C85.8799 33.904 87.0812 35.6947 88.6225 37.236C90.1639 38.732 91.9772 39.888 94.0625 40.704C96.1479 41.52 98.4599 41.928 100.999 41.928C103.356 41.928 105.623 41.5653 107.799 40.84C110.02 40.0693 112.128 38.8 114.123 37.032L119.155 43.628C116.661 45.6227 113.76 47.1413 110.451 48.184C107.187 49.1813 103.877 49.68 100.523 49.68ZM110.791 42.472V24.656H119.155V43.628L110.791 42.472ZM130.814 49V1.4H139.654V49H130.814ZM162.185 49V8.88H146.409V1.4H186.801V8.88H171.025V49H162.185ZM184.312 49L205.732 1.4H214.436L235.924 49H226.676L208.248 6.092H211.784L193.424 49H184.312ZM194.172 37.984L196.552 31.048H222.256L224.636 37.984H194.172ZM241.978 49V1.4H250.818V41.52H275.706V49H241.978Z" fill="#2DA1DE"/>
<path d="M0.392 49V1.4H21.2C26.368 1.4 30.9013 2.39733 34.8 4.392C38.6987 6.38666 41.736 9.152 43.912 12.688C46.088 16.224 47.176 20.3947 47.176 25.2C47.176 29.96 46.088 34.1307 43.912 37.712C41.736 41.248 38.6987 44.0133 34.8 46.008C30.9013 48.0027 26.368 49 21.2 49H0.392ZM9.232 41.52H20.792C24.3733 41.52 27.456 40.84 30.04 39.48C32.6693 38.12 34.6867 36.216 36.092 33.768C37.5427 31.32 38.268 28.464 38.268 25.2C38.268 21.8907 37.5427 19.0347 36.092 16.632C34.6867 14.184 32.6693 12.28 30.04 10.92C27.456 9.56 24.3733 8.88 20.792 8.88H9.232V41.52ZM56.5717 49V1.4H65.4117V49H56.5717ZM100.523 49.68C96.8052 49.68 93.3825 49.0907 90.2545 47.912C87.1719 46.688 84.4745 44.988 82.1625 42.812C79.8505 40.5907 78.0599 37.984 76.7905 34.992C75.5212 32 74.8865 28.736 74.8865 25.2C74.8865 21.664 75.5212 18.4 76.7905 15.408C78.0599 12.416 79.8505 9.832 82.1625 7.656C84.5199 5.43467 87.2625 3.73467 90.3905 2.556C93.5185 1.332 96.9412 0.719997 100.659 0.719997C104.693 0.719997 108.32 1.37733 111.539 2.692C114.803 4.00666 117.545 5.93333 119.767 8.472L114.191 13.912C112.332 12.0533 110.315 10.6933 108.139 9.832C106.008 8.92533 103.651 8.472 101.067 8.472C98.5732 8.472 96.2612 8.88 94.1305 9.696C91.9999 10.512 90.1639 11.668 88.6225 13.164C87.0812 14.66 85.8799 16.428 85.0185 18.468C84.2025 20.508 83.7945 22.752 83.7945 25.2C83.7945 27.6027 84.2025 29.824 85.0185 31.864C85.8799 33.904 87.0812 35.6947 88.6225 37.236C90.1639 38.732 91.9772 39.888 94.0625 40.704C96.1479 41.52 98.4599 41.928 100.999 41.928C103.356 41.928 105.623 41.5653 107.799 40.84C110.02 40.0693 112.128 38.8 114.123 37.032L119.155 43.628C116.661 45.6227 113.76 47.1413 110.451 48.184C107.187 49.1813 103.877 49.68 100.523 49.68ZM110.791 42.472V24.656H119.155V43.628L110.791 42.472ZM130.814 49V1.4H139.654V49H130.814ZM162.185 49V8.88H146.409V1.4H186.801V8.88H171.025V49H162.185ZM184.312 49L205.732 1.4H214.436L235.924 49H226.676L208.248 6.092H211.784L193.424 49H184.312ZM194.172 37.984L196.552 31.048H222.256L224.636 37.984H194.172ZM241.978 49V1.4H250.818V41.52H275.706V49H241.978Z" fill="url(#paint0_linear_2765_1865)"/>
<defs>
<linearGradient id="paint0_linear_2765_1865" x1="95.4325" y1="50.5036" x2="123.029" y2="-24.0618" gradientUnits="userSpaceOnUse">
<stop stop-color="#008FE0"/>
<stop offset="0.47" stop-color="#0998EF"/>
<stop offset="1" stop-color="#13CFFF"/>
</linearGradient>
</defs>
</svg>
