<svg width="675" height="1003" viewBox="0 0 675 1003" fill="none" xmlns="http://www.w3.org/2000/svg">
<path fill-rule="evenodd" clip-rule="evenodd" d="M301.536 10.9617C304.563 10.9617 307.017 8.50788 307.017 5.48087C307.017 2.45387 304.563 0 301.536 0C299.254 0 297.298 1.39486 296.473 3.37856C296.19 4.05884 295.583 4.6059 294.846 4.6059H1.00198V4.6059C0.218415 4.6059 -0.170134 5.55672 0.389183 6.10548V6.10548L48.8036 53.6064V53.6064C48.9672 53.7669 49.1872 53.8568 49.4164 53.8568V53.8568H212.634C213.371 53.8568 213.978 54.4039 214.261 55.0841C215.085 57.0679 217.042 58.4627 219.324 58.4627C222.351 58.4627 224.805 56.0089 224.805 52.9819C224.805 49.9549 222.351 47.501 219.324 47.501C217.042 47.501 215.086 48.8958 214.261 50.8795C213.978 51.5598 213.371 52.1068 212.634 52.1068H50.3869C49.994 52.1068 49.6168 51.9527 49.3364 51.6775L5.76335 8.92662C4.80452 7.98588 5.47059 6.3559 6.81385 6.3559H294.846C295.583 6.3559 296.19 6.90296 296.473 7.58322C297.298 9.5669 299.254 10.9617 301.536 10.9617ZM7.65583 133.7C7.82187 133.513 8.05988 133.406 8.30981 133.406V133.406H624.87C624.892 133.406 624.909 133.389 624.909 133.368V133.368C624.909 130.341 627.362 127.887 630.39 127.887C633.417 127.887 635.87 130.341 635.87 133.368C635.87 136.395 633.417 138.849 630.39 138.849C628.368 138.849 626.603 137.755 625.652 136.127C625.33 135.574 624.778 135.156 624.138 135.156H9.37635C8.94789 135.156 8.53988 135.34 8.25523 135.66L2.23728 142.43C1.91623 142.791 1.36317 142.824 1.00198 142.503V142.503C0.640797 142.182 0.608263 141.629 0.929316 141.267L7.65583 133.7V133.7ZM230.285 202.792C229.519 202.792 228.788 202.635 228.126 202.35C227.451 202.061 226.638 202.092 226.11 202.603L200.749 227.171V227.171C200.586 227.329 200.368 227.418 200.141 227.418V227.418H48.4858C48.121 227.418 47.7687 227.551 47.4949 227.792L3.15059 266.815C2.78781 267.134 2.23492 267.099 1.91567 266.736V266.736C1.59642 266.373 1.63171 265.82 1.99449 265.501L47.0116 225.886V225.886C47.1713 225.745 47.3768 225.668 47.5896 225.668V225.668H199.179C199.568 225.668 199.943 225.516 200.223 225.245L224.881 201.358C225.411 200.844 225.466 200.026 225.192 199.34C224.942 198.712 224.805 198.028 224.805 197.311C224.805 194.284 227.258 191.831 230.285 191.831C233.312 191.831 235.766 194.284 235.766 197.311C235.766 200.338 233.312 202.792 230.285 202.792ZM294.516 255.163C294.681 254.994 294.907 254.899 295.142 254.899V254.899H316.77C317.507 254.899 318.114 254.352 318.397 253.672C319.221 251.688 321.178 250.293 323.46 250.293C326.487 250.293 328.941 252.747 328.941 255.774C328.941 258.801 326.487 261.255 323.46 261.255C321.178 261.255 319.221 259.86 318.397 257.876C318.114 257.196 317.507 256.649 316.77 256.649H296.143C295.739 256.649 295.352 256.812 295.07 257.101L258.316 294.751V294.751C258.151 294.92 257.925 295.015 257.69 295.015V295.015H45.144C44.4073 295.015 43.8 295.562 43.5173 296.242C42.6926 298.226 40.7363 299.621 38.4541 299.621C35.4271 299.621 32.9732 297.167 32.9732 294.14C32.9732 291.113 35.4271 288.659 38.4541 288.659C40.7363 288.659 42.6927 290.054 43.5173 292.038C43.8001 292.718 44.4074 293.265 45.1441 293.265H256.689C257.093 293.265 257.48 293.102 257.763 292.813L294.516 255.163V255.163ZM443.126 304.227V304.227C442.892 304.227 442.667 304.321 442.503 304.488V304.488L381.997 365.896C381.716 366.183 381.331 366.344 380.929 366.344H97.9372C97.526 366.344 97.1329 366.175 96.8497 365.877L83.602 351.932C83.0518 351.353 83.0749 350.451 83.4585 349.75C83.8856 348.97 84.1284 348.074 84.1284 347.122C84.1284 344.095 81.6745 341.641 78.6475 341.641C75.6205 341.641 73.1666 344.095 73.1666 347.122C73.1666 350.149 75.6205 352.603 78.6475 352.603C79.1734 352.603 79.682 352.529 80.1634 352.391C80.8111 352.205 81.5398 352.302 82.004 352.791L96.2832 367.821V367.821C96.4484 367.995 96.6777 368.094 96.9176 368.094V368.094H381.923V368.094C382.157 368.094 382.382 368 382.546 367.833V367.833L443.052 306.424C443.334 306.138 443.719 305.977 444.12 305.977H579.853C580.589 305.977 581.196 306.524 581.479 307.204C582.304 309.188 584.26 310.583 586.542 310.583C589.569 310.583 592.023 308.129 592.023 305.102C592.023 302.075 589.569 299.621 586.542 299.621C584.26 299.621 582.304 301.016 581.479 303C581.196 303.68 580.589 304.227 579.852 304.227H443.126ZM177.922 673.195C178.658 673.195 179.266 673.742 179.549 674.423C180.373 676.407 182.33 677.801 184.612 677.801C187.639 677.801 190.093 675.348 190.093 672.321C190.093 669.294 187.639 666.84 184.612 666.84C182.33 666.84 180.373 668.234 179.549 670.218C179.266 670.898 178.659 671.445 177.922 671.445H1.87698C1.39373 671.445 1.00198 671.837 1.00198 672.32V672.32C1.00198 672.804 1.39374 673.195 1.87699 673.195H177.922ZM1.91567 906.171C1.91567 906.655 2.30742 907.046 2.79067 907.046H294.846C295.583 907.046 296.19 907.593 296.473 908.274C297.298 910.257 299.254 911.652 301.536 911.652C304.563 911.652 307.017 909.198 307.017 906.171C307.017 903.144 304.563 900.69 301.536 900.69C299.254 900.69 297.298 902.085 296.473 904.069C296.19 904.749 295.583 905.296 294.846 905.296H2.79067C2.30742 905.296 1.91567 905.688 1.91567 906.171V906.171ZM71.9576 996.644C72.6943 996.644 73.3015 996.097 73.5843 995.417C74.4089 993.433 76.3653 992.038 78.6475 992.038C81.6745 992.038 84.1284 994.492 84.1284 997.519C84.1284 1000.55 81.6745 1003 78.6475 1003C76.3653 1003 74.4089 1001.61 73.5843 999.622C73.3016 998.941 72.6943 998.394 71.9576 998.394H2.79067C2.30742 998.394 1.91567 998.002 1.91567 997.519V997.519C1.91567 997.036 2.30742 996.644 2.79067 996.644H71.9576ZM500.676 750.88C500.676 753.907 498.222 756.361 495.195 756.361C492.168 756.361 489.714 753.907 489.714 750.88C489.714 750.109 489.873 749.376 490.16 748.711C490.452 748.034 490.421 747.218 489.908 746.69L465.121 721.152C464.839 720.861 464.451 720.696 464.045 720.696H246.591C245.291 720.696 244.607 722.237 245.477 723.201L359.942 849.992C360.226 850.307 360.631 850.487 361.055 850.487H662.066C662.802 850.487 663.41 849.94 663.692 849.26C664.517 847.276 666.473 845.882 668.756 845.882C671.783 845.882 674.236 848.335 674.236 851.362C674.236 854.389 671.783 856.843 668.756 856.843C666.473 856.843 664.517 855.448 663.692 853.465C663.41 852.784 662.802 852.237 662.066 852.237H359.999V852.237C359.752 852.237 359.516 852.132 359.35 851.949V851.949L241.305 721.191C241.021 720.876 240.616 720.696 240.192 720.696H218.511C218.102 720.696 217.71 720.863 217.427 721.159L177.022 763.36V763.36C176.857 763.532 176.629 763.63 176.39 763.63V763.63H2.79067C2.30742 763.63 1.91567 763.238 1.91567 762.755V762.755C1.91567 762.272 2.30742 761.88 2.79066 761.88H175.376C175.785 761.88 176.177 761.713 176.459 761.417L216.865 719.216V719.216C217.03 719.044 217.258 718.946 217.497 718.946V718.946H241.247H465.05V718.946C465.286 718.946 465.513 719.042 465.677 719.212V719.212L491.164 745.471C491.677 745.999 492.492 746.054 493.177 745.783C493.801 745.535 494.482 745.399 495.195 745.399C498.222 745.399 500.676 747.853 500.676 750.88ZM132.543 862.324C138.84 862.324 144.22 860.166 148.682 855.85C153.145 851.534 155.377 846.258 155.38 840.024C155.38 834.68 153.754 829.919 150.501 825.739C147.432 821.796 143.469 819.194 138.613 817.935C138.074 817.795 137.644 817.387 137.481 816.855C135.679 810.95 132.302 806.135 127.353 802.411C122.163 798.506 116.28 796.554 109.706 796.554C101.609 796.554 94.7402 799.346 89.0987 804.931C83.7741 810.203 80.9635 816.556 80.667 823.99C80.6366 824.752 80.0674 825.388 79.3169 825.522C75.1286 826.273 71.6073 828.247 68.7531 831.445C65.6029 834.975 64.0293 839.102 64.032 843.826C64.032 848.965 65.8479 853.333 69.4797 856.931C73.1115 860.529 77.5238 862.327 82.7168 862.324H132.543ZM305.363 170.907C305.363 170.355 304.915 169.907 304.363 169.907V169.907C303.811 169.907 303.363 170.355 303.363 170.907V197.907C303.363 198.46 303.811 198.907 304.363 198.907V198.907C304.915 198.907 305.363 198.46 305.363 197.907V170.907ZM310.082 170.907C310.082 170.355 309.634 169.907 309.082 169.907V169.907C308.53 169.907 308.082 170.355 308.082 170.907V197.907C308.082 198.46 308.53 198.907 309.082 198.907V198.907C309.634 198.907 310.082 198.46 310.082 197.907V170.907ZM312.801 170.907C312.801 170.355 313.248 169.907 313.801 169.907V169.907C314.353 169.907 314.801 170.355 314.801 170.907V197.907C314.801 198.46 314.353 198.907 313.801 198.907V198.907C313.248 198.907 312.801 198.46 312.801 197.907V170.907ZM319.519 170.907C319.519 170.355 319.072 169.907 318.519 169.907V169.907C317.967 169.907 317.519 170.355 317.519 170.907V197.907C317.519 198.46 317.967 198.907 318.519 198.907V198.907C319.072 198.907 319.519 198.46 319.519 197.907V170.907ZM322.238 170.907C322.238 170.355 322.686 169.907 323.238 169.907V169.907C323.79 169.907 324.238 170.355 324.238 170.907V197.907C324.238 198.46 323.79 198.907 323.238 198.907V198.907C322.686 198.907 322.238 198.46 322.238 197.907V170.907ZM328.957 170.907C328.957 170.355 328.509 169.907 327.957 169.907V169.907C327.405 169.907 326.957 170.355 326.957 170.907V197.907C326.957 198.46 327.405 198.907 327.957 198.907V198.907C328.509 198.907 328.957 198.46 328.957 197.907V170.907ZM331.676 170.907C331.676 170.355 332.123 169.907 332.676 169.907V169.907C333.228 169.907 333.676 170.355 333.676 170.907V197.907C333.676 198.46 333.228 198.907 332.676 198.907V198.907C332.123 198.907 331.676 198.46 331.676 197.907V170.907ZM338.394 170.907C338.394 170.355 337.947 169.907 337.394 169.907V169.907C336.842 169.907 336.394 170.355 336.394 170.907V197.907C336.394 198.46 336.842 198.907 337.394 198.907V198.907C337.947 198.907 338.394 198.46 338.394 197.907V170.907ZM341.113 170.907C341.113 170.355 341.561 169.907 342.113 169.907V169.907C342.665 169.907 343.113 170.355 343.113 170.907V197.907C343.113 198.46 342.665 198.907 342.113 198.907V198.907C341.561 198.907 341.113 198.46 341.113 197.907V170.907ZM347.832 170.907C347.832 170.355 347.384 169.907 346.832 169.907V169.907C346.28 169.907 345.832 170.355 345.832 170.907V197.907C345.832 198.46 346.28 198.907 346.832 198.907V198.907C347.384 198.907 347.832 198.46 347.832 197.907V170.907ZM350.551 170.907C350.551 170.355 350.998 169.907 351.551 169.907V169.907C352.103 169.907 352.551 170.355 352.551 170.907V197.907C352.551 198.46 352.103 198.907 351.551 198.907V198.907C350.998 198.907 350.551 198.46 350.551 197.907V170.907ZM357.269 170.907C357.269 170.355 356.822 169.907 356.269 169.907V169.907C355.717 169.907 355.269 170.355 355.269 170.907V197.907C355.269 198.46 355.717 198.907 356.269 198.907V198.907C356.822 198.907 357.269 198.46 357.269 197.907V170.907ZM359.988 170.907C359.988 170.355 360.436 169.907 360.988 169.907V169.907C361.54 169.907 361.988 170.355 361.988 170.907V197.907C361.988 198.46 361.54 198.907 360.988 198.907V198.907C360.436 198.907 359.988 198.46 359.988 197.907V170.907ZM366.707 170.907C366.707 170.355 366.259 169.907 365.707 169.907V169.907C365.155 169.907 364.707 170.355 364.707 170.907V197.907C364.707 198.46 365.155 198.907 365.707 198.907V198.907C366.259 198.907 366.707 198.46 366.707 197.907V170.907ZM369.426 170.907C369.426 170.355 369.873 169.907 370.426 169.907V169.907C370.978 169.907 371.426 170.355 371.426 170.907V197.907C371.426 198.46 370.978 198.907 370.426 198.907V198.907C369.873 198.907 369.426 198.46 369.426 197.907V170.907ZM376.144 170.907C376.144 170.355 375.697 169.907 375.144 169.907V169.907C374.592 169.907 374.144 170.355 374.144 170.907V197.907C374.144 198.46 374.592 198.907 375.144 198.907V198.907C375.697 198.907 376.144 198.46 376.144 197.907V170.907ZM378.863 170.907C378.863 170.355 379.311 169.907 379.863 169.907V169.907C380.415 169.907 380.863 170.355 380.863 170.907V197.907C380.863 198.46 380.415 198.907 379.863 198.907V198.907C379.311 198.907 378.863 198.46 378.863 197.907V170.907ZM385.582 170.907C385.582 170.355 385.134 169.907 384.582 169.907V169.907C384.03 169.907 383.582 170.355 383.582 170.907V197.907C383.582 198.46 384.03 198.907 384.582 198.907V198.907C385.134 198.907 385.582 198.46 385.582 197.907V170.907ZM388.301 170.907C388.301 170.355 388.748 169.907 389.301 169.907V169.907C389.853 169.907 390.301 170.355 390.301 170.907V197.907C390.301 198.46 389.853 198.907 389.301 198.907V198.907C388.748 198.907 388.301 198.46 388.301 197.907V170.907ZM395.019 170.907C395.019 170.355 394.572 169.907 394.019 169.907V169.907C393.467 169.907 393.019 170.355 393.019 170.907V197.907C393.019 198.46 393.467 198.907 394.019 198.907V198.907C394.572 198.907 395.019 198.46 395.019 197.907V170.907ZM397.738 170.907C397.738 170.355 398.186 169.907 398.738 169.907V169.907C399.29 169.907 399.738 170.355 399.738 170.907V197.907C399.738 198.46 399.29 198.907 398.738 198.907V198.907C398.186 198.907 397.738 198.46 397.738 197.907V170.907ZM404.457 170.907C404.457 170.355 404.009 169.907 403.457 169.907V169.907C402.905 169.907 402.457 170.355 402.457 170.907V197.907C402.457 198.46 402.905 198.907 403.457 198.907V198.907C404.009 198.907 404.457 198.46 404.457 197.907V170.907ZM407.176 170.907C407.176 170.355 407.623 169.907 408.176 169.907V169.907C408.728 169.907 409.176 170.355 409.176 170.907V197.907C409.176 198.46 408.728 198.907 408.176 198.907V198.907C407.623 198.907 407.176 198.46 407.176 197.907V170.907ZM413.894 170.907C413.894 170.355 413.447 169.907 412.894 169.907V169.907C412.342 169.907 411.894 170.355 411.894 170.907V197.907C411.894 198.46 412.342 198.907 412.894 198.907V198.907C413.447 198.907 413.894 198.46 413.894 197.907V170.907ZM416.613 170.907C416.613 170.355 417.061 169.907 417.613 169.907V169.907C418.165 169.907 418.613 170.355 418.613 170.907V197.907C418.613 198.46 418.165 198.907 417.613 198.907V198.907C417.061 198.907 416.613 198.46 416.613 197.907V170.907ZM423.332 170.907C423.332 170.355 422.884 169.907 422.332 169.907V169.907C421.78 169.907 421.332 170.355 421.332 170.907V197.907C421.332 198.46 421.78 198.907 422.332 198.907V198.907C422.884 198.907 423.332 198.46 423.332 197.907V170.907ZM426.051 170.907C426.051 170.355 426.498 169.907 427.051 169.907V169.907C427.603 169.907 428.051 170.355 428.051 170.907V197.907C428.051 198.46 427.603 198.907 427.051 198.907V198.907C426.498 198.907 426.051 198.46 426.051 197.907V170.907ZM432.769 170.907C432.769 170.355 432.322 169.907 431.769 169.907V169.907C431.217 169.907 430.769 170.355 430.769 170.907V197.907C430.769 198.46 431.217 198.907 431.769 198.907V198.907C432.322 198.907 432.769 198.46 432.769 197.907V170.907ZM435.488 170.907C435.488 170.355 435.936 169.907 436.488 169.907V169.907C437.04 169.907 437.488 170.355 437.488 170.907V197.907C437.488 198.46 437.04 198.907 436.488 198.907V198.907C435.936 198.907 435.488 198.46 435.488 197.907V170.907ZM442.207 170.907C442.207 170.355 441.759 169.907 441.207 169.907V169.907C440.655 169.907 440.207 170.355 440.207 170.907V197.907C440.207 198.46 440.655 198.907 441.207 198.907V198.907C441.759 198.907 442.207 198.46 442.207 197.907V170.907ZM444.926 170.907C444.926 170.355 445.373 169.907 445.926 169.907V169.907C446.478 169.907 446.926 170.355 446.926 170.907V197.907C446.926 198.46 446.478 198.907 445.926 198.907V198.907C445.373 198.907 444.926 198.46 444.926 197.907V170.907ZM451.644 170.907C451.644 170.355 451.197 169.907 450.644 169.907V169.907C450.092 169.907 449.644 170.355 449.644 170.907V197.907C449.644 198.46 450.092 198.907 450.644 198.907V198.907C451.197 198.907 451.644 198.46 451.644 197.907V170.907ZM454.363 170.907C454.363 170.355 454.811 169.907 455.363 169.907V169.907C455.915 169.907 456.363 170.355 456.363 170.907V197.907C456.363 198.46 455.915 198.907 455.363 198.907V198.907C454.811 198.907 454.363 198.46 454.363 197.907V170.907ZM412.98 872.959C412.98 872.131 413.652 871.459 414.48 871.459H416.48C417.309 871.459 417.98 872.131 417.98 872.959V882.959C417.98 883.788 417.309 884.459 416.48 884.459H414.48C413.652 884.459 412.98 883.788 412.98 882.959V872.959ZM426.98 872.959C426.98 872.131 427.652 871.459 428.48 871.459H430.48C431.309 871.459 431.98 872.131 431.98 872.959V882.959C431.98 883.788 431.309 884.459 430.48 884.459H428.48C427.652 884.459 426.98 883.788 426.98 882.959V872.959ZM445.98 872.959C445.98 872.131 445.309 871.459 444.48 871.459H442.48C441.652 871.459 440.98 872.131 440.98 872.959V882.959C440.98 883.788 441.652 884.459 442.48 884.459H444.48C445.309 884.459 445.98 883.788 445.98 882.959V872.959ZM454.98 872.959C454.98 872.131 455.652 871.459 456.48 871.459H458.48C459.309 871.459 459.98 872.131 459.98 872.959V882.959C459.98 883.788 459.309 884.459 458.48 884.459H456.48C455.652 884.459 454.98 883.788 454.98 882.959V872.959ZM473.98 872.959C473.98 872.131 473.309 871.459 472.48 871.459H470.48C469.652 871.459 468.98 872.131 468.98 872.959V882.959C468.98 883.788 469.652 884.459 470.48 884.459H472.48C473.309 884.459 473.98 883.788 473.98 882.959V872.959ZM482.98 872.959C482.98 872.131 483.652 871.459 484.48 871.459H486.48C487.309 871.459 487.98 872.131 487.98 872.959V882.959C487.98 883.788 487.309 884.459 486.48 884.459H484.48C483.652 884.459 482.98 883.788 482.98 882.959V872.959ZM501.98 872.959C501.98 872.131 501.309 871.459 500.48 871.459H498.48C497.652 871.459 496.98 872.131 496.98 872.959V882.959C496.98 883.788 497.652 884.459 498.48 884.459H500.48C501.309 884.459 501.98 883.788 501.98 882.959V872.959ZM510.98 872.959C510.98 872.131 511.652 871.459 512.48 871.459H514.48C515.309 871.459 515.98 872.131 515.98 872.959V882.959C515.98 883.788 515.309 884.459 514.48 884.459H512.48C511.652 884.459 510.98 883.788 510.98 882.959V872.959ZM529.98 872.959C529.98 872.131 529.309 871.459 528.48 871.459H526.48C525.652 871.459 524.98 872.131 524.98 872.959V882.959C524.98 883.788 525.652 884.459 526.48 884.459H528.48C529.309 884.459 529.98 883.788 529.98 882.959V872.959ZM13.7909 966.461C20.3494 966.461 25.6661 961.144 25.6661 954.585C25.6661 948.027 20.3494 942.71 13.7909 942.71C7.23239 942.71 1.91567 948.027 1.91567 954.585C1.91567 961.144 7.23239 966.461 13.7909 966.461ZM60.3784 954.585C60.3784 961.144 55.0617 966.461 48.5032 966.461C41.9447 966.461 36.628 961.144 36.628 954.585C36.628 948.027 41.9447 942.71 48.5032 942.71C55.0617 942.71 60.3784 948.027 60.3784 954.585ZM96.7445 954.585C96.7445 960.039 92.3232 964.461 86.8693 964.461C81.4153 964.461 76.994 960.039 76.994 954.585C76.994 949.131 81.4153 944.71 86.8693 944.71C92.3232 944.71 96.7445 949.131 96.7445 954.585ZM98.7445 954.585C98.7445 961.144 93.4278 966.461 86.8693 966.461C80.3107 966.461 74.994 961.144 74.994 954.585C74.994 948.027 80.3107 942.71 86.8693 942.71C93.4278 942.71 98.7445 948.027 98.7445 954.585ZM125.234 964.461C130.688 964.461 135.11 960.039 135.11 954.585C135.11 949.131 130.688 944.71 125.234 944.71C119.78 944.71 115.359 949.131 115.359 954.585C115.359 960.039 119.78 964.461 125.234 964.461ZM125.234 966.461C131.793 966.461 137.11 961.144 137.11 954.585C137.11 948.027 131.793 942.71 125.234 942.71C118.676 942.71 113.359 948.027 113.359 954.585C113.359 961.144 118.676 966.461 125.234 966.461ZM173.477 954.585C173.477 960.039 169.055 964.461 163.601 964.461C158.147 964.461 153.726 960.039 153.726 954.585C153.726 949.131 158.147 944.71 163.601 944.71C169.055 944.71 173.477 949.131 173.477 954.585ZM175.477 954.585C175.477 961.144 170.16 966.461 163.601 966.461C157.043 966.461 151.726 961.144 151.726 954.585C151.726 948.027 157.043 942.71 163.601 942.71C170.16 942.71 175.477 948.027 175.477 954.585Z" fill="#2481DD"/>
</svg>
