<svg width="274" height="16" viewBox="0 0 274 16" fill="none" xmlns="http://www.w3.org/2000/svg">
<path d="M5.586 15L0.672 0.299999H2.835L7.35 13.866H6.258L10.941 0.299999H12.873L17.451 13.866H16.401L20.979 0.299999H22.974L18.06 15H15.855L11.571 2.421H12.138L7.833 15H5.586ZM29.2315 15L24.3175 0.299999H26.4805L30.9955 13.866H29.9035L34.5865 0.299999H36.5185L41.0965 13.866H40.0465L44.6245 0.299999H46.6195L41.7055 15H39.5005L35.2165 2.421H35.7835L31.4785 15H29.2315ZM52.877 15L47.963 0.299999H50.126L54.641 13.866H53.549L58.232 0.299999H60.164L64.742 13.866H63.692L68.27 0.299999H70.265L65.351 15H63.146L58.862 2.421H59.429L55.124 15H52.877ZM72.5512 15.126C72.1592 15.126 71.8232 14.993 71.5432 14.727C71.2632 14.447 71.1232 14.097 71.1232 13.677C71.1232 13.257 71.2632 12.914 71.5432 12.648C71.8232 12.382 72.1592 12.249 72.5512 12.249C72.9292 12.249 73.2512 12.382 73.5172 12.648C73.7972 12.914 73.9372 13.257 73.9372 13.677C73.9372 14.097 73.7972 14.447 73.5172 14.727C73.2512 14.993 72.9292 15.126 72.5512 15.126ZM80.5827 15L74.1147 0.299999H76.3827L82.3257 13.866H81.0237L87.0087 0.299999H89.1087L82.6617 15H80.5827ZM90.9833 15V0.299999H93.0833V15H90.9833ZM99.3953 6.642H106.955V8.427H99.3953V6.642ZM99.5843 13.173H108.152V15H97.4843V0.299999H107.858V2.127H99.5843V13.173ZM114.472 15V2.127H109.432V0.299999H121.591V2.127H116.551V15H114.472ZM130.246 15.168C129.126 15.168 128.09 14.986 127.138 14.622C126.2 14.244 125.381 13.719 124.681 13.047C123.995 12.361 123.456 11.563 123.064 10.653C122.672 9.743 122.476 8.742 122.476 7.65C122.476 6.558 122.672 5.557 123.064 4.647C123.456 3.737 124.002 2.946 124.702 2.274C125.402 1.588 126.221 1.063 127.159 0.698999C128.111 0.321 129.147 0.132 130.267 0.132C131.401 0.132 132.444 0.328 133.396 0.72C134.362 1.098 135.181 1.665 135.853 2.421L134.488 3.744C133.928 3.156 133.298 2.722 132.598 2.442C131.898 2.148 131.149 2.001 130.351 2.001C129.525 2.001 128.755 2.141 128.041 2.421C127.341 2.701 126.732 3.093 126.214 3.597C125.696 4.101 125.29 4.703 124.996 5.403C124.716 6.089 124.576 6.838 124.576 7.65C124.576 8.462 124.716 9.218 124.996 9.918C125.29 10.604 125.696 11.199 126.214 11.703C126.732 12.207 127.341 12.599 128.041 12.879C128.755 13.159 129.525 13.299 130.351 13.299C131.149 13.299 131.898 13.159 132.598 12.879C133.298 12.585 133.928 12.137 134.488 11.535L135.853 12.858C135.181 13.614 134.362 14.188 133.396 14.58C132.444 14.972 131.394 15.168 130.246 15.168ZM145.177 15.168C144.057 15.168 143.014 14.979 142.048 14.601C141.096 14.223 140.27 13.698 139.57 13.026C138.87 12.34 138.324 11.542 137.932 10.632C137.54 9.722 137.344 8.728 137.344 7.65C137.344 6.572 137.54 5.578 137.932 4.668C138.324 3.758 138.87 2.967 139.57 2.295C140.27 1.609 141.096 1.077 142.048 0.698999C143 0.321 144.043 0.132 145.177 0.132C146.297 0.132 147.326 0.321 148.264 0.698999C149.216 1.063 150.042 1.588 150.742 2.274C151.456 2.946 152.002 3.737 152.38 4.647C152.772 5.557 152.968 6.558 152.968 7.65C152.968 8.742 152.772 9.743 152.38 10.653C152.002 11.563 151.456 12.361 150.742 13.047C150.042 13.719 149.216 14.244 148.264 14.622C147.326 14.986 146.297 15.168 145.177 15.168ZM145.177 13.299C145.989 13.299 146.738 13.159 147.424 12.879C148.124 12.599 148.726 12.207 149.23 11.703C149.748 11.185 150.147 10.583 150.427 9.897C150.721 9.211 150.868 8.462 150.868 7.65C150.868 6.838 150.721 6.089 150.427 5.403C150.147 4.717 149.748 4.122 149.23 3.618C148.726 3.1 148.124 2.701 147.424 2.421C146.738 2.141 145.989 2.001 145.177 2.001C144.351 2.001 143.588 2.141 142.888 2.421C142.202 2.701 141.6 3.1 141.082 3.618C140.564 4.122 140.158 4.717 139.864 5.403C139.584 6.089 139.444 6.838 139.444 7.65C139.444 8.462 139.584 9.211 139.864 9.897C140.158 10.583 140.564 11.185 141.082 11.703C141.6 12.207 142.202 12.599 142.888 12.879C143.588 13.159 144.351 13.299 145.177 13.299ZM156.178 15V0.299999H161.911C163.199 0.299999 164.298 0.502999 165.208 0.909C166.118 1.315 166.818 1.903 167.308 2.673C167.798 3.443 168.043 4.36 168.043 5.424C168.043 6.488 167.798 7.405 167.308 8.175C166.818 8.931 166.118 9.512 165.208 9.918C164.298 10.324 163.199 10.527 161.911 10.527H157.333L158.278 9.561V15H156.178ZM166.006 15L162.268 9.666H164.515L168.295 15H166.006ZM158.278 9.771L157.333 8.742H161.848C163.192 8.742 164.207 8.455 164.893 7.881C165.593 7.293 165.943 6.474 165.943 5.424C165.943 4.374 165.593 3.562 164.893 2.988C164.207 2.414 163.192 2.127 161.848 2.127H157.333L158.278 1.077V9.771ZM173.346 6.642H180.906V8.427H173.346V6.642ZM173.535 13.173H182.103V15H171.435V0.299999H181.809V2.127H173.535V13.173ZM185.898 15.126C185.506 15.126 185.17 14.993 184.89 14.727C184.61 14.447 184.47 14.097 184.47 13.677C184.47 13.257 184.61 12.914 184.89 12.648C185.17 12.382 185.506 12.249 185.898 12.249C186.276 12.249 186.598 12.382 186.864 12.648C187.144 12.914 187.284 13.257 187.284 13.677C187.284 14.097 187.144 14.447 186.864 14.727C186.598 14.993 186.276 15.126 185.898 15.126ZM196.63 15.168C195.51 15.168 194.474 14.986 193.522 14.622C192.584 14.244 191.765 13.719 191.065 13.047C190.379 12.361 189.84 11.563 189.448 10.653C189.056 9.743 188.86 8.742 188.86 7.65C188.86 6.558 189.056 5.557 189.448 4.647C189.84 3.737 190.386 2.946 191.086 2.274C191.786 1.588 192.605 1.063 193.543 0.698999C194.495 0.321 195.531 0.132 196.651 0.132C197.785 0.132 198.828 0.328 199.78 0.72C200.746 1.098 201.565 1.665 202.237 2.421L200.872 3.744C200.312 3.156 199.682 2.722 198.982 2.442C198.282 2.148 197.533 2.001 196.735 2.001C195.909 2.001 195.139 2.141 194.425 2.421C193.725 2.701 193.116 3.093 192.598 3.597C192.08 4.101 191.674 4.703 191.38 5.403C191.1 6.089 190.96 6.838 190.96 7.65C190.96 8.462 191.1 9.218 191.38 9.918C191.674 10.604 192.08 11.199 192.598 11.703C193.116 12.207 193.725 12.599 194.425 12.879C195.139 13.159 195.909 13.299 196.735 13.299C197.533 13.299 198.282 13.159 198.982 12.879C199.682 12.585 200.312 12.137 200.872 11.535L202.237 12.858C201.565 13.614 200.746 14.188 199.78 14.58C198.828 14.972 197.778 15.168 196.63 15.168ZM211.561 15.168C210.441 15.168 209.398 14.979 208.432 14.601C207.48 14.223 206.654 13.698 205.954 13.026C205.254 12.34 204.708 11.542 204.316 10.632C203.924 9.722 203.728 8.728 203.728 7.65C203.728 6.572 203.924 5.578 204.316 4.668C204.708 3.758 205.254 2.967 205.954 2.295C206.654 1.609 207.48 1.077 208.432 0.698999C209.384 0.321 210.427 0.132 211.561 0.132C212.681 0.132 213.71 0.321 214.648 0.698999C215.6 1.063 216.426 1.588 217.126 2.274C217.84 2.946 218.386 3.737 218.764 4.647C219.156 5.557 219.352 6.558 219.352 7.65C219.352 8.742 219.156 9.743 218.764 10.653C218.386 11.563 217.84 12.361 217.126 13.047C216.426 13.719 215.6 14.244 214.648 14.622C213.71 14.986 212.681 15.168 211.561 15.168ZM211.561 13.299C212.373 13.299 213.122 13.159 213.808 12.879C214.508 12.599 215.11 12.207 215.614 11.703C216.132 11.185 216.531 10.583 216.811 9.897C217.105 9.211 217.252 8.462 217.252 7.65C217.252 6.838 217.105 6.089 216.811 5.403C216.531 4.717 216.132 4.122 215.614 3.618C215.11 3.1 214.508 2.701 213.808 2.421C213.122 2.141 212.373 2.001 211.561 2.001C210.735 2.001 209.972 2.141 209.272 2.421C208.586 2.701 207.984 3.1 207.466 3.618C206.948 4.122 206.542 4.717 206.248 5.403C205.968 6.089 205.828 6.838 205.828 7.65C205.828 8.462 205.968 9.211 206.248 9.897C206.542 10.583 206.948 11.185 207.466 11.703C207.984 12.207 208.586 12.599 209.272 12.879C209.972 13.159 210.735 13.299 211.561 13.299ZM222.561 15V0.299999H224.283L230.877 11.409H229.953L236.463 0.299999H238.185L238.206 15H236.19L236.169 3.471H236.652L230.856 13.215H229.89L224.052 3.471H224.577V15H222.561ZM242.807 15.126C242.415 15.126 242.079 14.993 241.799 14.727C241.519 14.447 241.379 14.097 241.379 13.677C241.379 13.257 241.519 12.914 241.799 12.648C242.079 12.382 242.415 12.249 242.807 12.249C243.185 12.249 243.507 12.382 243.773 12.648C244.053 12.914 244.193 13.257 244.193 13.677C244.193 14.097 244.053 14.447 243.773 14.727C243.507 14.993 243.185 15.126 242.807 15.126ZM250.839 15L244.371 0.299999H246.639L252.582 13.866H251.28L257.265 0.299999H259.365L252.918 15H250.839ZM261.239 15V0.299999H262.961L272.684 12.375H271.781V0.299999H273.881V15H272.159L262.436 2.925H263.339V15H261.239Z" fill="white"/>
</svg>
