<svg width="135" height="158" viewBox="0 0 135 158" fill="none" xmlns="http://www.w3.org/2000/svg">
<path fill-rule="evenodd" clip-rule="evenodd" d="M69 6.25C70.2426 6.25 71.25 5.24264 71.25 4C71.25 2.75736 70.2426 1.75 69 1.75C67.7574 1.75 66.75 2.75736 66.75 4C66.75 5.24264 67.7574 6.25 69 6.25ZM71.7753 6.88058C71.2567 7.38037 70.6034 7.74141 69.8753 7.90395V27.5V27.9955L69.4504 28.2503L59.4505 34.2503L59.4425 34.2551L59.4344 34.2598L42.8048 43.7623C42.9315 44.1521 43 44.568 43 45C43 47.2091 41.2091 49 39 49C36.7909 49 35 47.2091 35 45C35 42.7909 36.7909 41 39 41C40.1475 41 41.1822 41.4832 41.9116 42.2572L57.3137 33.456L51.9744 30.0236L18.8757 49.0067C18.9569 49.3243 19 49.6571 19 50C19 51.9104 17.6608 53.508 15.8699 53.9051C15.8733 53.9363 15.875 53.9679 15.875 54V63C15.875 63.4832 15.4832 63.875 15 63.875C14.5168 63.875 14.125 63.4832 14.125 63V54C14.125 53.9679 14.1267 53.9363 14.1301 53.9051C12.3392 53.508 11 51.9104 11 50C11 47.7909 12.7909 46 15 46C16.2383 46 17.3451 46.5627 18.0788 47.4463L51.5649 28.241C51.8483 28.0785 52.1986 28.0874 52.4734 28.264L59.0162 32.4701L68.1253 27.0046V7.90407C67.3969 7.74159 66.7435 7.3805 66.2247 6.88059L7.96319 40.455C7.98746 40.6332 8 40.8151 8 41C8 42.9086 6.6633 44.505 4.875 44.904V113.096C5.75525 113.292 6.52608 113.779 7.08194 114.45L14.1251 110.488V98.1671L14.0083 98.1007L14.1251 97.895V75.904C12.3367 75.505 11 73.9086 11 72C11 69.7909 12.7909 68 15 68C17.2091 68 19 69.7909 19 72C19 73.9086 17.6633 75.5049 15.8751 75.904V81.4955L33.125 91.4823V62.904C31.3367 62.5049 30 60.9086 30 59C30 56.7909 31.7909 55 34 55C35.0777 55 36.0558 55.4262 36.775 56.1192L65.0616 39.7428L65.0724 39.7614C65.0249 39.5149 65 39.2603 65 39C65 36.7909 66.7909 35 69 35C71.2091 35 73 36.7909 73 39C73 41.2091 71.2091 43 69 43C67.6718 43 66.4948 42.3527 65.7673 41.3563L37.7413 57.5819C37.9085 58.0226 38 58.5006 38 59C38 60.9086 36.6633 62.505 34.875 62.904V93C34.875 93.3128 34.708 93.6018 34.437 93.758C34.1661 93.9142 33.8323 93.9139 33.5616 93.7572L15.8751 83.5176V97.1484L49.8556 116.446C50.577 115.739 51.5648 115.304 52.6543 115.304C54.8634 115.304 56.6543 117.095 56.6543 119.304C56.6543 121.513 54.8634 123.304 52.6543 123.304C50.4452 123.304 48.6543 121.513 48.6543 119.304C48.6543 118.816 48.7416 118.349 48.9014 117.917L28.995 106.612V115.619L69.4342 138.74C69.7067 138.896 69.8749 139.186 69.8749 139.5V147C69.8749 147.483 69.4831 147.875 68.9999 147.875C68.5166 147.875 68.1249 147.483 68.1249 147V140.008L27.6857 116.886C27.4131 116.73 27.245 116.44 27.245 116.127V105.618L15.8751 99.1609V111C15.8751 111.316 15.7046 111.608 15.429 111.763L7.87674 116.011C7.95723 116.327 8 116.659 8 117C8 117.276 7.97199 117.546 7.91867 117.806L66.0904 151.255C66.8197 150.482 67.8535 150 69 150C69.9835 150 70.8841 150.355 71.5807 150.944L123.196 121.241C123.069 120.85 123 120.433 123 120C123 119.165 123.256 118.389 123.694 117.748L101.774 104.882C101.255 105.381 100.603 105.742 99.875 105.904V116C99.875 116.313 99.7083 116.601 99.4377 116.758L78.2247 129.014L84.0018 132.48L109.552 117.248C109.967 117.001 110.504 117.137 110.752 117.552C110.999 117.967 110.863 118.504 110.448 118.752L84.4484 134.252C84.1716 134.417 83.8265 134.416 83.5502 134.25L76.5003 130.02L69.4505 134.25C69.1802 134.412 68.8435 134.417 68.5692 134.261C68.2949 134.106 68.1253 133.815 68.1253 133.5V124.5C68.1253 124.017 68.5171 123.625 69.0003 123.625C69.4836 123.625 69.8753 124.017 69.8753 124.5V131.955L76.0502 128.25L76.0563 128.246L76.0626 128.242L98.125 115.495V105.904C97.3971 105.742 96.7441 105.381 96.2256 104.881L72.9627 118.451C72.9873 118.631 73 118.814 73 119C73 121.209 71.2091 123 69 123C66.7909 123 65 121.209 65 119C65 118.657 65.0433 118.323 65.1246 118.005L36.909 101.746C36.1797 102.518 35.1461 103 34 103C31.7909 103 30 101.209 30 99C30 96.7909 31.7909 95 34 95C36.2091 95 38 96.7909 38 99C38 99.4333 37.9311 99.8506 37.8036 100.241L65.9221 116.445C66.6558 115.562 67.7622 115 69 115C70.3927 115 71.6191 115.712 72.3354 116.791L95.2591 103.419C95.0917 102.978 95 102.5 95 102C95 99.7909 96.7909 98 99 98C101.209 98 103 99.7909 103 102C103 102.5 102.908 102.979 102.741 103.42L125.043 116.511C125.622 116.185 126.289 116 127 116C129.209 116 131 117.791 131 120C131 122.209 129.209 124 127 124C125.854 124 124.82 123.518 124.09 122.745L72.6451 152.35C72.873 152.853 73 153.412 73 154C73 156.209 71.2091 158 69 158C66.7909 158 65 156.209 65 154C65 153.567 65.0688 153.15 65.196 152.76L7.19395 119.408C6.46381 120.375 5.30487 121 4 121C1.79086 121 0 119.209 0 117C0 115.091 1.3367 113.495 3.125 113.096V44.904C1.3367 44.505 0 42.9086 0 41C0 38.7909 1.79086 37 4 37C5.39445 37 6.62224 37.7135 7.33817 38.7954L65.2585 5.41762C65.0914 4.97699 65 4.49917 65 4C65 1.79086 66.7909 0 69 0C71.2091 0 73 1.79086 73 4C73 4.49919 72.9086 4.97702 72.7415 5.41766L124.225 35.1195C124.944 34.4263 125.922 34 127 34C129.209 34 131 35.7909 131 38C131 40.2091 129.209 42 127 42C126.294 42 125.63 41.817 125.054 41.4958L100.461 56.7437C100.186 56.9143 99.8392 56.919 99.5595 56.7558L75.5595 42.7558C75.1421 42.5123 75.0011 41.9765 75.2446 41.5591C75.4881 41.1417 76.0239 41.0007 76.4413 41.2442L99.9867 54.979L114.784 45.8048L106.523 41.0019L98.4436 45.7542L98.0029 46.0135L97.5606 45.7567L82.0606 36.7567C81.791 36.6001 81.625 36.3118 81.625 36V20C81.625 19.5168 82.0168 19.125 82.5 19.125C82.9832 19.125 83.375 19.5168 83.375 20V35.4963L97.9971 43.9865L104.787 39.9927L94.5788 34.0578C93.8825 34.6457 92.9826 35 92 35C89.7909 35 88 33.2091 88 31C88 28.7909 89.7909 27 92 27C94.2091 27 96 28.7909 96 31C96 31.5893 95.8725 32.1489 95.6437 32.6527L116.44 44.7436C116.445 44.7463 116.449 44.749 116.454 44.7517C116.458 44.7546 116.463 44.7575 116.468 44.7605L123.707 40.2719C123.261 39.6266 123 38.8438 123 38C123 37.5008 123.091 37.023 123.258 36.5824L71.7753 6.88058ZM134.875 42.9993C134.875 42.6883 134.709 42.4007 134.441 42.2441C134.172 42.0875 133.84 42.0853 133.569 42.2383L104.569 58.6318C104.295 58.7871 104.125 59.0781 104.125 59.3936V93C104.125 93.4833 104.517 93.875 105 93.875C105.483 93.875 105.875 93.4833 105.875 93V59.9041L133.126 44.4991L133.183 114.481L114.602 103.716L122.498 97.9758C122.725 97.8111 122.859 97.548 122.859 97.268V59.3936C122.859 58.9103 122.467 58.5186 121.984 58.5186C121.5 58.5186 121.109 58.9103 121.109 59.3936V96.8223L113.875 102.081V78.904C115.663 78.505 117 76.9086 117 75C117 72.7909 115.209 71 113 71C110.791 71 109 72.7909 109 75C109 76.9085 110.337 78.5049 112.125 78.904V103.799C112.125 104.111 112.291 104.4 112.561 104.556L133.621 116.757C133.892 116.914 134.226 116.914 134.497 116.758C134.768 116.602 134.935 116.312 134.934 115.999L134.875 42.9993ZM129.25 120C129.25 121.243 128.243 122.25 127 122.25C125.757 122.25 124.75 121.243 124.75 120C124.75 118.757 125.757 117.75 127 117.75C128.243 117.75 129.25 118.757 129.25 120ZM99 104.25C100.243 104.25 101.25 103.243 101.25 102C101.25 100.757 100.243 99.75 99 99.75C97.7574 99.75 96.75 100.757 96.75 102C96.75 103.243 97.7574 104.25 99 104.25ZM52.6543 121.554C53.8969 121.554 54.9043 120.546 54.9043 119.304C54.9043 118.061 53.8969 117.054 52.6543 117.054C51.4117 117.054 50.4043 118.061 50.4043 119.304C50.4043 120.546 51.4117 121.554 52.6543 121.554ZM36.25 99C36.25 100.243 35.2426 101.25 34 101.25C32.7574 101.25 31.75 100.243 31.75 99C31.75 97.7574 32.7574 96.75 34 96.75C35.2426 96.75 36.25 97.7574 36.25 99ZM34 61.25C35.2426 61.25 36.25 60.2426 36.25 59C36.25 57.7574 35.2426 56.75 34 56.75C32.7574 56.75 31.75 57.7574 31.75 59C31.75 60.2426 32.7574 61.25 34 61.25ZM71.25 79C71.25 80.2426 70.2426 81.25 69 81.25C67.7574 81.25 66.75 80.2426 66.75 79C66.75 77.7574 67.7574 76.75 69 76.75C70.2426 76.75 71.25 77.7574 71.25 79ZM73 79C73 81.2091 71.2091 83 69 83C66.7909 83 65 81.2091 65 79C65 78.6562 65.0434 78.3224 65.125 78.004L40.561 63.7569C40.2902 63.5999 40.124 63.3102 40.125 62.9972C40.126 62.6842 40.2941 62.3956 40.5659 62.2403L68.5659 46.2403C68.8331 46.0876 69.1608 46.0865 69.429 46.2374L93.429 59.7374C93.4768 59.7643 93.521 59.7949 93.5617 59.8289C94.2366 59.3091 95.0822 59 96 59C98.2091 59 100 60.7909 100 63C100 64.9086 98.6633 66.505 96.875 66.904V94.5C96.875 94.8133 96.7075 95.1027 96.4358 95.2588C96.1641 95.4148 95.8297 95.4137 95.5591 95.2558L83.5616 88.2572L83.5591 88.2558L74.0616 82.7572C73.6434 82.5151 73.5006 81.9798 73.7428 81.5616C73.9849 81.1434 74.5202 81.0006 74.9384 81.2428L83.125 85.9824V75.5078L76.5659 71.7597L76.5602 71.7564L55.0602 59.2564C54.6424 59.0136 54.5007 58.478 54.7436 58.0602C54.9864 57.6424 55.522 57.5007 55.9398 57.7436L76.125 69.4791V61.0117L68.571 56.7626C68.1498 56.5257 68.0005 55.9922 68.2374 55.571C68.4743 55.1498 69.0078 55.0005 69.429 55.2374L77.429 59.7374C77.7045 59.8923 77.875 60.1839 77.875 60.5V70.4922L84.4341 74.2403C84.7067 74.3961 84.875 74.686 84.875 75V86.9974L95.125 92.9766V66.904C93.3367 66.505 92 64.9086 92 63C92 62.3468 92.1566 61.7302 92.4342 61.1857L69.0034 48.0058L42.7537 63.0056L65.9231 76.4439C66.6569 75.5617 67.7628 75 69 75C71.2091 75 73 76.7909 73 79ZM71.25 39C71.25 40.2426 70.2426 41.25 69 41.25C67.7574 41.25 66.75 40.2426 66.75 39C66.75 37.7574 67.7574 36.75 69 36.75C70.2426 36.75 71.25 37.7574 71.25 39ZM69 121.25C70.2426 121.25 71.25 120.243 71.25 119C71.25 117.757 70.2426 116.75 69 116.75C67.7574 116.75 66.75 117.757 66.75 119C66.75 120.243 67.7574 121.25 69 121.25ZM129.25 38C129.25 39.2426 128.243 40.25 127 40.25C125.757 40.25 124.75 39.2426 124.75 38C124.75 36.7574 125.757 35.75 127 35.75C128.243 35.75 129.25 36.7574 129.25 38ZM4 43.25C5.24264 43.25 6.25 42.2426 6.25 41C6.25 39.7574 5.24264 38.75 4 38.75C2.75736 38.75 1.75 39.7574 1.75 41C1.75 42.2426 2.75736 43.25 4 43.25ZM6.25 117C6.25 118.243 5.24264 119.25 4 119.25C2.75736 119.25 1.75 118.243 1.75 117C1.75 115.757 2.75736 114.75 4 114.75C5.24264 114.75 6.25 115.757 6.25 117ZM69 156.25C70.2426 156.25 71.25 155.243 71.25 154C71.25 152.757 70.2426 151.75 69 151.75C67.7574 151.75 66.75 152.757 66.75 154C66.75 155.243 67.7574 156.25 69 156.25ZM17.25 50C17.25 51.2426 16.2426 52.25 15 52.25C13.7574 52.25 12.75 51.2426 12.75 50C12.75 48.7574 13.7574 47.75 15 47.75C16.2426 47.75 17.25 48.7574 17.25 50ZM17.25 72C17.25 73.2426 16.2426 74.25 15 74.25C13.7574 74.25 12.75 73.2426 12.75 72C12.75 70.7574 13.7574 69.75 15 69.75C16.2426 69.75 17.25 70.7574 17.25 72ZM39 47.25C40.2426 47.25 41.25 46.2426 41.25 45C41.25 43.7574 40.2426 42.75 39 42.75C37.7574 42.75 36.75 43.7574 36.75 45C36.75 46.2426 37.7574 47.25 39 47.25ZM94.25 31C94.25 32.2426 93.2426 33.25 92 33.25C90.7574 33.25 89.75 32.2426 89.75 31C89.75 29.7574 90.7574 28.75 92 28.75C93.2426 28.75 94.25 29.7574 94.25 31ZM96 65.25C97.2426 65.25 98.25 64.2426 98.25 63C98.25 61.7574 97.2426 60.75 96 60.75C94.7574 60.75 93.75 61.7574 93.75 63C93.75 64.2426 94.7574 65.25 96 65.25ZM115.25 75C115.25 76.2426 114.243 77.25 113 77.25C111.757 77.25 110.75 76.2426 110.75 75C110.75 73.7574 111.757 72.75 113 72.75C114.243 72.75 115.25 73.7574 115.25 75Z" fill="url(#paint0_linear_2723_246)"/>
<defs>
<linearGradient id="paint0_linear_2723_246" x1="83.3257" y1="76.7115" x2="87.0366" y2="48.8515" gradientUnits="userSpaceOnUse">
<stop stop-color="#0067E0"/>
<stop offset="0.5" stop-color="#0998EF"/>
<stop offset="1" stop-color="#13CFFF"/>
</linearGradient>
</defs>
<style>
@keyframes gradientAnimation {
  0% {
    stop-color: #0067E0;
  }
  20% {
    stop-color: #0998EF;
  }
  50% {
    stop-color: #13CFFF;
  }
  100% {
    stop-color: #0067E0;
  }
}
stop {
  animation: gradientAnimation 7s ease-in-out infinite;
}
      </style>
</svg>
