<svg width="26" height="25" viewBox="0 0 26 25" fill="none" xmlns="http://www.w3.org/2000/svg">
<path id="Vector" d="M25.4992 18.7173V22.4808C25.5006 22.8302 25.4289 23.176 25.2887 23.4961C25.1484 23.8163 24.9428 24.1036 24.6848 24.3398C24.4268 24.576 24.1223 24.7558 23.7907 24.8678C23.459 24.9797 23.1076 25.0213 22.759 24.9898C18.891 24.5704 15.1755 23.2513 11.9111 21.1385C8.87402 19.2124 6.29908 16.6426 4.36917 13.6115C2.24483 10.3387 0.922802 6.6126 0.510203 2.73494C0.478791 2.38803 0.520101 2.03839 0.631503 1.70828C0.742905 1.37818 0.921957 1.07484 1.15726 0.817582C1.39256 0.560324 1.67896 0.354781 1.99822 0.214042C2.31748 0.0733025 2.6626 0.000449653 3.01162 0.000121627H6.7826C7.39262 -0.00587044 7.98402 0.209722 8.44656 0.606715C8.90909 1.00371 9.21121 1.55501 9.29658 2.15787C9.45575 3.36227 9.75093 4.54484 10.1765 5.68302C10.3456 6.13204 10.3822 6.62003 10.2819 7.08917C10.1817 7.55831 9.94879 7.98893 9.61083 8.33002L8.01445 9.92324C9.80385 13.0639 12.4095 15.6644 15.5564 17.4503L17.1528 15.857C17.4946 15.5197 17.926 15.2873 18.3961 15.1872C18.8662 15.0872 19.3551 15.1237 19.805 15.2925C20.9455 15.7172 22.1304 16.0118 23.3372 16.1707C23.9478 16.2566 24.5054 16.5636 24.9041 17.0331C25.3027 17.5027 25.5145 18.1021 25.4992 18.7173Z" fill="#243C82"/>
</svg>
