<?xml version="1.0" encoding="UTF-8"?>
<!DOCTYPE svg PUBLIC "-//W3C//DTD SVG 1.1//EN" "http://www.w3.org/Graphics/SVG/1.1/DTD/svg11.dtd">
<!-- Creator: CorelDRAW 2021 (64-Bit) -->
<svg xmlns="http://www.w3.org/2000/svg" xml:space="preserve" width="0.51911in" height="0.51911in" version="1.1" style="shape-rendering:geometricPrecision; text-rendering:geometricPrecision; image-rendering:optimizeQuality; fill-rule:evenodd; clip-rule:evenodd"
viewBox="0 0 106.2 106.2"
 xmlns:xlink="http://www.w3.org/1999/xlink"
 xmlns:xodm="http://www.corel.com/coreldraw/odm/2003">
 <defs>
  <style type="text/css">
   <![CDATA[
    .fil4 {fill:#005EE6}
    .fil3 {fill:#0068FF}
    .fil1 {fill:white}
    .fil2 {fill:#0068FF;fill-rule:nonzero}
    .fil0 {fill:#001A33;fill-opacity:0.121569}
   ]]>
  </style>
 </defs>
 <g id="Layer_x0020_1">
  <metadata id="CorelCorpID_0Corel-Layer"/>
  <path class="fil0" d="M105.85 56.42l0 1.55c0,12.93 -1.9,20.48 -5.49,27.19 -3.6,6.71 -8.85,12 -15.55,15.55 -6.71,3.6 -14.26,5.49 -27.19,5.49l-9.37 0c-10.58,0 -17.56,-1.27 -23.42,-3.7l-9.66 -9.95 90.7 -36.13z"/>
  <path class="fil1" d="M16.22 92.9c4.95,0.55 11.14,-0.86 15.53,-3 19.08,10.55 48.91,10.04 66.97,-1.51 0.7,-1.05 1.35,-2.14 1.96,-3.28 3.61,-6.73 5.51,-14.31 5.51,-27.29l0 -9.41c0,-12.98 -1.91,-20.56 -5.51,-27.29 -3.57,-6.73 -8.88,-12 -15.61,-15.61 -6.73,-3.61 -14.31,-5.51 -27.29,-5.51l-9.45 0c-11.05,0 -18.22,1.39 -24.25,4.05 -0.33,0.3 -0.65,0.6 -0.97,0.9 -17.68,17.05 -19.03,54 -4.03,74.07 0.02,0.03 0.03,0.06 0.06,0.09 2.31,3.41 0.08,9.37 -3.41,12.85 -0.57,0.53 -0.36,0.85 0.49,0.93z"/>
  <path class="fil2" d="M43.47 36.23l-20.73 0 0 4.44 14.38 0 -14.18 17.57c-0.44,0.65 -0.77,1.25 -0.77,2.63l0 1.13 19.55 0c0.97,0 1.78,-0.81 1.78,-1.78l0 -2.38 -15.11 0 13.33 -16.73c0.2,-0.24 0.57,-0.69 0.73,-0.89l0.08 -0.12c0.77,-1.13 0.93,-2.1 0.93,-3.27l0 -0.61z"/>
  <path class="fil2" d="M69.85 62.01l2.95 0 0 -25.78 -4.44 0 0 24.28c0,0.81 0.65,1.49 1.49,1.49z"/>
  <path class="fil2" d="M54.66 41.97c-5.58,0 -10.1,4.53 -10.1,10.1 0,5.58 4.53,10.1 10.1,10.1 5.57,0 10.1,-4.53 10.1,-10.1 0.04,-5.57 -4.48,-10.1 -10.1,-10.1zm0 16.04c-3.27,0 -5.94,-2.67 -5.94,-5.94 0,-3.27 2.67,-5.94 5.94,-5.94 3.27,0 5.94,2.67 5.94,5.94 0,3.27 -2.63,5.94 -5.94,5.94z"/>
  <path class="fil2" d="M85.93 41.8c-5.62,0 -10.18,4.57 -10.18,10.18 0,5.62 4.56,10.18 10.18,10.18 5.62,0 10.18,-4.57 10.18,-10.18 0,-5.62 -4.57,-10.18 -10.18,-10.18zm0 16.2c-3.31,0 -5.98,-2.67 -5.98,-5.98 0,-3.31 2.67,-5.98 5.98,-5.98 3.31,0 5.98,2.67 5.98,5.98 0,3.31 -2.67,5.98 -5.98,5.98z"/>
  <path class="fil2" d="M62.42 62l2.38 0 0 -19.47 -4.16 0 0 17.74c0,0.93 0.81,1.74 1.78,1.74z"/>
  <path class="fil3" d="M19.09 79.02c-15,-20.07 -13.65,-57.03 4.03,-74.07 0.1,-0.1 0.2,-0.19 0.3,-0.28 -0.81,0.37 -1.59,0.77 -2.37,1.19 -6.71,3.56 -11.96,8.85 -15.55,15.55 -3.6,6.71 -5.49,14.26 -5.49,27.19l0 9.37c0,12.93 1.9,20.48 5.49,27.19 3.56,6.71 8.85,11.96 15.55,15.55 1.22,0.65 2.47,1.25 3.77,1.79l-9.66 -9.95 0.27 -0.11c0.01,-0.13 0.12,-0.29 0.32,-0.48 3.49,-3.49 5.72,-9.45 3.41,-12.85 -0.02,-0.03 -0.04,-0.06 -0.06,-0.09z"/>
  <path class="fil4" d="M98.2 88.72c-18.11,11.23 -47.54,11.62 -66.44,1.18 -4.39,2.13 -10.58,3.54 -15.53,3 -0.55,-0.05 -0.83,-0.21 -0.8,-0.45l-0.27 0.11 9.66 9.95c5.86,2.43 12.84,3.7 23.42,3.7l9.37 0c12.93,0 20.48,-1.9 27.19,-5.49 5.47,-2.9 9.97,-6.95 13.4,-11.99z"/>
 </g>
</svg>
